<?xml version="1.0" encoding="utf-8"?>
<!-- Generator: Adobe Illustrator 16.0.0, SVG Export Plug-In . SVG Version: 6.00 Build 0)  -->
<!DOCTYPE svg PUBLIC "-//W3C//DTD SVG 1.1//EN" "http://www.w3.org/Graphics/SVG/1.1/DTD/svg11.dtd">
<svg version="1.1" xmlns="http://www.w3.org/2000/svg" xmlns:xlink="http://www.w3.org/1999/xlink" x="0px" y="0px" width="392px"
	 height="346.5px" viewBox="0 0 392 346.5" enable-background="new 0 0 392 346.5" xml:space="preserve">
<g id="Layer_4">
	<g>
		
			<linearGradient id="SVGID_1_" gradientUnits="userSpaceOnUse" x1="-514.2983" y1="-25.2578" x2="133.58" y2="-25.2578" gradientTransform="matrix(0.6467 -3.273430e-002 8.080888e-002 0.6443 314.3709 337.7355)">
			<stop  offset="0" style="stop-color:#000000;stop-opacity:0.8824"/>
			<stop  offset="0.6471" style="stop-color:#000000"/>
			<stop  offset="0.851" style="stop-color:#000000;stop-opacity:0.7804"/>
			<stop  offset="1" style="stop-color:#010101;stop-opacity:0"/>
		</linearGradient>
		<path fill-rule="evenodd" clip-rule="evenodd" fill="url(#SVGID_1_)" d="M375.2,331.2c-1.1,1.3-3,2.6-5.6,4h-76.1l7.6,8.1H3.7
			l30.4-29h244.1l7.6,6.4h78c3.6,1,6.4,2.1,8.5,3.2h9.2c6.2,2.4,8.1,4.8,5.7,7.3H375.2z"/>
	</g>
</g>
<g id="Layer_2">
	<polygon points="238.2,322.3 236.4,317.5 236.4,317.5 230.4,299.5 230.1,299.5 230.1,296.9 230.1,296.1 26.5,296.1 26,296.9 
		26,296.9 26,299.5 23.2,299.5 11,317.3 11,317.5 11,320.9 9.5,320.9 8.4,322.3 8.4,342 238.3,342 238.3,322.3 	"/>
</g>
<g id="Layer_3" display="none">
</g>
<g id="Layer_1">
	<g>
		
			<path fill-rule="evenodd" clip-rule="evenodd" fill="none" stroke="#000000" stroke-width="5" stroke-linecap="round" stroke-miterlimit="3" d="
			M61.7,255.8c3.8,0.6,10,0.7,18.6,0.5"/>
		<g>
			<g>
				<g>
					
						<linearGradient id="SVGID_2_" gradientUnits="userSpaceOnUse" x1="-84.396" y1="-309.9136" x2="-85.4478" y2="-366.7135" gradientTransform="matrix(0.6476 0 0 0.6476 290.5682 346.5275)">
						<stop  offset="0" style="stop-color:#000000;stop-opacity:0.8824"/>
						<stop  offset="0.2196" style="stop-color:#4A5E8A"/>
						<stop  offset="0.4706" style="stop-color:#ACBCD2;stop-opacity:0.9922"/>
						<stop  offset="0.7922" style="stop-color:#07080C;stop-opacity:0.9804"/>
						<stop  offset="0.949" style="stop-color:#B7B7B7"/>
					</linearGradient>
					<path fill-rule="evenodd" clip-rule="evenodd" fill="url(#SVGID_2_)" d="M226.8,112.2h13.9c1.2,0.7,2,1.4,2.3,2.3
						c0.3,0.9,0.7,3.4,1.1,7.5c0.4,4.1,0.4,8.5-0.2,13.2c-0.6,4.6-1.6,7.1-3.1,7.5H227c0.2-0.4,0.4-1.9,0.6-4.4
						c0.2-3,0.3-6.6,0.3-10.8s-0.1-7.8-0.3-10.8C227.4,113.7,227.1,112.2,226.8,112.2z"/>
					
						<linearGradient id="SVGID_3_" gradientUnits="userSpaceOnUse" x1="-96.5757" y1="-322.0142" x2="-101.8817" y2="-368.8159" gradientTransform="matrix(0.6476 0 0 0.6476 290.5682 346.5275)">
						<stop  offset="0" style="stop-color:#000000"/>
						<stop  offset="0.949" style="stop-color:#B7B7B7"/>
					</linearGradient>
					<path fill-rule="evenodd" clip-rule="evenodd" fill="url(#SVGID_3_)" d="M227,142.7c-0.1,0.1-0.1,0.1-0.2,0.1
						c-0.3,0-0.5-1.5-0.7-4.5c-0.2-3-0.3-6.6-0.3-10.8s0.1-7.8,0.3-10.8c0.2-3,0.5-4.5,0.7-4.5s0.5,1.5,0.7,4.5
						c0.2,3,0.3,6.6,0.3,10.8s-0.1,7.8-0.3,10.8C227.4,140.8,227.2,142.3,227,142.7z"/>
				</g>
			</g>
			<g>
				
					<linearGradient id="SVGID_4_" gradientUnits="userSpaceOnUse" x1="-88.2832" y1="-366.436" x2="-82.9698" y2="-309.8873" gradientTransform="matrix(0.6476 0 0 0.6476 290.5682 346.5275)">
					<stop  offset="0" style="stop-color:#000000"/>
					<stop  offset="0.2431" style="stop-color:#F4F7F9;stop-opacity:0.6941"/>
					<stop  offset="0.4706" style="stop-color:#ACBCD2;stop-opacity:0.498"/>
					<stop  offset="0.7922" style="stop-color:#07080C;stop-opacity:0.9804"/>
					<stop  offset="0.949" style="stop-color:#B7B7B7"/>
				</linearGradient>
				<path fill-rule="evenodd" clip-rule="evenodd" fill="url(#SVGID_4_)" d="M226.8,112.2h13.9c1.2,0.7,2,1.4,2.3,2.3
					c0.3,0.9,0.7,3.4,1.1,7.5c0.4,4.1,0.4,8.5-0.2,13.2c-0.6,4.6-1.6,7.1-3.1,7.5H227c0.2-0.4,0.4-1.9,0.6-4.4
					c0.2-3,0.3-6.6,0.3-10.8s-0.1-7.8-0.3-10.8C227.4,113.7,227.1,112.2,226.8,112.2z"/>
			</g>
			<g>
				
					<radialGradient id="SVGID_5_" cx="-97.3999" cy="-338.5059" r="22.6557" gradientTransform="matrix(0.6476 0 0 0.6476 290.5682 346.5275)" gradientUnits="userSpaceOnUse">
					<stop  offset="0" style="stop-color:#FFFFFF"/>
					<stop  offset="1" style="stop-color:#FBFBFB;stop-opacity:0"/>
				</radialGradient>
				<path fill-rule="evenodd" clip-rule="evenodd" fill="url(#SVGID_5_)" d="M227.3,112.4c0.1,0,0.2,0,0.2,0.1
					c0.1,0,0.1,0.1,0.1,0.2c1,6.9,1.1,16.7,0.3,29.3c0,0.1,0,0.2-0.1,0.2c-0.1,0-0.2,0.1-0.2,0.1c-0.1,0-0.2,0-0.2-0.1
					c-0.1-0.1-0.1-0.2-0.1-0.2c0.9-12.6,0.8-22.3-0.3-29.2c0-0.1,0-0.2,0.1-0.3C227.2,112.4,227.2,112.4,227.3,112.4z"/>
			</g>
			<g>
				
					<linearGradient id="SVGID_6_" gradientUnits="userSpaceOnUse" x1="-117.4878" y1="-347.5952" x2="-117.6047" y2="-329.5948" gradientTransform="matrix(0.6476 0 0 0.6476 290.5682 346.5275)">
					<stop  offset="0" style="stop-color:#000000"/>
					<stop  offset="0.2745" style="stop-color:#FFFFFF"/>
					<stop  offset="0.4706" style="stop-color:#C4CEDD"/>
					<stop  offset="0.7922" style="stop-color:#393D44"/>
					<stop  offset="0.949" style="stop-color:#B7B7B7"/>
				</linearGradient>
				<path fill-rule="evenodd" clip-rule="evenodd" fill="url(#SVGID_6_)" d="M202.8,122.6h22.8c0.9,3.3,0.9,6.5,0,9.7h-22.8V122.6z"
					/>
			</g>
			<g>
				
					<linearGradient id="SVGID_7_" gradientUnits="userSpaceOnUse" x1="-300.9233" y1="-432.1748" x2="-263.2232" y2="-432.1748" gradientTransform="matrix(-1.717680e-003 0.6476 -0.6475 -8.633961e-003 -56.9326 306.4041)">
					<stop  offset="0" style="stop-color:#000000"/>
					<stop  offset="0.2745" style="stop-color:#FFFFFF"/>
					<stop  offset="0.4706" style="stop-color:#C4CEDD"/>
					<stop  offset="0.7922" style="stop-color:#07080C"/>
					<stop  offset="0.949" style="stop-color:#B7B7B7"/>
				</linearGradient>
				<path fill-rule="evenodd" clip-rule="evenodd" fill="url(#SVGID_7_)" d="M226.7,119.2c0.3,5.5,0.3,11,0,16.5h-6.7
					c0.5-5.3,0.5-10.8,0-16.5H226.7z"/>
			</g>
			<g>
				
					<radialGradient id="SVGID_8_" cx="-109.2002" cy="-338.2998" r="22.65" gradientTransform="matrix(0.6476 0 0 0.6476 290.5682 346.5275)" gradientUnits="userSpaceOnUse">
					<stop  offset="0" style="stop-color:#404040"/>
					<stop  offset="1" style="stop-color:#FBFBFB;stop-opacity:0"/>
				</radialGradient>
				<path fill-rule="evenodd" clip-rule="evenodd" fill="url(#SVGID_8_)" d="M220.4,119.2c0.1,0,0.2,0,0.2,0.1
					c0.1,0,0.1,0.1,0.1,0.2c0.2,4.4,0.2,9.7,0,15.7c0,0.1,0,0.2-0.1,0.2c-0.1,0-0.1,0.1-0.2,0.1c-0.1,0-0.2,0-0.2-0.1
					c-0.1-0.1-0.1-0.1-0.1-0.2c0.3-6,0.3-11.2,0-15.6c0-0.1,0-0.2,0.1-0.2C220.2,119.3,220.3,119.2,220.4,119.2z"/>
			</g>
		</g>
		<g>
			<g>
				
					<linearGradient id="SVGID_9_" gradientUnits="userSpaceOnUse" x1="65.7002" y1="-154.0498" x2="65.7002" y2="-202.4498" gradientTransform="matrix(0.6476 0 0 0.6476 290.5682 346.5275)">
					<stop  offset="0" style="stop-color:#857985"/>
					<stop  offset="7.843138e-002" style="stop-color:#595B6A"/>
					<stop  offset="0.3922" style="stop-color:#B0BEC8"/>
					<stop  offset="0.7216" style="stop-color:#FFFFFF"/>
					<stop  offset="1" style="stop-color:#7F919E"/>
				</linearGradient>
				<polygon fill-rule="evenodd" clip-rule="evenodd" fill="url(#SVGID_9_)" points="380.5,215.6 380.5,246.6 285.7,246.6 
					285.7,230.7 285.7,215.6 				"/>
				
					<line fill-rule="evenodd" clip-rule="evenodd" fill="none" stroke="#E8EAEC" stroke-linecap="round" stroke-linejoin="round" stroke-miterlimit="3" x1="285.7" y1="230.7" x2="283.8" y2="230.6"/>
			</g>
		</g>
		<g>
			
				<line fill-rule="evenodd" clip-rule="evenodd" fill="none" stroke="#000000" stroke-width="0.5" stroke-linecap="round" stroke-linejoin="round" stroke-miterlimit="3" x1="288.9" y1="227.6" x2="288.9" y2="232"/>
			
				<line fill-rule="evenodd" clip-rule="evenodd" fill="none" stroke="#000000" stroke-width="0.5" stroke-linecap="round" stroke-linejoin="round" stroke-miterlimit="3" x1="291.2" y1="227.6" x2="291.2" y2="230.3"/>
			
				<line fill-rule="evenodd" clip-rule="evenodd" fill="none" stroke="#000000" stroke-width="0.5" stroke-linecap="round" stroke-linejoin="round" stroke-miterlimit="3" x1="376.7" y1="227.6" x2="287" y2="227.6"/>
			
				<line fill-rule="evenodd" clip-rule="evenodd" fill="none" stroke="#000000" stroke-width="0.5" stroke-linecap="round" stroke-linejoin="round" stroke-miterlimit="3" x1="293.6" y1="227.6" x2="293.6" y2="232"/>
			
				<line fill-rule="evenodd" clip-rule="evenodd" fill="none" stroke="#000000" stroke-width="0.5" stroke-linecap="round" stroke-linejoin="round" stroke-miterlimit="3" x1="296" y1="227.6" x2="296" y2="230.3"/>
			
				<line fill-rule="evenodd" clip-rule="evenodd" fill="none" stroke="#000000" stroke-width="0.5" stroke-linecap="round" stroke-linejoin="round" stroke-miterlimit="3" x1="298.3" y1="227.6" x2="298.3" y2="232"/>
			
				<line fill-rule="evenodd" clip-rule="evenodd" fill="none" stroke="#000000" stroke-width="0.5" stroke-linecap="round" stroke-linejoin="round" stroke-miterlimit="3" x1="300.7" y1="227.6" x2="300.7" y2="230.3"/>
			
				<line fill-rule="evenodd" clip-rule="evenodd" fill="none" stroke="#000000" stroke-width="0.5" stroke-linecap="round" stroke-linejoin="round" stroke-miterlimit="3" x1="303.1" y1="227.6" x2="303.1" y2="232"/>
			
				<line fill-rule="evenodd" clip-rule="evenodd" fill="none" stroke="#000000" stroke-width="0.5" stroke-linecap="round" stroke-linejoin="round" stroke-miterlimit="3" x1="305.4" y1="227.6" x2="305.4" y2="230.3"/>
			
				<line fill-rule="evenodd" clip-rule="evenodd" fill="none" stroke="#000000" stroke-width="0.5" stroke-linecap="round" stroke-linejoin="round" stroke-miterlimit="3" x1="307.8" y1="227.6" x2="307.8" y2="232"/>
			
				<line fill-rule="evenodd" clip-rule="evenodd" fill="none" stroke="#000000" stroke-width="0.5" stroke-linecap="round" stroke-linejoin="round" stroke-miterlimit="3" x1="310.1" y1="227.6" x2="310.1" y2="230.3"/>
			
				<line fill-rule="evenodd" clip-rule="evenodd" fill="none" stroke="#000000" stroke-width="0.5" stroke-linecap="round" stroke-linejoin="round" stroke-miterlimit="3" x1="312.5" y1="227.6" x2="312.5" y2="232"/>
			
				<line fill-rule="evenodd" clip-rule="evenodd" fill="none" stroke="#000000" stroke-width="0.5" stroke-linecap="round" stroke-linejoin="round" stroke-miterlimit="3" x1="314.9" y1="227.6" x2="314.9" y2="230.3"/>
			
				<line fill-rule="evenodd" clip-rule="evenodd" fill="none" stroke="#000000" stroke-width="0.5" stroke-linecap="round" stroke-linejoin="round" stroke-miterlimit="3" x1="317.2" y1="227.6" x2="317.2" y2="232"/>
			
				<line fill-rule="evenodd" clip-rule="evenodd" fill="none" stroke="#000000" stroke-width="0.5" stroke-linecap="round" stroke-linejoin="round" stroke-miterlimit="3" x1="319.6" y1="227.6" x2="319.6" y2="230.3"/>
			
				<line fill-rule="evenodd" clip-rule="evenodd" fill="none" stroke="#000000" stroke-width="0.5" stroke-linecap="round" stroke-linejoin="round" stroke-miterlimit="3" x1="322" y1="227.6" x2="322" y2="232"/>
			
				<line fill-rule="evenodd" clip-rule="evenodd" fill="none" stroke="#000000" stroke-width="0.5" stroke-linecap="round" stroke-linejoin="round" stroke-miterlimit="3" x1="324.3" y1="227.6" x2="324.3" y2="230.3"/>
			
				<line fill-rule="evenodd" clip-rule="evenodd" fill="none" stroke="#000000" stroke-width="0.5" stroke-linecap="round" stroke-linejoin="round" stroke-miterlimit="3" x1="326.7" y1="227.6" x2="326.7" y2="232"/>
			
				<line fill-rule="evenodd" clip-rule="evenodd" fill="none" stroke="#000000" stroke-width="0.5" stroke-linecap="round" stroke-linejoin="round" stroke-miterlimit="3" x1="329.1" y1="227.6" x2="329.1" y2="230.3"/>
			
				<line fill-rule="evenodd" clip-rule="evenodd" fill="none" stroke="#000000" stroke-width="0.5" stroke-linecap="round" stroke-linejoin="round" stroke-miterlimit="3" x1="331.4" y1="227.6" x2="331.4" y2="232"/>
			
				<line fill-rule="evenodd" clip-rule="evenodd" fill="none" stroke="#000000" stroke-width="0.5" stroke-linecap="round" stroke-linejoin="round" stroke-miterlimit="3" x1="333.8" y1="227.6" x2="333.8" y2="230.3"/>
			
				<line fill-rule="evenodd" clip-rule="evenodd" fill="none" stroke="#000000" stroke-width="0.5" stroke-linecap="round" stroke-linejoin="round" stroke-miterlimit="3" x1="336.1" y1="227.6" x2="336.1" y2="232"/>
			
				<line fill-rule="evenodd" clip-rule="evenodd" fill="none" stroke="#000000" stroke-width="0.5" stroke-linecap="round" stroke-linejoin="round" stroke-miterlimit="3" x1="338.5" y1="227.6" x2="338.5" y2="230.3"/>
			
				<line fill-rule="evenodd" clip-rule="evenodd" fill="none" stroke="#000000" stroke-width="0.5" stroke-linecap="round" stroke-linejoin="round" stroke-miterlimit="3" x1="340.9" y1="227.6" x2="340.9" y2="232"/>
			
				<line fill-rule="evenodd" clip-rule="evenodd" fill="none" stroke="#000000" stroke-width="0.5" stroke-linecap="round" stroke-linejoin="round" stroke-miterlimit="3" x1="343.2" y1="227.6" x2="343.2" y2="230.3"/>
			
				<line fill-rule="evenodd" clip-rule="evenodd" fill="none" stroke="#000000" stroke-width="0.5" stroke-linecap="round" stroke-linejoin="round" stroke-miterlimit="3" x1="345.6" y1="227.6" x2="345.6" y2="232"/>
			
				<line fill-rule="evenodd" clip-rule="evenodd" fill="none" stroke="#000000" stroke-width="0.5" stroke-linecap="round" stroke-linejoin="round" stroke-miterlimit="3" x1="348" y1="227.6" x2="348" y2="230.3"/>
			
				<line fill-rule="evenodd" clip-rule="evenodd" fill="none" stroke="#000000" stroke-width="0.5" stroke-linecap="round" stroke-linejoin="round" stroke-miterlimit="3" x1="350.3" y1="227.6" x2="350.3" y2="232"/>
			
				<line fill-rule="evenodd" clip-rule="evenodd" fill="none" stroke="#000000" stroke-width="0.5" stroke-linecap="round" stroke-linejoin="round" stroke-miterlimit="3" x1="352.7" y1="227.6" x2="352.7" y2="230.3"/>
			
				<line fill-rule="evenodd" clip-rule="evenodd" fill="none" stroke="#000000" stroke-width="0.5" stroke-linecap="round" stroke-linejoin="round" stroke-miterlimit="3" x1="355.1" y1="227.6" x2="355.1" y2="232"/>
			
				<line fill-rule="evenodd" clip-rule="evenodd" fill="none" stroke="#000000" stroke-width="0.5" stroke-linecap="round" stroke-linejoin="round" stroke-miterlimit="3" x1="357.4" y1="227.6" x2="357.4" y2="230.3"/>
			
				<line fill-rule="evenodd" clip-rule="evenodd" fill="none" stroke="#000000" stroke-width="0.5" stroke-linecap="round" stroke-linejoin="round" stroke-miterlimit="3" x1="359.8" y1="227.6" x2="359.8" y2="232"/>
			
				<line fill-rule="evenodd" clip-rule="evenodd" fill="none" stroke="#000000" stroke-width="0.5" stroke-linecap="round" stroke-linejoin="round" stroke-miterlimit="3" x1="362.1" y1="227.6" x2="362.1" y2="230.3"/>
			
				<line fill-rule="evenodd" clip-rule="evenodd" fill="none" stroke="#000000" stroke-width="0.5" stroke-linecap="round" stroke-linejoin="round" stroke-miterlimit="3" x1="364.5" y1="227.6" x2="364.5" y2="232"/>
			
				<line fill-rule="evenodd" clip-rule="evenodd" fill="none" stroke="#000000" stroke-width="0.5" stroke-linecap="round" stroke-linejoin="round" stroke-miterlimit="3" x1="366.9" y1="227.6" x2="366.9" y2="230.3"/>
			
				<line fill-rule="evenodd" clip-rule="evenodd" fill="none" stroke="#000000" stroke-width="0.5" stroke-linecap="round" stroke-linejoin="round" stroke-miterlimit="3" x1="369.2" y1="227.6" x2="369.2" y2="232"/>
			
				<line fill-rule="evenodd" clip-rule="evenodd" fill="none" stroke="#000000" stroke-width="0.5" stroke-linecap="round" stroke-linejoin="round" stroke-miterlimit="3" x1="371.6" y1="227.6" x2="371.6" y2="230.3"/>
			
				<line fill-rule="evenodd" clip-rule="evenodd" fill="none" stroke="#000000" stroke-width="0.5" stroke-linecap="round" stroke-linejoin="round" stroke-miterlimit="3" x1="374" y1="227.6" x2="374" y2="232"/>
		</g>
		<g>
			<g>
				<path d="M289.9,234.6c0,0.5-0.1,0.8-0.2,1.1c-0.1,0.2-0.4,0.3-0.7,0.3c-0.3,0-0.6-0.1-0.7-0.3c-0.1-0.2-0.2-0.6-0.2-1
					c0-0.5,0.1-0.8,0.2-1c0.1-0.2,0.4-0.3,0.7-0.3c0.3,0,0.6,0.1,0.7,0.3C289.8,233.8,289.9,234.2,289.9,234.6z M289.4,235.5
					c0-0.1,0.1-0.2,0.1-0.3c0-0.1,0-0.3,0-0.5c0-0.2,0-0.3,0-0.5c0-0.1,0-0.2-0.1-0.3c0-0.1-0.1-0.2-0.2-0.2s-0.2-0.1-0.3-0.1
					c-0.1,0-0.2,0-0.3,0.1s-0.1,0.1-0.2,0.2c0,0.1-0.1,0.2-0.1,0.3c0,0.1,0,0.3,0,0.5c0,0.2,0,0.3,0,0.5c0,0.1,0,0.2,0.1,0.3
					c0,0.1,0.1,0.2,0.2,0.2c0.1,0,0.2,0.1,0.3,0.1c0.1,0,0.2,0,0.3-0.1C289.3,235.6,289.4,235.6,289.4,235.5z"/>
			</g>
			<g>
				<path d="M294.4,236H293v-0.3h0.6v-1.8H293v-0.2c0.1,0,0.2,0,0.2,0s0.2,0,0.2-0.1c0.1,0,0.1-0.1,0.1-0.1s0-0.1,0.1-0.2h0.3v2.4
					h0.5V236z"/>
			</g>
			<g>
				<path d="M299.4,236h-1.8v-0.4c0.1-0.1,0.3-0.2,0.4-0.3c0.1-0.1,0.2-0.2,0.4-0.3c0.2-0.2,0.4-0.4,0.5-0.5
					c0.1-0.1,0.1-0.3,0.1-0.4c0-0.1,0-0.2-0.1-0.3s-0.2-0.1-0.4-0.1c-0.1,0-0.2,0-0.4,0.1c-0.1,0-0.3,0.1-0.4,0.2h0v-0.4
					c0.1,0,0.2-0.1,0.3-0.1c0.1,0,0.3-0.1,0.4-0.1c0.3,0,0.5,0.1,0.6,0.2c0.2,0.1,0.2,0.3,0.2,0.5c0,0.1,0,0.2,0,0.3
					c0,0.1-0.1,0.2-0.1,0.2c0,0.1-0.1,0.1-0.2,0.2c-0.1,0.1-0.1,0.2-0.2,0.2c-0.1,0.1-0.3,0.2-0.4,0.4s-0.3,0.2-0.4,0.3h1.4V236z"/>
			</g>
			<g>
				<path d="M303.9,234.7c0.1,0.1,0.1,0.1,0.1,0.2c0,0.1,0.1,0.2,0.1,0.3c0,0.1,0,0.2-0.1,0.3c0,0.1-0.1,0.2-0.2,0.3
					c-0.1,0.1-0.2,0.1-0.3,0.2c-0.1,0-0.3,0.1-0.4,0.1c-0.1,0-0.3,0-0.4-0.1c-0.1,0-0.3-0.1-0.4-0.1v-0.4h0c0.1,0.1,0.2,0.1,0.4,0.2
					s0.3,0.1,0.4,0.1c0.1,0,0.2,0,0.2,0c0.1,0,0.2-0.1,0.2-0.1c0.1-0.1,0.1-0.1,0.1-0.2c0-0.1,0-0.1,0-0.2c0-0.1,0-0.2,0-0.2
					s-0.1-0.1-0.1-0.1s-0.1-0.1-0.2-0.1s-0.2,0-0.2,0h-0.2v-0.3h0.1c0.2,0,0.3,0,0.4-0.1c0.1-0.1,0.2-0.2,0.2-0.3c0-0.1,0-0.1,0-0.2
					c0,0-0.1-0.1-0.1-0.1c-0.1,0-0.1-0.1-0.2-0.1c-0.1,0-0.1,0-0.2,0c-0.1,0-0.2,0-0.4,0.1c-0.1,0-0.2,0.1-0.4,0.2h0v-0.4
					c0.1,0,0.2-0.1,0.3-0.1c0.1,0,0.3-0.1,0.4-0.1c0.1,0,0.2,0,0.3,0c0.1,0,0.2,0.1,0.3,0.1c0.1,0.1,0.2,0.1,0.2,0.2
					s0.1,0.2,0.1,0.3c0,0.1-0.1,0.3-0.2,0.4c-0.1,0.1-0.2,0.2-0.4,0.2v0c0.1,0,0.1,0,0.2,0.1C303.8,234.6,303.8,234.7,303.9,234.7z"
					/>
			</g>
			<g>
				<path d="M308.6,235.2h-0.4v0.7h-0.3v-0.7h-1.3v-0.4l1.3-1.5h0.3v1.6h0.4V235.2z M307.8,234.9v-1.2l-1,1.2H307.8z"/>
			</g>
			<g>
				<path d="M313.4,235.1c0,0.1,0,0.2-0.1,0.4c0,0.1-0.1,0.2-0.2,0.3c-0.1,0.1-0.2,0.1-0.3,0.2s-0.3,0.1-0.4,0.1c-0.1,0-0.3,0-0.4,0
					s-0.2-0.1-0.3-0.1v-0.4h0c0.1,0.1,0.2,0.1,0.3,0.2c0.1,0,0.3,0.1,0.4,0.1c0.1,0,0.2,0,0.2,0c0.1,0,0.1-0.1,0.2-0.1
					c0.1-0.1,0.1-0.1,0.1-0.2c0-0.1,0-0.2,0-0.2c0-0.1,0-0.2,0-0.2c0-0.1-0.1-0.1-0.1-0.2c-0.1,0-0.1-0.1-0.2-0.1s-0.2,0-0.3,0
					c-0.1,0-0.2,0-0.3,0c-0.1,0-0.2,0-0.3,0v-1.4h1.6v0.3h-1.3v0.7c0.1,0,0.1,0,0.2,0c0.1,0,0.1,0,0.1,0c0.1,0,0.3,0,0.4,0
					s0.2,0.1,0.3,0.1c0.1,0.1,0.2,0.2,0.2,0.3C313.4,234.8,313.4,235,313.4,235.1z"/>
			</g>
			<g>
				<path d="M317.6,235.1c0,0.3-0.1,0.5-0.3,0.7s-0.4,0.3-0.7,0.3c-0.1,0-0.3,0-0.4-0.1c-0.1,0-0.2-0.1-0.3-0.2
					c-0.1-0.1-0.2-0.2-0.2-0.4c-0.1-0.2-0.1-0.4-0.1-0.6c0-0.2,0-0.4,0.1-0.6c0.1-0.2,0.1-0.3,0.2-0.5c0.1-0.1,0.2-0.2,0.4-0.3
					c0.2-0.1,0.4-0.1,0.6-0.1c0.1,0,0.1,0,0.2,0s0.1,0,0.1,0v0.3h0c0,0-0.1,0-0.2-0.1c-0.1,0-0.1,0-0.2,0c-0.3,0-0.5,0.1-0.6,0.2
					s-0.2,0.4-0.3,0.6c0.1-0.1,0.2-0.1,0.3-0.1c0.1,0,0.2,0,0.3,0c0.1,0,0.2,0,0.3,0c0.1,0,0.2,0.1,0.3,0.1c0.1,0.1,0.2,0.2,0.2,0.3
					S317.6,235,317.6,235.1z M317.2,235.1c0-0.1,0-0.2,0-0.3c0-0.1-0.1-0.1-0.2-0.2c-0.1,0-0.1-0.1-0.2-0.1c-0.1,0-0.1,0-0.2,0
					c-0.1,0-0.2,0-0.3,0c-0.1,0-0.2,0.1-0.3,0.1c0,0,0,0.1,0,0.1c0,0,0,0.1,0,0.1c0,0.2,0,0.3,0.1,0.4c0,0.1,0.1,0.2,0.2,0.3
					c0.1,0.1,0.1,0.1,0.2,0.1c0.1,0,0.1,0,0.2,0c0.2,0,0.3-0.1,0.4-0.2C317.1,235.5,317.2,235.3,317.2,235.1z"/>
			</g>
			<g>
				<path d="M322.9,233.7l-1.2,2.3h-0.4l1.3-2.3h-1.5v-0.3h1.8V233.7z"/>
			</g>
			<g>
				<path d="M327.8,235.2c0,0.2-0.1,0.4-0.3,0.6s-0.4,0.2-0.7,0.2c-0.3,0-0.5-0.1-0.7-0.2c-0.2-0.1-0.3-0.3-0.3-0.6
					c0-0.1,0-0.3,0.1-0.4c0.1-0.1,0.2-0.2,0.4-0.3v0c-0.1-0.1-0.2-0.2-0.3-0.3c-0.1-0.1-0.1-0.2-0.1-0.3c0-0.2,0.1-0.4,0.2-0.5
					c0.2-0.1,0.4-0.2,0.6-0.2c0.3,0,0.5,0.1,0.6,0.2c0.2,0.1,0.2,0.3,0.2,0.5c0,0.1,0,0.2-0.1,0.4c-0.1,0.1-0.2,0.2-0.3,0.3v0
					c0.2,0.1,0.3,0.2,0.4,0.3S327.8,235.1,327.8,235.2z M327.4,235.3c0-0.1,0-0.2-0.1-0.3c0-0.1-0.1-0.1-0.3-0.2
					c-0.1,0-0.1-0.1-0.2-0.1c-0.1,0-0.2-0.1-0.3-0.1c-0.1,0.1-0.2,0.1-0.3,0.2c-0.1,0.1-0.1,0.2-0.1,0.3c0,0.2,0.1,0.3,0.2,0.4
					c0.1,0.1,0.3,0.2,0.4,0.2c0.2,0,0.3,0,0.4-0.1C327.4,235.5,327.4,235.4,327.4,235.3z M327.4,233.9c0-0.1,0-0.2-0.1-0.3
					c-0.1-0.1-0.2-0.1-0.4-0.1c-0.1,0-0.3,0-0.4,0.1s-0.1,0.2-0.1,0.3c0,0.1,0,0.2,0.1,0.2c0,0.1,0.1,0.1,0.2,0.2c0,0,0.1,0,0.2,0.1
					c0.1,0,0.2,0.1,0.2,0.1c0.1-0.1,0.2-0.2,0.2-0.2C327.3,234.1,327.4,234,327.4,233.9z"/>
			</g>
			<g>
				<path d="M332.6,234.5c0,0.2,0,0.4-0.1,0.6c-0.1,0.2-0.1,0.4-0.2,0.5c-0.1,0.1-0.2,0.2-0.4,0.3c-0.2,0.1-0.4,0.1-0.6,0.1
					c-0.1,0-0.1,0-0.2,0c-0.1,0-0.1,0-0.1,0v-0.3h0c0,0,0.1,0,0.1,0.1c0.1,0,0.1,0,0.2,0c0.3,0,0.5-0.1,0.6-0.2
					c0.1-0.2,0.2-0.4,0.3-0.7c-0.1,0.1-0.2,0.1-0.3,0.1c-0.1,0-0.2,0-0.3,0c-0.1,0-0.2,0-0.3,0c-0.1,0-0.2-0.1-0.3-0.1
					c-0.1-0.1-0.2-0.2-0.2-0.3c-0.1-0.1-0.1-0.2-0.1-0.4c0-0.3,0.1-0.5,0.3-0.7c0.2-0.2,0.4-0.3,0.7-0.3c0.1,0,0.2,0,0.4,0.1
					c0.1,0,0.2,0.1,0.3,0.2c0.1,0.1,0.2,0.2,0.2,0.4S332.6,234.2,332.6,234.5z M332.3,234.4c0-0.2,0-0.3-0.1-0.4
					c0-0.1-0.1-0.2-0.2-0.3c-0.1-0.1-0.1-0.1-0.2-0.1c-0.1,0-0.1,0-0.2,0c-0.2,0-0.3,0.1-0.4,0.2c-0.1,0.1-0.1,0.3-0.1,0.5
					c0,0.1,0,0.2,0,0.3c0,0.1,0.1,0.1,0.2,0.2c0.1,0,0.1,0.1,0.2,0.1c0.1,0,0.1,0,0.2,0c0.1,0,0.2,0,0.3,0c0.1,0,0.2-0.1,0.3-0.1
					C332.2,234.6,332.2,234.5,332.3,234.4C332.3,234.5,332.3,234.4,332.3,234.4z"/>
			</g>
			<g>
				<path d="M336.2,236h-1.4v-0.3h0.6v-1.8h-0.6v-0.2c0.1,0,0.2,0,0.2,0s0.2,0,0.2-0.1c0.1,0,0.1-0.1,0.1-0.1s0-0.1,0.1-0.2h0.3v2.4
					h0.5V236z"/>
				<path d="M338.3,234.6c0,0.5-0.1,0.8-0.2,1.1c-0.1,0.2-0.4,0.3-0.7,0.3c-0.3,0-0.6-0.1-0.7-0.3c-0.1-0.2-0.2-0.6-0.2-1
					c0-0.5,0.1-0.8,0.2-1c0.1-0.2,0.4-0.3,0.7-0.3c0.3,0,0.6,0.1,0.7,0.3C338.2,233.8,338.3,234.2,338.3,234.6z M337.8,235.5
					c0-0.1,0.1-0.2,0.1-0.3c0-0.1,0-0.3,0-0.5c0-0.2,0-0.3,0-0.5c0-0.1,0-0.2-0.1-0.3c0-0.1-0.1-0.2-0.2-0.2s-0.2-0.1-0.3-0.1
					c-0.1,0-0.2,0-0.3,0.1s-0.1,0.1-0.2,0.2c0,0.1-0.1,0.2-0.1,0.3c0,0.1,0,0.3,0,0.5c0,0.2,0,0.3,0,0.5c0,0.1,0,0.2,0.1,0.3
					c0,0.1,0.1,0.2,0.2,0.2c0.1,0,0.2,0.1,0.3,0.1c0.1,0,0.2,0,0.3-0.1C337.7,235.6,337.7,235.6,337.8,235.5z"/>
			</g>
			<g>
				<path d="M341.1,236h-1.4v-0.3h0.6v-1.8h-0.6v-0.2c0.1,0,0.2,0,0.2,0s0.2,0,0.2-0.1c0.1,0,0.1-0.1,0.1-0.1s0-0.1,0.1-0.2h0.3v2.4
					h0.5V236z"/>
				<path d="M343,236h-1.4v-0.3h0.6v-1.8h-0.6v-0.2c0.1,0,0.2,0,0.2,0s0.2,0,0.2-0.1c0.1,0,0.1-0.1,0.1-0.1s0-0.1,0.1-0.2h0.3v2.4
					h0.5V236z"/>
			</g>
			<g>
				<path d="M345.5,236H344v-0.3h0.6v-1.8H344v-0.2c0.1,0,0.2,0,0.2,0s0.2,0,0.2-0.1c0.1,0,0.1-0.1,0.1-0.1s0-0.1,0.1-0.2h0.3v2.4
					h0.5V236z"/>
				<path d="M347.6,236h-1.8v-0.4c0.1-0.1,0.3-0.2,0.4-0.3c0.1-0.1,0.2-0.2,0.4-0.3c0.2-0.2,0.4-0.4,0.5-0.5
					c0.1-0.1,0.1-0.3,0.1-0.4c0-0.1,0-0.2-0.1-0.3s-0.2-0.1-0.4-0.1c-0.1,0-0.2,0-0.4,0.1c-0.1,0-0.3,0.1-0.4,0.2h0v-0.4
					c0.1,0,0.2-0.1,0.3-0.1c0.1,0,0.3-0.1,0.4-0.1c0.3,0,0.5,0.1,0.6,0.2c0.2,0.1,0.2,0.3,0.2,0.5c0,0.1,0,0.2,0,0.3
					c0,0.1-0.1,0.2-0.1,0.2c0,0.1-0.1,0.1-0.2,0.2c-0.1,0.1-0.1,0.2-0.2,0.2c-0.1,0.1-0.3,0.2-0.4,0.4s-0.3,0.2-0.4,0.3h1.4V236z"/>
			</g>
			<g>
				<path d="M350.2,236h-1.4v-0.3h0.6v-1.8h-0.6v-0.2c0.1,0,0.2,0,0.2,0s0.2,0,0.2-0.1c0.1,0,0.1-0.1,0.1-0.1s0-0.1,0.1-0.2h0.3v2.4
					h0.5V236z"/>
				<path d="M352.1,234.7c0.1,0.1,0.1,0.1,0.1,0.2c0,0.1,0.1,0.2,0.1,0.3c0,0.1,0,0.2-0.1,0.3c0,0.1-0.1,0.2-0.2,0.3
					c-0.1,0.1-0.2,0.1-0.3,0.2c-0.1,0-0.3,0.1-0.4,0.1c-0.1,0-0.3,0-0.4-0.1c-0.1,0-0.3-0.1-0.4-0.1v-0.4h0c0.1,0.1,0.2,0.1,0.4,0.2
					s0.3,0.1,0.4,0.1c0.1,0,0.2,0,0.2,0c0.1,0,0.2-0.1,0.2-0.1c0.1-0.1,0.1-0.1,0.1-0.2c0-0.1,0-0.1,0-0.2c0-0.1,0-0.2,0-0.2
					s-0.1-0.1-0.1-0.1s-0.1-0.1-0.2-0.1s-0.2,0-0.2,0h-0.2v-0.3h0.1c0.2,0,0.3,0,0.4-0.1c0.1-0.1,0.2-0.2,0.2-0.3c0-0.1,0-0.1,0-0.2
					c0,0-0.1-0.1-0.1-0.1c-0.1,0-0.1-0.1-0.2-0.1c-0.1,0-0.1,0-0.2,0c-0.1,0-0.2,0-0.4,0.1c-0.1,0-0.2,0.1-0.4,0.2h0v-0.4
					c0.1,0,0.2-0.1,0.3-0.1c0.1,0,0.3-0.1,0.4-0.1c0.1,0,0.2,0,0.3,0c0.1,0,0.2,0.1,0.3,0.1c0.1,0.1,0.2,0.1,0.2,0.2
					s0.1,0.2,0.1,0.3c0,0.1-0.1,0.3-0.2,0.4c-0.1,0.1-0.2,0.2-0.4,0.2v0c0.1,0,0.1,0,0.2,0.1C352,234.6,352,234.7,352.1,234.7z"/>
			</g>
			<g>
				<path d="M355.1,236h-1.4v-0.3h0.6v-1.8h-0.6v-0.2c0.1,0,0.2,0,0.2,0s0.2,0,0.2-0.1c0.1,0,0.1-0.1,0.1-0.1s0-0.1,0.1-0.2h0.3v2.4
					h0.5V236z"/>
				<path d="M357.3,235.2h-0.4v0.7h-0.3v-0.7h-1.3v-0.4l1.3-1.5h0.3v1.6h0.4V235.2z M356.5,234.9v-1.2l-1,1.2H356.5z"/>
			</g>
			<g>
				<path d="M359.5,236h-1.4v-0.3h0.6v-1.8h-0.6v-0.2c0.1,0,0.2,0,0.2,0s0.2,0,0.2-0.1c0.1,0,0.1-0.1,0.1-0.1s0-0.1,0.1-0.2h0.3v2.4
					h0.5V236z"/>
				<path d="M361.6,235.1c0,0.1,0,0.2-0.1,0.4c0,0.1-0.1,0.2-0.2,0.3c-0.1,0.1-0.2,0.1-0.3,0.2s-0.3,0.1-0.4,0.1c-0.1,0-0.3,0-0.4,0
					s-0.2-0.1-0.3-0.1v-0.4h0c0.1,0.1,0.2,0.1,0.3,0.2c0.1,0,0.3,0.1,0.4,0.1c0.1,0,0.2,0,0.2,0c0.1,0,0.1-0.1,0.2-0.1
					c0.1-0.1,0.1-0.1,0.1-0.2c0-0.1,0-0.2,0-0.2c0-0.1,0-0.2,0-0.2c0-0.1-0.1-0.1-0.1-0.2c-0.1,0-0.1-0.1-0.2-0.1s-0.2,0-0.3,0
					c-0.1,0-0.2,0-0.3,0c-0.1,0-0.2,0-0.3,0v-1.4h1.6v0.3h-1.3v0.7c0.1,0,0.1,0,0.2,0c0.1,0,0.1,0,0.1,0c0.1,0,0.3,0,0.4,0
					s0.2,0.1,0.3,0.1c0.1,0.1,0.2,0.2,0.2,0.3C361.6,234.8,361.6,235,361.6,235.1z"/>
			</g>
			<g>
				<path d="M364.4,236H363v-0.3h0.6v-1.8H363v-0.2c0.1,0,0.2,0,0.2,0s0.2,0,0.2-0.1c0.1,0,0.1-0.1,0.1-0.1s0-0.1,0.1-0.2h0.3v2.4
					h0.5V236z"/>
				<path d="M366.5,235.1c0,0.3-0.1,0.5-0.3,0.7s-0.4,0.3-0.7,0.3c-0.1,0-0.3,0-0.4-0.1c-0.1,0-0.2-0.1-0.3-0.2
					c-0.1-0.1-0.2-0.2-0.2-0.4c-0.1-0.2-0.1-0.4-0.1-0.6c0-0.2,0-0.4,0.1-0.6c0.1-0.2,0.1-0.3,0.2-0.5c0.1-0.1,0.2-0.2,0.4-0.3
					c0.2-0.1,0.4-0.1,0.6-0.1c0.1,0,0.1,0,0.2,0s0.1,0,0.1,0v0.3h0c0,0-0.1,0-0.2-0.1c-0.1,0-0.1,0-0.2,0c-0.3,0-0.5,0.1-0.6,0.2
					s-0.2,0.4-0.3,0.6c0.1-0.1,0.2-0.1,0.3-0.1c0.1,0,0.2,0,0.3,0c0.1,0,0.2,0,0.3,0c0.1,0,0.2,0.1,0.3,0.1c0.1,0.1,0.2,0.2,0.2,0.3
					S366.5,235,366.5,235.1z M366.2,235.1c0-0.1,0-0.2,0-0.3c0-0.1-0.1-0.1-0.2-0.2c-0.1,0-0.1-0.1-0.2-0.1c-0.1,0-0.1,0-0.2,0
					c-0.1,0-0.2,0-0.3,0c-0.1,0-0.2,0.1-0.3,0.1c0,0,0,0.1,0,0.1c0,0,0,0.1,0,0.1c0,0.2,0,0.3,0.1,0.4c0,0.1,0.1,0.2,0.2,0.3
					c0.1,0.1,0.1,0.1,0.2,0.1c0.1,0,0.1,0,0.2,0c0.2,0,0.3-0.1,0.4-0.2C366.1,235.5,366.2,235.3,366.2,235.1z"/>
			</g>
			<g>
				<path d="M369.3,236h-1.4v-0.3h0.6v-1.8h-0.6v-0.2c0.1,0,0.2,0,0.2,0s0.2,0,0.2-0.1c0.1,0,0.1-0.1,0.1-0.1s0-0.1,0.1-0.2h0.3v2.4
					h0.5V236z"/>
				<path d="M371.4,233.7l-1.2,2.3h-0.4l1.3-2.3h-1.5v-0.3h1.8V233.7z"/>
			</g>
			<g>
				<path d="M374,236h-1.4v-0.3h0.6v-1.8h-0.6v-0.2c0.1,0,0.2,0,0.2,0s0.2,0,0.2-0.1c0.1,0,0.1-0.1,0.1-0.1s0-0.1,0.1-0.2h0.3v2.4
					h0.5V236z"/>
				<path d="M376.1,235.2c0,0.2-0.1,0.4-0.3,0.6s-0.4,0.2-0.7,0.2c-0.3,0-0.5-0.1-0.7-0.2c-0.2-0.1-0.3-0.3-0.3-0.6
					c0-0.1,0-0.3,0.1-0.4c0.1-0.1,0.2-0.2,0.4-0.3v0c-0.1-0.1-0.2-0.2-0.3-0.3c-0.1-0.1-0.1-0.2-0.1-0.3c0-0.2,0.1-0.4,0.2-0.5
					c0.2-0.1,0.4-0.2,0.6-0.2c0.3,0,0.5,0.1,0.6,0.2c0.2,0.1,0.2,0.3,0.2,0.5c0,0.1,0,0.2-0.1,0.4c-0.1,0.1-0.2,0.2-0.3,0.3v0
					c0.2,0.1,0.3,0.2,0.4,0.3S376.1,235.1,376.1,235.2z M375.8,235.3c0-0.1,0-0.2-0.1-0.3c0-0.1-0.1-0.1-0.3-0.2
					c-0.1,0-0.1-0.1-0.2-0.1c-0.1,0-0.2-0.1-0.3-0.1c-0.1,0.1-0.2,0.1-0.3,0.2c-0.1,0.1-0.1,0.2-0.1,0.3c0,0.2,0.1,0.3,0.2,0.4
					c0.1,0.1,0.3,0.2,0.4,0.2c0.2,0,0.3,0,0.4-0.1C375.7,235.5,375.8,235.4,375.8,235.3z M375.7,233.9c0-0.1,0-0.2-0.1-0.3
					c-0.1-0.1-0.2-0.1-0.4-0.1c-0.1,0-0.3,0-0.4,0.1s-0.1,0.2-0.1,0.3c0,0.1,0,0.2,0.1,0.2c0,0.1,0.1,0.1,0.2,0.2c0,0,0.1,0,0.2,0.1
					c0.1,0,0.2,0.1,0.2,0.1c0.1-0.1,0.2-0.2,0.2-0.2C375.7,234.1,375.7,234,375.7,233.9z"/>
			</g>
		</g>
		<g>
			<g>
				<g>
					
						<linearGradient id="SVGID_10_" gradientUnits="userSpaceOnUse" x1="-408.6001" y1="-77.2002" x2="-93.3994" y2="-77.2002" gradientTransform="matrix(0.6476 0 0 0.6476 290.5682 346.5275)">
						<stop  offset="0" style="stop-color:#404143"/>
						<stop  offset="1" style="stop-color:#000000"/>
					</linearGradient>
					<polygon fill-rule="evenodd" clip-rule="evenodd" fill="url(#SVGID_10_)" points="230.1,296.9 26,296.9 26,296.9 26.5,296.1 
						230.1,296.1 					"/>
					<rect x="26" y="296.9" fill-rule="evenodd" clip-rule="evenodd" width="204.1" height="4.7"/>
				</g>
			</g>
			<g>
				<g>
					<path fill-rule="evenodd" clip-rule="evenodd" d="M236.4,317.5l1.8,4.8H11v-4.8c0.1,0,0.2,0,0.3,0H236
						C236.1,317.5,236.3,317.5,236.4,317.5z"/>
					<linearGradient id="SVGID_11_" gradientUnits="userSpaceOnUse" x1="-5.1646" y1="283.9395" x2="95.9349" y2="303.6674">
						<stop  offset="0" style="stop-color:#404143"/>
						<stop  offset="1" style="stop-color:#000000"/>
					</linearGradient>
					<path fill-rule="evenodd" clip-rule="evenodd" fill="url(#SVGID_11_)" d="M11,317.5v-0.2l12.2-17.8h207.2l6,18l0,0
						c-0.1,0-0.3,0-0.4,0H11.3C11.2,317.5,11.1,317.5,11,317.5z"/>
				</g>
			</g>
			<g>
				<g>
					<linearGradient id="SVGID_12_" gradientUnits="userSpaceOnUse" x1="9.9126" y1="321.5996" x2="237.5876" y2="321.5996">
						<stop  offset="0" style="stop-color:#223344"/>
						<stop  offset="0.3137" style="stop-color:#06080B"/>
						<stop  offset="1" style="stop-color:#000000"/>
					</linearGradient>
					<polygon fill-rule="evenodd" clip-rule="evenodd" fill="url(#SVGID_12_)" points="237.6,322.3 8.4,322.3 9.5,320.9 237.6,321 
											"/>
					<linearGradient id="SVGID_13_" gradientUnits="userSpaceOnUse" x1="-21.3916" y1="335.9639" x2="169.8344" y2="330.9248">
						<stop  offset="0" style="stop-color:#16222E"/>
						<stop  offset="1" style="stop-color:#0A141E"/>
					</linearGradient>
					<polygon fill-rule="evenodd" clip-rule="evenodd" fill="url(#SVGID_13_)" points="8.4,322.3 237.6,322.3 238.3,322.3 
						238.3,342 8.4,342 					"/>
				</g>
			</g>
		</g>
		<g>
			<rect x="67.2" y="315.3" fill-rule="evenodd" clip-rule="evenodd" width="27.6" height="13.7"/>
		</g>
		<g>
			<rect x="210.5" y="315.8" fill-rule="evenodd" clip-rule="evenodd" width="27.6" height="13.7"/>
		</g>
		<g>
			<g>
				<g>
					
						<linearGradient id="SVGID_14_" gradientUnits="userSpaceOnUse" x1="-34.3374" y1="-220.7163" x2="-18.0868" y2="-187.8666" gradientTransform="matrix(0.6476 0 0 0.6476 290.5682 346.5275)">
						<stop  offset="0" style="stop-color:#3F5785"/>
						<stop  offset="1" style="stop-color:#182434"/>
					</linearGradient>
					<polygon fill-rule="evenodd" clip-rule="evenodd" fill="url(#SVGID_14_)" points="264.1,214 287.1,214 287.1,214 287.1,214.1 
						287.8,222.6 264.1,222.6 264.1,214 					"/>
					<path fill-rule="evenodd" clip-rule="evenodd" d="M237.1,259.9v-4.7h22.8v-23.1v-23.8h0.1l4.1,5.7h0l0,8.5v0.3v1.6v0l-0.1,0
						c0,16.9,0,28.7,0.1,35.3H237.1z M218.9,255.2h7.6v4.7h-7.6V255.2z"/>
					
						<linearGradient id="SVGID_15_" gradientUnits="userSpaceOnUse" x1="-14.6431" y1="-194.2505" x2="-36.6576" y2="-221.1136" gradientTransform="matrix(0.6476 0 0 0.6476 290.5682 346.5275)">
						<stop  offset="0" style="stop-color:#3F5785"/>
						<stop  offset="1" style="stop-color:#182434"/>
					</linearGradient>
					<polygon fill-rule="evenodd" clip-rule="evenodd" fill="url(#SVGID_15_)" points="260,208.3 278.2,208.3 287.1,214 264.1,214 
											"/>
					<path fill-rule="evenodd" clip-rule="evenodd" fill="#162334" d="M218.9,259.9h7.6h1.2h9.3h27c-0.1-6.6-0.1-18.4-0.1-35.3
						l0.1,0v0v-1.6v-0.3h23.7c0,0,0,0.1,0,0.1v48h-68.9V259.9z"/>
					<polygon fill-rule="evenodd" clip-rule="evenodd" fill="#172933" points="237.1,255.2 237.1,239.2 236.6,238.6 226.8,238.5 
						226.6,255.2 218.9,255.2 218.9,232.2 259.9,232.2 259.9,255.2 					"/>
					<polygon fill-rule="evenodd" clip-rule="evenodd" fill="#101A25" points="226.6,259.9 226.6,255.2 226.8,238.5 236.6,238.6 
						237.1,239.2 227.8,239.2 227.8,259.9 					"/>
					
						<linearGradient id="SVGID_16_" gradientUnits="userSpaceOnUse" x1="-89.707" y1="-131.8999" x2="-89.8925" y2="-167.6998" gradientTransform="matrix(0.6476 0 0 0.6476 290.5682 346.5275)">
						<stop  offset="0" style="stop-color:#172933"/>
						<stop  offset="1" style="stop-color:#366274"/>
					</linearGradient>
					<polygon fill-rule="evenodd" clip-rule="evenodd" fill="url(#SVGID_16_)" points="237.1,239.2 237.1,255.2 237.1,259.9 
						227.8,259.9 227.8,239.2 					"/>
				</g>
			</g>
			<g>
				
					<linearGradient id="SVGID_17_" gradientUnits="userSpaceOnUse" x1="-76.3901" y1="-191.3726" x2="-76.591" y2="-176.9972" gradientTransform="matrix(0.6476 0 0 0.6476 290.5682 346.5275)">
					<stop  offset="0" style="stop-color:#018786"/>
					<stop  offset="8.627451e-002" style="stop-color:#FCFFFF"/>
					<stop  offset="0.4" style="stop-color:#315E7B"/>
					<stop  offset="0.6353" style="stop-color:#5A4F4B"/>
					<stop  offset="1" style="stop-color:#000000"/>
				</linearGradient>
				<path fill-rule="evenodd" clip-rule="evenodd" fill="url(#SVGID_17_)" d="M262.8,232.2H219v-9.8h43.8
					C263.3,225.4,263.3,228.7,262.8,232.2z"/>
			</g>
			<g>
				
					<radialGradient id="SVGID_18_" cx="45.2397" cy="-204.0498" r="18.7" gradientTransform="matrix(0.6476 0 -1.2951 1.8133 -16.6957 584.3901)" gradientUnits="userSpaceOnUse">
					<stop  offset="0" style="stop-color:#FFFFFF;stop-opacity:0.3176"/>
					<stop  offset="1" style="stop-color:#F9F9F9;stop-opacity:0"/>
				</radialGradient>
				<rect x="263.9" y="214" fill-rule="evenodd" clip-rule="evenodd" fill="url(#SVGID_18_)" width="23.2" height="0.5"/>
			</g>
		</g>
		<g>
			<g>
				<g>
					
						<linearGradient id="SVGID_19_" gradientUnits="userSpaceOnUse" x1="-133.7998" y1="-122.6006" x2="-69.0998" y2="-122.6006" gradientTransform="matrix(0.6476 0 0 0.6476 290.5682 346.5275)">
						<stop  offset="0" style="stop-color:#000000"/>
						<stop  offset="0.4549" style="stop-color:#000000"/>
						<stop  offset="1" style="stop-color:#445D80"/>
					</linearGradient>
					<path fill-rule="evenodd" clip-rule="evenodd" fill="url(#SVGID_19_)" d="M241.2,269.2l-0.5-0.1H67.4h-0.8l2.5-4.1h0.4h8h158.8
						h2.3h0.1h0.3C239.6,266.3,240.4,267.7,241.2,269.2L241.2,269.2L241.2,269.2z"/>
					
						<linearGradient id="SVGID_20_" gradientUnits="userSpaceOnUse" x1="-211.0723" y1="-102.2954" x2="-211.1576" y2="-15.0954" gradientTransform="matrix(0.6476 0 0 0.6476 290.5682 346.5275)">
						<stop  offset="0" style="stop-color:#151920"/>
						<stop  offset="1" style="stop-color:#242E42"/>
					</linearGradient>
					<path fill-rule="evenodd" clip-rule="evenodd" fill="url(#SVGID_20_)" d="M66.6,322v-52.8h0h0.8h173.3l0.5,0.1v59h-30.3V321
						H103.6v0l-8.5,0v7.3H66.6V322z M112.7,291.2h-8H112.7z"/>
					<line fill-rule="evenodd" clip-rule="evenodd" fill="none" x1="240.6" y1="269.2" x2="241.2" y2="269.2"/>
					<line fill-rule="evenodd" clip-rule="evenodd" fill="none" x1="112.7" y1="291.2" x2="104.7" y2="291.2"/>
					<line fill-rule="evenodd" clip-rule="evenodd" fill="none" x1="66.6" y1="322" x2="65" y2="322"/>
					<line fill-rule="evenodd" clip-rule="evenodd" fill="none" x1="67.4" y1="269.2" x2="240.6" y2="269.2"/>
				</g>
			</g>
			<g>
				<polygon fill-rule="evenodd" clip-rule="evenodd" fill="#090F05" points="180.9,303.5 118.8,303.6 118.6,290.7 181.6,290.7 				
					"/>
			</g>
			<g>
				<g>
					<path fill-rule="evenodd" clip-rule="evenodd" fill="#121519" d="M196.3,292.3h-8v20c0,0.1,0,0.2-0.1,0.2
						c-0.1,0.1-0.1,0.1-0.2,0.1s-0.2,0-0.2-0.1l0,0c0-0.1-0.1-0.1-0.1-0.2V292c0-0.1,0-0.1,0.1-0.2l0.1-0.1c0.1,0,0.1-0.1,0.2-0.1
						c0,0,0.1,0,0.1,0c0,0,0.1,0,0.1,0h8c0.1,0,0.1,0,0.2,0.1l0,0c0.1,0.1,0.1,0.1,0.1,0.2c0,0.1,0,0.2-0.1,0.2
						C196.5,292.3,196.4,292.3,196.3,292.3z"/>
					<path fill-rule="evenodd" clip-rule="evenodd" fill="#040809" d="M196.3,312.7v-20.4c0.1,0,0.2,0,0.2-0.1
						c0.1-0.1,0.1-0.1,0.1-0.2c0-0.1,0-0.2-0.1-0.2l0,0h6.8v9.8h-2.1l0,0.3V321h-4.9V312.7z"/>
					<path fill-rule="evenodd" clip-rule="evenodd" fill="#111E26" d="M187.8,291.8L187.8,291.8L187.8,291.8L187.8,291.8z
						 M196.3,292.3v20.4h-8.5v-0.2l0,0c0.1,0.1,0.1,0.1,0.2,0.1s0.2,0,0.2-0.1c0.1-0.1,0.1-0.1,0.1-0.2v-20H196.3z"/>
					
						<linearGradient id="SVGID_21_" gradientUnits="userSpaceOnUse" x1="-128.3125" y1="-73.4497" x2="-131.4489" y2="-43.8509" gradientTransform="matrix(0.6476 0 0 0.6476 290.5682 346.5275)">
						<stop  offset="0" style="stop-color:#131820"/>
						<stop  offset="1" style="stop-color:#1E2635"/>
					</linearGradient>
					<polygon fill-rule="evenodd" clip-rule="evenodd" fill="url(#SVGID_21_)" points="203.3,301.6 211.1,301.6 211.1,321 
						201.3,321 201.3,301.8 201.2,301.6 					"/>
				</g>
			</g>
			<g>
				<g>
					<path fill-rule="evenodd" clip-rule="evenodd" fill="#121519" d="M112.9,291.8H105c0,0-0.1,0-0.1,0c0,0-0.1,0-0.1-0.1
						c-0.1-0.1-0.1-0.1-0.1-0.2c0-0.1,0-0.2,0.1-0.2c0.1-0.1,0.1-0.1,0.2-0.1h8.2c0.1,0,0.2,0,0.2,0.1c0.1,0.1,0.1,0.1,0.1,0.2v0
						c0,0.1,0,0.1-0.1,0.2c-0.1,0.1-0.1,0.1-0.2,0.1H112.9z"/>
					
						<radialGradient id="SVGID_22_" cx="-265.7002" cy="-58.25" r="44.0928" fx="-249.9651" fy="-58.25" gradientTransform="matrix(0.6476 0 0 0.6476 290.5682 346.5275)" gradientUnits="userSpaceOnUse">
						<stop  offset="0" style="stop-color:#242628;stop-opacity:0.3529"/>
						<stop  offset="0.298" style="stop-color:#16181A;stop-opacity:0.7176"/>
						<stop  offset="1" style="stop-color:#0B0D0F"/>
					</radialGradient>
					<path fill-rule="evenodd" clip-rule="evenodd" fill="url(#SVGID_22_)" d="M112.9,312.4v-20.6h0.3c0.1,0,0.2,0,0.2-0.1
						c0.1-0.1,0.1-0.1,0.1-0.2v21.2c0,0.1,0,0.2-0.1,0.2c-0.1,0.1-0.1,0.1-0.2,0.1c-0.1,0-0.2,0-0.2-0.1c-0.1-0.1-0.1-0.1-0.1-0.2
						V312.4z"/>
					
						<radialGradient id="SVGID_23_" cx="-282.2002" cy="-68.5498" r="44.0928" fx="-266.4651" fy="-68.5498" gradientTransform="matrix(0.6476 0 0 0.6476 290.5682 346.5275)" gradientUnits="userSpaceOnUse">
						<stop  offset="0" style="stop-color:#242628;stop-opacity:0.3529"/>
						<stop  offset="0.298" style="stop-color:#16181A;stop-opacity:0.3529"/>
						<stop  offset="1" style="stop-color:#0B0D0F;stop-opacity:0.6314"/>
					</radialGradient>
					<path fill-rule="evenodd" clip-rule="evenodd" fill="url(#SVGID_23_)" d="M113.2,313h-8.3c-0.1,0-0.2,0-0.2-0.1
						c-0.1-0.1-0.1-0.1-0.1-0.2s0-0.2,0.1-0.2c0.1-0.1,0.1-0.1,0.2-0.1h8v0.3c0,0.1,0,0.2,0.1,0.2C113,313,113.1,313,113.2,313z"/>
					
						<linearGradient id="SVGID_24_" gradientUnits="userSpaceOnUse" x1="-279.8643" y1="-80.7671" x2="-281.8367" y2="-45.9669" gradientTransform="matrix(0.6476 0 0 0.6476 290.5682 346.5275)">
						<stop  offset="0" style="stop-color:#131820"/>
						<stop  offset="1" style="stop-color:#1E2635"/>
					</linearGradient>
					<path fill-rule="evenodd" clip-rule="evenodd" fill="url(#SVGID_24_)" d="M104.9,312.4v-20.6c0,0,0.1,0,0.1,0h7.8v20.6H104.9z"
						/>
					<path fill-rule="evenodd" clip-rule="evenodd" fill="#04070C" d="M95.3,320.7v-19.8c0.1,0,0.2,0,0.2-0.1
						c0.1-0.1,0.1-0.1,0.1-0.2c0-0.1,0-0.2-0.1-0.2c-0.1-0.1-0.1-0.1-0.2-0.1v-8.7h9.4c0,0.1,0,0.2,0.1,0.2c0,0,0.1,0,0.1,0.1v20.6
						c-0.1,0-0.2,0-0.2,0.1c-0.1,0.1-0.1,0.1-0.1,0.2s0,0.2,0.1,0.2c0.1,0.1,0.1,0.1,0.2,0.1v8h-9.3c0-0.1,0-0.2-0.1-0.2
						C95.5,320.7,95.4,320.7,95.3,320.7z"/>
					
						<radialGradient id="SVGID_25_" cx="-323.5" cy="-64.0498" r="22.3" fx="-317.291" fy="-64.0498" gradientTransform="matrix(0.6476 0 0 0.7706 290.5682 354.409)" gradientUnits="userSpaceOnUse">
						<stop  offset="0" style="stop-color:#111822"/>
						<stop  offset="1" style="stop-color:#161C25"/>
					</radialGradient>
					<path fill-rule="evenodd" clip-rule="evenodd" fill="url(#SVGID_25_)" d="M95.3,300.8H78.6v19.8h16.8c0.1,0,0.2,0,0.2,0.1
						c0.1,0.1,0.1,0.1,0.1,0.2c0,0.1,0,0.2-0.1,0.2c-0.1,0.1-0.1,0.1-0.2,0.1H78.2c-0.1,0-0.2,0-0.2-0.1c-0.1-0.1-0.1-0.1-0.1-0.2
						v-20.5c0-0.1,0-0.2,0.1-0.2c0.1-0.1,0.1-0.1,0.2-0.1h17.1c0.1,0,0.2,0,0.2,0.1c0.1,0.1,0.1,0.1,0.1,0.2c0,0.1,0,0.2-0.1,0.2
						C95.5,300.8,95.4,300.8,95.3,300.8z"/>
					
						<linearGradient id="SVGID_26_" gradientUnits="userSpaceOnUse" x1="-314.313" y1="-80.2461" x2="-314.5396" y2="-39.0461" gradientTransform="matrix(0.6476 0 0 0.6476 290.5682 346.5275)">
						<stop  offset="0" style="stop-color:#131820"/>
						<stop  offset="1" style="stop-color:#1E2635"/>
					</linearGradient>
					<rect x="78.6" y="300.8" fill-rule="evenodd" clip-rule="evenodd" fill="url(#SVGID_26_)" width="16.8" height="19.8"/>
				</g>
			</g>
			<g>
				
					<radialGradient id="SVGID_27_" cx="-123.75" cy="-58.1499" r="19.75" gradientTransform="matrix(0.6476 0 0 0.6476 290.5682 346.5275)" gradientUnits="userSpaceOnUse">
					<stop  offset="0" style="stop-color:#000000;stop-opacity:0.4627"/>
					<stop  offset="1" style="stop-color:#020202;stop-opacity:0"/>
				</radialGradient>
				<path fill-rule="evenodd" clip-rule="evenodd" fill="url(#SVGID_27_)" d="M201.5,302c-0.1,0-0.2,0-0.2-0.1
					c-0.1-0.1-0.1-0.1-0.1-0.2c0-0.1,0-0.2,0.1-0.2c0.1-0.1,0.1-0.1,0.2-0.1h9.5c0.1,0,0.2,0,0.2,0.1c0.1,0.1,0.1,0.1,0.1,0.2v18.5
					c0,0.1,0,0.2-0.1,0.2c-0.1,0.1-0.1,0.1-0.2,0.1c-0.1,0-0.2,0-0.2-0.1c-0.1-0.1-0.1-0.1-0.1-0.2V302H201.5z"/>
			</g>
			<g>
				<g>
					
						<linearGradient id="SVGID_28_" gradientUnits="userSpaceOnUse" x1="-248.1001" y1="-76.4502" x2="-235.2998" y2="-76.4502" gradientTransform="matrix(0.6476 0 0 0.6476 290.5682 346.5275)">
						<stop  offset="0" style="stop-color:#595959"/>
						<stop  offset="6.666666e-002" style="stop-color:#717171"/>
						<stop  offset="0.149" style="stop-color:#D9D9D9"/>
						<stop  offset="0.251" style="stop-color:#AEAEAE"/>
						<stop  offset="0.3647" style="stop-color:#E4E4E4"/>
						<stop  offset="0.5216" style="stop-color:#DDDDDD"/>
						<stop  offset="0.6588" style="stop-color:#FFFFFF"/>
						<stop  offset="0.7451" style="stop-color:#C8C8C8"/>
						<stop  offset="1" style="stop-color:#626262"/>
					</linearGradient>
					<rect x="130.2" y="290.7" fill-rule="evenodd" clip-rule="evenodd" fill="url(#SVGID_28_)" width="8.3" height="12.7"/>
				</g>
				<g>
					<g>
						<path fill-rule="evenodd" clip-rule="evenodd" fill="#FFFFFF" fill-opacity="0.451" d="M138.5,297.5l-0.3,0.1
							c-2.5,0.3-5.1,0.3-7.7,0l-0.3-0.1l0.1-0.5h0.3c2.6,0.4,5.1,0.4,7.5,0l0.3,0L138.5,297.5z"/>
						<path fill-rule="evenodd" clip-rule="evenodd" fill="#666666" d="M138.5,296.9l-0.3,0.1c-2.5,0.3-5.1,0.3-7.7,0l-0.3-0.1
							l0.1-0.5l0.3,0c2.6,0.4,5.1,0.4,7.5,0l0.3,0L138.5,296.9z"/>
					</g>
				</g>
				<g>
					<g>
						
							<linearGradient id="SVGID_29_" gradientUnits="userSpaceOnUse" x1="-241.3237" y1="-63.5083" x2="-241.2943" y2="-70.0083" gradientTransform="matrix(0.6476 0 0 0.6476 290.5682 346.5275)">
							<stop  offset="0" style="stop-color:#000000"/>
							<stop  offset="1" style="stop-color:#1B222F;stop-opacity:0"/>
						</linearGradient>
						<rect x="130.2" y="300.6" fill-rule="evenodd" clip-rule="evenodd" fill="url(#SVGID_29_)" width="8.3" height="2.8"/>
						
							<linearGradient id="SVGID_30_" gradientUnits="userSpaceOnUse" x1="-27.5986" y1="-251.3789" x2="-21.0384" y2="-251.3789" gradientTransform="matrix(0.1308 0.6342 -0.643 8.844872e-002 -23.8978 332.0485)">
							<stop  offset="0" style="stop-color:#000000"/>
							<stop  offset="1" style="stop-color:#1B222F;stop-opacity:0"/>
						</linearGradient>
						<path fill-rule="evenodd" clip-rule="evenodd" fill="url(#SVGID_30_)" d="M138.5,295.8c-2.6,0.8-5.4,0.8-8.3,0v-5.1h8.3V295.8
							z"/>
					</g>
				</g>
			</g>
			<g>
				<g>
					
						<linearGradient id="SVGID_31_" gradientUnits="userSpaceOnUse" x1="-203.2002" y1="-76.5498" x2="-190.4014" y2="-76.5498" gradientTransform="matrix(0.6476 0 0 0.6476 290.5682 346.5275)">
						<stop  offset="0" style="stop-color:#595959"/>
						<stop  offset="6.666666e-002" style="stop-color:#717171"/>
						<stop  offset="0.149" style="stop-color:#D9D9D9"/>
						<stop  offset="0.251" style="stop-color:#AEAEAE"/>
						<stop  offset="0.3647" style="stop-color:#E4E4E4"/>
						<stop  offset="0.5216" style="stop-color:#DDDDDD"/>
						<stop  offset="0.6588" style="stop-color:#FFFFFF"/>
						<stop  offset="0.7451" style="stop-color:#C8C8C8"/>
						<stop  offset="1" style="stop-color:#626262"/>
					</linearGradient>
					<rect x="159.2" y="290.6" fill-rule="evenodd" clip-rule="evenodd" fill="url(#SVGID_31_)" width="8.3" height="12.7"/>
				</g>
				<g>
					<g>
						<path fill-rule="evenodd" clip-rule="evenodd" fill="#FFFFFF" fill-opacity="0.451" d="M167.6,297.4l-0.3,0.1
							c-2.5,0.3-5.1,0.3-7.7,0l-0.3-0.1l0.1-0.5h0.3c2.6,0.4,5.1,0.4,7.5,0l0.3,0L167.6,297.4z"/>
						<path fill-rule="evenodd" clip-rule="evenodd" fill="#666666" d="M167.6,296.8l-0.3,0.1c-2.5,0.3-5.1,0.3-7.7,0l-0.3-0.1
							l0.1-0.5l0.3,0c2.6,0.4,5.1,0.4,7.5,0l0.3,0L167.6,296.8z"/>
					</g>
				</g>
				<g>
					<g>
						
							<linearGradient id="SVGID_32_" gradientUnits="userSpaceOnUse" x1="-196.4238" y1="-63.6084" x2="-196.3944" y2="-70.1084" gradientTransform="matrix(0.6476 0 0 0.6476 290.5682 346.5275)">
							<stop  offset="0" style="stop-color:#000000"/>
							<stop  offset="1" style="stop-color:#1B222F;stop-opacity:0"/>
						</linearGradient>
						<rect x="159.2" y="300.6" fill-rule="evenodd" clip-rule="evenodd" fill="url(#SVGID_32_)" width="8.3" height="2.8"/>
						
							<linearGradient id="SVGID_33_" gradientUnits="userSpaceOnUse" x1="-21.5654" y1="-295.374" x2="-15.0052" y2="-295.374" gradientTransform="matrix(0.1308 0.6342 -0.643 8.844872e-002 -23.8978 332.0485)">
							<stop  offset="0" style="stop-color:#000000"/>
							<stop  offset="1" style="stop-color:#1B222F;stop-opacity:0"/>
						</linearGradient>
						<path fill-rule="evenodd" clip-rule="evenodd" fill="url(#SVGID_33_)" d="M167.5,295.8c-2.6,0.8-5.4,0.8-8.3,0v-5.1h8.3V295.8
							z"/>
					</g>
				</g>
			</g>
		</g>
		<g>
			<rect x="67.4" y="270.4" fill-rule="evenodd" clip-rule="evenodd" width="144.1" height="13.7"/>
		</g>
		<g>
			<g>
				<rect x="84.5" y="233.8" fill-rule="evenodd" clip-rule="evenodd" width="98.3" height="19.4"/>
			</g>
			<g>
				<g>
					
						<linearGradient id="SVGID_34_" gradientUnits="userSpaceOnUse" x1="-140.7749" y1="-230.1001" x2="-140.7749" y2="-145.5001" gradientTransform="matrix(0.6476 0 0 0.6476 290.5682 346.5275)">
						<stop  offset="0" style="stop-color:#030405"/>
						<stop  offset="0.4431" style="stop-color:#161B27"/>
						<stop  offset="1" style="stop-color:#171D29"/>
						<stop  offset="1" style="stop-color:#161C28"/>
					</linearGradient>
					<polygon fill-rule="evenodd" clip-rule="evenodd" fill="url(#SVGID_34_)" points="224.4,220.3 224.4,253.1 224.4,267.2 
						174.5,267.2 174.5,253.1 174.5,220.5 174.5,220.3 					"/>
					
						<linearGradient id="SVGID_35_" gradientUnits="userSpaceOnUse" x1="-120.9341" y1="-198.5161" x2="-214.5105" y2="-196.4551" gradientTransform="matrix(0.6476 0 0 0.6476 290.5682 346.5275)">
						<stop  offset="0" style="stop-color:#323E58"/>
						<stop  offset="1" style="stop-color:#10131B"/>
						<stop  offset="1" style="stop-color:#161C28"/>
					</linearGradient>
					<polygon fill-rule="evenodd" clip-rule="evenodd" fill="url(#SVGID_35_)" points="174.5,220.5 95.6,220.5 95.6,220.3 
						49.3,220.3 49.3,220.3 49.2,220.3 50.7,218.9 222.9,219 224.4,220.3 174.5,220.3 					"/>
					
						<linearGradient id="SVGID_36_" gradientUnits="userSpaceOnUse" x1="-336.8999" y1="-242.2876" x2="-336.8999" y2="-147.1126" gradientTransform="matrix(0.6476 0 0 0.6476 290.5682 346.5275)">
						<stop  offset="0" style="stop-color:#000000"/>
						<stop  offset="1" style="stop-color:#171D29"/>
						<stop  offset="1" style="stop-color:#161C28"/>
					</linearGradient>
					<polygon fill-rule="evenodd" clip-rule="evenodd" fill="url(#SVGID_36_)" points="95.6,220.5 95.6,253.1 95.6,267.2 
						49.3,267.2 49.3,253.1 49.3,220.4 49.3,220.3 95.6,220.3 					"/>
				</g>
			</g>
			<g>
				<g>
					
						<radialGradient id="SVGID_37_" cx="-217.3999" cy="-168.6001" r="12.0594" gradientTransform="matrix(0.6476 0 0 0.6476 290.5682 346.5275)" gradientUnits="userSpaceOnUse">
						<stop  offset="0" style="stop-color:#FFFFFF;stop-opacity:0.4902"/>
						<stop  offset="1" style="stop-color:#F3F3F3;stop-opacity:0"/>
					</radialGradient>
					<path fill-rule="evenodd" clip-rule="evenodd" fill="url(#SVGID_37_)" d="M158,233.9c0.3-0.1,0.5,0,0.7,0.1
						c0.7,0.4,1,0.9,1,1.5v0c0.3,1.1-0.8,2-3.2,2.9v0c-1.8,0.6-4,1-6.6,1.3c-2.7,0.2-4.9,0.2-6.8-0.1c-2.5-0.4-3.7-1.2-3.7-2.3
						c-0.1-0.6,0.2-1.1,0.8-1.7c0.2-0.2,0.4-0.2,0.7-0.2c0.3,0,0.5,0.1,0.6,0.4c0.2,0.2,0.2,0.4,0.2,0.7c0,0.3-0.1,0.5-0.3,0.6l0,0
						c0.2,0.2,0.9,0.3,2,0.5c1.7,0.3,3.8,0.3,6.3,0.1h0c2.4-0.2,4.5-0.6,6.2-1.2c1.1-0.4,1.7-0.7,1.8-0.8v0
						c-0.2-0.1-0.4-0.3-0.5-0.6c-0.1-0.3,0-0.5,0.1-0.7C157.6,234.1,157.8,233.9,158,233.9z"/>
					
						<radialGradient id="SVGID_38_" cx="-217.2998" cy="-162.1001" r="12.0594" gradientTransform="matrix(0.6476 0 0 0.6476 290.5682 346.5275)" gradientUnits="userSpaceOnUse">
						<stop  offset="0" style="stop-color:#FFFFFF;stop-opacity:0.4902"/>
						<stop  offset="1" style="stop-color:#F3F3F3;stop-opacity:0"/>
					</radialGradient>
					<path fill-rule="evenodd" clip-rule="evenodd" fill="url(#SVGID_38_)" d="M142,240.6c0,0.3-0.1,0.5-0.3,0.6l0,0
						c0.2,0.2,0.9,0.3,2,0.5c1.7,0.3,3.8,0.3,6.3,0.1h0c2.4-0.2,4.5-0.6,6.2-1.2c1.1-0.4,1.7-0.7,1.8-0.8v0
						c-0.2-0.1-0.4-0.3-0.5-0.6c-0.1-0.3,0-0.5,0.1-0.7c0.1-0.2,0.3-0.4,0.6-0.5c0.3-0.1,0.5,0,0.7,0.1c0.7,0.4,1,0.9,1,1.5v0
						c0.3,1.1-0.8,2-3.2,2.9v0c-1.8,0.6-4,1-6.6,1.3c-2.7,0.2-4.9,0.2-6.8-0.1c-2.5-0.4-3.7-1.2-3.7-2.3c-0.1-0.6,0.2-1.1,0.8-1.7
						c0.2-0.2,0.4-0.2,0.7-0.2c0.3,0,0.5,0.1,0.6,0.4C141.9,240.1,142,240.3,142,240.6z"/>
					
						<radialGradient id="SVGID_39_" cx="-217.5" cy="-155.2002" r="12.0594" gradientTransform="matrix(0.6476 0 0 0.6476 290.5682 346.5275)" gradientUnits="userSpaceOnUse">
						<stop  offset="0" style="stop-color:#FFFFFF;stop-opacity:0.4902"/>
						<stop  offset="1" style="stop-color:#F3F3F3;stop-opacity:0"/>
					</radialGradient>
					<path fill-rule="evenodd" clip-rule="evenodd" fill="url(#SVGID_39_)" d="M141,244c0.3,0,0.5,0.1,0.6,0.4
						c0.2,0.2,0.2,0.4,0.2,0.7c0,0.3-0.1,0.5-0.3,0.6l0,0c0.1,0,0.4,0.1,0.8,0.2c0.3,0.1,0.7,0.2,1.2,0.3c1.7,0.3,3.8,0.3,6.3,0.1h0
						c1.1-0.1,2.1-0.2,3-0.4c1.2-0.2,2.2-0.5,3.2-0.8c1.1-0.4,1.7-0.7,1.8-0.8v0c-0.2-0.1-0.4-0.3-0.5-0.6c-0.1-0.3,0-0.5,0.1-0.7
						c0.1-0.2,0.3-0.4,0.6-0.5c0.3-0.1,0.5,0,0.7,0.1c0.7,0.4,1,0.9,1,1.5v0c0.3,1.1-0.8,2-3.2,2.9v0c-1,0.3-2.2,0.6-3.5,0.9
						c-1,0.2-2.1,0.3-3.2,0.4c-2.7,0.2-4.9,0.2-6.8-0.1c-0.6-0.1-1-0.2-1.4-0.3c-1.5-0.5-2.3-1.1-2.2-2c-0.1-0.6,0.2-1.1,0.8-1.7
						C140.5,244.1,140.7,244,141,244z"/>
					
						<radialGradient id="SVGID_40_" cx="-217.2998" cy="-148.2002" r="12.0594" gradientTransform="matrix(0.6476 0 0 0.6476 290.5682 346.5275)" gradientUnits="userSpaceOnUse">
						<stop  offset="0" style="stop-color:#FFFFFF;stop-opacity:0.4902"/>
						<stop  offset="1" style="stop-color:#F3F3F3;stop-opacity:0"/>
					</radialGradient>
					<path fill-rule="evenodd" clip-rule="evenodd" fill="url(#SVGID_40_)" d="M141.7,250.3L141.7,250.3c0.2,0.2,0.8,0.4,1.9,0.6
						c1.7,0.3,3.8,0.3,6.3,0.1h0c2.4-0.2,4.5-0.6,6.2-1.2c1.1-0.4,1.7-0.7,1.8-0.8v0c-0.2-0.1-0.4-0.3-0.5-0.6
						c-0.1-0.3,0-0.5,0.1-0.7c0.1-0.2,0.3-0.4,0.6-0.5c0.3-0.1,0.5,0,0.7,0.1c0.7,0.4,1,0.9,1,1.5v0c0.3,1.1-0.8,2-3.2,2.9v0
						c-1.8,0.6-4,1-6.6,1.3c-2.7,0.2-4.9,0.2-6.8-0.1c-2.5-0.4-3.7-1.2-3.7-2.3c-0.1-0.6,0.2-1.1,0.8-1.7c0.2-0.2,0.4-0.2,0.7-0.2
						c0.3,0,0.5,0.1,0.6,0.4c0.2,0.2,0.2,0.4,0.2,0.7C142,249.9,141.9,250.1,141.7,250.3z"/>
					
						<radialGradient id="SVGID_41_" cx="-270.7998" cy="-168.6001" r="12.0594" gradientTransform="matrix(0.6476 0 0 0.6476 290.5682 346.5275)" gradientUnits="userSpaceOnUse">
						<stop  offset="0" style="stop-color:#FFFFFF;stop-opacity:0.4902"/>
						<stop  offset="1" style="stop-color:#F3F3F3;stop-opacity:0"/>
					</radialGradient>
					<path fill-rule="evenodd" clip-rule="evenodd" fill="url(#SVGID_41_)" d="M123.5,233.9c0.3-0.1,0.5,0,0.7,0.1
						c0.7,0.4,1,0.9,1,1.5v0c0.3,1.1-0.8,2-3.2,2.9v0c-1.8,0.6-4,1-6.6,1.3c-2.7,0.2-4.9,0.2-6.8-0.1c-2.5-0.4-3.7-1.2-3.7-2.3
						c-0.1-0.6,0.2-1.1,0.8-1.7c0.2-0.2,0.4-0.2,0.7-0.2c0.3,0,0.5,0.1,0.6,0.4c0.2,0.2,0.2,0.4,0.2,0.7c0,0.3-0.1,0.5-0.3,0.6l0,0
						c0.2,0.2,0.9,0.3,2,0.5c1.7,0.3,3.8,0.3,6.3,0.1h0c2.4-0.2,4.5-0.6,6.2-1.2c1.1-0.4,1.7-0.7,1.8-0.8v0
						c-0.2-0.1-0.4-0.3-0.5-0.6c-0.1-0.3,0-0.5,0.1-0.7C123,234.1,123.2,233.9,123.5,233.9z"/>
					
						<radialGradient id="SVGID_42_" cx="-270.7002" cy="-162.1001" r="12.0594" gradientTransform="matrix(0.6476 0 0 0.6476 290.5682 346.5275)" gradientUnits="userSpaceOnUse">
						<stop  offset="0" style="stop-color:#FFFFFF;stop-opacity:0.4902"/>
						<stop  offset="1" style="stop-color:#F3F3F3;stop-opacity:0"/>
					</radialGradient>
					<path fill-rule="evenodd" clip-rule="evenodd" fill="url(#SVGID_42_)" d="M115.3,241.9L115.3,241.9c2.4-0.2,4.5-0.6,6.2-1.2
						c1.1-0.4,1.7-0.7,1.8-0.8v0c-0.2-0.1-0.4-0.3-0.5-0.6c-0.1-0.3,0-0.5,0.1-0.7c0.1-0.2,0.3-0.4,0.6-0.5c0.3-0.1,0.5,0,0.7,0.1
						c0.7,0.4,1,0.9,1,1.5v0c0.3,1.1-0.8,2-3.2,2.9v0c-1.8,0.6-4,1-6.6,1.3c-2.7,0.2-4.9,0.2-6.8-0.1c-2.5-0.4-3.7-1.2-3.7-2.3
						c-0.1-0.6,0.2-1.1,0.8-1.7c0.2-0.2,0.4-0.2,0.7-0.2c0.3,0,0.5,0.1,0.6,0.4c0.2,0.2,0.2,0.4,0.2,0.7c0,0.3-0.1,0.5-0.3,0.6l0,0
						c0.2,0.2,0.9,0.3,2,0.5C110.8,242.1,112.9,242.1,115.3,241.9z"/>
					
						<radialGradient id="SVGID_43_" cx="-270.8999" cy="-155.2002" r="12.0594" gradientTransform="matrix(0.6476 0 0 0.6476 290.5682 346.5275)" gradientUnits="userSpaceOnUse">
						<stop  offset="0" style="stop-color:#FFFFFF;stop-opacity:0.4902"/>
						<stop  offset="1" style="stop-color:#F3F3F3;stop-opacity:0"/>
					</radialGradient>
					<path fill-rule="evenodd" clip-rule="evenodd" fill="url(#SVGID_43_)" d="M115.2,246.3L115.2,246.3c1.1-0.1,2.1-0.2,3-0.4
						c1.2-0.2,2.2-0.5,3.2-0.8c1.1-0.4,1.7-0.7,1.8-0.8v0c-0.2-0.1-0.4-0.3-0.5-0.6c-0.1-0.3,0-0.5,0.1-0.7c0.1-0.2,0.3-0.4,0.6-0.5
						c0.3-0.1,0.5,0,0.7,0.1c0.7,0.4,1,0.9,1,1.5v0c0.3,1.1-0.8,2-3.2,2.9v0c-1,0.3-2.2,0.6-3.5,0.9c-1,0.2-2.1,0.3-3.2,0.4
						c-2.7,0.2-4.9,0.2-6.8-0.1c-0.6-0.1-1-0.2-1.4-0.3c-1.5-0.5-2.3-1.1-2.2-2c-0.1-0.6,0.2-1.1,0.8-1.7c0.2-0.2,0.4-0.2,0.7-0.2
						c0.3,0,0.5,0.1,0.6,0.4c0.2,0.2,0.2,0.4,0.2,0.7c0,0.3-0.1,0.5-0.3,0.6l0,0c0.1,0,0.4,0.1,0.8,0.2c0.3,0.1,0.7,0.2,1.2,0.3
						C110.6,246.6,112.7,246.6,115.2,246.3z"/>
					
						<radialGradient id="SVGID_44_" cx="-270.7002" cy="-148.2002" r="12.0594" gradientTransform="matrix(0.6476 0 0 0.6476 290.5682 346.5275)" gradientUnits="userSpaceOnUse">
						<stop  offset="0" style="stop-color:#FFFFFF;stop-opacity:0.4902"/>
						<stop  offset="1" style="stop-color:#F3F3F3;stop-opacity:0"/>
					</radialGradient>
					<path fill-rule="evenodd" clip-rule="evenodd" fill="url(#SVGID_44_)" d="M122.8,248.3c-0.1-0.3,0-0.5,0.1-0.7
						c0.1-0.2,0.3-0.4,0.6-0.5c0.3-0.1,0.5,0,0.7,0.1c0.7,0.4,1,0.9,1,1.5v0c0.3,1.1-0.8,2-3.2,2.9v0c-1.8,0.6-4,1-6.6,1.3
						c-2.7,0.2-4.9,0.2-6.8-0.1c-2.5-0.4-3.7-1.2-3.7-2.3c-0.1-0.6,0.2-1.1,0.8-1.7c0.2-0.2,0.4-0.2,0.7-0.2c0.3,0,0.5,0.1,0.6,0.4
						c0.2,0.2,0.2,0.4,0.2,0.7c0,0.3-0.1,0.5-0.3,0.6l0,0c0.2,0.2,0.9,0.3,2,0.5c1.7,0.3,3.8,0.3,6.3,0.1h0c2.4-0.2,4.5-0.6,6.2-1.2
						c1.1-0.4,1.7-0.7,1.8-0.8v0C123.1,248.7,122.9,248.5,122.8,248.3z"/>
				</g>
			</g>
			<g>
				
					<radialGradient id="SVGID_45_" cx="-245.8999" cy="-167.1001" r="54.8625" gradientTransform="matrix(0.6476 0 0 0.3168 290.5682 291.2521)" gradientUnits="userSpaceOnUse">
					<stop  offset="0" style="stop-color:#121210;stop-opacity:0.5137"/>
					<stop  offset="1" style="stop-color:#000000"/>
				</radialGradient>
				<rect x="101" y="233.8" fill-rule="evenodd" clip-rule="evenodd" fill="url(#SVGID_45_)" width="61.3" height="19.2"/>
			</g>
		</g>
		<g>
			<g>
				<g>
					
						<linearGradient id="SVGID_46_" gradientUnits="userSpaceOnUse" x1="-348.5498" y1="-412.0244" x2="-128.0498" y2="-412.0244" gradientTransform="matrix(0.6476 0 0 0.6476 290.5682 346.5275)">
						<stop  offset="0" style="stop-color:#151921"/>
						<stop  offset="0.2706" style="stop-color:#677EA0"/>
						<stop  offset="0.5216" style="stop-color:#36455A"/>
						<stop  offset="1" style="stop-color:#1C2027"/>
					</linearGradient>
					<polygon fill-rule="evenodd" clip-rule="evenodd" fill="url(#SVGID_46_)" points="207.7,80.7 64.6,80.7 66.8,78.7 206.4,78.7 
											"/>
					
						<linearGradient id="SVGID_47_" gradientUnits="userSpaceOnUse" x1="-298.1528" y1="-401.7134" x2="-240.2797" y2="-310.3872" gradientTransform="matrix(0.6476 0 0 0.6476 290.5682 346.5275)">
						<stop  offset="0" style="stop-color:#121210"/>
						<stop  offset="1" style="stop-color:#171D29"/>
					</linearGradient>
					<polygon fill-rule="evenodd" clip-rule="evenodd" fill="url(#SVGID_47_)" points="207.7,80.7 207.7,214.1 64.6,214.1 64.6,81 
						64.6,80.9 64.6,80.7 					"/>
				</g>
			</g>
			<g>
				
					<radialGradient id="SVGID_48_" cx="-236.75" cy="-408.75" r="135.7125" gradientTransform="matrix(0.6476 0 0 0.1587 290.5682 146.7093)" gradientUnits="userSpaceOnUse">
					<stop  offset="0" style="stop-color:#FFFFFF;stop-opacity:0.7882"/>
					<stop  offset="1" style="stop-color:#FFFFFF;stop-opacity:0"/>
				</radialGradient>
				<rect x="64.7" y="80.7" fill-rule="evenodd" clip-rule="evenodd" fill="url(#SVGID_48_)" width="143.1" height="0.9"/>
			</g>
		</g>
		<g>
			<g>
				
					<linearGradient id="SVGID_49_" gradientUnits="userSpaceOnUse" x1="-259.5503" y1="-426.3125" x2="-213.5005" y2="-426.3125" gradientTransform="matrix(0.6476 0 0 0.6476 290.5682 346.5275)">
					<stop  offset="0" style="stop-color:#2E2816"/>
					<stop  offset="9.803922e-002" style="stop-color:#756D39"/>
					<stop  offset="0.2118" style="stop-color:#675C2F"/>
					<stop  offset="0.2588" style="stop-color:#614F27"/>
					<stop  offset="0.4078" style="stop-color:#554622"/>
					<stop  offset="0.5059" style="stop-color:#45391C"/>
					<stop  offset="0.8039" style="stop-color:#D2C098"/>
					<stop  offset="0.9412" style="stop-color:#352C16"/>
					<stop  offset="1" style="stop-color:#5C3816"/>
				</linearGradient>
				<path fill-rule="evenodd" clip-rule="evenodd" fill="url(#SVGID_49_)" d="M152.3,60.7v19.1c-9.9,0.6-19.9,0.6-29.8,0V60.7H152.3
					z"/>
			</g>
			<g>
				
					<linearGradient id="SVGID_50_" gradientUnits="userSpaceOnUse" x1="-238.9624" y1="-457.7539" x2="-234.6778" y2="-418.1049" gradientTransform="matrix(0.6476 0 0 0.6476 290.5682 346.5275)">
					<stop  offset="0" style="stop-color:#000000;stop-opacity:0.3137"/>
					<stop  offset="0.3804" style="stop-color:#000000;stop-opacity:0.3059"/>
					<stop  offset="1" style="stop-color:#000000;stop-opacity:0"/>
				</linearGradient>
				<path fill-rule="evenodd" clip-rule="evenodd" fill="url(#SVGID_50_)" d="M152.3,62.1l-0.3,3.4c-9.8,2.2-19.7,2.8-29.5,1.8v-5.2
					H152.3z"/>
			</g>
			<g>
				<g>
					
						<linearGradient id="SVGID_51_" gradientUnits="userSpaceOnUse" x1="-270.25" y1="-490.9932" x2="-202.2505" y2="-490.9932" gradientTransform="matrix(0.6476 0 0 0.6476 290.5682 346.5275)">
						<stop  offset="0" style="stop-color:#515151"/>
						<stop  offset="0.2118" style="stop-color:#1C2524"/>
						<stop  offset="0.4784" style="stop-color:#3F4B61"/>
						<stop  offset="0.7137" style="stop-color:#232A36"/>
						<stop  offset="0.8" style="stop-color:#394657"/>
						<stop  offset="0.8863" style="stop-color:#13161D"/>
						<stop  offset="1" style="stop-color:#000000"/>
					</linearGradient>
					<path fill-rule="evenodd" clip-rule="evenodd" fill="url(#SVGID_51_)" d="M159.6,5.4v43.9l-0.2,0.5c-13.9,2.8-28.5,2.8-43.7,0
						c0,0-0.1,0-0.1,0l0.1-44.5V5.3c0.2,0.1,0.4,0.1,0.7,0.2c1,0.2,2.9,0.4,5.6,0.6c4.4,0.3,9.6,0.5,15.8,0.5
						c6.2,0,11.5-0.2,15.8-0.5C156.7,5.9,158.7,5.6,159.6,5.4z"/>
					
						<linearGradient id="SVGID_52_" gradientUnits="userSpaceOnUse" x1="-270.1011" y1="-508.1006" x2="-194.2989" y2="-550.1266" gradientTransform="matrix(0.6476 0 0 0.6476 290.5682 346.5275)">
						<stop  offset="0" style="stop-color:#000000"/>
						<stop  offset="0.1294" style="stop-color:#2C2F34"/>
						<stop  offset="0.2118" style="stop-color:#1C2524"/>
						<stop  offset="0.4784" style="stop-color:#3F4B61"/>
						<stop  offset="0.7137" style="stop-color:#232A36"/>
						<stop  offset="0.8" style="stop-color:#394657"/>
						<stop  offset="0.8863" style="stop-color:#13161D"/>
						<stop  offset="1" style="stop-color:#000000"/>
					</linearGradient>
					<path fill-rule="evenodd" clip-rule="evenodd" fill="url(#SVGID_52_)" d="M115.7,5.3c16.8-1.1,31.5-1.1,43.9,0l0,0.1
						c-0.9,0.3-2.9,0.5-6,0.7c-4.4,0.3-9.7,0.5-15.8,0.5c-6.2,0-11.4-0.2-15.8-0.5c-2.7-0.2-4.6-0.4-5.6-0.6
						C116.1,5.4,115.8,5.3,115.7,5.3z"/>
					
						<linearGradient id="SVGID_53_" gradientUnits="userSpaceOnUse" x1="-270.25" y1="-446.5625" x2="-202.6001" y2="-446.5625" gradientTransform="matrix(0.6476 0 0 0.6476 290.5682 346.5275)">
						<stop  offset="0" style="stop-color:#000000"/>
						<stop  offset="0.1294" style="stop-color:#131517"/>
						<stop  offset="0.2118" style="stop-color:#0B0F0E"/>
						<stop  offset="0.4784" style="stop-color:#11151A"/>
						<stop  offset="0.7137" style="stop-color:#0E1114"/>
						<stop  offset="0.8" style="stop-color:#11151A"/>
						<stop  offset="0.8863" style="stop-color:#13161D"/>
						<stop  offset="1" style="stop-color:#000000"/>
					</linearGradient>
					<path fill-rule="evenodd" clip-rule="evenodd" fill="url(#SVGID_53_)" d="M159.4,49.8l-6,13.5c-10.7,2.1-21.4,2.1-32.1,0
						l-5.7-13l0.1-0.5C130.9,52.6,145.5,52.6,159.4,49.8z"/>
				</g>
			</g>
			<g>
				<g>
					
						<radialGradient id="SVGID_54_" cx="-236.4502" cy="-525.7998" r="31.6" gradientTransform="matrix(0.6476 0 0 0.6476 290.5682 346.5275)" gradientUnits="userSpaceOnUse">
						<stop  offset="0" style="stop-color:#FFFFFF;stop-opacity:0.5255"/>
						<stop  offset="1" style="stop-color:#F9F9F9;stop-opacity:0"/>
					</radialGradient>
					<path fill-rule="evenodd" clip-rule="evenodd" fill="url(#SVGID_54_)" d="M158.4,5.8c0,0.1,0,0.1-0.1,0.2
						c-0.1,0.1-0.1,0.1-0.2,0.1c-14.7,1-28.2,1.1-40.5,0.2c-0.1,0-0.2,0-0.2-0.1c-0.1-0.1-0.1-0.2-0.1-0.2c0-0.1,0-0.2,0.1-0.2
						c0.1-0.1,0.1-0.1,0.2-0.1c12.3,0.9,25.8,0.8,40.4-0.2c0.1,0,0.1,0,0.2,0.1C158.4,5.7,158.4,5.7,158.4,5.8z"/>
					
						<radialGradient id="SVGID_55_" cx="-246.0498" cy="-458.2002" r="31.6" gradientTransform="matrix(0.6476 0 0 0.6476 290.5682 346.5275)" gradientUnits="userSpaceOnUse">
						<stop  offset="0" style="stop-color:#FFFFFF;stop-opacity:0.2235"/>
						<stop  offset="1" style="stop-color:#F9F9F9;stop-opacity:0"/>
					</radialGradient>
					<path fill-rule="evenodd" clip-rule="evenodd" fill="url(#SVGID_55_)" d="M157.6,50.1C157.6,50.1,157.6,50.1,157.6,50.1
						C157.6,50.1,157.6,50.1,157.6,50.1c-14.2,2.3-27.4,2.3-39.7,0.1c0,0,0,0-0.1,0c0,0,0,0,0-0.1c0,0,0,0,0-0.1
						c0,0,3.5,0.2,10.4,0.7c6.9,0.5,13.5,0.5,19.8,0C154.4,50.2,157.6,50,157.6,50.1L157.6,50.1z"/>
				</g>
			</g>
			<g>
				<g>
					<g>
						<path fill-rule="evenodd" clip-rule="evenodd" d="M159.3,19.3C159.3,19.3,159.3,19.3,159.3,19.3L159.3,19.3
							c-16.1,1.7-30.6,1.8-43.6,0.1v-0.9c12,2.1,26.5,2.1,43.5-0.1h0c0,0,0,0,0.1,0V19.3z"/>
						
							<radialGradient id="SVGID_56_" cx="-235.5498" cy="-504.75" r="32.65" gradientTransform="matrix(0.6476 0 0 0.62 290.5682 332.6373)" gradientUnits="userSpaceOnUse">
							<stop  offset="0" style="stop-color:#FFFFFF;stop-opacity:0.7922"/>
							<stop  offset="1" style="stop-color:#F9F9F9;stop-opacity:0"/>
						</radialGradient>
						<path fill-rule="evenodd" clip-rule="evenodd" fill="url(#SVGID_56_)" d="M159.3,19.3v0.2l-0.7,0.6c-16,1.7-30.2,1.7-42.9,0
							v-0.6C128.7,21,143.2,21,159.3,19.3L159.3,19.3C159.3,19.3,159.3,19.3,159.3,19.3z"/>
					</g>
				</g>
				<g>
					
						<linearGradient id="SVGID_57_" gradientUnits="userSpaceOnUse" x1="-269.8501" y1="-514.188" x2="-202.5501" y2="-514.188" gradientTransform="matrix(0.6476 0 0 0.6476 290.5682 346.5275)">
						<stop  offset="0" style="stop-color:#000000;stop-opacity:0.8"/>
						<stop  offset="0.4392" style="stop-color:#000000;stop-opacity:0"/>
						<stop  offset="0.9137" style="stop-color:#000000;stop-opacity:0.5059"/>
						<stop  offset="1" style="stop-color:#000000;stop-opacity:0.6627"/>
					</linearGradient>
					<path fill-rule="evenodd" clip-rule="evenodd" fill="url(#SVGID_57_)" d="M159.3,6.8v11.7c-13.2,2.4-27.7,2.4-43.5,0V6.8
						C130.7,7.9,145.2,7.9,159.3,6.8z"/>
				</g>
			</g>
		</g>
		<g>
			<g>
				<g>
					
						<radialGradient id="SVGID_58_" cx="-271.2998" cy="-372.5498" r="126.0125" gradientTransform="matrix(0.6476 0 0 0.3833 290.5682 248.0743)" gradientUnits="userSpaceOnUse">
						<stop  offset="0" style="stop-color:#FFFFFF;stop-opacity:0.4902"/>
						<stop  offset="1" style="stop-color:#FFFFFF;stop-opacity:0"/>
					</radialGradient>
					<path fill-rule="evenodd" clip-rule="evenodd" fill="url(#SVGID_58_)" d="M209.9,105.2C209.9,105.2,209.9,105.2,209.9,105.2
						C210,105.2,210,105.3,209.9,105.2c0.1,0.1,0.1,0.1,0.1,0.1c0,0,0,0-0.1,0H58.7c0,0,0,0-0.1,0c0,0,0,0,0-0.1c0,0,0,0,0-0.1
						s0,0,0.1,0H209.9z"/>
					
						<radialGradient id="SVGID_59_" cx="-123.6001" cy="-315.9502" r="159.85" gradientTransform="matrix(0.6476 0 0 0.6476 290.5682 346.5275)" gradientUnits="userSpaceOnUse">
						<stop  offset="0" style="stop-color:#000000"/>
						<stop  offset="1" style="stop-color:#070707;stop-opacity:0"/>
					</radialGradient>
					<path fill-rule="evenodd" clip-rule="evenodd" fill="url(#SVGID_59_)" d="M210.6,236C210.6,235.9,210.6,235.9,210.6,236
						C210.6,235.9,210.6,235.9,210.6,236c-0.1-0.1-0.1-0.1-0.2-0.1V108.5c0,0,0,0,0-0.1c0,0,0,0,0.1,0c0,0,0,0,0.1,0s0,0,0,0.1V236z
						"/>
					
						<radialGradient id="SVGID_60_" cx="-123.6001" cy="-267.9502" r="159.85" gradientTransform="matrix(0.6476 0 0 0.6476 290.5682 346.5275)" gradientUnits="userSpaceOnUse">
						<stop  offset="0" style="stop-color:#000000"/>
						<stop  offset="1" style="stop-color:#070707;stop-opacity:0"/>
					</radialGradient>
					<path fill-rule="evenodd" clip-rule="evenodd" fill="url(#SVGID_60_)" d="M210.6,236v0.5c0,0,0,0,0,0.1s0,0-0.1,0s0,0-0.1,0
						c0,0,0,0,0-0.1V236c0,0,0,0,0-0.1C210.5,235.9,210.5,235.9,210.6,236C210.6,235.9,210.6,235.9,210.6,236
						C210.6,235.9,210.6,235.9,210.6,236z"/>
					
						<radialGradient id="SVGID_61_" cx="-253.75" cy="-167.3501" r="126.0125" gradientTransform="matrix(0.6476 0 0 0.3833 290.5682 302.3021)" gradientUnits="userSpaceOnUse">
						<stop  offset="0" style="stop-color:#FFFFFF;stop-opacity:0.2902"/>
						<stop  offset="1" style="stop-color:#FFFFFF;stop-opacity:0"/>
					</radialGradient>
					<path fill-rule="evenodd" clip-rule="evenodd" fill="url(#SVGID_61_)" d="M208.7,237.2C208.7,237.2,208.7,237.2,208.7,237.2
						C208.6,237.3,208.6,237.3,208.7,237.2l-151.3,0.1c0,0,0,0-0.1,0s0,0,0-0.1c0,0,0,0,0-0.1s0,0,0.1,0L208.7,237.2
						C208.6,237.1,208.6,237.1,208.7,237.2C208.7,237.1,208.7,237.2,208.7,237.2z"/>
				</g>
				<g>
					<rect x="57.8" y="226.1" fill-rule="evenodd" clip-rule="evenodd" width="153.5" height="13.7"/>
				</g>
				<g>
					<g>
						
							<linearGradient id="SVGID_62_" gradientUnits="userSpaceOnUse" x1="-314.7456" y1="-507.6396" x2="-204.614" y2="-153.7167" gradientTransform="matrix(0.6476 0 0 0.6476 290.5682 346.5275)">
							<stop  offset="0" style="stop-color:#10141B"/>
							<stop  offset="1" style="stop-color:#2C364B"/>
						</linearGradient>
						<polygon fill-rule="evenodd" clip-rule="evenodd" fill="url(#SVGID_62_)" points="57.8,105.3 211.2,105.3 211.2,105.3 
							211.2,105.3 211.2,237.3 57.8,237.3 						"/>
						
							<linearGradient id="SVGID_63_" gradientUnits="userSpaceOnUse" x1="-359.6001" y1="-373.8003" x2="-122.5503" y2="-373.8003" gradientTransform="matrix(0.6476 0 0 0.6476 290.5682 346.5275)">
							<stop  offset="0" style="stop-color:#151921"/>
							<stop  offset="0.5216" style="stop-color:#36455A"/>
							<stop  offset="1" style="stop-color:#1C2027"/>
						</linearGradient>
						<path fill-rule="evenodd" clip-rule="evenodd" fill="url(#SVGID_63_)" d="M211.2,105.3H57.8l-0.1-0.1l6.6-1.6h142.9
							C208.7,104.1,210,104.7,211.2,105.3z"/>
					</g>
				</g>
			</g>
			<g>
				<g>
					<g>
						<path fill-rule="evenodd" clip-rule="evenodd" fill="#161B21" d="M142.4,110.5c9.9,1.3,18.5,5.7,25.9,13.1
							c4.2,4.2,7.4,8.8,9.7,13.8c2.6,5.8,3.9,12.1,3.9,18.9s-1.3,13.1-3.9,18.9c-2.2,5-5.5,9.6-9.7,13.8c-1.9,1.9-3.8,3.6-5.9,5.1
							c-7.8,5.7-16.8,8.5-26.9,8.5c-12.8,0-23.7-4.5-32.7-13.6c-9-9-13.6-20-13.6-32.7c0-12.8,4.5-23.7,13.6-32.8
							c0.5-0.5,1-1,1.5-1.4c6.5-6,13.9-9.8,22.3-11.4l8.6-0.7c0.1,0,0.2,0,0.3,0c0.9,0,1.9,0,2.8,0.1L142.4,110.5z"/>
						
							<path fill-rule="evenodd" clip-rule="evenodd" fill="none" stroke="#000000" stroke-linecap="round" stroke-linejoin="round" stroke-miterlimit="3" d="
							M142.4,110.5c9.9,1.3,18.5,5.7,25.9,13.1c4.2,4.2,7.4,8.8,9.7,13.8c2.6,5.8,3.9,12.1,3.9,18.9s-1.3,13.1-3.9,18.9
							c-2.2,5-5.5,9.6-9.7,13.8c-1.9,1.9-3.8,3.6-5.9,5.1c-7.8,5.7-16.8,8.5-26.9,8.5c-12.8,0-23.7-4.5-32.7-13.6
							c-9-9-13.6-20-13.6-32.7c0-12.8,4.5-23.7,13.6-32.8c0.5-0.5,1-1,1.5-1.4c6.5-6,13.9-9.8,22.3-11.4l8.6-0.7c0.1,0,0.2,0,0.3,0
							c0.9,0,1.9,0,2.8,0.1L142.4,110.5z"/>
					</g>
				</g>
				<g>
					
						<linearGradient id="SVGID_64_" gradientUnits="userSpaceOnUse" x1="-239.8867" y1="-210.0498" x2="-239.0641" y2="-377.2498" gradientTransform="matrix(0.6476 0 0 0.6476 290.5682 346.5275)">
						<stop  offset="0" style="stop-color:#080808;stop-opacity:0.298"/>
						<stop  offset="0.502" style="stop-color:#040404;stop-opacity:0"/>
						<stop  offset="1" style="stop-color:#000000;stop-opacity:0.2627"/>
					</linearGradient>
					<path fill-rule="evenodd" clip-rule="evenodd" fill="url(#SVGID_64_)" d="M176.8,156.4c0,11.4-4,21.1-12.1,29.2
						c-8.1,8.1-17.8,12.1-29.2,12.1c-11.4,0-21.1-4-29.1-12.1c-8.1-8.1-12.1-17.8-12.1-29.2c0-11.4,4-21.1,12.1-29.2
						c8.1-8.1,17.8-12.1,29.1-12.1c11.4,0,21.1,4,29.2,12.1C172.7,135.3,176.8,145,176.8,156.4z M162.3,183.2
						c7.4-7.4,11.2-16.4,11.2-26.9c0-10.5-3.7-19.4-11.2-26.9c-7.4-7.4-16.4-11.1-26.9-11.1c-10.5,0-19.4,3.7-26.8,11.1
						c-7.4,7.4-11.2,16.4-11.2,26.9c0,10.5,3.7,19.4,11.2,26.9c7.4,7.4,16.4,11.1,26.8,11.1C146,194.4,154.9,190.7,162.3,183.2z"/>
				</g>
				<g>
					<path fill-rule="evenodd" clip-rule="evenodd" fill="#4C261D" d="M135.1,124.3c8.9,0,16.5,3.2,22.8,9.5
						c6.3,6.3,9.5,13.9,9.5,22.8c0,8.9-3.2,16.5-9.5,22.8c-0.3,0.3-0.7,0.7-1,1c-6.1,5.6-13.4,8.4-21.8,8.4
						c-8.9,0-16.5-3.1-22.8-9.4c-4.5-4.5-7.4-9.7-8.7-15.6c0-0.1,0-0.2-0.1-0.2c-0.5-2.2-0.7-4.6-0.7-7c0-8.9,3.1-16.5,9.4-22.8
						c1.3-1.3,2.7-2.5,4.1-3.5C121.8,126.2,128,124.3,135.1,124.3z"/>
				</g>
				<g>
					<g>
						
							<radialGradient id="SVGID_65_" cx="-244.7002" cy="-294.0503" r="68.7075" gradientTransform="matrix(0.6416 8.762576e-002 -0.1286 0.9414 251.3038 454.3817)" gradientUnits="userSpaceOnUse">
							<stop  offset="0" style="stop-color:#FFFFFF"/>
							<stop  offset="1" style="stop-color:#F7F7F7;stop-opacity:0"/>
						</radialGradient>
						<path fill-rule="evenodd" clip-rule="evenodd" fill="url(#SVGID_65_)" d="M104.3,122.3c-0.5,0.4-1,0.9-1.5,1.4
							c-8.9,8.9-13.4,19.7-13.4,32.4s4.5,23.4,13.4,32.4c8.9,8.9,19.7,13.4,32.4,13.4c10,0,18.9-2.8,26.6-8.4c2-1.5,4-3.2,5.8-5
							c8.9-8.9,13.4-19.7,13.4-32.4s-4.5-23.4-13.4-32.4c-8.9-8.9-19.7-13.4-32.4-13.4C123.3,110.3,113,114.3,104.3,122.3z
							 M103.9,121.9L103.9,121.9c8.7-8.1,19.2-12.2,31.3-12.2c12.8,0,23.8,4.5,32.8,13.6c9.1,9.1,13.6,20,13.6,32.8
							c0,12.8-4.5,23.8-13.6,32.8c-1.9,1.9-3.8,3.6-5.9,5.1c-7.8,5.7-16.8,8.5-26.9,8.5c-12.8,0-23.8-4.5-32.8-13.6
							c-9.1-9.1-13.6-20-13.6-32.8c0-12.8,4.5-23.8,13.6-32.8C102.9,122.8,103.4,122.3,103.9,121.9z"/>
						
							<radialGradient id="SVGID_66_" cx="-239.8999" cy="-293.4502" r="31.2125" gradientTransform="matrix(0.6476 0 0 1.8509 290.5682 699.6449)" gradientUnits="userSpaceOnUse">
							<stop  offset="0" style="stop-color:#FFFFFF"/>
							<stop  offset="0.2706" style="stop-color:#FFFFFF;stop-opacity:0.9451"/>
							<stop  offset="1" style="stop-color:#F9F9F9;stop-opacity:0"/>
						</radialGradient>
						<path fill-rule="evenodd" clip-rule="evenodd" fill="url(#SVGID_66_)" d="M116.4,130c5.4-4,11.7-6,18.8-6
							c8.9,0,16.6,3.2,22.9,9.5c6.3,6.3,9.5,14,9.5,22.9c0,9-3.2,16.6-9.5,23c-0.3,0.3-0.7,0.7-1,1c-6.2,5.6-13.5,8.5-21.9,8.5
							c-9,0-16.6-3.2-22.9-9.5c-4.6-4.6-7.5-9.8-8.7-15.7c0-0.1,0-0.2,0-0.2l0,0c-0.5-2.2-0.7-4.6-0.7-7c0-8.9,3.2-16.6,9.5-22.9
							C113.6,132.3,115,131.1,116.4,130z M116.6,130.3c-1.4,1-2.8,2.2-4.1,3.5c-6.3,6.3-9.4,13.8-9.4,22.7c0,2.4,0.2,4.7,0.7,7
							c0,0.1,0,0.1,0.1,0.2c1.3,5.8,4.1,11,8.6,15.5c6.3,6.2,13.8,9.4,22.7,9.4c8.4,0,15.6-2.8,21.7-8.4c0.3-0.3,0.7-0.7,1-1
							c6.3-6.3,9.4-13.9,9.4-22.7c0-8.8-3.1-16.4-9.4-22.7c-6.3-6.3-13.8-9.4-22.7-9.4C128.2,124.4,122,126.4,116.6,130.3z"/>
					</g>
				</g>
				<g>
					<g>
						
							<radialGradient id="SVGID_67_" cx="-242.5" cy="-355.25" r="28.6" gradientTransform="matrix(0.6476 0 0 0.7563 290.5682 385.1371)" gradientUnits="userSpaceOnUse">
							<stop  offset="0" style="stop-color:#FFFFFF"/>
							<stop  offset="0.2706" style="stop-color:#FFFFFF;stop-opacity:0.9451"/>
							<stop  offset="1" style="stop-color:#F9F9F9;stop-opacity:0"/>
						</radialGradient>
						<path fill-rule="evenodd" clip-rule="evenodd" fill="url(#SVGID_67_)" d="M165.9,121.7c0.1,0,0.1,0.1,0.1,0.2
							c0,0.1,0,0.2-0.1,0.2c-0.1,0.1-0.1,0.1-0.2,0.1c-0.1,0-0.2,0-0.2-0.1c-8.5-7.7-18.5-11.6-30.2-11.6c-9.9,0-18.6,2.8-26.1,8.3
							c-1.4,1-2.8,2.1-4.1,3.3c-0.1,0-0.1,0.1-0.2,0.1c-0.1,0-0.2,0-0.2-0.1c-0.1-0.1-0.1-0.1-0.1-0.2c0-0.1,0-0.2,0.1-0.2
							c1.3-1.2,2.7-2.4,4.1-3.4c7.6-5.6,16.5-8.4,26.5-8.4C147.2,109.9,157.4,113.9,165.9,121.7z"/>
						
							<radialGradient id="SVGID_68_" cx="-238.3999" cy="-243.2002" r="11.7625" gradientTransform="matrix(0.6476 0 0 -0.7563 290.5682 5.107)" gradientUnits="userSpaceOnUse">
							<stop  offset="0" style="stop-color:#FFFFFF"/>
							<stop  offset="0.2706" style="stop-color:#FFFFFF;stop-opacity:0.9451"/>
							<stop  offset="1" style="stop-color:#F9F9F9;stop-opacity:0"/>
						</radialGradient>
						<path fill-rule="evenodd" clip-rule="evenodd" fill="url(#SVGID_68_)" d="M123.5,186.2C123.5,186.2,123.5,186.2,123.5,186.2
							C123.6,186.2,123.6,186.2,123.5,186.2c3.8,1.6,7.9,2.4,12.3,2.5c5.3,0,10.1-1.2,14.4-3.6c0,0,0,0,0.1,0l0,0c0,0,0,0,0,0.1
							c0,0,0,0-0.1,0c-4.3,2.4-9.1,3.6-14.5,3.7c-4.5,0-8.6-0.8-12.3-2.5C123.5,186.3,123.5,186.3,123.5,186.2
							C123.5,186.3,123.5,186.2,123.5,186.2z"/>
					</g>
				</g>
				<g>
					<g>
						
							<radialGradient id="SVGID_69_" cx="-185.2998" cy="-319.8501" r="36.55" gradientTransform="matrix(0.6476 0 0 0.6476 290.5682 346.5275)" gradientUnits="userSpaceOnUse">
							<stop  offset="0" style="stop-color:#FFFFFF;stop-opacity:0.2314"/>
							<stop  offset="1" style="stop-color:#F9F9F9;stop-opacity:0"/>
						</radialGradient>
						<path fill-rule="evenodd" clip-rule="evenodd" fill="url(#SVGID_69_)" d="M165.7,121.9C165.7,121.9,165.7,121.9,165.7,121.9
							C165.7,121.9,165.8,121.9,165.7,121.9c0.1-0.1,0.1-0.1,0.1-0.1c5.6,5.4,9.7,11.1,12.2,17.2c3.6,8.7,4,18.1,1.3,28.3
							c0,0,0,0-0.1,0l0,0c0,0,0,0-0.1-0.1s0,0,0,0c2.7-10.1,2.3-19.5-1.3-28.2C175.4,133,171.3,127.3,165.7,121.9
							C165.7,122,165.7,121.9,165.7,121.9z"/>
						
							<radialGradient id="SVGID_70_" cx="-240.1499" cy="-347.8501" r="12.6" gradientTransform="matrix(0.6476 0 0 0.7561 290.5682 384.2937)" gradientUnits="userSpaceOnUse">
							<stop  offset="0" style="stop-color:#FFFFFF;stop-opacity:0.5333"/>
							<stop  offset="1" style="stop-color:#F9F9F9;stop-opacity:0"/>
						</radialGradient>
						<path fill-rule="evenodd" clip-rule="evenodd" fill="url(#SVGID_70_)" d="M135.8,118.2c4.1,0,7.9,0.6,11.5,1.7
							c0.1,0,0.2,0.1,0.2,0.2c0,0.1,0.1,0.1,0,0.2c0,0.1-0.1,0.2-0.2,0.2c-0.1,0-0.2,0.1-0.3,0c-3.6-1.1-7.3-1.6-11.3-1.6
							c-4.1,0-7.9,0.6-11.5,1.7c-0.1,0-0.2,0-0.2,0c-0.1,0-0.1-0.1-0.2-0.2c0-0.1,0-0.2,0-0.2c0-0.1,0.1-0.1,0.2-0.2
							C127.8,118.8,131.7,118.2,135.8,118.2z"/>
						
							<radialGradient id="SVGID_71_" cx="-236.3501" cy="-234.4502" r="25.0625" gradientTransform="matrix(0.6476 0 0 0.6476 290.5682 346.5275)" gradientUnits="userSpaceOnUse">
							<stop  offset="0" style="stop-color:#FFFFFF;stop-opacity:0.3255"/>
							<stop  offset="1" style="stop-color:#F9F9F9;stop-opacity:0"/>
						</radialGradient>
						<path fill-rule="evenodd" clip-rule="evenodd" fill="url(#SVGID_71_)" d="M153.5,190.2C153.6,190.2,153.6,190.2,153.5,190.2
							C153.6,190.2,153.6,190.2,153.5,190.2c0,0.1,0,0.1,0,0.2c-10.6,5.1-21.8,5.5-33.7,1.2c0,0,0,0,0-0.1c0,0,0,0,0-0.1
							c0,0,0,0,0,0c0,0,0,0,0.1,0C131.7,195.6,142.9,195.2,153.5,190.2C153.5,190.2,153.5,190.2,153.5,190.2z"/>
					</g>
				</g>
				<g>
					
						<linearGradient id="SVGID_72_" gradientUnits="userSpaceOnUse" x1="-299.8008" y1="-313.5825" x2="-179.1008" y2="-274.2075" gradientTransform="matrix(0.6476 0 0 0.6476 290.5682 346.5275)">
						<stop  offset="0" style="stop-color:#FFFFFF;stop-opacity:9.411765e-002"/>
						<stop  offset="0.9804" style="stop-color:#FEFEFE;stop-opacity:6.666667e-002"/>
						<stop  offset="1" style="stop-color:#FBFBFB;stop-opacity:0"/>
					</linearGradient>
					<path fill-rule="evenodd" clip-rule="evenodd" fill="url(#SVGID_72_)" d="M176.7,156.2c0,11.4-4,21.1-12.1,29.1
						c-8,8.1-17.7,12.1-29.1,12.1c-11.4,0-21.1-4-29.1-12.1c-8-8.1-12-17.8-12-29.1c0-11.4,4-21.1,12-29.1
						c8.1-8.1,17.8-12.1,29.1-12c11.4,0,21.1,4,29.1,12C172.7,135.1,176.7,144.8,176.7,156.2z M164.5,185.2c8-8,12-17.7,12-29
						c0-11.3-4-21-12-29c-8-8-17.7-12-29-12c-11.3,0-21,4-29,12c-8,8-12,17.7-12,29c0,11.3,4,21,12,29c8,8,17.7,12,29,12
						C146.9,197.2,156.5,193.2,164.5,185.2z"/>
				</g>
			</g>
			<g>
				<g>
					<path fill-rule="evenodd" clip-rule="evenodd" d="M191.7,216.9c0,2.7-1,5.1-2.9,7c-1.9,1.9-4.2,2.8-6.9,2.8
						c-2.7,0-5.1-0.9-7-2.8c-1.9-1.9-2.8-4.2-2.8-7c0-2.7,1-5,2.8-6.9c1.9-1.9,4.2-2.9,7-2.9c2.7,0,5,1,6.9,2.9
						C190.8,211.9,191.7,214.2,191.7,216.9z"/>
				</g>
				<g>
					
						<linearGradient id="SVGID_73_" gradientUnits="userSpaceOnUse" x1="-171.5186" y1="-194.2666" x2="-158.6963" y2="-214.9433" gradientTransform="matrix(0.6476 0 0 0.6476 290.5682 346.5275)">
						<stop  offset="0" style="stop-color:#4D5C5E;stop-opacity:0.9804"/>
						<stop  offset="9.803922e-002" style="stop-color:#627373;stop-opacity:0.9804"/>
						<stop  offset="0.2039" style="stop-color:#6C7D7D;stop-opacity:0.9804"/>
						<stop  offset="0.3294" style="stop-color:#778988;stop-opacity:0.9804"/>
						<stop  offset="0.4745" style="stop-color:#869997;stop-opacity:0.9882"/>
						<stop  offset="0.5686" style="stop-color:#C7D1CD;stop-opacity:0.9922"/>
						<stop  offset="0.6941" style="stop-color:#E1EAE6"/>
						<stop  offset="1" style="stop-color:#426053"/>
					</linearGradient>
					<path fill-rule="evenodd" clip-rule="evenodd" fill="url(#SVGID_73_)" d="M176.9,211.9c0.9-0.9,2-1.5,3.2-1.8
						c0.6-0.2,1.2-0.2,1.8-0.2c1.9,0,3.6,0.7,5,2c1.4,1.4,2,3.1,2,5c0,1.9-0.7,3.6-2,5c-0.7,0.7-1.4,1.2-2.3,1.6
						c-0.8,0.3-1.7,0.5-2.7,0.5c-1.9,0-3.6-0.7-5-2.1c-1.4-1.4-2-3-2-5C174.8,214.9,175.5,213.2,176.9,211.9z"/>
				</g>
				<g>
					
						<radialGradient id="SVGID_74_" cx="-166.8999" cy="-201.0498" r="5.6625" gradientTransform="matrix(0.6476 0 0 0.6476 290.5682 346.5275)" gradientUnits="userSpaceOnUse">
						<stop  offset="0" style="stop-color:#3D4341"/>
						<stop  offset="0.8667" style="stop-color:#37403F;stop-opacity:0.9922"/>
						<stop  offset="1" style="stop-color:#171C1C;stop-opacity:0.9804"/>
					</radialGradient>
					<path fill-rule="evenodd" clip-rule="evenodd" fill="url(#SVGID_74_)" d="M179.3,214.1c0.7-0.7,1.6-1.1,2.7-1.1
						s1.9,0.4,2.7,1.1c0.7,0.7,1.1,1.6,1.1,2.7c0,1-0.4,1.9-1.1,2.7c-0.7,0.7-1.6,1.1-2.7,1.1s-1.9-0.4-2.7-1.1
						c-0.7-0.7-1.1-1.6-1.1-2.7C178.2,215.8,178.6,214.9,179.3,214.1z"/>
				</g>
				<g>
					<path fill-rule="evenodd" clip-rule="evenodd" fill="#FFFFFF" d="M184.9,214.2c-0.5-0.6-1.1-1-1.7-1.2c1.5,0.3,2.4,1.2,2.8,2.8
						l0,0.7C185.8,215.6,185.4,214.8,184.9,214.2z M179.8,220c0.8,0.5,1.7,0.7,2.5,0.6c0.8-0.1,1.5-0.4,2-0.8
						c-1.2,1.3-2.5,1.5-3.9,0.7L179.8,220z"/>
				</g>
				<g>
					
						<linearGradient id="SVGID_75_" gradientUnits="userSpaceOnUse" x1="-167.2227" y1="-207.2793" x2="-167.8727" y2="-196.6543" gradientTransform="matrix(0.6476 0 0 0.6476 290.5682 346.5275)">
						<stop  offset="0.102" style="stop-color:#E6E6E6"/>
						<stop  offset="0.2667" style="stop-color:#636363;stop-opacity:0.5333"/>
						<stop  offset="0.5176" style="stop-color:#151515;stop-opacity:0.2706"/>
						<stop  offset="1" style="stop-color:#6A6A6A"/>
					</linearGradient>
					<path fill-rule="evenodd" clip-rule="evenodd" fill="url(#SVGID_75_)" d="M179.6,214.4c0.7-0.7,1.5-1,2.4-1s1.8,0.3,2.4,1
						c0.7,0.7,1,1.5,1,2.5c0,0.9-0.3,1.8-1,2.4c-0.7,0.7-1.5,1-2.4,1s-1.8-0.3-2.4-1c-0.7-0.7-1-1.5-1-2.4
						C178.5,215.9,178.9,215,179.6,214.4z"/>
				</g>
			</g>
			<g>
				<g>
					<path fill-rule="evenodd" clip-rule="evenodd" d="M98.8,216.9c0,2.7-1,5.1-2.9,7c-1.9,1.9-4.2,2.8-6.9,2.8
						c-2.7,0-5.1-0.9-7-2.8c-1.9-1.9-2.8-4.2-2.8-7c0-2.7,0.9-5,2.8-6.9c1.9-1.9,4.2-2.9,7-2.9c2.7,0,5,1,6.9,2.9
						C97.8,211.9,98.8,214.2,98.8,216.9z"/>
				</g>
				<g>
					
						<linearGradient id="SVGID_76_" gradientUnits="userSpaceOnUse" x1="-315.0181" y1="-194.2661" x2="-302.1958" y2="-214.9428" gradientTransform="matrix(0.6476 0 0 0.6476 290.5682 346.5275)">
						<stop  offset="0" style="stop-color:#4D5C5E;stop-opacity:0.9804"/>
						<stop  offset="9.803922e-002" style="stop-color:#627373;stop-opacity:0.9804"/>
						<stop  offset="0.2039" style="stop-color:#6C7D7D;stop-opacity:0.9804"/>
						<stop  offset="0.3294" style="stop-color:#778988;stop-opacity:0.9804"/>
						<stop  offset="0.4745" style="stop-color:#869997;stop-opacity:0.9882"/>
						<stop  offset="0.5686" style="stop-color:#C7D1CD;stop-opacity:0.9922"/>
						<stop  offset="0.6941" style="stop-color:#E1EAE6"/>
						<stop  offset="1" style="stop-color:#426053"/>
					</linearGradient>
					<path fill-rule="evenodd" clip-rule="evenodd" fill="url(#SVGID_76_)" d="M87.2,210.1c0.6-0.2,1.2-0.2,1.8-0.2
						c1.9,0,3.6,0.7,5,2c1.4,1.4,2,3.1,2,5c0,1.9-0.7,3.6-2,5c-0.7,0.7-1.4,1.2-2.3,1.6c-0.8,0.3-1.7,0.5-2.7,0.5
						c-1.9,0-3.6-0.7-5-2.1c-1.4-1.4-2-3-2-5c0-2,0.7-3.6,2-5C84.9,210.9,86,210.3,87.2,210.1z"/>
				</g>
				<g>
					
						<radialGradient id="SVGID_77_" cx="-310.3999" cy="-201.0498" r="5.6625" gradientTransform="matrix(0.6476 0 0 0.6476 290.5682 346.5275)" gradientUnits="userSpaceOnUse">
						<stop  offset="0" style="stop-color:#3D4341"/>
						<stop  offset="0.8667" style="stop-color:#37403F;stop-opacity:0.9922"/>
						<stop  offset="1" style="stop-color:#171C1C;stop-opacity:0.9804"/>
					</radialGradient>
					<path fill-rule="evenodd" clip-rule="evenodd" fill="url(#SVGID_77_)" d="M89.1,213c1,0,1.9,0.4,2.7,1.1
						c0.7,0.7,1.1,1.6,1.1,2.7c0,1-0.4,1.9-1.1,2.7c-0.7,0.7-1.6,1.1-2.7,1.1c-1,0-1.9-0.4-2.7-1.1c-0.7-0.7-1.1-1.6-1.1-2.7
						c0-1,0.4-1.9,1.1-2.7C87.2,213.4,88,213,89.1,213z"/>
				</g>
				<g>
					<path fill-rule="evenodd" clip-rule="evenodd" fill="#FFFFFF" d="M93,215.8l0,0.7c-0.2-0.9-0.6-1.7-1.1-2.3
						c-0.5-0.6-1.1-1-1.7-1.2C91.8,213.3,92.7,214.3,93,215.8z M91.3,219.8c-1.2,1.3-2.5,1.5-3.9,0.7l-0.6-0.5
						c0.8,0.5,1.7,0.7,2.5,0.6C90.2,220.5,90.8,220.2,91.3,219.8z"/>
				</g>
				<g>
					
						<linearGradient id="SVGID_78_" gradientUnits="userSpaceOnUse" x1="-310.7227" y1="-207.2793" x2="-311.3727" y2="-196.6543" gradientTransform="matrix(0.6476 0 0 0.6476 290.5682 346.5275)">
						<stop  offset="0.102" style="stop-color:#E6E6E6"/>
						<stop  offset="0.2667" style="stop-color:#636363;stop-opacity:0.5333"/>
						<stop  offset="0.5176" style="stop-color:#151515;stop-opacity:0.2706"/>
						<stop  offset="1" style="stop-color:#6A6A6A"/>
					</linearGradient>
					<path fill-rule="evenodd" clip-rule="evenodd" fill="url(#SVGID_78_)" d="M89.1,213.4c1,0,1.8,0.3,2.4,1c0.7,0.7,1,1.5,1,2.5
						c0,0.9-0.3,1.8-1,2.4c-0.7,0.7-1.5,1-2.4,1c-0.9,0-1.8-0.3-2.4-1c-0.7-0.7-1-1.5-1-2.4c0-1,0.3-1.8,1-2.5
						C87.3,213.7,88.1,213.4,89.1,213.4z"/>
				</g>
			</g>
		</g>
		<g>
			<g>
				<g>
					
						<linearGradient id="SVGID_79_" gradientUnits="userSpaceOnUse" x1="-240.752" y1="-195.3799" x2="-238.0188" y2="-102.4794" gradientTransform="matrix(0.6476 0 0 0.6476 290.5682 346.5275)">
						<stop  offset="0" style="stop-color:#121210"/>
						<stop  offset="1" style="stop-color:#2C364B"/>
					</linearGradient>
					<polygon fill-rule="evenodd" clip-rule="evenodd" fill="url(#SVGID_79_)" points="60.3,252.1 211.6,252.1 212,252.1 212,282.7 
						60.2,282.7 60.2,252.1 					"/>
					
						<linearGradient id="SVGID_80_" gradientUnits="userSpaceOnUse" x1="-133.6001" y1="-146.4995" x2="-356.8001" y2="-146.4995" gradientTransform="matrix(0.6476 0 0 0.6476 290.5682 346.5275)">
						<stop  offset="0" style="stop-color:#414D58"/>
						<stop  offset="1" style="stop-color:#171D29"/>
						<stop  offset="1" style="stop-color:#161C28"/>
					</linearGradient>
					<polygon fill-rule="evenodd" clip-rule="evenodd" fill="url(#SVGID_80_)" points="211.6,252.1 60.3,252.1 61.2,251.2 
						211.2,251.2 					"/>
				</g>
			</g>
			<g>
				<g>
					<path fill-rule="evenodd" clip-rule="evenodd" d="M174.8,261c1.9-1.9,4.2-2.9,7-2.9c2.7,0,5,1,6.9,2.9c1.9,1.9,2.9,4.2,2.9,6.9
						c0,2.7-1,5.1-2.9,7c-1.9,1.9-4.2,2.8-6.9,2.8c-2.7,0-5.1-1-7-2.8c-1.9-1.9-2.8-4.2-2.8-7C172,265.2,172.9,262.9,174.8,261z"/>
				</g>
				<g>
					
						<linearGradient id="SVGID_81_" gradientUnits="userSpaceOnUse" x1="-171.668" y1="-115.4663" x2="-158.8457" y2="-136.143" gradientTransform="matrix(0.6476 0 0 0.6476 290.5682 346.5275)">
						<stop  offset="0" style="stop-color:#4D5C5E;stop-opacity:0.9804"/>
						<stop  offset="9.803922e-002" style="stop-color:#627373;stop-opacity:0.9804"/>
						<stop  offset="0.2039" style="stop-color:#6C7D7D;stop-opacity:0.9804"/>
						<stop  offset="0.3294" style="stop-color:#778988;stop-opacity:0.9804"/>
						<stop  offset="0.4745" style="stop-color:#869997;stop-opacity:0.9882"/>
						<stop  offset="0.5686" style="stop-color:#C7D1CD;stop-opacity:0.9922"/>
						<stop  offset="0.6941" style="stop-color:#E1EAE6"/>
						<stop  offset="1" style="stop-color:#426053"/>
					</linearGradient>
					<path fill-rule="evenodd" clip-rule="evenodd" fill="url(#SVGID_81_)" d="M184.5,274.5c-0.8,0.3-1.7,0.5-2.7,0.5
						c-1.9,0-3.6-0.7-5-2.1c-1.4-1.4-2-3-2-5c0-2,0.7-3.6,2-5c0.9-0.9,2-1.5,3.2-1.8c0.6-0.2,1.2-0.2,1.8-0.2c1.9,0,3.6,0.7,5,2
						c1.4,1.4,2,3.1,2,5c0,1.9-0.7,3.6-2,5C186.1,273.6,185.3,274.1,184.5,274.5z"/>
				</g>
				<g>
					
						<radialGradient id="SVGID_82_" cx="-167.0498" cy="-122.25" r="5.6625" gradientTransform="matrix(0.6476 0 0 0.6476 290.5682 346.5275)" gradientUnits="userSpaceOnUse">
						<stop  offset="0" style="stop-color:#3D4341"/>
						<stop  offset="0.8667" style="stop-color:#37403F;stop-opacity:0.9922"/>
						<stop  offset="1" style="stop-color:#171C1C;stop-opacity:0.9804"/>
					</radialGradient>
					<path fill-rule="evenodd" clip-rule="evenodd" fill="url(#SVGID_82_)" d="M178.2,267.8c0-1,0.4-1.9,1.1-2.7
						c0.7-0.7,1.6-1.1,2.7-1.1c1,0,1.9,0.4,2.7,1.1c0.7,0.7,1.1,1.6,1.1,2.7c0,1-0.4,1.9-1.1,2.7c-0.7,0.7-1.6,1.1-2.7,1.1
						c-1,0-1.9-0.4-2.7-1.1C178.5,269.7,178.2,268.9,178.2,267.8z"/>
				</g>
				<g>
					<path fill-rule="evenodd" clip-rule="evenodd" fill="#FFFFFF" d="M184.2,270.8c-1.2,1.3-2.5,1.5-3.9,0.7l-0.6-0.5
						c0.8,0.5,1.7,0.7,2.5,0.6C183,271.5,183.7,271.2,184.2,270.8z M185.9,267.5c-0.2-0.9-0.6-1.7-1.1-2.3c-0.5-0.6-1.1-1-1.7-1.2
						c1.5,0.3,2.5,1.2,2.8,2.8L185.9,267.5z"/>
				</g>
				<g>
					
						<linearGradient id="SVGID_83_" gradientUnits="userSpaceOnUse" x1="-167.3735" y1="-128.48" x2="-168.0235" y2="-117.855" gradientTransform="matrix(0.6476 0 0 0.6476 290.5682 346.5275)">
						<stop  offset="0.102" style="stop-color:#E6E6E6"/>
						<stop  offset="0.2667" style="stop-color:#636363;stop-opacity:0.5333"/>
						<stop  offset="0.5176" style="stop-color:#151515;stop-opacity:0.2706"/>
						<stop  offset="1" style="stop-color:#6A6A6A"/>
					</linearGradient>
					<path fill-rule="evenodd" clip-rule="evenodd" fill="url(#SVGID_83_)" d="M178.4,267.8c0-1,0.3-1.8,1-2.5c0.7-0.7,1.5-1,2.4-1
						c0.9,0,1.8,0.3,2.4,1c0.7,0.7,1,1.5,1,2.5c0,0.9-0.3,1.8-1,2.4c-0.7,0.7-1.5,1-2.4,1c-1,0-1.8-0.3-2.4-1
						C178.8,269.6,178.4,268.8,178.4,267.8z"/>
				</g>
			</g>
			<g>
				<g>
					<path fill-rule="evenodd" clip-rule="evenodd" d="M81.9,261c1.9-1.9,4.2-2.9,7-2.9c2.7,0,5,1,6.9,2.9c1.9,1.9,2.9,4.2,2.9,6.9
						c0,2.7-1,5.1-2.9,7c-1.9,1.9-4.2,2.8-6.9,2.8c-2.7,0-5.1-1-7-2.8c-1.9-1.9-2.8-4.2-2.8-7C79.1,265.2,80,262.9,81.9,261z"/>
				</g>
				<g>
					
						<linearGradient id="SVGID_84_" gradientUnits="userSpaceOnUse" x1="-315.1685" y1="-115.4663" x2="-302.3462" y2="-136.143" gradientTransform="matrix(0.6476 0 0 0.6476 290.5682 346.5275)">
						<stop  offset="0" style="stop-color:#4D5C5E;stop-opacity:0.9804"/>
						<stop  offset="9.803922e-002" style="stop-color:#627373;stop-opacity:0.9804"/>
						<stop  offset="0.2039" style="stop-color:#6C7D7D;stop-opacity:0.9804"/>
						<stop  offset="0.3294" style="stop-color:#778988;stop-opacity:0.9804"/>
						<stop  offset="0.4745" style="stop-color:#869997;stop-opacity:0.9882"/>
						<stop  offset="0.5686" style="stop-color:#C7D1CD;stop-opacity:0.9922"/>
						<stop  offset="0.6941" style="stop-color:#E1EAE6"/>
						<stop  offset="1" style="stop-color:#426053"/>
					</linearGradient>
					<path fill-rule="evenodd" clip-rule="evenodd" fill="url(#SVGID_84_)" d="M83.9,272.9c-1.4-1.4-2-3-2-5c0-2,0.7-3.6,2-5
						c0.9-0.9,2-1.5,3.2-1.8c0.6-0.2,1.2-0.2,1.8-0.2c1.9,0,3.6,0.7,5,2c1.4,1.4,2,3.1,2,5c0,1.9-0.7,3.6-2,5
						c-0.7,0.7-1.4,1.2-2.3,1.6c-0.8,0.3-1.7,0.5-2.7,0.5C86.9,275,85.3,274.3,83.9,272.9z"/>
				</g>
				<g>
					
						<radialGradient id="SVGID_85_" cx="-310.5498" cy="-122.25" r="5.6625" gradientTransform="matrix(0.6476 0 0 0.6476 290.5682 346.5275)" gradientUnits="userSpaceOnUse">
						<stop  offset="0" style="stop-color:#3D4341"/>
						<stop  offset="0.8667" style="stop-color:#37403F;stop-opacity:0.9922"/>
						<stop  offset="1" style="stop-color:#171C1C;stop-opacity:0.9804"/>
					</radialGradient>
					<path fill-rule="evenodd" clip-rule="evenodd" fill="url(#SVGID_85_)" d="M85.2,267.8c0-1,0.4-1.9,1.1-2.7
						c0.7-0.7,1.6-1.1,2.7-1.1c1,0,1.9,0.4,2.7,1.1c0.7,0.7,1.1,1.6,1.1,2.7c0,1-0.4,1.9-1.1,2.7c-0.7,0.7-1.6,1.1-2.7,1.1
						c-1,0-1.9-0.4-2.7-1.1C85.6,269.7,85.2,268.9,85.2,267.8z"/>
				</g>
				<g>
					<path fill-rule="evenodd" clip-rule="evenodd" fill="#FFFFFF" d="M86.8,271c0.8,0.5,1.7,0.7,2.5,0.6c0.8-0.1,1.5-0.4,2-0.8
						c-1.2,1.3-2.5,1.5-3.9,0.7L86.8,271z M93,267.5c-0.2-0.9-0.6-1.7-1.1-2.3c-0.5-0.6-1.1-1-1.7-1.2c1.5,0.3,2.5,1.2,2.8,2.8
						L93,267.5z"/>
				</g>
				<g>
					
						<linearGradient id="SVGID_86_" gradientUnits="userSpaceOnUse" x1="-310.8735" y1="-128.4795" x2="-311.5235" y2="-117.8545" gradientTransform="matrix(0.6476 0 0 0.6476 290.5682 346.5275)">
						<stop  offset="0.102" style="stop-color:#E6E6E6"/>
						<stop  offset="0.2667" style="stop-color:#636363;stop-opacity:0.5333"/>
						<stop  offset="0.5176" style="stop-color:#151515;stop-opacity:0.2706"/>
						<stop  offset="1" style="stop-color:#6A6A6A"/>
					</linearGradient>
					<path fill-rule="evenodd" clip-rule="evenodd" fill="url(#SVGID_86_)" d="M85.5,267.8c0-1,0.3-1.8,1-2.5c0.7-0.7,1.5-1,2.4-1
						c0.9,0,1.8,0.3,2.4,1c0.7,0.7,1,1.5,1,2.5c0,0.9-0.3,1.8-1,2.4c-0.7,0.7-1.5,1-2.4,1c-1,0-1.8-0.3-2.4-1
						C85.9,269.6,85.5,268.8,85.5,267.8z"/>
				</g>
			</g>
		</g>
	</g>
</g>
</svg>
