<?xml version="1.0" encoding="utf-8"?>
<!-- Generator: Adobe Illustrator 16.0.0, SVG Export Plug-In . SVG Version: 6.00 Build 0)  -->
<!DOCTYPE svg PUBLIC "-//W3C//DTD SVG 1.1//EN" "http://www.w3.org/Graphics/SVG/1.1/DTD/svg11.dtd">
<svg version="1.1" id="Layer_1" xmlns="http://www.w3.org/2000/svg" xmlns:xlink="http://www.w3.org/1999/xlink" x="0px" y="0px"
	 width="293.5px" height="122px" viewBox="0 0 293.5 122" enable-background="new 0 0 293.5 122" xml:space="preserve">
<g>
	<g>
		<g>
			
				<linearGradient id="SVGID_1_" gradientUnits="userSpaceOnUse" x1="-14.1978" y1="112.0303" x2="3.2809" y2="112.0303" gradientTransform="matrix(0.9984 -5.721272e-002 0.6657 0.9635 42.9552 -13.329)">
				<stop  offset="0" style="stop-color:#000000"/>
				<stop  offset="1" style="stop-color:#000000;stop-opacity:0"/>
			</linearGradient>
			<path fill-rule="evenodd" clip-rule="evenodd" fill="url(#SVGID_1_)" d="M48.4,95.2c0.1-0.2,0.7-0.3,1.6-0.3h4.4h66.4
				c1.1,0,1.9,0.1,2.5,0.3l4.4,2.2c-0.1,0.2-0.6,0.3-1.5,0.3H53.9h-5.4c-0.9,0-1.3-0.1-1.3-0.3L48.4,95.2z"/>
		</g>
		<g>
			<linearGradient id="SVGID_2_" gradientUnits="userSpaceOnUse" x1="73.5034" y1="101.0513" x2="73.459" y2="93.5512">
				<stop  offset="0" style="stop-color:#1C232C;stop-opacity:0"/>
				<stop  offset="1" style="stop-color:#1C232C"/>
			</linearGradient>
			<rect x="47.8" y="98.1" fill-rule="evenodd" clip-rule="evenodd" fill="url(#SVGID_2_)" width="51.4" height="4.8"/>
		</g>
		<g>
			<path fill-rule="evenodd" clip-rule="evenodd" fill="none" d="M78.6,45.5c0.1-0.2,0.2-0.3,0.4-0.4c2.5-2.4,5.3-4.3,8.2-5.6"/>
		</g>
		<g>
			<g>
				<polygon fill-rule="evenodd" clip-rule="evenodd" points="99.2,92.8 47.9,92.8 49.4,88.4 97.6,88.4 				"/>
				<linearGradient id="SVGID_3_" gradientUnits="userSpaceOnUse" x1="62.7876" y1="75.853" x2="77.3518" y2="102.034">
					<stop  offset="0" style="stop-color:#3C4855"/>
					<stop  offset="1" style="stop-color:#0F141C"/>
				</linearGradient>
				<rect x="47.9" y="92.8" fill-rule="evenodd" clip-rule="evenodd" fill="url(#SVGID_3_)" width="51.3" height="4.9"/>
			</g>
		</g>
		<g>
			<g>
				
					<linearGradient id="SVGID_4_" gradientUnits="userSpaceOnUse" x1="-47.9531" y1="-269.6172" x2="-42.4031" y2="-269.6172" gradientTransform="matrix(1.801802e-004 1 -1 -1.000000e-003 -256.4657 126.4352)">
					<stop  offset="0" style="stop-color:#758793"/>
					<stop  offset="8.627451e-002" style="stop-color:#A8C1D5"/>
					<stop  offset="0.2431" style="stop-color:#FFFFFF"/>
					<stop  offset="0.3686" style="stop-color:#9FB1BD"/>
					<stop  offset="0.7529" style="stop-color:#363741"/>
					<stop  offset="1" style="stop-color:#8A7D89"/>
				</linearGradient>
				<path fill-rule="evenodd" clip-rule="evenodd" fill="url(#SVGID_4_)" d="M4.5,79.2c0-0.1,0-0.1,0-0.2c0.1-0.2,0.2-0.3,0.4-0.3
					h17.3v5.5H5c-0.3,0-0.5-0.2-0.5-0.5c0-0.2-0.1-0.4-0.2-0.7c-0.1-0.7-0.1-1.5-0.1-2.3C4.3,80.1,4.4,79.6,4.5,79.2z"/>
			</g>
			<g>
				<g>
					<g>
						
							<linearGradient id="SVGID_5_" gradientUnits="userSpaceOnUse" x1="-67.7632" y1="-288.1895" x2="-57.1229" y2="-288.1895" gradientTransform="matrix(-8.693378e-002 0.9962 -0.9973 -7.479550e-002 -272.9708 120.9134)">
							<stop  offset="0" style="stop-color:#758793"/>
							<stop  offset="8.627451e-002" style="stop-color:#A8C1D5"/>
							<stop  offset="0.2431" style="stop-color:#FFFFFF"/>
							<stop  offset="0.3686" style="stop-color:#9FB1BD"/>
							<stop  offset="0.7529" style="stop-color:#363741"/>
							<stop  offset="1" style="stop-color:#8A7D89"/>
						</linearGradient>
						<path fill-rule="evenodd" clip-rule="evenodd" fill="url(#SVGID_5_)" d="M20.1,86.8H20l-0.5,0.5c-0.1-0.4-0.1-0.8-0.2-1.1
							c-0.4-2.7-0.4-5.8,0.1-9.3c0-0.3,0-0.6,0.1-1h0.1l0.6,0.5v0.2C19.9,80,19.9,83.4,20.1,86.8z"/>
						
							<linearGradient id="SVGID_6_" gradientUnits="userSpaceOnUse" x1="-50.3311" y1="-280.3232" x2="-39.9061" y2="-280.3232" gradientTransform="matrix(9.592326e-005 1 -1 -1.000000e-003 -256.482 126.4352)">
							<stop  offset="0" style="stop-color:#758793"/>
							<stop  offset="8.627451e-002" style="stop-color:#A8C1D5"/>
							<stop  offset="0.1961" style="stop-color:#FFFFFF"/>
							<stop  offset="0.3843" style="stop-color:#9FB1BD"/>
							<stop  offset="0.8471" style="stop-color:#363741"/>
							<stop  offset="1" style="stop-color:#8A7D89"/>
						</linearGradient>
						<path fill-rule="evenodd" clip-rule="evenodd" fill="url(#SVGID_6_)" d="M27.8,76.4v10.4h-7.6c-0.3-3.4-0.3-6.8,0-10.2v-0.2
							H27.8z"/>
						
							<linearGradient id="SVGID_7_" gradientUnits="userSpaceOnUse" x1="-75.5483" y1="-306.21" x2="-66.8116" y2="-306.21" gradientTransform="matrix(-9.156772e-002 0.9958 -0.9941 -0.1105 -273.649 118.5159)">
							<stop  offset="0" style="stop-color:#D1D9DF"/>
							<stop  offset="8.627451e-002" style="stop-color:#798C99"/>
							<stop  offset="0.2431" style="stop-color:#FFFFFF"/>
							<stop  offset="0.3686" style="stop-color:#9FB1BD"/>
							<stop  offset="0.6275" style="stop-color:#ACB0B9"/>
							<stop  offset="0.7529" style="stop-color:#696B7C"/>
							<stop  offset="0.8706" style="stop-color:#363741"/>
							<stop  offset="1" style="stop-color:#857985"/>
						</linearGradient>
						<path fill-rule="evenodd" clip-rule="evenodd" fill="url(#SVGID_7_)" d="M36.3,76.4h0.2c0.6,0.2,1,0.4,1.3,0.6
							c0.1,0,0.1,0.1,0.2,0.1h0c0.1,0.1,0.2,0.1,0.3,0.1c-0.2,3-0.2,5.8,0,8.5c-0.6,0.4-1.3,0.7-2,0.9C36,83.3,36,79.9,36.3,76.4z"
							/>
						
							<linearGradient id="SVGID_8_" gradientUnits="userSpaceOnUse" x1="-50.3335" y1="-290.8857" x2="-39.9085" y2="-290.8857" gradientTransform="matrix(9.592326e-005 1 -1 -1.000000e-003 -256.482 126.4352)">
							<stop  offset="0" style="stop-color:#758793"/>
							<stop  offset="8.627451e-002" style="stop-color:#A8C1D5"/>
							<stop  offset="0.1961" style="stop-color:#FFFFFF"/>
							<stop  offset="0.3843" style="stop-color:#9FB1BD"/>
							<stop  offset="0.8471" style="stop-color:#363741"/>
							<stop  offset="1" style="stop-color:#8A7D89"/>
						</linearGradient>
						<path fill-rule="evenodd" clip-rule="evenodd" fill="url(#SVGID_8_)" d="M36.3,76.4c-0.3,3.6-0.3,7,0,10.3
							c-0.3,0.1-0.5,0.1-0.8,0.1h-3V76.4H36.3z"/>
						
							<linearGradient id="SVGID_9_" gradientUnits="userSpaceOnUse" x1="-50.3296" y1="-286.6108" x2="-39.9046" y2="-286.6108" gradientTransform="matrix(9.592326e-005 1 -1 -1.000000e-003 -256.482 126.4352)">
							<stop  offset="0" style="stop-color:#758793"/>
							<stop  offset="8.627451e-002" style="stop-color:#A8C1D5"/>
							<stop  offset="0.1961" style="stop-color:#FFFFFF"/>
							<stop  offset="0.3843" style="stop-color:#9FB1BD"/>
							<stop  offset="0.8471" style="stop-color:#363741"/>
							<stop  offset="1" style="stop-color:#8A7D89"/>
						</linearGradient>
						<rect x="27.8" y="76.4" fill-rule="evenodd" clip-rule="evenodd" fill="url(#SVGID_9_)" width="4.8" height="10.4"/>
						
							<linearGradient id="SVGID_10_" gradientUnits="userSpaceOnUse" x1="-50.8105" y1="-269.5127" x2="-39.4105" y2="-269.5127" gradientTransform="matrix(8.771930e-005 1 -1 -1.000000e-003 -256.4831 126.4352)">
							<stop  offset="0" style="stop-color:#758793"/>
							<stop  offset="8.627451e-002" style="stop-color:#A8C1D5"/>
							<stop  offset="0.1961" style="stop-color:#FFFFFF"/>
							<stop  offset="0.3843" style="stop-color:#9FB1BD"/>
							<stop  offset="0.8471" style="stop-color:#363741"/>
							<stop  offset="1" style="stop-color:#8A7D89"/>
						</linearGradient>
						<path fill-rule="evenodd" clip-rule="evenodd" fill="url(#SVGID_10_)" d="M19.5,75.9c-0.1,0.3-0.1,0.6-0.1,1
							c-0.5,3.5-0.5,6.6-0.1,9.3c0,0.4,0.1,0.8,0.2,1.1H8.4c-0.4,0-0.8-0.2-1-0.5C7.2,86.2,7,85.6,6.9,85l-0.1-0.8
							c-0.3-1.7-0.3-3.4,0-5c0.2-1.1,0.3-1.9,0.5-2.5c0-0.5,0.3-0.8,0.8-0.8H19.5z"/>
					</g>
				</g>
				<g>
					
						<linearGradient id="SVGID_11_" gradientUnits="userSpaceOnUse" x1="-50.8105" y1="-269.5127" x2="-39.4105" y2="-269.5127" gradientTransform="matrix(8.771930e-005 1 -1 -1.000000e-003 -256.4831 126.4352)">
						<stop  offset="0" style="stop-color:#758793;stop-opacity:0.7804"/>
						<stop  offset="8.627451e-002" style="stop-color:#A8C1D5;stop-opacity:0.7529"/>
						<stop  offset="0.1961" style="stop-color:#FFFFFF;stop-opacity:0.6824"/>
						<stop  offset="0.251" style="stop-color:#9FB1BD;stop-opacity:0.3608"/>
						<stop  offset="0.4549" style="stop-color:#54585D;stop-opacity:0.6667"/>
						<stop  offset="0.6588" style="stop-color:#343134;stop-opacity:0.7608"/>
						<stop  offset="0.8235" style="stop-color:#000000;stop-opacity:0.8706"/>
						<stop  offset="1" style="stop-color:#726D78;stop-opacity:0.9725"/>
					</linearGradient>
					<path fill-rule="evenodd" clip-rule="evenodd" fill="url(#SVGID_11_)" d="M8.3,75.9h11.2c-0.1,0.3-0.1,0.6-0.1,1
						c-0.5,3.5-0.5,6.6-0.1,9.3c0,0.4,0.1,0.8,0.2,1.1H8.4c-0.6,0-0.9-0.3-1-0.8C7.2,86.1,7,85.6,6.9,85l-0.1-0.8
						c-0.3-1.7-0.3-3.4,0-5C7,78,7.1,77.1,7.3,76.5h1V75.9z"/>
				</g>
			</g>
		</g>
		<g>
			<g>
				<g>
					<path fill-rule="evenodd" clip-rule="evenodd" fill="#162334" d="M45.3,73.6l-1,1.5v3c0,4.8,0,8.1,0,10h12.6v3.1H37.4l0.2-16.1
						l1.4-1.5H45.3z"/>
					<path fill-rule="evenodd" clip-rule="evenodd" d="M45.3,80.3v6.5h11.6v1.4H44.2c0-1.9,0-5.2,0-10v-3l1-1.5h0V80.3z"/>
					<rect x="45.3" y="80.3" fill-rule="evenodd" clip-rule="evenodd" fill="#172933" width="11.6" height="6.5"/>
				</g>
			</g>
			<g>
				
					<linearGradient id="SVGID_12_" gradientUnits="userSpaceOnUse" x1="-44.6421" y1="-304.5059" x2="-42.0166" y2="-304.5059" gradientTransform="matrix(1.792427e-002 0.9998 -0.9998 1.792427e-002 -253.0573 127.6343)">
					<stop  offset="0" style="stop-color:#018786"/>
					<stop  offset="8.627451e-002" style="stop-color:#FCFFFF"/>
					<stop  offset="0.4" style="stop-color:#315E7B"/>
					<stop  offset="0.6353" style="stop-color:#5A4F4B"/>
					<stop  offset="1" style="stop-color:#000000"/>
				</linearGradient>
				<path fill-rule="evenodd" clip-rule="evenodd" fill="url(#SVGID_12_)" d="M44.5,77.6h12.4v2.7H44.5
					C44.3,79.3,44.3,78.4,44.5,77.6z"/>
			</g>
		</g>
		<g>
			<g>
				<rect x="54.8" y="75.8" fill-rule="evenodd" clip-rule="evenodd" width="48.1" height="1.3"/>
			</g>
			<g>
				
					<linearGradient id="SVGID_13_" gradientUnits="userSpaceOnUse" x1="-18.2119" y1="-301.4028" x2="9.4357" y2="-301.4028" gradientTransform="matrix(0.1935 0.9811 -0.9837 0.1804 -218.3832 134.6047)">
					<stop  offset="0" style="stop-color:#3C4855"/>
					<stop  offset="1" style="stop-color:#0F141C"/>
				</linearGradient>
				<rect x="54.8" y="76.2" fill-rule="evenodd" clip-rule="evenodd" fill="url(#SVGID_13_)" width="48.1" height="15.6"/>
			</g>
		</g>
		<g>
			<g>
				<linearGradient id="SVGID_14_" gradientUnits="userSpaceOnUse" x1="-26.6001" y1="58.7002" x2="100.4999" y2="58.7002">
					<stop  offset="0" style="stop-color:#000000"/>
					<stop  offset="0.4549" style="stop-color:#000000"/>
					<stop  offset="1" style="stop-color:#445D80"/>
				</linearGradient>
				<path fill-rule="evenodd" clip-rule="evenodd" fill="url(#SVGID_14_)" d="M104.6,59.3h-0.1H54.9l0.8-1.2h0.1h2.2h39.8h1.1h1.3
					h0.7h0.7h1.9h0.6h0h0.1C104.2,58.4,104.4,58.8,104.6,59.3z"/>
				<linearGradient id="SVGID_15_" gradientUnits="userSpaceOnUse" x1="77.3604" y1="49.8721" x2="80.0998" y2="70.1418">
					<stop  offset="0" style="stop-color:#3C4855"/>
					<stop  offset="1" style="stop-color:#0F141C"/>
				</linearGradient>
				<path fill-rule="evenodd" clip-rule="evenodd" fill="url(#SVGID_15_)" d="M104.6,59.3v16.5H93v-1.9h2V74h0.1v-5.7H93v-2.1h-0.1
					v-1.6H62.9V68H58v5.8c0,0.1,0,0.1,0.1,0.1h4.9c0,0.6,0,1.3,0,1.8h-8v-1.7V59.3h49.6H104.6z"/>
				<path fill-rule="evenodd" clip-rule="evenodd" d="M93,75.8h-2c0-0.4,0-0.9,0-1.3v-2.9H65.5v4.2h-2.6c0-0.6,0-1.2,0-1.8H58
					c-0.1,0-0.1,0-0.1-0.1V68h4.9v-3.5h29.9v1.6H93v2.1h2.1V74H95v-0.1h-2V75.8z"/>
				<linearGradient id="SVGID_16_" gradientUnits="userSpaceOnUse" x1="80.3457" y1="77.7603" x2="72.3904" y2="62.1633">
					<stop  offset="0" style="stop-color:#29333D"/>
					<stop  offset="1" style="stop-color:#0F141C"/>
				</linearGradient>
				<path fill-rule="evenodd" clip-rule="evenodd" fill="url(#SVGID_16_)" d="M91,75.8H65.5v-4.2H91v2.9C91,74.9,91,75.4,91,75.8z"
					/>
				<line fill-rule="evenodd" clip-rule="evenodd" fill="none" x1="54.9" y1="74.1" x2="54.4" y2="74.1"/>
				<line fill-rule="evenodd" clip-rule="evenodd" fill="none" x1="104.5" y1="59.3" x2="104.6" y2="59.3"/>
			</g>
		</g>
		<g>
			<rect x="102" y="59.3" fill-rule="evenodd" clip-rule="evenodd" fill="#0C1016" width="0.9" height="16.6"/>
		</g>
		<g>
			<g>
				
					<linearGradient id="SVGID_17_" gradientUnits="userSpaceOnUse" x1="-52.8809" y1="-323.7051" x2="0.5784" y2="-323.7051" gradientTransform="matrix(0.2666 0.9638 -0.9795 0.2099 -204.1208 133.2139)">
					<stop  offset="0" style="stop-color:#3C4855"/>
					<stop  offset="1" style="stop-color:#0F141C"/>
				</linearGradient>
				<polygon fill-rule="evenodd" clip-rule="evenodd" fill="url(#SVGID_17_)" points="103.2,23.1 114.1,23.1 114.3,23.5 114.3,75.8 
					102.9,75.8 102.9,23.5 				"/>
			</g>
			<g>
				
					<linearGradient id="SVGID_18_" gradientUnits="userSpaceOnUse" x1="-44.6875" y1="-327.9912" x2="-12.6928" y2="-327.9912" gradientTransform="matrix(0.2946 0.9556 -0.9883 0.1885 -199.3294 130.255)">
					<stop  offset="0" style="stop-color:#3C4855"/>
					<stop  offset="1" style="stop-color:#0F141C"/>
				</linearGradient>
				<polygon fill-rule="evenodd" clip-rule="evenodd" fill="url(#SVGID_18_)" points="122,62.3 114.3,62.3 114.3,31 121.8,31 
					122,31.3 				"/>
			</g>
		</g>
		<g>
			<g>
				<linearGradient id="SVGID_19_" gradientUnits="userSpaceOnUse" x1="104.8379" y1="20.7373" x2="112.7629" y2="20.7373">
					<stop  offset="0" style="stop-color:#2E2816"/>
					<stop  offset="9.803922e-002" style="stop-color:#756D39"/>
					<stop  offset="0.2118" style="stop-color:#675C2F"/>
					<stop  offset="0.2588" style="stop-color:#614F27"/>
					<stop  offset="0.4078" style="stop-color:#554622"/>
					<stop  offset="0.5059" style="stop-color:#45391C"/>
					<stop  offset="0.8039" style="stop-color:#D2C098"/>
					<stop  offset="0.9412" style="stop-color:#352C16"/>
					<stop  offset="1" style="stop-color:#5C3816"/>
				</linearGradient>
				<path fill-rule="evenodd" clip-rule="evenodd" fill="url(#SVGID_19_)" d="M112.8,23.3c-2.7,0.2-5.4,0.2-8,0v-5.1h8V23.3z"/>
			</g>
			<g>
				<g>
					<linearGradient id="SVGID_20_" gradientUnits="userSpaceOnUse" x1="103.0371" y1="9.5625" x2="114.7621" y2="9.5625">
						<stop  offset="0" style="stop-color:#515151"/>
						<stop  offset="0.2118" style="stop-color:#1C2524"/>
						<stop  offset="0.4784" style="stop-color:#3F4B61"/>
						<stop  offset="0.7137" style="stop-color:#232A36"/>
						<stop  offset="0.8" style="stop-color:#394657"/>
						<stop  offset="0.8863" style="stop-color:#13161D"/>
						<stop  offset="1" style="stop-color:#000000"/>
					</linearGradient>
					<path fill-rule="evenodd" clip-rule="evenodd" fill="url(#SVGID_20_)" d="M114.8,3.4v4.1V8V15l0,0.2c-3.7,0.8-7.6,0.8-11.6,0
						H103v-1.1V10l0.1-2V7.5V3.4c0,0,0.1,0,0.2,0.1c0.2,0.1,0.7,0.1,1.5,0.1c1.2,0.1,2.6,0.1,4.3,0.1c1.6,0,3,0,4.1-0.1
						C113.9,3.5,114.5,3.4,114.8,3.4z"/>
					
						<linearGradient id="SVGID_21_" gradientUnits="userSpaceOnUse" x1="37.2598" y1="140.2754" x2="52.2322" y2="140.2754" gradientTransform="matrix(0.8749 -0.4842 0.4596 0.8886 5.9261 -99.9721)">
						<stop  offset="0" style="stop-color:#000000"/>
						<stop  offset="0.1294" style="stop-color:#2C2F34"/>
						<stop  offset="0.2118" style="stop-color:#1C2524"/>
						<stop  offset="0.4784" style="stop-color:#3F4B61"/>
						<stop  offset="0.7137" style="stop-color:#232A36"/>
						<stop  offset="0.8" style="stop-color:#394657"/>
						<stop  offset="0.8863" style="stop-color:#13161D"/>
						<stop  offset="1" style="stop-color:#000000"/>
					</linearGradient>
					<path fill-rule="evenodd" clip-rule="evenodd" fill="url(#SVGID_21_)" d="M103.1,3.4c4.4-0.3,8.3-0.3,11.7,0
						c-0.3,0.1-0.8,0.1-1.7,0.3c-1.1,0.1-2.5,0.1-4.1,0.1c-1.7,0-3.1,0-4.3-0.1c-0.8,0-1.3-0.1-1.5-0.1
						C103.2,3.4,103.1,3.4,103.1,3.4z"/>
					<linearGradient id="SVGID_22_" gradientUnits="userSpaceOnUse" x1="102.9629" y1="17.2251" x2="114.6379" y2="17.2251">
						<stop  offset="0" style="stop-color:#000000"/>
						<stop  offset="0.1294" style="stop-color:#131517"/>
						<stop  offset="0.2118" style="stop-color:#0B0F0E"/>
						<stop  offset="0.4784" style="stop-color:#11151A"/>
						<stop  offset="0.7137" style="stop-color:#0E1114"/>
						<stop  offset="0.8" style="stop-color:#11151A"/>
						<stop  offset="0.8863" style="stop-color:#13161D"/>
						<stop  offset="1" style="stop-color:#000000"/>
					</linearGradient>
					<path fill-rule="evenodd" clip-rule="evenodd" fill="url(#SVGID_22_)" d="M114.7,15.2l-1.7,3.6c-2.8,0.5-5.7,0.5-8.5,0
						l-1.5-3.5l0.1-0.2C107.1,16,111,16,114.7,15.2z"/>
				</g>
			</g>
		</g>
	</g>
	<g>
		<g>
			<linearGradient id="SVGID_23_" gradientUnits="userSpaceOnUse" x1="75.2251" y1="116.0498" x2="86.4751" y2="116.0498">
				<stop  offset="0" style="stop-color:#000000"/>
				<stop  offset="0.7569" style="stop-color:#000000;stop-opacity:0.6431"/>
				<stop  offset="1" style="stop-color:#000000;stop-opacity:4.705882e-002"/>
			</linearGradient>
			<polygon fill-rule="evenodd" clip-rule="evenodd" fill="url(#SVGID_23_)" points="44.9,114.8 86.5,114.8 86.5,117.3 44.1,117.3 
							"/>
		</g>
		<g>
			<g>
				<linearGradient id="SVGID_24_" gradientUnits="userSpaceOnUse" x1="47.9126" y1="114.8901" x2="51.5876" y2="114.8901">
					<stop  offset="0" style="stop-color:#283E4B"/>
					<stop  offset="0.3686" style="stop-color:#739EA2"/>
					<stop  offset="0.502" style="stop-color:#80C4C2"/>
					<stop  offset="0.5961" style="stop-color:#84ABAE"/>
					<stop  offset="1" style="stop-color:#494B58"/>
				</linearGradient>
				<path fill-rule="evenodd" clip-rule="evenodd" fill="url(#SVGID_24_)" d="M47.8,113.8h3.9l-0.6,2.1c-0.9,0.2-1.7,0.2-2.6,0.1
					L47.8,113.8z"/>
				<linearGradient id="SVGID_25_" gradientUnits="userSpaceOnUse" x1="71.6123" y1="115.0518" x2="75.2873" y2="115.0518">
					<stop  offset="0" style="stop-color:#283E4B"/>
					<stop  offset="0.3686" style="stop-color:#739EA2"/>
					<stop  offset="0.502" style="stop-color:#80C4C2"/>
					<stop  offset="0.5961" style="stop-color:#84ABAE"/>
					<stop  offset="1" style="stop-color:#494B58"/>
				</linearGradient>
				<path fill-rule="evenodd" clip-rule="evenodd" fill="url(#SVGID_25_)" d="M71.4,113.9h3.9l-0.6,2.1c-0.8,0.2-1.7,0.3-2.6,0.1
					L71.4,113.9z"/>
			</g>
		</g>
		<g>
			<path fill-rule="evenodd" clip-rule="evenodd" d="M37.6,89.6c0,0-0.1,0-0.2,0c-3.6,0.3-5.7,0.8-6.2,1.5c-0.2,0.3,0,0.6,0.4,1
				c0.5,0.5,1.5,1,2.9,1.6c2.5,0.8,4,1.9,4.6,3.3c0.5,1.3,0.1,3-1.4,4.9c-0.9,0.9-1.3,1.8-1.3,2.5c0.1,0.7,0.6,1.3,1.5,1.9
				c2,1.1,5.8,1.8,11.6,2c0,0,0.1,0.1,0.1,0.2c0.1,0,0.1,0,0.1,0.1c0,0.1,0,0.1-0.1,0.1c-0.1,0.1-0.1,0.1-0.1,0.1
				c-5.9-0.3-9.8-1-11.9-2.2c-1.1-0.6-1.6-1.3-1.7-2.1c0-0.9,0.4-1.8,1.3-2.9h0.1c1.3-1.7,1.8-3.2,1.3-4.5c-0.5-1.2-1.9-2.2-4.2-2.9
				c-1.5-0.6-2.5-1.2-3.1-1.8c-0.7-0.7-0.9-1.2-0.5-1.7c0.5-0.8,2.8-1.3,6.6-1.6c0.1,0,0.1,0,0.2,0c0,0,0,0,0,0.1
				C37.6,89.5,37.6,89.5,37.6,89.6z"/>
		</g>
		<g>
			<g>
				<linearGradient id="SVGID_26_" gradientUnits="userSpaceOnUse" x1="52.0615" y1="84.7734" x2="62.7498" y2="108.7425">
					<stop  offset="0" style="stop-color:#DEF0F0"/>
					<stop  offset="1" style="stop-color:#6AB7AE"/>
				</linearGradient>
				<polygon fill-rule="evenodd" clip-rule="evenodd" fill="url(#SVGID_26_)" points="77.5,95.5 77.6,114.3 44.5,114.3 44.6,95.7 
					44.6,95.6 45.3,95.5 45.6,95.5 77.4,95.5 77.4,95.5 77.2,95.9 				"/>
				<linearGradient id="SVGID_27_" gradientUnits="userSpaceOnUse" x1="59.4502" y1="94.7002" x2="79.5502" y2="94.7002">
					<stop  offset="0" style="stop-color:#DEF0F0"/>
					<stop  offset="1" style="stop-color:#97CECD"/>
				</linearGradient>
				<polygon fill-rule="evenodd" clip-rule="evenodd" fill="url(#SVGID_27_)" points="79.6,93.5 78.9,94.3 77.5,95.5 77.2,95.9 
					77.4,95.5 77.4,95.5 45.6,95.5 45.3,95.5 45.5,95.5 44.8,95.5 48.3,93.5 69.4,93.5 				"/>
				<polygon fill-rule="evenodd" clip-rule="evenodd" fill="#172238" points="77.6,114.3 77.5,95.5 78.9,94.3 79.6,93.5 79.7,93.5 
					79.7,94.3 79.7,94.4 79.7,111 77.8,114.3 				"/>
			</g>
		</g>
		<g>
			<path fill-rule="evenodd" clip-rule="evenodd" d="M49.8,103.3c-0.2,0.1-0.4,0.2-0.5,0.2c-0.2,0-0.4-0.1-0.6-0.2
				c-0.1-0.2-0.2-0.4-0.2-0.6c0-0.2,0.1-0.4,0.2-0.6c0.2-0.1,0.4-0.1,0.6-0.1c0.2,0,0.4,0.1,0.5,0.1c0.2,0.2,0.3,0.4,0.3,0.6
				C50,102.9,49.9,103.1,49.8,103.3z M51.8,103.5c-0.2,0-0.4-0.1-0.5-0.2c-0.2-0.2-0.3-0.4-0.3-0.6c0-0.2,0.1-0.4,0.3-0.6
				c0.2-0.1,0.3-0.1,0.5-0.1c0.2,0,0.4,0.1,0.5,0.1c0.2,0.2,0.3,0.4,0.3,0.6c0,0.3-0.1,0.5-0.3,0.6C52.2,103.4,52,103.5,51.8,103.5z
				 M53.5,102.6c0-0.2,0.1-0.4,0.2-0.6c0.2-0.1,0.4-0.1,0.5-0.1c0.2,0,0.4,0.1,0.5,0.1c0.2,0.2,0.3,0.4,0.3,0.6
				c0,0.3-0.1,0.5-0.3,0.6c-0.1,0.1-0.3,0.2-0.5,0.2c-0.2,0-0.4-0.1-0.5-0.2C53.6,103.1,53.5,102.9,53.5,102.6z M53.6,106.4
				c0.2-0.1,0.4-0.1,0.6-0.1c0.2,0,0.4,0,0.5,0.1c0.2,0.2,0.3,0.4,0.3,0.6c0,0.3-0.1,0.5-0.3,0.6c-0.2,0.2-0.4,0.3-0.5,0.3
				c-0.2,0-0.4-0.1-0.6-0.3c-0.2-0.2-0.3-0.4-0.3-0.6C53.4,106.8,53.4,106.6,53.6,106.4z M51.6,106.3c0.2,0,0.4,0,0.5,0.1
				c0.2,0.2,0.3,0.4,0.3,0.6c0,0.3-0.1,0.5-0.3,0.6c-0.2,0.2-0.4,0.3-0.5,0.3c-0.2,0-0.4-0.1-0.6-0.3c-0.1-0.2-0.2-0.4-0.2-0.6
				c0-0.2,0.1-0.4,0.2-0.6C51.2,106.3,51.4,106.3,51.6,106.3z M53.4,111.9c-0.1-0.2-0.2-0.4-0.2-0.6c0-0.2,0.1-0.4,0.2-0.5
				c0.2-0.1,0.4-0.2,0.6-0.2c0.2,0,0.4,0.1,0.5,0.2c0.2,0.2,0.3,0.4,0.3,0.5c0,0.2-0.1,0.5-0.3,0.6c-0.2,0.1-0.4,0.1-0.5,0.1
				C53.7,112,53.5,112,53.4,111.9z M51.9,111.9c-0.1,0.1-0.3,0.1-0.5,0.1c-0.2,0-0.4,0-0.6-0.1c-0.1-0.2-0.1-0.4-0.1-0.6
				c0-0.2,0.1-0.4,0.1-0.5c0.2-0.1,0.4-0.2,0.6-0.2c0.2,0,0.4,0.1,0.5,0.2c0.2,0.2,0.3,0.4,0.3,0.5
				C52.1,111.5,52.1,111.7,51.9,111.9z M48.5,106.4c0.2-0.1,0.4-0.1,0.5-0.1c0.3,0,0.5,0,0.6,0.1c0.2,0.2,0.3,0.4,0.3,0.6
				c0,0.3-0.1,0.5-0.3,0.6c-0.1,0.2-0.3,0.3-0.6,0.3c-0.1,0-0.3-0.1-0.5-0.3c-0.1-0.2-0.2-0.4-0.2-0.6
				C48.3,106.8,48.4,106.6,48.5,106.4z M48.2,110.7c0.2-0.1,0.4-0.2,0.6-0.2c0.3,0,0.5,0.1,0.6,0.2c0.1,0.2,0.2,0.4,0.2,0.5
				c0,0.2-0.1,0.5-0.2,0.6c-0.1,0.1-0.3,0.1-0.6,0.1c-0.2,0-0.4,0-0.6-0.1c-0.1-0.2-0.2-0.4-0.2-0.6C48,111.1,48.1,110.9,48.2,110.7
				z M68.5,103.1c-0.1-0.1-0.1-0.3-0.1-0.6c0-0.2,0-0.4,0.1-0.5c0.2-0.2,0.4-0.3,0.6-0.3c0.3,0,0.4,0.1,0.5,0.3
				c0.2,0.2,0.3,0.4,0.3,0.5c0,0.2-0.1,0.4-0.3,0.6c-0.1,0.2-0.3,0.3-0.5,0.3C68.9,103.4,68.7,103.3,68.5,103.1z M71,102.5
				c0-0.2,0-0.4,0.1-0.5c0.2-0.2,0.4-0.3,0.5-0.3c0.2,0,0.4,0.1,0.6,0.3c0.1,0.2,0.2,0.4,0.2,0.5c0,0.2-0.1,0.4-0.2,0.6
				c-0.2,0.2-0.4,0.3-0.6,0.3c-0.2,0-0.4-0.1-0.5-0.3C71,103,71,102.8,71,102.5z M74.8,103.1c-0.2,0.2-0.3,0.3-0.5,0.3
				c-0.2,0-0.4-0.1-0.5-0.3c-0.2-0.1-0.3-0.3-0.3-0.6c0-0.2,0.1-0.4,0.3-0.5c0.1-0.2,0.3-0.3,0.5-0.3c0.2,0,0.4,0.1,0.5,0.3
				c0.2,0.2,0.3,0.4,0.3,0.5C75,102.8,75,103,74.8,103.1z M73.3,106.9c0-0.2,0.1-0.4,0.3-0.5c0.2-0.2,0.4-0.3,0.6-0.3
				c0.2,0,0.4,0.1,0.5,0.3c0.2,0.2,0.3,0.4,0.3,0.5c0,0.2-0.1,0.4-0.3,0.6c-0.2,0.2-0.4,0.3-0.5,0.3c-0.2,0-0.4-0.1-0.6-0.3
				C73.3,107.3,73.3,107.1,73.3,106.9z M70.8,106.9c0-0.2,0.1-0.4,0.2-0.5c0.2-0.2,0.3-0.3,0.5-0.3c0.3,0,0.5,0.1,0.6,0.3
				c0.2,0.2,0.3,0.4,0.3,0.5c0,0.2-0.1,0.4-0.3,0.6c-0.2,0.2-0.4,0.3-0.6,0.3c-0.2,0-0.3-0.1-0.5-0.3
				C70.9,107.3,70.8,107.1,70.8,106.9z M71.9,110.6c0.2,0.2,0.3,0.4,0.3,0.6c0,0.2-0.1,0.4-0.3,0.5c-0.2,0.2-0.4,0.3-0.6,0.3
				c-0.2,0-0.3-0.1-0.5-0.3c-0.2-0.2-0.3-0.4-0.3-0.5c0-0.2,0.1-0.4,0.3-0.6c0.1-0.2,0.3-0.3,0.5-0.3
				C71.5,110.4,71.7,110.4,71.9,110.6z M74.4,110.6c0.2,0.2,0.3,0.4,0.3,0.6c0,0.2-0.1,0.4-0.3,0.5c-0.2,0.2-0.4,0.3-0.5,0.3
				c-0.2,0-0.4-0.1-0.6-0.3c-0.1-0.2-0.2-0.4-0.2-0.5c0-0.2,0.1-0.4,0.2-0.6c0.2-0.2,0.4-0.3,0.6-0.3
				C74,110.4,74.2,110.4,74.4,110.6z M69.5,106.4c0.2,0.2,0.3,0.4,0.3,0.5c0,0.2-0.1,0.4-0.3,0.6c-0.1,0.2-0.3,0.3-0.5,0.3
				c-0.2,0-0.4-0.1-0.5-0.3c-0.2-0.1-0.3-0.3-0.3-0.6c0-0.2,0.1-0.4,0.3-0.5c0.2-0.2,0.3-0.3,0.5-0.3
				C69.2,106.1,69.4,106.2,69.5,106.4z M69.4,110.6c0.1,0.2,0.2,0.4,0.2,0.6c0,0.2-0.1,0.4-0.2,0.5c-0.2,0.2-0.4,0.3-0.6,0.3
				c-0.2,0-0.4-0.1-0.5-0.3c-0.2-0.2-0.3-0.4-0.3-0.5c0-0.2,0.1-0.4,0.3-0.6c0.2-0.2,0.3-0.3,0.5-0.3
				C69,110.4,69.2,110.4,69.4,110.6z"/>
		</g>
	</g>
	<g>
		<g>
			<radialGradient id="SVGID_28_" cx="180.5996" cy="74.6001" r="12.1125" gradientUnits="userSpaceOnUse">
				<stop  offset="0" style="stop-color:#FFFFFF;stop-opacity:0.3294"/>
				<stop  offset="1" style="stop-color:#FFFFFF;stop-opacity:0"/>
			</radialGradient>
			<path fill-rule="evenodd" clip-rule="evenodd" fill="url(#SVGID_28_)" d="M192.7,74.5c0,0,0.1,0,0.1,0v0.1c0,0.1,0,0.1,0,0.1
				c-0.1,0.1-0.1,0.1-0.1,0.1h-24.2c0,0-0.1,0-0.2-0.1c0,0,0-0.1,0-0.1v-0.1c0.1,0,0.1,0,0.2,0H192.7z"/>
			<line fill-rule="evenodd" clip-rule="evenodd" fill="none" x1="167.7" y1="74.3" x2="196.3" y2="74.3"/>
			<line fill-rule="evenodd" clip-rule="evenodd" fill="none" x1="167.3" y1="82.4" x2="235" y2="82.4"/>
		</g>
		<g>
			<linearGradient id="SVGID_29_" gradientUnits="userSpaceOnUse" x1="256.7129" y1="98.2998" x2="289.9879" y2="98.2998">
				<stop  offset="0" style="stop-color:#000000"/>
				<stop  offset="0.7569" style="stop-color:#000000;stop-opacity:0.6431"/>
				<stop  offset="1" style="stop-color:#000000;stop-opacity:4.705882e-002"/>
			</linearGradient>
			<rect x="166.7" y="97.3" fill-rule="evenodd" clip-rule="evenodd" fill="url(#SVGID_29_)" width="123.8" height="2.1"/>
		</g>
		<g>
			<g>
				<linearGradient id="SVGID_30_" gradientUnits="userSpaceOnUse" x1="230.75" y1="94.1372" x2="232.25" y2="94.1372">
					<stop  offset="0" style="stop-color:#3C4855"/>
					<stop  offset="1" style="stop-color:#0F141C"/>
				</linearGradient>
				<path fill-rule="evenodd" clip-rule="evenodd" fill="url(#SVGID_30_)" d="M232.3,96.9v0.7c-0.5,0.2-1,0.2-1.5,0v-0.7v-6.3h1.5
					V96.9z"/>
				<linearGradient id="SVGID_31_" gradientUnits="userSpaceOnUse" x1="227.1504" y1="97.5752" x2="235.8496" y2="97.5752">
					<stop  offset="0" style="stop-color:#3C4855"/>
					<stop  offset="1" style="stop-color:#0F141C"/>
				</linearGradient>
				<path fill-rule="evenodd" clip-rule="evenodd" fill="url(#SVGID_31_)" d="M235.8,97.7c-0.1,0.1-0.1,0.1-0.1,0.1
					c-0.1,0.1-0.2,0.1-0.3,0.2c-0.2,0.1-0.5,0.1-0.8,0.2h-0.1c-0.1,0-0.2,0-0.3,0.1c-0.7,0.1-1.5,0.1-2.3,0.1h-1.8
					c-0.2,0-0.5,0-0.7,0c-0.4-0.1-0.8-0.1-1-0.1c-0.1,0-0.1,0-0.1,0c-0.7-0.1-1.1-0.3-1.3-0.5v-0.1c0-0.2,0.4-0.3,1.1-0.4
					c0.8-0.1,1.6-0.2,2.5-0.3v0.7c0.4,0.2,0.9,0.2,1.5,0v-0.7c0.8,0,1.6,0.1,2.4,0.3c0.7,0.1,1,0.2,1.1,0.4l0,0
					C235.8,97.6,235.8,97.7,235.8,97.7z"/>
				<linearGradient id="SVGID_32_" gradientUnits="userSpaceOnUse" x1="227.1748" y1="98.2998" x2="235.8242" y2="98.2998">
					<stop  offset="0" style="stop-color:#070A0A"/>
					<stop  offset="0.6196" style="stop-color:#3B4754"/>
					<stop  offset="1" style="stop-color:#0F141C"/>
				</linearGradient>
				<path fill-rule="evenodd" clip-rule="evenodd" fill="url(#SVGID_32_)" d="M235.7,97.8c0,0,0.1,0,0.1-0.1v0.6
					c-0.2,0.2-0.6,0.3-1.2,0.4h-0.1c-2,0.3-4,0.3-6,0c-0.1,0-0.1,0-0.1,0c-0.7-0.1-1.1-0.2-1.3-0.4v-0.7c0.1,0.2,0.5,0.4,1.3,0.5
					c0,0,0.1,0,0.1,0c0.3,0,0.7,0.1,1,0.1c0.2,0,0.4,0,0.7,0h1.8c0.8,0,1.5,0,2.3-0.1c0.1,0,0.2-0.1,0.3-0.1h0.1
					c0.3-0.1,0.6-0.1,0.8-0.2C235.5,97.9,235.6,97.9,235.7,97.8z"/>
				<path fill-rule="evenodd" clip-rule="evenodd" fill="none" d="M235.7,97.8c-0.1,0.1-0.2,0.1-0.3,0.2c-0.2,0.1-0.5,0.1-0.8,0.2
					h-0.1c-0.1,0-0.2,0-0.3,0.1c-0.7,0.1-1.5,0.1-2.3,0.1h-1.8c-0.2,0-0.5,0-0.7,0"/>
			</g>
		</g>
		<g>
			<g>
				<linearGradient id="SVGID_33_" gradientUnits="userSpaceOnUse" x1="173" y1="94.2627" x2="174.5" y2="94.2627">
					<stop  offset="0" style="stop-color:#3C4855"/>
					<stop  offset="1" style="stop-color:#0F141C"/>
				</linearGradient>
				<path fill-rule="evenodd" clip-rule="evenodd" fill="url(#SVGID_33_)" d="M174.5,97v0.7c-0.6,0.2-1,0.2-1.5,0V97v-6.3h1.5V97z"
					/>
				<linearGradient id="SVGID_34_" gradientUnits="userSpaceOnUse" x1="169.4004" y1="97.7251" x2="178.0996" y2="97.7251">
					<stop  offset="0" style="stop-color:#3C4855"/>
					<stop  offset="1" style="stop-color:#0F141C"/>
				</linearGradient>
				<path fill-rule="evenodd" clip-rule="evenodd" fill="url(#SVGID_34_)" d="M173,97v0.7c0.4,0.2,0.9,0.2,1.5,0V97
					c0.8,0.1,1.6,0.1,2.4,0.3c0.6,0.1,1,0.2,1.1,0.4c0.1,0,0.1,0,0.1,0.1v0.1L178,98c-0.1,0.1-0.2,0.1-0.4,0.1
					c-0.2,0.1-0.5,0.2-0.8,0.3h0c-0.1,0-0.2,0-0.3,0c-0.8,0.1-1.5,0.2-2.3,0.2h-1.7c-0.2,0-0.5,0-0.6-0.1c-0.4,0-0.8,0-1.2-0.1h0
					c-0.8-0.2-1.2-0.3-1.3-0.5v-0.1c0-0.1,0.4-0.3,1.2-0.5C171.4,97.1,172.2,97,173,97z"/>
				<linearGradient id="SVGID_35_" gradientUnits="userSpaceOnUse" x1="169.4248" y1="98.4502" x2="178.0748" y2="98.4502">
					<stop  offset="0" style="stop-color:#070A0A"/>
					<stop  offset="0.6196" style="stop-color:#3B4754"/>
					<stop  offset="1" style="stop-color:#0F141C"/>
				</linearGradient>
				<path fill-rule="evenodd" clip-rule="evenodd" fill="url(#SVGID_35_)" d="M178,98l0.1-0.2l-0.1,0.8c-0.1,0.1-0.5,0.3-1.1,0.4
					h-0.1c-2,0.2-4,0.2-6,0h0c-0.7-0.2-1.1-0.3-1.3-0.4v-0.8c0.1,0.2,0.5,0.3,1.3,0.5h0c0.4,0,0.8,0.1,1.2,0.1
					c0.2,0.1,0.4,0.1,0.6,0.1h1.7c0.7,0,1.5-0.1,2.3-0.2c0.1,0,0.2,0,0.3,0h0c0.3-0.1,0.6-0.1,0.8-0.3C177.7,98,177.8,98,178,98z"/>
				<path fill-rule="evenodd" clip-rule="evenodd" fill="none" d="M178,98c-0.1,0.1-0.2,0.1-0.4,0.1c-0.2,0.1-0.5,0.2-0.8,0.3h0
					c-0.1,0-0.2,0-0.3,0c-0.8,0.1-1.5,0.2-2.3,0.2h-1.7c-0.2,0-0.5,0-0.6-0.1"/>
			</g>
		</g>
		<g>
			<g>
				<linearGradient id="SVGID_36_" gradientUnits="userSpaceOnUse" x1="144.7129" y1="46.6001" x2="291.0879" y2="46.6001">
					<stop  offset="0" style="stop-color:#3C4855"/>
					<stop  offset="1" style="stop-color:#0F141C"/>
				</linearGradient>
				<polygon fill-rule="evenodd" clip-rule="evenodd" fill="url(#SVGID_36_)" points="281.3,47.1 166.8,47.2 166.8,47.1 167.5,46 
					281.3,46 				"/>
				<linearGradient id="SVGID_37_" gradientUnits="userSpaceOnUse" x1="215.3652" y1="17.752" x2="228.1751" y2="81.8">
					<stop  offset="0" style="stop-color:#3C4855"/>
					<stop  offset="1" style="stop-color:#0F141C"/>
				</linearGradient>
				<polygon fill-rule="evenodd" clip-rule="evenodd" fill="url(#SVGID_37_)" points="166.8,47.2 281.3,47.1 282.6,47.1 282.7,47.1 
					282.7,82.3 166.8,82.3 				"/>
				<linearGradient id="SVGID_38_" gradientUnits="userSpaceOnUse" x1="144.7129" y1="46.5498" x2="291.0879" y2="46.5498">
					<stop  offset="0" style="stop-color:#242F39"/>
					<stop  offset="1" style="stop-color:#000000"/>
				</linearGradient>
				<polygon fill-rule="evenodd" clip-rule="evenodd" fill="url(#SVGID_38_)" points="281.3,47.1 281.3,46 282.6,47.1 				"/>
			</g>
		</g>
		<g>
			<g>
				<linearGradient id="SVGID_39_" gradientUnits="userSpaceOnUse" x1="153.2129" y1="82.2002" x2="240.6879" y2="82.2002">
					<stop  offset="0" style="stop-color:#242F39"/>
					<stop  offset="1" style="stop-color:#000000"/>
				</linearGradient>
				<polygon fill-rule="evenodd" clip-rule="evenodd" fill="url(#SVGID_39_)" points="235.5,82.4 166.6,82.4 166.6,82.4 166.8,82 
					234.8,82 				"/>
				
					<linearGradient id="SVGID_40_" gradientUnits="userSpaceOnUse" x1="-8.3574" y1="-381.0029" x2="13.8282" y2="-381.0029" gradientTransform="matrix(0.3448 0.9387 -1.0242 0.1121 -192.0384 122.0391)">
					<stop  offset="0" style="stop-color:#3C4855"/>
					<stop  offset="1" style="stop-color:#0F141C"/>
				</linearGradient>
				<polygon fill-rule="evenodd" clip-rule="evenodd" fill="url(#SVGID_40_)" points="166.6,82.4 235.5,82.4 235.7,82.4 235.7,92.4 
					166.6,92.4 				"/>
			</g>
		</g>
		<g>
			
				<linearGradient id="SVGID_41_" gradientUnits="userSpaceOnUse" x1="3.9785" y1="-399.248" x2="20.2836" y2="-399.248" gradientTransform="matrix(0.2147 0.9767 -0.9845 0.179 -214.3874 133.6714)">
				<stop  offset="0" style="stop-color:#3C4855"/>
				<stop  offset="1" style="stop-color:#0F141C"/>
			</linearGradient>
			<path fill-rule="evenodd" clip-rule="evenodd" fill="url(#SVGID_41_)" d="M197.1,74.4c0.7,0.3,1,0.8,1,1.6v6.1h-31.5v-7.6
				L197.1,74.4z"/>
		</g>
		<g>
			<g>
				<path fill-rule="evenodd" clip-rule="evenodd" fill-opacity="0.498" d="M173.5,79.3c-0.4,0.4-0.9,0.6-1.5,0.6s-1.1-0.2-1.5-0.6
					c-0.4-0.4-0.6-0.9-0.6-1.5s0.2-1.1,0.6-1.5s0.9-0.6,1.5-0.6s1.1,0.2,1.5,0.6s0.6,0.9,0.6,1.5S173.9,78.9,173.5,79.3z"/>
				
					<linearGradient id="SVGID_42_" gradientUnits="userSpaceOnUse" x1="10.0483" y1="-42.647" x2="34.248" y2="-42.647" gradientTransform="matrix(0.172 0 0 0.172 167.7431 85.1815)">
					<stop  offset="0" style="stop-color:#E8E8E0"/>
					<stop  offset="1" style="stop-color:#49484A"/>
				</linearGradient>
				<path fill-rule="evenodd" clip-rule="evenodd" fill="url(#SVGID_42_)" d="M173,79.3c-0.4,0.4-0.9,0.6-1.5,0.6s-1.1-0.2-1.5-0.6
					c-0.4-0.4-0.6-0.9-0.6-1.5s0.2-1.1,0.6-1.5s0.9-0.6,1.5-0.6s1.1,0.2,1.5,0.6s0.6,0.9,0.6,1.5S173.4,78.9,173,79.3z"/>
				
					<linearGradient id="SVGID_43_" gradientUnits="userSpaceOnUse" x1="10.0474" y1="-42.6475" x2="34.2466" y2="-42.6475" gradientTransform="matrix(0.1531 0 0 0.1531 168.0203 84.4517)">
					<stop  offset="0" style="stop-color:#77777A"/>
					<stop  offset="1" style="stop-color:#595F6F"/>
				</linearGradient>
				<path fill-rule="evenodd" clip-rule="evenodd" fill="url(#SVGID_43_)" d="M172.7,79.2c-0.4,0.4-0.8,0.5-1.3,0.5
					c-0.5,0-0.9-0.2-1.3-0.5s-0.5-0.8-0.5-1.3s0.2-0.9,0.5-1.3s0.8-0.5,1.3-0.5c0.5,0,0.9,0.2,1.3,0.5s0.5,0.8,0.5,1.3
					S173.1,78.9,172.7,79.2z"/>
				
					<rect x="168.8" y="78.2" transform="matrix(0.3613 -0.9324 0.9324 0.3613 35.7638 209.1859)" fill-rule="evenodd" clip-rule="evenodd" fill="#363840" width="3.5" height="0.5"/>
				
					<rect x="169.7" y="78.3" transform="matrix(0.3613 -0.9324 0.9324 0.3613 36.2606 210.0108)" fill-rule="evenodd" clip-rule="evenodd" fill="#AAB2B4" width="3.5" height="0.5"/>
				
					<rect x="168.8" y="78.2" transform="matrix(0.3613 -0.9324 0.9324 0.3613 35.7638 209.1859)" fill-rule="evenodd" clip-rule="evenodd" fill="#6A7579" width="3.5" height="0.5"/>
				
					<rect x="169.7" y="78.3" transform="matrix(0.3613 -0.9324 0.9324 0.3613 36.2606 210.0108)" fill-rule="evenodd" clip-rule="evenodd" fill="#363840" width="3.5" height="0.5"/>
			</g>
		</g>
		<g>
			<g>
				<path fill-rule="evenodd" clip-rule="evenodd" fill-opacity="0.498" d="M202.8,90.4c-0.4,0.4-0.9,0.6-1.5,0.6s-1.1-0.2-1.5-0.6
					c-0.4-0.4-0.6-0.9-0.6-1.5s0.2-1.1,0.6-1.5s0.9-0.6,1.5-0.6s1.1,0.2,1.5,0.6s0.6,0.9,0.6,1.5S203.2,90,202.8,90.4z"/>
				
					<linearGradient id="SVGID_44_" gradientUnits="userSpaceOnUse" x1="10.0464" y1="-42.6489" x2="34.2466" y2="-42.6489" gradientTransform="matrix(0.172 0 0 0.172 196.8437 96.2314)">
					<stop  offset="0" style="stop-color:#E8E8E0"/>
					<stop  offset="1" style="stop-color:#49484A"/>
				</linearGradient>
				<path fill-rule="evenodd" clip-rule="evenodd" fill="url(#SVGID_44_)" d="M202.1,90.4c-0.4,0.4-0.9,0.6-1.5,0.6
					s-1.1-0.2-1.5-0.6c-0.4-0.4-0.6-0.9-0.6-1.5s0.2-1.1,0.6-1.5s0.9-0.6,1.5-0.6s1.1,0.2,1.5,0.6s0.6,0.9,0.6,1.5
					S202.5,90,202.1,90.4z"/>
				
					<linearGradient id="SVGID_45_" gradientUnits="userSpaceOnUse" x1="10.0464" y1="-42.6523" x2="34.2461" y2="-42.6523" gradientTransform="matrix(0.1531 0 0 0.1531 196.7205 95.0523)">
					<stop  offset="0" style="stop-color:#77777A"/>
					<stop  offset="1" style="stop-color:#595F6F"/>
				</linearGradient>
				<path fill-rule="evenodd" clip-rule="evenodd" fill="url(#SVGID_45_)" d="M201.4,89.8c-0.4,0.4-0.8,0.5-1.3,0.5
					c-0.5,0-0.9-0.2-1.3-0.5s-0.5-0.8-0.5-1.3s0.2-0.9,0.5-1.3s0.8-0.5,1.3-0.5c0.5,0,0.9,0.2,1.3,0.5s0.5,0.8,0.5,1.3
					S201.8,89.5,201.4,89.8z"/>
				
					<rect x="198.9" y="89.3" transform="matrix(0.3613 -0.9324 0.9324 0.3613 44.6063 244.2958)" fill-rule="evenodd" clip-rule="evenodd" fill="#363840" width="3.5" height="0.5"/>
				
					<rect x="198.9" y="89.3" transform="matrix(0.3613 -0.9324 0.9324 0.3613 44.6063 244.2958)" fill-rule="evenodd" clip-rule="evenodd" fill="#AAB2B4" width="3.5" height="0.5"/>
				
					<rect x="198.9" y="89.3" transform="matrix(0.3613 -0.9324 0.9324 0.3613 44.6063 244.2958)" fill-rule="evenodd" clip-rule="evenodd" fill="#6A7579" width="3.5" height="0.5"/>
				
					<rect x="198.9" y="89.3" transform="matrix(0.3613 -0.9324 0.9324 0.3613 44.6063 244.2958)" fill-rule="evenodd" clip-rule="evenodd" fill="#363840" width="3.5" height="0.5"/>
			</g>
		</g>
		<g>
			<g>
				<path fill-rule="evenodd" clip-rule="evenodd" fill-opacity="0.498" d="M225.4,79.8c-0.4,0.4-0.9,0.6-1.5,0.6s-1.1-0.2-1.5-0.6
					c-0.4-0.4-0.6-0.9-0.6-1.5s0.2-1.1,0.6-1.5s0.9-0.6,1.5-0.6s1.1,0.2,1.5,0.6s0.6,0.9,0.6,1.5S225.8,79.4,225.4,79.8z"/>
				
					<linearGradient id="SVGID_46_" gradientUnits="userSpaceOnUse" x1="10.0469" y1="-42.6509" x2="34.2466" y2="-42.6509" gradientTransform="matrix(0.172 0 0 0.172 219.8437 85.6815)">
					<stop  offset="0" style="stop-color:#E8E8E0"/>
					<stop  offset="1" style="stop-color:#49484A"/>
				</linearGradient>
				<path fill-rule="evenodd" clip-rule="evenodd" fill="url(#SVGID_46_)" d="M225.1,79.8c-0.4,0.4-0.9,0.6-1.5,0.6
					s-1.1-0.2-1.5-0.6c-0.4-0.4-0.6-0.9-0.6-1.5s0.2-1.1,0.6-1.5s0.9-0.6,1.5-0.6s1.1,0.2,1.5,0.6s0.6,0.9,0.6,1.5
					S225.5,79.4,225.1,79.8z"/>
				
					<linearGradient id="SVGID_47_" gradientUnits="userSpaceOnUse" x1="10.0464" y1="-42.6475" x2="34.2456" y2="-42.6475" gradientTransform="matrix(0.1531 0 0 0.1531 220.6697 84.4517)">
					<stop  offset="0" style="stop-color:#77777A"/>
					<stop  offset="1" style="stop-color:#595F6F"/>
				</linearGradient>
				<path fill-rule="evenodd" clip-rule="evenodd" fill="url(#SVGID_47_)" d="M225.4,79.2c-0.4,0.4-0.8,0.5-1.3,0.5
					c-0.5,0-0.9-0.2-1.3-0.5s-0.5-0.8-0.5-1.3s0.2-0.9,0.5-1.3s0.8-0.5,1.3-0.5c0.5,0,0.9,0.2,1.3,0.5s0.5,0.8,0.5,1.3
					S225.7,78.9,225.4,79.2z"/>
				
					<rect x="222.4" y="78.3" transform="matrix(0.3613 -0.9324 0.9324 0.3613 69.9188 259.1506)" fill-rule="evenodd" clip-rule="evenodd" fill="#363840" width="3.5" height="0.5"/>
				
					<rect x="222.4" y="78.3" transform="matrix(0.3613 -0.9324 0.9324 0.3613 69.9188 259.1506)" fill-rule="evenodd" clip-rule="evenodd" fill="#AAB2B4" width="3.5" height="0.5"/>
				
					<rect x="222.4" y="78.3" transform="matrix(0.3613 -0.9324 0.9324 0.3613 69.9188 259.1506)" fill-rule="evenodd" clip-rule="evenodd" fill="#6A7579" width="3.5" height="0.5"/>
				
					<rect x="222.4" y="78.3" transform="matrix(0.3613 -0.9324 0.9324 0.3613 69.9188 259.1506)" fill-rule="evenodd" clip-rule="evenodd" fill="#363840" width="3.5" height="0.5"/>
			</g>
		</g>
		<g>
			<g>
				<path fill-rule="evenodd" clip-rule="evenodd" fill-opacity="0.498" d="M272,79.8c-0.4,0.4-0.9,0.6-1.5,0.6s-1.1-0.2-1.5-0.6
					c-0.4-0.4-0.6-0.9-0.6-1.5s0.2-1.1,0.6-1.5s0.9-0.6,1.5-0.6s1.1,0.2,1.5,0.6s0.6,0.9,0.6,1.5S272.4,79.4,272,79.8z"/>
				
					<linearGradient id="SVGID_48_" gradientUnits="userSpaceOnUse" x1="10.0483" y1="-42.6509" x2="34.2485" y2="-42.6509" gradientTransform="matrix(0.172 0 0 0.172 266.4433 85.6815)">
					<stop  offset="0" style="stop-color:#E8E8E0"/>
					<stop  offset="1" style="stop-color:#49484A"/>
				</linearGradient>
				<path fill-rule="evenodd" clip-rule="evenodd" fill="url(#SVGID_48_)" d="M271.7,79.8c-0.4,0.4-0.9,0.6-1.5,0.6
					s-1.1-0.2-1.5-0.6c-0.4-0.4-0.6-0.9-0.6-1.5s0.2-1.1,0.6-1.5s0.9-0.6,1.5-0.6s1.1,0.2,1.5,0.6s0.6,0.9,0.6,1.5
					S272.1,79.4,271.7,79.8z"/>
				
					<linearGradient id="SVGID_49_" gradientUnits="userSpaceOnUse" x1="10.0469" y1="-42.6475" x2="34.2466" y2="-42.6475" gradientTransform="matrix(0.1531 0 0 0.1531 267.3201 84.4517)">
					<stop  offset="0" style="stop-color:#77777A"/>
					<stop  offset="1" style="stop-color:#595F6F"/>
				</linearGradient>
				<path fill-rule="evenodd" clip-rule="evenodd" fill="url(#SVGID_49_)" d="M272,79.2c-0.4,0.4-0.8,0.5-1.3,0.5
					c-0.5,0-0.9-0.2-1.3-0.5s-0.5-0.8-0.5-1.3s0.2-0.9,0.5-1.3s0.8-0.5,1.3-0.5c0.5,0,0.9,0.2,1.3,0.5s0.5,0.8,0.5,1.3
					S272.4,78.9,272,79.2z"/>
				
					<rect x="268.6" y="78.3" transform="matrix(0.3613 -0.9324 0.9324 0.3613 99.4575 302.2759)" fill-rule="evenodd" clip-rule="evenodd" fill="#363840" width="3.5" height="0.5"/>
				
					<rect x="268.8" y="78.3" transform="matrix(0.3613 -0.9324 0.9324 0.3613 99.553 302.4152)" fill-rule="evenodd" clip-rule="evenodd" fill="#AAB2B4" width="3.5" height="0.5"/>
				
					<rect x="268.6" y="78.3" transform="matrix(0.3613 -0.9324 0.9324 0.3613 99.4575 302.2759)" fill-rule="evenodd" clip-rule="evenodd" fill="#6A7579" width="3.5" height="0.5"/>
				
					<rect x="268.6" y="78.3" transform="matrix(0.3613 -0.9324 0.9324 0.3613 99.4575 302.2759)" fill-rule="evenodd" clip-rule="evenodd" fill="#363840" width="3.5" height="0.5"/>
			</g>
		</g>
		<g>
			<radialGradient id="SVGID_50_" cx="201.4004" cy="82.5" r="31.9875" gradientUnits="userSpaceOnUse">
				<stop  offset="0" style="stop-color:#FFFFFF;stop-opacity:0.3294"/>
				<stop  offset="1" style="stop-color:#FFFFFF;stop-opacity:0"/>
			</radialGradient>
			<path fill-rule="evenodd" clip-rule="evenodd" fill="url(#SVGID_50_)" d="M169.3,82.4c0,0,0.1,0,0.2,0h64l0,0
				c0.1,0,0.1,0,0.1,0.1c0,0,0,0.1-0.1,0.1h-64c-0.1,0-0.1,0-0.2,0c0-0.1,0-0.1,0-0.1V82.4z"/>
		</g>
	</g>
</g>
</svg>
