<?xml version="1.0" encoding="utf-8"?>
<!-- Generator: Adobe Illustrator 16.0.0, SVG Export Plug-In . SVG Version: 6.00 Build 0)  -->
<!DOCTYPE svg PUBLIC "-//W3C//DTD SVG 1.1//EN" "http://www.w3.org/Graphics/SVG/1.1/DTD/svg11.dtd">
<svg version="1.1" id="Layer_1" xmlns="http://www.w3.org/2000/svg" xmlns:xlink="http://www.w3.org/1999/xlink" x="0px" y="0px"
	 width="700px" height="700px" viewBox="0 0 700 700" enable-background="new 0 0 700 700" xml:space="preserve">
<g>
	<g>
		<g>
			<radialGradient id="SVGID_1_" cx="78.3501" cy="521.5996" r="5.625" gradientUnits="userSpaceOnUse">
				<stop  offset="0" style="stop-color:#FFB4B4"/>
				<stop  offset="0.2706" style="stop-color:#FF0000"/>
				<stop  offset="1" style="stop-color:#A90303"/>
			</radialGradient>
			<path fill-rule="evenodd" clip-rule="evenodd" fill="url(#SVGID_1_)" d="M74,526c-1.2-1.2-1.8-2.5-1.8-4.1c0-1.7,0.6-3.1,1.8-4.3
				c1.3-1.1,2.7-1.6,4.3-1.6c1.6,0,3,0.5,4.2,1.6c1.3,1.2,1.9,2.6,1.9,4.3c0,1.6-0.6,3-1.9,4.1c-1.2,1.2-2.6,1.8-4.2,1.8
				C76.8,527.8,75.3,527.2,74,526z"/>
		</g>
		<g>
			<g>
				<linearGradient id="SVGID_2_" gradientUnits="userSpaceOnUse" x1="79.8325" y1="516.501" x2="76.3152" y2="520.812">
					<stop  offset="0" style="stop-color:#FFFFFF;stop-opacity:0.5216"/>
					<stop  offset="1" style="stop-color:#FAFAFA;stop-opacity:0"/>
				</linearGradient>
				<path fill-rule="evenodd" clip-rule="evenodd" fill="url(#SVGID_2_)" d="M75.4,518.8c0-0.6,0.2-1.2,0.6-1.6
					c0.6-0.3,1.3-0.6,2.1-0.7c0.8-0.1,1.5,0.1,2,0.7c0.5,0.5,0.8,1,0.8,1.6c0,0.4-0.3,0.8-0.8,1.2c-0.5,0.5-1.2,0.7-2,0.7
					c-0.7,0-1.4-0.2-2.1-0.7C75.6,519.6,75.4,519.2,75.4,518.8z"/>
			</g>
		</g>
		<g>
			<g>
				
					<linearGradient id="SVGID_3_" gradientUnits="userSpaceOnUse" x1="-79.686" y1="555.9658" x2="-74.9402" y2="555.9658" gradientTransform="matrix(0.8112 -0.5847 0.5538 0.8335 -5.173683e-005 6.914139e-006)">
					<stop  offset="0" style="stop-color:#E6E6E6"/>
					<stop  offset="0.102" style="stop-color:#FFFFFF"/>
					<stop  offset="0.251" style="stop-color:#E6E6E6"/>
					<stop  offset="0.5333" style="stop-color:#919191"/>
					<stop  offset="0.7882" style="stop-color:#FFFFFF"/>
					<stop  offset="1" style="stop-color:#AFAFAF"/>
				</linearGradient>
				<path fill-rule="evenodd" clip-rule="evenodd" fill="url(#SVGID_3_)" d="M243.6,510.8l-1.6-4c0-1.7,0.8-2.3,2.5-1.9l3.9,3.5
					c-0.4-0.3-0.8-0.4-1.4-0.4c-1,0-1.9,0.4-2.5,1.1C243.9,509.6,243.6,510.2,243.6,510.8z M250.4,510.3l-0.1-0.1h0.1V510.3z"/>
				<radialGradient id="SVGID_4_" cx="246.6001" cy="510.5498" r="5.3875" gradientUnits="userSpaceOnUse">
					<stop  offset="0" style="stop-color:#FFFFFF"/>
					<stop  offset="0.1451" style="stop-color:#E4E4E4"/>
					<stop  offset="0.3451" style="stop-color:#C5C5C5"/>
					<stop  offset="0.6118" style="stop-color:#979797"/>
					<stop  offset="0.8039" style="stop-color:#AEAEAE"/>
					<stop  offset="1" style="stop-color:#595959"/>
				</radialGradient>
				<path fill-rule="evenodd" clip-rule="evenodd" fill="url(#SVGID_4_)" d="M250.3,510.2l0.1,0.1c0.1,0.4,0.1,0.7,0.1,1.1
					c0,1-0.4,1.8-1.1,2.5c-0.6,0.7-1.4,1-2.4,1s-1.9-0.3-2.5-1c-0.7-0.7-1.1-1.6-1.1-2.5c0-0.2,0.1-0.4,0.3-0.6
					c0-0.6,0.3-1.2,0.8-1.8c0.7-0.7,1.5-1.1,2.5-1.1c0.5,0,1,0.1,1.4,0.4c0.3,0.1,0.6,0.3,1,0.7C249.8,509.5,250,509.8,250.3,510.2z
					"/>
			</g>
		</g>
	</g>
</g>
</svg>
