<?xml version="1.0" encoding="utf-8"?>
<!-- Generator: Adobe Illustrator 16.0.0, SVG Export Plug-In . SVG Version: 6.00 Build 0)  -->
<!DOCTYPE svg PUBLIC "-//W3C//DTD SVG 1.1//EN" "http://www.w3.org/Graphics/SVG/1.1/DTD/svg11.dtd">
<svg version="1.1" id="Layer_1" xmlns="http://www.w3.org/2000/svg" xmlns:xlink="http://www.w3.org/1999/xlink" x="0px" y="0px"
	 width="129.8px" height="45.3px" viewBox="0 0 129.8 45.3" enable-background="new 0 0 129.8 45.3" xml:space="preserve">
<g>
	<g>
		<g>
			<linearGradient id="SVGID_1_" gradientUnits="userSpaceOnUse" x1="94.7803" y1="12.0205" x2="94.7803" y2="32.8455">
				<stop  offset="0" style="stop-color:#758793"/>
				<stop  offset="8.627451e-002" style="stop-color:#A8C1D5"/>
				<stop  offset="0.2431" style="stop-color:#FFFFFF"/>
				<stop  offset="0.3686" style="stop-color:#9FB1BD"/>
				<stop  offset="0.7529" style="stop-color:#363741"/>
				<stop  offset="1" style="stop-color:#8A7D89"/>
			</linearGradient>
			<path fill-rule="evenodd" clip-rule="evenodd" fill="url(#SVGID_1_)" d="M127.5,13.8c0.4,1.1,0.7,3.1,0.9,6
				c0.2,2.8,0.1,5.7-0.3,8.5c-0.1,0.9-0.3,1.8-0.4,2.5c-0.3,1.2-0.9,1.9-2,2H61.1V12h65c0.6,0,1,0.4,1.3,1.1
				C127.4,13.3,127.4,13.6,127.5,13.8z"/>
		</g>
		<g>
			<g>
				<g>
					<linearGradient id="SVGID_2_" gradientUnits="userSpaceOnUse" x1="95.2578" y1="1.2578" x2="95.2578" y2="44.0078">
						<stop  offset="0" style="stop-color:#758793"/>
						<stop  offset="8.627451e-002" style="stop-color:#A8C1D5"/>
						<stop  offset="0.1961" style="stop-color:#FFFFFF"/>
						<stop  offset="0.3843" style="stop-color:#9FB1BD"/>
						<stop  offset="0.5412" style="stop-color:#4E505C"/>
						<stop  offset="1" style="stop-color:#A49EA5"/>
					</linearGradient>
					<path fill-rule="evenodd" clip-rule="evenodd" fill="url(#SVGID_2_)" d="M71.2,44c0.1,0,0.1-0.1,0.2-0.1
						c1.8-14.5,1.8-28.5,0-42.1c0-0.1,0-0.3,0-0.5v0h0V1.1c0,0.1,0,0.1,0,0.1h0h42.4c1.7,0.4,2.8,1.3,3.1,2.8
						c0.6,2.3,1.2,5.5,1.8,9.6c0.9,6.4,0.9,12.8,0,19.1v0.1l-0.4,2.6c-0.5,2.6-1.2,4.9-1.9,6.9c-0.7,1.1-1.9,1.7-3.5,1.7H71.3H71.2z
						"/>
					<linearGradient id="SVGID_3_" gradientUnits="userSpaceOnUse" x1="6.7158" y1="3.5371" x2="10.0732" y2="39.7184">
						<stop  offset="0" style="stop-color:#646369"/>
						<stop  offset="8.627451e-002" style="stop-color:#C0C7CD"/>
						<stop  offset="0.1608" style="stop-color:#9A9EA7"/>
						<stop  offset="0.3647" style="stop-color:#FCFFFF"/>
						<stop  offset="0.4745" style="stop-color:#FEFFFF"/>
						<stop  offset="0.6431" style="stop-color:#A3ACB5"/>
						<stop  offset="1" style="stop-color:#393C3C"/>
					</linearGradient>
					<path fill-rule="evenodd" clip-rule="evenodd" fill="url(#SVGID_3_)" d="M14.8,2.8c1.1,14.6,1.1,27.6,0,39L1.7,37.5
						C2.5,26.8,2.4,16.3,1.4,6c0-0.1,0-0.1,0-0.2c2.7-0.6,6.7-1.5,12-2.7C13.9,3,14.4,2.9,14.8,2.8z"/>
					<linearGradient id="SVGID_4_" gradientUnits="userSpaceOnUse" x1="42.0488" y1="2.7832" x2="42.0488" y2="42.0332">
						<stop  offset="0" style="stop-color:#646369"/>
						<stop  offset="8.627451e-002" style="stop-color:#C0C7CD"/>
						<stop  offset="0.1608" style="stop-color:#9A9EA7"/>
						<stop  offset="0.3647" style="stop-color:#FCFFFF"/>
						<stop  offset="0.4745" style="stop-color:#FEFFFF"/>
						<stop  offset="0.6431" style="stop-color:#A3ACB5"/>
						<stop  offset="1" style="stop-color:#37383A"/>
					</linearGradient>
					<path fill-rule="evenodd" clip-rule="evenodd" fill="url(#SVGID_4_)" d="M67.9,2.8h0.2v0.6c0.6,5,0.9,10.1,1.1,15.1
						c0.2,5.5,0,11.1-0.5,16.8c-0.1,2.2-0.3,4.4-0.6,6.6H14.8v0c1.1-11.5,1.1-24.5,0-39H67.9z"/>
					<linearGradient id="SVGID_5_" gradientUnits="userSpaceOnUse" x1="70.1133" y1="-1.5537" x2="70.3572" y2="46.621">
						<stop  offset="0" style="stop-color:#758793"/>
						<stop  offset="0.5529" style="stop-color:#363741"/>
						<stop  offset="1" style="stop-color:#8A7D89"/>
					</linearGradient>
					<path fill-rule="evenodd" clip-rule="evenodd" fill="url(#SVGID_5_)" d="M68.1,41.9c0.3-2.2,0.5-4.4,0.6-6.6
						c0.5-5.7,0.7-11.3,0.5-16.8c-0.2-5-0.5-10.1-1.1-15.1V2.8h-0.2l3.4-1.5c0,0.2,0,0.4,0,0.5c1.8,13.6,1.8,27.6,0,42.1
						c0,0-0.1,0-0.2,0.1l-3.3-2l0-0.1l0.2,0.1V41.9z"/>
				</g>
			</g>
			<g>
				<linearGradient id="SVGID_6_" gradientUnits="userSpaceOnUse" x1="95.2578" y1="1.2334" x2="95.2578" y2="43.9834">
					<stop  offset="0" style="stop-color:#758793;stop-opacity:0.7804"/>
					<stop  offset="8.627451e-002" style="stop-color:#A8C1D5;stop-opacity:0.7333"/>
					<stop  offset="0.1961" style="stop-color:#FFFFFF;stop-opacity:0.6824"/>
					<stop  offset="0.4549" style="stop-color:#6F6F6F;stop-opacity:0.6235"/>
					<stop  offset="0.7451" style="stop-color:#9C9AA0;stop-opacity:0.5216"/>
					<stop  offset="1" style="stop-color:#605F65"/>
				</linearGradient>
				<path fill-rule="evenodd" clip-rule="evenodd" fill="url(#SVGID_6_)" d="M118.7,32.8l-0.4,2.6c-0.5,2.3-1,4.3-1.6,6.2
					c-0.5,1.4-1.8,2.2-3.8,2.4H71.2c0.2-1.3,0.3-2.7,0.5-4.2c1.7-10,1.9-20.5,0.5-31.3c-0.5-3.6-0.8-6-0.9-7.3h42.1v2.4h3.4
					c0.6,2.3,1.3,5.6,1.8,10C119.5,20.1,119.5,26.5,118.7,32.8L118.7,32.8z"/>
			</g>
			<g>
				<linearGradient id="SVGID_7_" gradientUnits="userSpaceOnUse" x1="72.6201" y1="6.7705" x2="72.6201" y2="39.0955">
					<stop  offset="0" style="stop-color:#FFFFFF;stop-opacity:0"/>
					<stop  offset="0.4863" style="stop-color:#FFFFFF"/>
					<stop  offset="1" style="stop-color:#FFFFFF;stop-opacity:0"/>
				</linearGradient>
				<path fill-rule="evenodd" clip-rule="evenodd" fill="url(#SVGID_7_)" d="M71.9,5.6l0.2-0.1c1.9,11.8,2.1,23.5,0.7,35l-1.3,0
					C72.9,29,73,17.3,71.9,5.6z"/>
			</g>
			<g>
				<linearGradient id="SVGID_8_" gradientUnits="userSpaceOnUse" x1="-18.9922" y1="22.3584" x2="22.9578" y2="22.3584">
					<stop  offset="0" style="stop-color:#000000"/>
					<stop  offset="1" style="stop-color:#000000;stop-opacity:0"/>
				</linearGradient>
				<path fill-rule="evenodd" clip-rule="evenodd" fill="url(#SVGID_8_)" d="M1.4,5.8c2.7-0.6,6.7-1.5,12-2.7
					c0.5-0.1,0.9-0.3,1.4-0.3h0.3c0.7,12.9,0.7,26,0,39.1h-0.2c-6.5-2-11-3.5-13.3-4.5C2.5,26.9,2.4,16.4,1.4,6
					C1.4,5.9,1.4,5.9,1.4,5.8z"/>
			</g>
		</g>
	</g>
</g>
</svg>
