<?xml version="1.0" encoding="utf-8"?>
<!-- Generator: Adobe Illustrator 16.0.0, SVG Export Plug-In . SVG Version: 6.00 Build 0)  -->
<!DOCTYPE svg PUBLIC "-//W3C//DTD SVG 1.1//EN" "http://www.w3.org/Graphics/SVG/1.1/DTD/svg11.dtd">
<svg version="1.1" xmlns="http://www.w3.org/2000/svg" xmlns:xlink="http://www.w3.org/1999/xlink" x="0px" y="0px" width="71px"
	 height="1264.85px" viewBox="0 -428.15 71 1264.85" enable-background="new 0 -428.15 71 1264.85" xml:space="preserve">
<g id="Layer_1">
	<g id="Layer_1_1_">
		<g id="Layer_5">
			<g>
				<path d="M51.1,824.401c0-1.102,0.101-2,0.301-2.701c0.199-0.699,0.6-1.199,1-1.6c0.399-0.4,1-0.5,1.699-0.5
					c0.5,0,0.9,0.1,1.301,0.301c0.399,0.199,0.699,0.5,0.899,0.898c0.2,0.4,0.4,0.801,0.601,1.4c0.199,0.6,0.199,1.301,0.199,2.201
					c0,1.1-0.1,2-0.3,2.6s-0.6,1.199-1,1.6c-0.399,0.4-1,0.5-1.7,0.5c-0.899,0-1.6-0.301-2.1-1
					C51.4,827.401,51.1,826.1,51.1,824.401z M52.3,824.401c0,1.5,0.2,2.5,0.5,3s0.8,0.799,1.3,0.799s1-0.299,1.301-0.799
					c0.3-0.5,0.5-1.5,0.5-3s-0.2-2.5-0.5-3.102C55.1,820.7,54.6,820.5,54.1,820.5S53.2,820.7,52.8,821.2
					C52.5,821.799,52.3,822.799,52.3,824.401z"/>
			</g>
			<g>
				<path d="M54.5,788.1h-1.1v-7.301c-0.301,0.301-0.601,0.5-1.101,0.801c-0.399,0.301-0.8,0.5-1.2,0.6v-1.1
					c0.601-0.301,1.2-0.699,1.7-1.1s0.8-0.801,1-1.201h0.7V788.1z"/>
				<path d="M57.5,783.5c0-1.1,0.1-2,0.3-2.701c0.2-0.699,0.601-1.199,1-1.6c0.4-0.4,1-0.5,1.7-0.5c0.5,0,0.9,0.1,1.3,0.301
					c0.4,0.199,0.7,0.5,0.9,0.9c0.2,0.398,0.399,0.799,0.6,1.398c0.2,0.602,0.2,1.301,0.2,2.201c0,1.1-0.1,2-0.3,2.6
					s-0.601,1.199-1,1.6c-0.4,0.4-1,0.5-1.7,0.5c-0.9,0-1.6-0.299-2.1-1C57.8,786.5,57.5,785.299,57.5,783.5z M58.6,783.5
					c0,1.5,0.2,2.5,0.5,3c0.301,0.5,0.801,0.799,1.301,0.799s1-0.299,1.3-0.799s0.5-1.5,0.5-3s-0.2-2.5-0.5-3.1
					c-0.3-0.602-0.8-0.801-1.3-0.801s-0.9,0.199-1.301,0.699C58.8,781,58.6,782,58.6,783.5z"/>
			</g>
			<g>
				<path d="M54.5,767.299h-1.1V760c-0.301,0.299-0.601,0.5-1.101,0.799c-0.399,0.301-0.8,0.5-1.2,0.602v-1.102
					c0.601-0.299,1.2-0.699,1.7-1.1s0.8-0.799,1-1.199h0.7V767.299z"/>
				<path d="M57.5,764.799l1.2-0.1c0.1,0.6,0.3,1,0.6,1.301c0.3,0.299,0.7,0.4,1.2,0.4s1-0.201,1.4-0.602
					c0.399-0.398,0.6-1,0.6-1.699s-0.2-1.199-0.5-1.5s-0.8-0.6-1.4-0.6c-0.399,0-0.699,0.1-1,0.299c-0.3,0.201-0.5,0.4-0.699,0.701
					l-1.101-0.1l0.9-4.801h4.6v1.1h-3.7l-0.5,2.5c0.601-0.4,1.101-0.6,1.801-0.6c0.8,0,1.5,0.301,2.1,0.801
					c0.6,0.6,0.8,1.299,0.8,2.199c0,0.801-0.2,1.6-0.7,2.199c-0.6,0.801-1.399,1.102-2.399,1.102c-0.8,0-1.5-0.201-2.101-0.701
					C57.9,766.299,57.5,765.6,57.5,764.799z"/>
			</g>
			<g>
				<path d="M57.2,745.299v1.102H51.1c0-0.301,0-0.5,0.101-0.801c0.2-0.4,0.399-0.801,0.8-1.199c0.4-0.4,0.8-0.9,1.5-1.4
					c1-0.801,1.7-1.5,2.1-2c0.4-0.5,0.5-0.9,0.5-1.4s-0.199-0.801-0.5-1.1c-0.3-0.301-0.699-0.5-1.3-0.5c-0.5,0-1,0.199-1.3,0.5
					c-0.3,0.299-0.5,0.799-0.5,1.4l-1.2-0.102c0.101-0.898,0.4-1.5,0.9-2s1.2-0.699,2.1-0.699c0.9,0,1.601,0.199,2.101,0.699
					s0.8,1.102,0.8,1.801c0,0.4-0.101,0.699-0.2,1.1s-0.4,0.701-0.8,1.1c-0.4,0.4-0.9,0.9-1.8,1.6c-0.7,0.602-1.101,1-1.301,1.201
					c-0.199,0.199-0.399,0.4-0.5,0.6H57.2V745.299z"/>
				<path d="M58.5,741.799c0-1.1,0.1-2,0.3-2.699s0.601-1.199,1-1.6c0.4-0.4,1-0.5,1.7-0.5c0.5,0,0.9,0.1,1.3,0.299
					c0.4,0.201,0.7,0.5,0.9,0.9s0.399,0.801,0.6,1.4s0.2,1.301,0.2,2.199c0,1.102-0.1,2-0.3,2.602c-0.2,0.6-0.601,1.199-1,1.6
					c-0.4,0.4-1,0.5-1.7,0.5c-0.9,0-1.6-0.301-2.1-1C58.8,744.901,58.5,743.6,58.5,741.799z M59.6,741.799c0,1.5,0.2,2.5,0.5,3
					c0.301,0.5,0.801,0.801,1.301,0.801s1-0.301,1.3-0.801s0.5-1.5,0.5-3s-0.2-2.5-0.5-3.1s-0.8-0.799-1.3-0.799
					S60.5,738.1,60.1,738.6C59.8,739.299,59.6,740.299,59.6,741.799z"/>
			</g>
			<g>
				<path d="M57.2,724.5v1.1H51.1c0-0.301,0-0.5,0.101-0.801C51.4,724.401,51.6,724,52,723.6s0.8-0.9,1.5-1.4c1-0.799,1.7-1.5,2.1-2
					c0.4-0.5,0.5-0.9,0.5-1.4S55.9,718,55.6,717.7c-0.3-0.299-0.699-0.5-1.3-0.5c-0.5,0-1,0.201-1.3,0.5
					c-0.3,0.301-0.5,0.801-0.5,1.4l-1.2-0.1c0.101-0.9,0.4-1.5,0.9-2s1.2-0.701,2.1-0.701c0.9,0,1.601,0.201,2.101,0.701
					s0.8,1.1,0.8,1.799c0,0.4-0.101,0.701-0.2,1.102c-0.1,0.398-0.4,0.699-0.8,1.1c-0.4,0.398-0.9,0.9-1.8,1.6
					c-0.7,0.6-1.101,1-1.301,1.199c-0.199,0.201-0.399,0.4-0.5,0.6L57.2,724.5L57.2,724.5z"/>
				<path d="M58.5,723.2l1.2-0.1c0.1,0.6,0.3,1,0.6,1.301c0.3,0.299,0.7,0.398,1.2,0.398s1-0.199,1.4-0.6c0.399-0.4,0.6-1,0.6-1.699
					c0-0.701-0.2-1.201-0.5-1.5c-0.3-0.301-0.8-0.6-1.4-0.6c-0.399,0-0.699,0.1-1,0.299c-0.3,0.201-0.5,0.4-0.699,0.701
					l-1.101-0.102l0.9-4.799h4.6v1.1h-3.7l-0.5,2.5c0.601-0.4,1.101-0.6,1.801-0.6c0.8,0,1.5,0.299,2.1,0.799
					c0.6,0.602,0.8,1.301,0.8,2.201c0,0.799-0.2,1.6-0.7,2.199c-0.6,0.801-1.399,1.1-2.399,1.1c-0.8,0-1.5-0.199-2.101-0.699
					C58.9,724.6,58.5,723.901,58.5,723.2z"/>
			</g>
			<g>
				<path d="M51.1,702.299L52.2,702.1c0.1,0.6,0.399,1.1,0.7,1.4c0.3,0.299,0.699,0.4,1.199,0.4s1-0.201,1.4-0.602
					c0.4-0.398,0.6-0.799,0.6-1.398c0-0.5-0.199-1-0.5-1.301c-0.3-0.301-0.8-0.5-1.3-0.5c-0.2,0-0.5,0-0.8,0.1l0.1-1
					c0.101,0,0.101,0,0.2,0c0.5,0,0.9-0.1,1.3-0.4c0.4-0.299,0.601-0.6,0.601-1.199c0-0.4-0.101-0.801-0.4-1
					c-0.3-0.301-0.6-0.4-1.1-0.4c-0.4,0-0.8,0.1-1.101,0.4c-0.3,0.301-0.5,0.699-0.6,1.301l-1.1-0.201c0.1-0.799,0.5-1.4,1-1.799
					c0.5-0.4,1.1-0.602,1.8-0.602c0.5,0,1,0.102,1.399,0.301c0.4,0.199,0.801,0.5,1,0.9c0.2,0.4,0.301,0.799,0.301,1.199
					s-0.101,0.801-0.301,1.1c-0.199,0.301-0.5,0.602-1,0.801c0.5,0.1,1,0.4,1.301,0.801c0.3,0.398,0.5,0.898,0.5,1.5
					c0,0.799-0.301,1.5-0.9,2.1s-1.3,0.799-2.2,0.799c-0.8,0-1.5-0.199-2-0.699C51.5,703.7,51.2,703.1,51.1,702.299z"/>
				<path d="M58.4,700.2c0-1.1,0.1-2,0.3-2.699c0.2-0.701,0.6-1.201,1-1.6c0.399-0.4,1-0.5,1.7-0.5c0.5,0,0.899,0.1,1.3,0.299
					c0.399,0.201,0.7,0.5,0.899,0.9c0.2,0.4,0.4,0.801,0.601,1.4s0.2,1.299,0.2,2.199c0,1.1-0.101,2-0.301,2.6
					c-0.199,0.602-0.6,1.201-1,1.602c-0.399,0.398-1,0.5-1.699,0.5c-0.9,0-1.601-0.301-2.101-1C58.7,703.2,58.4,701.901,58.4,700.2z
					 M59.5,700.2c0,1.5,0.2,2.5,0.5,3S60.8,704,61.3,704s1-0.301,1.3-0.801c0.301-0.5,0.5-1.5,0.5-3s-0.199-2.5-0.5-3.1
					c-0.3-0.6-0.8-0.801-1.3-0.801S60.4,696.5,60,697C59.7,697.6,59.5,698.6,59.5,700.2z"/>
			</g>
			<g>
				<path d="M51.1,681.5l1.101-0.201c0.1,0.602,0.399,1.102,0.7,1.4c0.3,0.301,0.699,0.4,1.199,0.4s1-0.199,1.4-0.6
					s0.6-0.801,0.6-1.4c0-0.5-0.199-1-0.5-1.301c-0.3-0.299-0.8-0.5-1.3-0.5c-0.2,0-0.5,0-0.8,0.102l0.1-1c0.101,0,0.101,0,0.2,0
					c0.5,0,0.9-0.102,1.3-0.4c0.4-0.301,0.601-0.6,0.601-1.201c0-0.398-0.101-0.799-0.4-1c-0.3-0.299-0.6-0.398-1.1-0.398
					c-0.4,0-0.8,0.1-1.101,0.398c-0.3,0.301-0.5,0.701-0.6,1.301l-1.1-0.199c0.1-0.801,0.5-1.4,1-1.801s1.1-0.6,1.8-0.6
					c0.5,0,1,0.1,1.399,0.299c0.4,0.201,0.801,0.5,1,0.9c0.2,0.4,0.301,0.801,0.301,1.201c0,0.398-0.101,0.799-0.301,1.1
					c-0.199,0.299-0.5,0.6-1,0.799c0.5,0.102,1,0.4,1.301,0.801c0.3,0.4,0.5,0.9,0.5,1.5c0,0.801-0.301,1.5-0.9,2.1
					S55.2,684,54.3,684c-0.8,0-1.5-0.201-2-0.701C51.5,682.901,51.2,682.2,51.1,681.5z"/>
				<path d="M58.4,681.5l1.199-0.1c0.101,0.6,0.301,1,0.601,1.299c0.3,0.301,0.7,0.4,1.2,0.4s1-0.199,1.399-0.6
					c0.4-0.4,0.601-1,0.601-1.701c0-0.699-0.2-1.199-0.5-1.5c-0.301-0.299-0.801-0.6-1.4-0.6c-0.4,0-0.7,0.1-1,0.301
					c-0.3,0.199-0.5,0.4-0.7,0.699l-1.1-0.1l0.899-4.801H64.2v1.102h-3.7l-0.5,2.5c0.6-0.4,1.1-0.602,1.8-0.602
					c0.8,0,1.5,0.301,2.101,0.801c0.6,0.6,0.8,1.301,0.8,2.199c0,0.801-0.2,1.602-0.7,2.201c-0.6,0.799-1.4,1.1-2.4,1.1
					c-0.8,0-1.5-0.199-2.1-0.699C58.8,682.901,58.4,682.299,58.4,681.5z"/>
			</g>
			<g>
				<path d="M55.1,663.1v-2.199h-4v-1l4.2-6h0.9v6h1.3v1h-1.3v2.199H55.1z M55.1,659.799V655.6l-2.899,4.199H55.1z"/>
				<path d="M58.7,658.5c0-1.1,0.1-2,0.3-2.701c0.2-0.699,0.6-1.199,1-1.6s1-0.5,1.7-0.5c0.5,0,0.899,0.1,1.3,0.301
					c0.4,0.199,0.7,0.5,0.9,0.9c0.199,0.398,0.399,0.799,0.6,1.398c0.2,0.602,0.2,1.301,0.2,2.201c0,1.1-0.101,2-0.3,2.6
					c-0.2,0.6-0.601,1.199-1,1.6c-0.4,0.4-1,0.5-1.7,0.5c-0.9,0-1.601-0.299-2.101-1C59,661.5,58.7,660.2,58.7,658.5z M59.8,658.5
					c0,1.5,0.2,2.5,0.5,3s0.8,0.799,1.3,0.799s1-0.299,1.301-0.799c0.3-0.5,0.5-1.5,0.5-3s-0.2-2.5-0.5-3.1
					C62.6,654.799,62.1,654.6,61.6,654.6s-0.899,0.199-1.3,0.699C60,655.901,59.8,657,59.8,658.5z"/>
			</g>
			<g>
				<path d="M55.1,642.2V640h-4v-1l4.2-6h0.9v6h1.3v1h-1.3v2.199H55.1z M55.1,638.901V634.7l-2.899,4.201H55.1z"/>
				<path d="M58.7,639.799l1.2-0.1c0.1,0.6,0.3,1,0.6,1.301c0.3,0.299,0.7,0.4,1.2,0.4s1-0.201,1.399-0.602
					c0.4-0.398,0.601-1,0.601-1.699s-0.2-1.199-0.5-1.5s-0.8-0.6-1.4-0.6c-0.399,0-0.7,0.1-1,0.299c-0.3,0.201-0.5,0.4-0.7,0.701
					l-1.1-0.1l0.9-4.801h4.6v1.1h-3.7l-0.5,2.5c0.601-0.4,1.101-0.6,1.8-0.6c0.801,0,1.5,0.301,2.101,0.801
					c0.6,0.6,0.8,1.299,0.8,2.199c0,0.801-0.2,1.6-0.7,2.199c-0.6,0.801-1.399,1.102-2.399,1.102c-0.801,0-1.5-0.201-2.101-0.701
					C59.1,641.2,58.7,640.6,58.7,639.799z"/>
			</g>
			<path d="M51.1,806.799l1.2-0.1c0.101,0.6,0.3,1,0.601,1.301c0.3,0.299,0.699,0.4,1.199,0.4s1-0.201,1.4-0.602
				c0.4-0.398,0.6-1,0.6-1.699s-0.199-1.199-0.5-1.5c-0.3-0.301-0.8-0.6-1.399-0.6c-0.4,0-0.7,0.1-1,0.299
				c-0.3,0.201-0.5,0.4-0.7,0.701l-1.1-0.1L52.3,800.1H56.9v1.1h-3.7l-0.5,2.5c0.6-0.4,1.1-0.6,1.8-0.6c0.8,0,1.5,0.301,2.1,0.801
				C57.2,804.5,57.4,805.2,57.4,806.1c0,0.801-0.2,1.6-0.7,2.199c-0.601,0.801-1.4,1.102-2.4,1.102c-0.8,0-1.5-0.201-2.1-0.701
				C51.5,808.299,51.1,807.6,51.1,806.799z"/>
			<g>
				<path d="M51.1,616.401c0-1.102,0.101-2,0.301-2.701c0.199-0.699,0.6-1.199,1-1.6c0.399-0.4,1-0.5,1.699-0.5
					c0.5,0,0.9,0.1,1.301,0.301c0.399,0.199,0.699,0.5,0.899,0.898c0.2,0.4,0.4,0.801,0.601,1.4c0.199,0.6,0.199,1.301,0.199,2.201
					c0,1.1-0.1,2-0.3,2.6s-0.6,1.199-1,1.6c-0.399,0.4-1,0.5-1.7,0.5c-0.899,0-1.6-0.301-2.1-1
					C51.4,619.401,51.1,618.1,51.1,616.401z M52.3,616.401c0,1.5,0.2,2.5,0.5,3s0.8,0.799,1.3,0.799s1-0.299,1.301-0.799
					c0.3-0.5,0.5-1.5,0.5-3s-0.2-2.5-0.5-3.102C55.1,612.7,54.6,612.5,54.1,612.5S53.2,612.7,52.8,613.2
					C52.5,613.799,52.3,614.799,52.3,616.401z"/>
			</g>
			<g>
				<path d="M54.5,580.1h-1.1v-7.301c-0.301,0.301-0.601,0.5-1.101,0.801c-0.399,0.301-0.8,0.5-1.2,0.6v-1.1
					c0.601-0.301,1.2-0.699,1.7-1.1s0.8-0.801,1-1.201h0.7V580.1z"/>
				<path d="M57.5,575.5c0-1.1,0.1-2,0.3-2.701c0.2-0.699,0.601-1.199,1-1.6c0.4-0.4,1-0.5,1.7-0.5c0.5,0,0.9,0.1,1.3,0.301
					c0.4,0.199,0.7,0.5,0.9,0.9c0.2,0.398,0.399,0.799,0.6,1.398c0.2,0.602,0.2,1.301,0.2,2.201c0,1.1-0.1,2-0.3,2.6
					s-0.601,1.199-1,1.6c-0.4,0.4-1,0.5-1.7,0.5c-0.9,0-1.6-0.299-2.1-1C57.8,578.5,57.5,577.299,57.5,575.5z M58.6,575.5
					c0,1.5,0.2,2.5,0.5,3c0.301,0.5,0.801,0.799,1.301,0.799s1-0.299,1.3-0.799s0.5-1.5,0.5-3s-0.2-2.5-0.5-3.1
					c-0.3-0.602-0.8-0.801-1.3-0.801s-0.9,0.199-1.301,0.699C58.8,573,58.6,574,58.6,575.5z"/>
			</g>
			<g>
				<path d="M54.5,559.299h-1.1V552c-0.301,0.299-0.601,0.5-1.101,0.799c-0.399,0.301-0.8,0.5-1.2,0.602v-1.102
					c0.601-0.299,1.2-0.699,1.7-1.1s0.8-0.799,1-1.199h0.7V559.299z"/>
				<path d="M57.5,556.799l1.2-0.1c0.1,0.6,0.3,1,0.6,1.301c0.3,0.299,0.7,0.4,1.2,0.4s1-0.201,1.4-0.602
					c0.399-0.398,0.6-1,0.6-1.699s-0.2-1.199-0.5-1.5s-0.8-0.6-1.4-0.6c-0.399,0-0.699,0.1-1,0.299c-0.3,0.201-0.5,0.4-0.699,0.701
					l-1.101-0.1l0.9-4.801h4.6v1.1h-3.7l-0.5,2.5c0.601-0.4,1.101-0.6,1.801-0.6c0.8,0,1.5,0.301,2.1,0.801
					c0.6,0.6,0.8,1.299,0.8,2.199c0,0.801-0.2,1.6-0.7,2.199c-0.6,0.801-1.399,1.102-2.399,1.102c-0.8,0-1.5-0.201-2.101-0.701
					C57.9,558.299,57.5,557.6,57.5,556.799z"/>
			</g>
			<g>
				<path d="M57.2,537.299v1.102H51.1c0-0.301,0-0.5,0.101-0.801c0.2-0.4,0.399-0.801,0.8-1.199c0.4-0.4,0.8-0.9,1.5-1.4
					c1-0.801,1.7-1.5,2.1-2c0.4-0.5,0.5-0.9,0.5-1.4s-0.199-0.801-0.5-1.1c-0.3-0.301-0.699-0.5-1.3-0.5c-0.5,0-1,0.199-1.3,0.5
					c-0.3,0.299-0.5,0.799-0.5,1.4l-1.2-0.102c0.101-0.898,0.4-1.5,0.9-2s1.2-0.699,2.1-0.699c0.9,0,1.601,0.199,2.101,0.699
					s0.8,1.102,0.8,1.801c0,0.4-0.101,0.699-0.2,1.1s-0.4,0.701-0.8,1.1c-0.4,0.4-0.9,0.9-1.8,1.6c-0.7,0.602-1.101,1-1.301,1.201
					c-0.199,0.199-0.399,0.4-0.5,0.6L57.2,537.299L57.2,537.299z"/>
				<path d="M58.5,533.799c0-1.1,0.1-2,0.3-2.699s0.601-1.199,1-1.6c0.4-0.4,1-0.5,1.7-0.5c0.5,0,0.9,0.1,1.3,0.299
					c0.4,0.201,0.7,0.5,0.9,0.9s0.399,0.801,0.6,1.4s0.2,1.301,0.2,2.199c0,1.102-0.1,2-0.3,2.602c-0.2,0.6-0.601,1.199-1,1.6
					c-0.4,0.4-1,0.5-1.7,0.5c-0.9,0-1.6-0.301-2.1-1C58.8,536.901,58.5,535.6,58.5,533.799z M59.6,533.799c0,1.5,0.2,2.5,0.5,3
					c0.301,0.5,0.801,0.801,1.301,0.801s1-0.301,1.3-0.801s0.5-1.5,0.5-3s-0.2-2.5-0.5-3.1s-0.8-0.799-1.3-0.799
					S60.5,530.1,60.1,530.6C59.8,531.299,59.6,532.299,59.6,533.799z"/>
			</g>
			<g>
				<path d="M57.2,516.5v1.1H51.1c0-0.301,0-0.5,0.101-0.801C51.4,516.401,51.6,516,52,515.6s0.8-0.9,1.5-1.4c1-0.799,1.7-1.5,2.1-2
					c0.4-0.5,0.5-0.9,0.5-1.4S55.9,510,55.6,509.7c-0.3-0.299-0.699-0.5-1.3-0.5c-0.5,0-1,0.201-1.3,0.5
					c-0.3,0.301-0.5,0.801-0.5,1.4l-1.2-0.1c0.101-0.9,0.4-1.5,0.9-2s1.2-0.701,2.1-0.701c0.9,0,1.601,0.201,2.101,0.701
					s0.8,1.1,0.8,1.799c0,0.4-0.101,0.701-0.2,1.102c-0.1,0.398-0.4,0.699-0.8,1.1c-0.4,0.4-0.9,0.9-1.8,1.6
					c-0.7,0.6-1.101,1-1.301,1.199c-0.199,0.201-0.399,0.4-0.5,0.6L57.2,516.5L57.2,516.5z"/>
				<path d="M58.5,515.2l1.2-0.1c0.1,0.6,0.3,1,0.6,1.301c0.3,0.299,0.7,0.398,1.2,0.398s1-0.199,1.4-0.6c0.399-0.4,0.6-1,0.6-1.699
					c0-0.701-0.2-1.201-0.5-1.5c-0.3-0.301-0.8-0.6-1.4-0.6c-0.399,0-0.699,0.1-1,0.299c-0.3,0.201-0.5,0.4-0.699,0.701
					l-1.101-0.102l0.9-4.799h4.6v1.1h-3.7l-0.5,2.5c0.601-0.4,1.101-0.6,1.801-0.6c0.8,0,1.5,0.299,2.1,0.799
					c0.6,0.602,0.8,1.301,0.8,2.201c0,0.799-0.2,1.6-0.7,2.199c-0.6,0.801-1.399,1.1-2.399,1.1c-0.8,0-1.5-0.199-2.101-0.699
					C58.9,516.6,58.5,515.901,58.5,515.2z"/>
			</g>
			<g>
				<path d="M51.1,494.299L52.2,494.1c0.1,0.6,0.399,1.1,0.7,1.4c0.3,0.299,0.699,0.4,1.199,0.4s1-0.201,1.4-0.602
					c0.4-0.398,0.6-0.799,0.6-1.398c0-0.5-0.199-1-0.5-1.301c-0.3-0.301-0.8-0.5-1.3-0.5c-0.2,0-0.5,0-0.8,0.1l0.1-1
					c0.101,0,0.101,0,0.2,0c0.5,0,0.9-0.1,1.3-0.4c0.4-0.299,0.601-0.6,0.601-1.199c0-0.4-0.101-0.801-0.4-1
					c-0.3-0.301-0.6-0.4-1.1-0.4c-0.4,0-0.8,0.1-1.101,0.4c-0.3,0.301-0.5,0.699-0.6,1.301l-1.1-0.201c0.1-0.799,0.5-1.4,1-1.799
					c0.5-0.4,1.1-0.602,1.8-0.602c0.5,0,1,0.102,1.399,0.301c0.4,0.199,0.801,0.5,1,0.9c0.2,0.4,0.301,0.799,0.301,1.199
					s-0.101,0.801-0.301,1.1c-0.199,0.301-0.5,0.602-1,0.801c0.5,0.1,1,0.4,1.301,0.801c0.3,0.398,0.5,0.898,0.5,1.5
					c0,0.799-0.301,1.5-0.9,2.1s-1.3,0.799-2.2,0.799c-0.8,0-1.5-0.199-2-0.699C51.5,495.7,51.2,495.1,51.1,494.299z"/>
				<path d="M58.4,492.2c0-1.1,0.1-2,0.3-2.699c0.2-0.701,0.6-1.201,1-1.6c0.399-0.4,1-0.5,1.7-0.5c0.5,0,0.899,0.1,1.3,0.299
					c0.399,0.201,0.7,0.5,0.899,0.9c0.2,0.4,0.4,0.801,0.601,1.4s0.2,1.299,0.2,2.199c0,1.1-0.101,2-0.301,2.6
					c-0.199,0.602-0.6,1.201-1,1.602c-0.399,0.398-1,0.5-1.699,0.5c-0.9,0-1.601-0.301-2.101-1C58.7,495.2,58.4,493.901,58.4,492.2z
					 M59.5,492.2c0,1.5,0.2,2.5,0.5,3S60.8,496,61.3,496s1-0.301,1.3-0.801c0.301-0.5,0.5-1.5,0.5-3s-0.199-2.5-0.5-3.1
					c-0.3-0.6-0.8-0.801-1.3-0.801S60.4,488.5,60,489C59.7,489.6,59.5,490.6,59.5,492.2z"/>
			</g>
			<g>
				<path d="M51.1,473.5l1.101-0.201c0.1,0.602,0.399,1.102,0.7,1.4c0.3,0.301,0.699,0.4,1.199,0.4s1-0.199,1.4-0.6
					s0.6-0.801,0.6-1.4c0-0.5-0.199-1-0.5-1.301c-0.3-0.299-0.8-0.5-1.3-0.5c-0.2,0-0.5,0-0.8,0.102l0.1-1c0.101,0,0.101,0,0.2,0
					c0.5,0,0.9-0.102,1.3-0.4c0.4-0.301,0.601-0.6,0.601-1.201c0-0.398-0.101-0.799-0.4-1c-0.3-0.299-0.6-0.398-1.1-0.398
					c-0.4,0-0.8,0.1-1.101,0.398c-0.3,0.301-0.5,0.701-0.6,1.301l-1.1-0.199c0.1-0.801,0.5-1.4,1-1.801s1.1-0.6,1.8-0.6
					c0.5,0,1,0.1,1.399,0.299c0.4,0.201,0.801,0.5,1,0.9c0.2,0.4,0.301,0.801,0.301,1.201c0,0.398-0.101,0.799-0.301,1.1
					c-0.199,0.299-0.5,0.6-1,0.799c0.5,0.102,1,0.4,1.301,0.801c0.3,0.4,0.5,0.9,0.5,1.5c0,0.801-0.301,1.5-0.9,2.1
					S55.2,476,54.3,476c-0.8,0-1.5-0.201-2-0.701C51.5,474.901,51.2,474.2,51.1,473.5z"/>
				<path d="M58.4,473.5l1.199-0.1c0.101,0.6,0.301,1,0.601,1.299c0.3,0.301,0.7,0.4,1.2,0.4s1-0.199,1.399-0.6
					c0.4-0.4,0.601-1,0.601-1.701c0-0.699-0.2-1.199-0.5-1.5c-0.301-0.299-0.801-0.6-1.4-0.6c-0.4,0-0.7,0.1-1,0.301
					c-0.3,0.199-0.5,0.4-0.7,0.699l-1.1-0.1l0.899-4.801H64.2v1.102h-3.7l-0.5,2.5c0.6-0.4,1.1-0.602,1.8-0.602
					c0.8,0,1.5,0.301,2.101,0.801c0.6,0.6,0.8,1.301,0.8,2.199c0,0.801-0.2,1.602-0.7,2.201c-0.6,0.799-1.4,1.1-2.4,1.1
					c-0.8,0-1.5-0.199-2.1-0.699C58.8,474.901,58.4,474.299,58.4,473.5z"/>
			</g>
			<g>
				<path d="M55.1,455.1v-2.199h-4v-1l4.2-6h0.9v6h1.3v1h-1.3v2.199H55.1z M55.1,451.799V447.6l-2.899,4.199H55.1z"/>
				<path d="M58.7,450.5c0-1.1,0.1-2,0.3-2.701c0.2-0.699,0.6-1.199,1-1.6s1-0.5,1.7-0.5c0.5,0,0.899,0.1,1.3,0.301
					c0.4,0.199,0.7,0.5,0.9,0.9c0.199,0.398,0.399,0.799,0.6,1.398c0.2,0.602,0.2,1.301,0.2,2.201c0,1.1-0.101,2-0.3,2.6
					c-0.2,0.6-0.601,1.199-1,1.6c-0.4,0.4-1,0.5-1.7,0.5c-0.9,0-1.601-0.299-2.101-1C59,453.5,58.7,452.2,58.7,450.5z M59.8,450.5
					c0,1.5,0.2,2.5,0.5,3s0.8,0.799,1.3,0.799s1-0.299,1.301-0.799c0.3-0.5,0.5-1.5,0.5-3s-0.2-2.5-0.5-3.1
					C62.6,446.799,62.1,446.6,61.6,446.6s-0.899,0.199-1.3,0.699C60,447.901,59.8,449,59.8,450.5z"/>
			</g>
			<g>
				<path d="M55.1,434.2V432h-4v-1l4.2-6h0.9v6h1.3v1h-1.3v2.199H55.1z M55.1,430.901V426.7l-2.899,4.201H55.1z"/>
				<path d="M58.7,431.799l1.2-0.1c0.1,0.6,0.3,1,0.6,1.301c0.3,0.299,0.7,0.4,1.2,0.4s1-0.201,1.399-0.602
					c0.4-0.398,0.601-1,0.601-1.699s-0.2-1.199-0.5-1.5s-0.8-0.6-1.4-0.6c-0.399,0-0.7,0.1-1,0.299c-0.3,0.201-0.5,0.4-0.7,0.701
					l-1.1-0.1l0.9-4.801h4.6v1.1h-3.7l-0.5,2.5c0.601-0.4,1.101-0.6,1.8-0.6c0.801,0,1.5,0.301,2.101,0.801
					c0.6,0.6,0.8,1.299,0.8,2.199c0,0.801-0.2,1.6-0.7,2.199c-0.6,0.801-1.399,1.102-2.399,1.102c-0.801,0-1.5-0.201-2.101-0.701
					C59.1,433.2,58.7,432.6,58.7,431.799z"/>
			</g>
			<path d="M51.1,598.799l1.2-0.1c0.101,0.6,0.3,1,0.601,1.301c0.3,0.299,0.699,0.4,1.199,0.4s1-0.201,1.4-0.602
				c0.4-0.398,0.6-1,0.6-1.699s-0.199-1.199-0.5-1.5c-0.3-0.301-0.8-0.6-1.399-0.6c-0.4,0-0.7,0.1-1,0.299
				c-0.3,0.201-0.5,0.4-0.7,0.701l-1.1-0.1L52.3,592.1H56.9v1.1h-3.7l-0.5,2.5c0.6-0.4,1.1-0.6,1.8-0.6c0.8,0,1.5,0.301,2.1,0.801
				C57.2,596.5,57.4,597.2,57.4,598.1c0,0.801-0.2,1.6-0.7,2.199c-0.601,0.801-1.4,1.102-2.4,1.102c-0.8,0-1.5-0.201-2.1-0.701
				C51.5,600.299,51.1,599.6,51.1,598.799z"/>
			<g>
				<path d="M51.1,408.4c0-1.1,0.101-2,0.301-2.7c0.199-0.7,0.6-1.2,1-1.6c0.399-0.4,1-0.5,1.699-0.5c0.5,0,0.9,0.1,1.301,0.3
					c0.399,0.2,0.699,0.5,0.899,0.9c0.2,0.4,0.4,0.8,0.601,1.4c0.199,0.6,0.199,1.3,0.199,2.2c0,1.1-0.1,2-0.3,2.6s-0.6,1.2-1,1.6
					c-0.399,0.4-1,0.5-1.7,0.5c-0.899,0-1.6-0.3-2.1-1C51.4,411.4,51.1,410.1,51.1,408.4z M52.3,408.4c0,1.5,0.2,2.5,0.5,3
					s0.8,0.8,1.3,0.8s1-0.3,1.301-0.8c0.3-0.5,0.5-1.5,0.5-3s-0.2-2.5-0.5-3.1c-0.301-0.6-0.801-0.8-1.301-0.8s-0.899,0.2-1.3,0.7
					C52.5,405.8,52.3,406.8,52.3,408.4z"/>
			</g>
			<g>
				<path d="M54.5,372.1h-1.1v-7.3c-0.301,0.3-0.601,0.5-1.101,0.8c-0.399,0.3-0.8,0.5-1.2,0.6v-1.1c0.601-0.3,1.2-0.7,1.7-1.1
					s0.8-0.8,1-1.2h0.7V372.1z"/>
				<path d="M57.5,367.5c0-1.1,0.1-2,0.3-2.7c0.2-0.7,0.601-1.2,1-1.6c0.4-0.4,1-0.5,1.7-0.5c0.5,0,0.9,0.1,1.3,0.3
					c0.4,0.2,0.7,0.5,0.9,0.9s0.399,0.8,0.6,1.4c0.2,0.6,0.2,1.3,0.2,2.2c0,1.1-0.1,2-0.3,2.6s-0.601,1.2-1,1.6
					c-0.4,0.4-1,0.5-1.7,0.5c-0.9,0-1.6-0.3-2.1-1C57.8,370.5,57.5,369.3,57.5,367.5z M58.6,367.5c0,1.5,0.2,2.5,0.5,3
					c0.301,0.5,0.801,0.8,1.301,0.8s1-0.3,1.3-0.8s0.5-1.5,0.5-3s-0.2-2.5-0.5-3.1s-0.8-0.8-1.3-0.8s-0.9,0.2-1.301,0.7
					C58.8,365,58.6,366,58.6,367.5z"/>
			</g>
			<g>
				<path d="M54.5,351.3h-1.1V344c-0.301,0.3-0.601,0.5-1.101,0.8c-0.399,0.3-0.8,0.5-1.2,0.6v-1.1c0.601-0.3,1.2-0.7,1.7-1.1
					c0.5-0.4,0.8-0.8,1-1.2h0.7V351.3z"/>
				<path d="M57.5,348.8l1.2-0.1c0.1,0.6,0.3,1,0.6,1.3s0.7,0.4,1.2,0.4s1-0.2,1.4-0.6c0.399-0.4,0.6-1,0.6-1.7
					c0-0.7-0.2-1.2-0.5-1.5c-0.3-0.3-0.8-0.6-1.4-0.6c-0.399,0-0.699,0.1-1,0.3c-0.3,0.2-0.5,0.4-0.699,0.7l-1.101-0.1l0.9-4.8h4.6
					v1.1h-3.7l-0.5,2.5c0.601-0.4,1.101-0.6,1.801-0.6c0.8,0,1.5,0.3,2.1,0.8c0.6,0.6,0.8,1.3,0.8,2.2c0,0.8-0.2,1.6-0.7,2.2
					c-0.6,0.8-1.399,1.1-2.399,1.1c-0.8,0-1.5-0.2-2.101-0.7C57.9,350.3,57.5,349.6,57.5,348.8z"/>
			</g>
			<g>
				<path d="M57.2,329.3v1.1H51.1c0-0.3,0-0.5,0.101-0.8c0.2-0.4,0.399-0.8,0.8-1.2s0.8-0.9,1.5-1.4c1-0.8,1.7-1.5,2.1-2
					c0.4-0.5,0.5-0.9,0.5-1.4s-0.199-0.8-0.5-1.1c-0.3-0.3-0.699-0.5-1.3-0.5c-0.5,0-1,0.2-1.3,0.5s-0.5,0.8-0.5,1.4l-1.2-0.1
					c0.101-0.9,0.4-1.5,0.9-2s1.2-0.7,2.1-0.7c0.9,0,1.601,0.2,2.101,0.7s0.8,1.1,0.8,1.8c0,0.4-0.101,0.7-0.2,1.1
					c-0.1,0.4-0.4,0.7-0.8,1.1c-0.4,0.4-0.9,0.9-1.8,1.6c-0.7,0.6-1.101,1-1.301,1.2c-0.199,0.2-0.399,0.4-0.5,0.6H57.2V329.3z"/>
				<path d="M58.5,325.8c0-1.1,0.1-2,0.3-2.7c0.2-0.7,0.601-1.2,1-1.6c0.4-0.4,1-0.5,1.7-0.5c0.5,0,0.9,0.1,1.3,0.3
					c0.4,0.2,0.7,0.5,0.9,0.9c0.2,0.4,0.399,0.8,0.6,1.4s0.2,1.3,0.2,2.2c0,1.1-0.1,2-0.3,2.6s-0.601,1.2-1,1.6
					c-0.4,0.4-1,0.5-1.7,0.5c-0.9,0-1.6-0.3-2.1-1C58.8,328.9,58.5,327.6,58.5,325.8z M59.6,325.8c0,1.5,0.2,2.5,0.5,3
					c0.301,0.5,0.801,0.8,1.301,0.8s1-0.3,1.3-0.8s0.5-1.5,0.5-3s-0.2-2.5-0.5-3.1c-0.3-0.6-0.8-0.8-1.3-0.8s-0.9,0.2-1.301,0.7
					C59.8,323.3,59.6,324.3,59.6,325.8z"/>
			</g>
			<g>
				<path d="M57.2,308.5v1.1H51.1c0-0.3,0-0.5,0.101-0.8c0.2-0.4,0.399-0.8,0.8-1.2s0.8-0.9,1.5-1.4c1-0.8,1.7-1.5,2.1-2
					c0.4-0.5,0.5-0.9,0.5-1.4s-0.199-0.8-0.5-1.1c-0.3-0.3-0.699-0.5-1.3-0.5c-0.5,0-1,0.2-1.3,0.5c-0.3,0.3-0.5,0.8-0.5,1.4
					l-1.2-0.1c0.101-0.9,0.4-1.5,0.9-2s1.2-0.7,2.1-0.7c0.9,0,1.601,0.2,2.101,0.7s0.8,1.1,0.8,1.8c0,0.4-0.101,0.7-0.2,1.1
					s-0.4,0.7-0.8,1.1c-0.4,0.4-0.9,0.9-1.8,1.6c-0.7,0.6-1.101,1-1.301,1.2c-0.199,0.2-0.399,0.4-0.5,0.6H57.2V308.5z"/>
				<path d="M58.5,307.2l1.2-0.1c0.1,0.6,0.3,1,0.6,1.3c0.3,0.3,0.7,0.4,1.2,0.4s1-0.2,1.4-0.6c0.399-0.4,0.6-1,0.6-1.7
					s-0.2-1.2-0.5-1.5s-0.8-0.6-1.4-0.6c-0.399,0-0.699,0.1-1,0.3c-0.3,0.2-0.5,0.4-0.699,0.7l-1.101-0.1l0.9-4.8h4.6v1.1h-3.7
					l-0.5,2.5c0.601-0.4,1.101-0.6,1.801-0.6c0.8,0,1.5,0.3,2.1,0.8c0.6,0.6,0.8,1.3,0.8,2.2c0,0.8-0.2,1.6-0.7,2.2
					c-0.6,0.8-1.399,1.1-2.399,1.1c-0.8,0-1.5-0.2-2.101-0.7C58.9,308.6,58.5,307.9,58.5,307.2z"/>
			</g>
			<g>
				<path d="M51.1,286.3l1.101-0.2c0.1,0.6,0.399,1.1,0.7,1.4c0.3,0.3,0.699,0.4,1.199,0.4s1-0.2,1.4-0.6c0.4-0.4,0.6-0.8,0.6-1.4
					c0-0.5-0.199-1-0.5-1.3c-0.3-0.3-0.8-0.5-1.3-0.5c-0.2,0-0.5,0-0.8,0.1l0.1-1c0.101,0,0.101,0,0.2,0c0.5,0,0.9-0.1,1.3-0.4
					c0.4-0.3,0.601-0.6,0.601-1.2c0-0.4-0.101-0.8-0.4-1c-0.3-0.3-0.6-0.4-1.1-0.4c-0.4,0-0.8,0.1-1.101,0.4
					c-0.3,0.3-0.5,0.7-0.6,1.3l-1.1-0.2c0.1-0.8,0.5-1.4,1-1.8s1.1-0.6,1.8-0.6c0.5,0,1,0.1,1.399,0.3c0.4,0.2,0.801,0.5,1,0.9
					c0.2,0.4,0.301,0.8,0.301,1.2c0,0.4-0.101,0.8-0.301,1.1c-0.199,0.3-0.5,0.6-1,0.8c0.5,0.1,1,0.4,1.301,0.8
					c0.3,0.4,0.5,0.9,0.5,1.5c0,0.8-0.301,1.5-0.9,2.1s-1.3,0.8-2.2,0.8c-0.8,0-1.5-0.2-2-0.7C51.5,287.7,51.2,287.1,51.1,286.3z"/>
				<path d="M58.4,284.2c0-1.1,0.1-2,0.3-2.7s0.6-1.2,1-1.6c0.399-0.4,1-0.5,1.7-0.5c0.5,0,0.899,0.1,1.3,0.3
					c0.399,0.2,0.7,0.5,0.899,0.9c0.2,0.4,0.4,0.8,0.601,1.4s0.2,1.3,0.2,2.2c0,1.1-0.101,2-0.301,2.6c-0.199,0.6-0.6,1.2-1,1.6
					c-0.399,0.4-1,0.5-1.699,0.5c-0.9,0-1.601-0.3-2.101-1C58.7,287.2,58.4,285.9,58.4,284.2z M59.5,284.2c0,1.5,0.2,2.5,0.5,3
					s0.8,0.8,1.3,0.8s1-0.3,1.3-0.8c0.301-0.5,0.5-1.5,0.5-3s-0.199-2.5-0.5-3.1c-0.3-0.6-0.8-0.8-1.3-0.8S60.4,280.5,60,281
					C59.7,281.6,59.5,282.6,59.5,284.2z"/>
			</g>
			<g>
				<path d="M51.1,265.5l1.101-0.2c0.1,0.6,0.399,1.1,0.7,1.4c0.3,0.3,0.699,0.4,1.199,0.4s1-0.2,1.4-0.6s0.6-0.8,0.6-1.4
					c0-0.5-0.199-1-0.5-1.3c-0.3-0.3-0.8-0.5-1.3-0.5c-0.2,0-0.5,0-0.8,0.1l0.1-1c0.101,0,0.101,0,0.2,0c0.5,0,0.9-0.1,1.3-0.4
					c0.4-0.3,0.601-0.6,0.601-1.2c0-0.4-0.101-0.8-0.4-1c-0.3-0.3-0.6-0.4-1.1-0.4c-0.4,0-0.8,0.1-1.101,0.4
					c-0.3,0.3-0.5,0.7-0.6,1.3l-1.1-0.2c0.1-0.8,0.5-1.4,1-1.8s1.1-0.6,1.8-0.6c0.5,0,1,0.1,1.399,0.3c0.4,0.2,0.801,0.5,1,0.9
					c0.2,0.4,0.301,0.8,0.301,1.2S56.8,261.7,56.6,262c-0.199,0.3-0.5,0.6-1,0.8c0.5,0.1,1,0.4,1.301,0.8c0.3,0.4,0.5,0.9,0.5,1.5
					c0,0.8-0.301,1.5-0.9,2.1c-0.6,0.6-1.3,0.8-2.2,0.8c-0.8,0-1.5-0.2-2-0.7C51.5,266.9,51.2,266.2,51.1,265.5z"/>
				<path d="M58.4,265.5l1.199-0.1c0.101,0.6,0.301,1,0.601,1.3c0.3,0.3,0.7,0.4,1.2,0.4s1-0.2,1.399-0.6c0.4-0.4,0.601-1,0.601-1.7
					c0-0.7-0.2-1.2-0.5-1.5c-0.301-0.3-0.801-0.6-1.4-0.6c-0.4,0-0.7,0.1-1,0.3s-0.5,0.4-0.7,0.7l-1.1-0.1l0.899-4.8H64.2v1.1h-3.7
					l-0.5,2.5c0.6-0.4,1.1-0.6,1.8-0.6c0.8,0,1.5,0.3,2.101,0.8c0.6,0.6,0.8,1.3,0.8,2.2c0,0.8-0.2,1.6-0.7,2.2
					c-0.6,0.8-1.4,1.1-2.4,1.1c-0.8,0-1.5-0.2-2.1-0.7C58.8,266.9,58.4,266.3,58.4,265.5z"/>
			</g>
			<g>
				<path d="M55.1,247.1v-2.2h-4v-1l4.2-6h0.9v6h1.3v1h-1.3v2.2H55.1z M55.1,243.8v-4.2l-2.899,4.2H55.1z"/>
				<path d="M58.7,242.5c0-1.1,0.1-2,0.3-2.7c0.2-0.7,0.6-1.2,1-1.6c0.4-0.4,1-0.5,1.7-0.5c0.5,0,0.899,0.1,1.3,0.3s0.7,0.5,0.9,0.9
					c0.199,0.4,0.399,0.8,0.6,1.4c0.2,0.6,0.2,1.3,0.2,2.2c0,1.1-0.101,2-0.3,2.6c-0.2,0.6-0.601,1.2-1,1.6c-0.4,0.4-1,0.5-1.7,0.5
					c-0.9,0-1.601-0.3-2.101-1C59,245.5,58.7,244.2,58.7,242.5z M59.8,242.5c0,1.5,0.2,2.5,0.5,3s0.8,0.8,1.3,0.8s1-0.3,1.301-0.8
					c0.3-0.5,0.5-1.5,0.5-3s-0.2-2.5-0.5-3.1c-0.301-0.6-0.801-0.8-1.301-0.8s-0.899,0.2-1.3,0.7C60,239.9,59.8,241,59.8,242.5z"/>
			</g>
			<g>
				<path d="M55.1,226.2V224h-4v-1l4.2-6h0.9v6h1.3v1h-1.3v2.2H55.1z M55.1,222.9v-4.2l-2.899,4.2H55.1z"/>
				<path d="M58.7,223.8l1.2-0.1c0.1,0.6,0.3,1,0.6,1.3s0.7,0.4,1.2,0.4s1-0.2,1.399-0.6c0.4-0.4,0.601-1,0.601-1.7
					c0-0.7-0.2-1.2-0.5-1.5c-0.3-0.3-0.8-0.6-1.4-0.6c-0.399,0-0.7,0.1-1,0.3c-0.3,0.2-0.5,0.4-0.7,0.7l-1.1-0.1l0.9-4.8h4.6v1.1
					h-3.7l-0.5,2.5c0.601-0.4,1.101-0.6,1.8-0.6c0.801,0,1.5,0.3,2.101,0.8c0.6,0.6,0.8,1.3,0.8,2.2c0,0.8-0.2,1.6-0.7,2.2
					c-0.6,0.8-1.399,1.1-2.399,1.1c-0.801,0-1.5-0.2-2.101-0.7C59.1,225.2,58.7,224.6,58.7,223.8z"/>
			</g>
			<path d="M51.1,390.8l1.2-0.1c0.101,0.6,0.3,1,0.601,1.3c0.3,0.3,0.699,0.4,1.199,0.4s1-0.2,1.4-0.6c0.4-0.4,0.6-1,0.6-1.7
				c0-0.7-0.199-1.2-0.5-1.5c-0.3-0.3-0.8-0.6-1.399-0.6c-0.4,0-0.7,0.1-1,0.3c-0.3,0.2-0.5,0.4-0.7,0.7l-1.1-0.1l0.899-4.8H56.9
				v1.1h-3.7l-0.5,2.5c0.6-0.4,1.1-0.6,1.8-0.6c0.8,0,1.5,0.3,2.1,0.8c0.601,0.6,0.801,1.3,0.801,2.2c0,0.8-0.2,1.6-0.7,2.2
				c-0.601,0.8-1.4,1.1-2.4,1.1c-0.8,0-1.5-0.2-2.1-0.7C51.5,392.3,51.1,391.6,51.1,390.8z"/>
			<g>
				<path d="M51.1,200.4c0-1.1,0.101-2,0.301-2.7c0.199-0.7,0.6-1.2,1-1.6c0.399-0.4,1-0.5,1.699-0.5c0.5,0,0.9,0.1,1.301,0.3
					c0.399,0.2,0.699,0.5,0.899,0.9c0.2,0.4,0.4,0.8,0.601,1.4c0.199,0.6,0.199,1.3,0.199,2.2c0,1.1-0.1,2-0.3,2.6s-0.6,1.2-1,1.6
					c-0.399,0.4-1,0.5-1.7,0.5c-0.899,0-1.6-0.3-2.1-1C51.4,203.4,51.1,202.1,51.1,200.4z M52.3,200.4c0,1.5,0.2,2.5,0.5,3
					s0.8,0.8,1.3,0.8s1-0.3,1.301-0.8c0.3-0.5,0.5-1.5,0.5-3s-0.2-2.5-0.5-3.1c-0.301-0.6-0.801-0.8-1.301-0.8s-0.899,0.2-1.3,0.7
					C52.5,197.8,52.3,198.8,52.3,200.4z"/>
			</g>
			<g>
				<path d="M54.5,164.1h-1.1v-7.3c-0.301,0.3-0.601,0.5-1.101,0.8c-0.399,0.3-0.8,0.5-1.2,0.6v-1.1c0.601-0.3,1.2-0.7,1.7-1.1
					s0.8-0.8,1-1.2h0.7V164.1z"/>
				<path d="M57.5,159.5c0-1.1,0.1-2,0.3-2.7c0.2-0.7,0.601-1.2,1-1.6c0.4-0.4,1-0.5,1.7-0.5c0.5,0,0.9,0.1,1.3,0.3
					c0.4,0.2,0.7,0.5,0.9,0.9s0.399,0.8,0.6,1.4c0.2,0.6,0.2,1.3,0.2,2.2c0,1.1-0.1,2-0.3,2.6s-0.601,1.2-1,1.6
					c-0.4,0.4-1,0.5-1.7,0.5c-0.9,0-1.6-0.3-2.1-1C57.8,162.5,57.5,161.3,57.5,159.5z M58.6,159.5c0,1.5,0.2,2.5,0.5,3
					c0.301,0.5,0.801,0.8,1.301,0.8s1-0.3,1.3-0.8s0.5-1.5,0.5-3s-0.2-2.5-0.5-3.1s-0.8-0.8-1.3-0.8s-0.9,0.2-1.301,0.7
					C58.8,157,58.6,158,58.6,159.5z"/>
			</g>
			<g>
				<path d="M54.5,143.3h-1.1V136c-0.301,0.3-0.601,0.5-1.101,0.8c-0.399,0.3-0.8,0.5-1.2,0.6v-1.1c0.601-0.3,1.2-0.7,1.7-1.1
					c0.5-0.4,0.8-0.8,1-1.2h0.7V143.3z"/>
				<path d="M57.5,140.8l1.2-0.1c0.1,0.6,0.3,1,0.6,1.3s0.7,0.4,1.2,0.4s1-0.2,1.4-0.6c0.399-0.4,0.6-1,0.6-1.7
					c0-0.7-0.2-1.2-0.5-1.5c-0.3-0.3-0.8-0.6-1.4-0.6c-0.399,0-0.699,0.1-1,0.3c-0.3,0.2-0.5,0.4-0.699,0.7l-1.101-0.1l0.9-4.8h4.6
					v1.1h-3.7l-0.5,2.5c0.601-0.4,1.101-0.6,1.801-0.6c0.8,0,1.5,0.3,2.1,0.8c0.6,0.6,0.8,1.3,0.8,2.2c0,0.8-0.2,1.6-0.7,2.2
					c-0.6,0.8-1.399,1.1-2.399,1.1c-0.8,0-1.5-0.2-2.101-0.7C57.9,142.3,57.5,141.6,57.5,140.8z"/>
			</g>
			<g>
				<path d="M57.2,121.3v1.1H51.1c0-0.3,0-0.5,0.101-0.8c0.2-0.4,0.399-0.8,0.8-1.2s0.8-0.9,1.5-1.4c1-0.8,1.7-1.5,2.1-2
					c0.4-0.5,0.5-0.9,0.5-1.4s-0.199-0.8-0.5-1.1c-0.3-0.3-0.699-0.5-1.3-0.5c-0.5,0-1,0.2-1.3,0.5s-0.5,0.8-0.5,1.4l-1.2-0.1
					c0.101-0.9,0.4-1.5,0.9-2s1.2-0.7,2.1-0.7c0.9,0,1.601,0.2,2.101,0.7s0.8,1.1,0.8,1.8c0,0.4-0.101,0.7-0.2,1.1
					c-0.1,0.4-0.4,0.7-0.8,1.1c-0.4,0.4-0.9,0.9-1.8,1.6c-0.7,0.6-1.101,1-1.301,1.2c-0.199,0.2-0.399,0.4-0.5,0.6H57.2V121.3z"/>
				<path d="M58.5,117.8c0-1.1,0.1-2,0.3-2.7c0.2-0.7,0.601-1.2,1-1.6c0.4-0.4,1-0.5,1.7-0.5c0.5,0,0.9,0.1,1.3,0.3
					c0.4,0.2,0.7,0.5,0.9,0.9c0.2,0.4,0.399,0.8,0.6,1.4s0.2,1.3,0.2,2.2c0,1.1-0.1,2-0.3,2.6s-0.601,1.2-1,1.6
					c-0.4,0.4-1,0.5-1.7,0.5c-0.9,0-1.6-0.3-2.1-1C58.8,120.9,58.5,119.6,58.5,117.8z M59.6,117.8c0,1.5,0.2,2.5,0.5,3
					c0.301,0.5,0.801,0.8,1.301,0.8s1-0.3,1.3-0.8s0.5-1.5,0.5-3s-0.2-2.5-0.5-3.1c-0.3-0.6-0.8-0.8-1.3-0.8s-0.9,0.2-1.301,0.7
					C59.8,115.3,59.6,116.3,59.6,117.8z"/>
			</g>
			<g>
				<path d="M57.2,100.5v1.1H51.1c0-0.3,0-0.5,0.101-0.8c0.2-0.4,0.399-0.8,0.8-1.2s0.8-0.9,1.5-1.4c1-0.8,1.7-1.5,2.1-2
					c0.4-0.5,0.5-0.9,0.5-1.4S55.9,94,55.6,93.7c-0.3-0.3-0.699-0.5-1.3-0.5c-0.5,0-1,0.2-1.3,0.5c-0.3,0.3-0.5,0.8-0.5,1.4L51.3,95
					c0.101-0.9,0.4-1.5,0.9-2s1.2-0.7,2.1-0.7c0.9,0,1.601,0.2,2.101,0.7s0.8,1.1,0.8,1.8c0,0.4-0.101,0.7-0.2,1.1s-0.4,0.7-0.8,1.1
					c-0.4,0.4-0.9,0.9-1.8,1.6c-0.7,0.6-1.101,1-1.301,1.2c-0.199,0.2-0.399,0.4-0.5,0.6H57.2V100.5z"/>
				<path d="M58.5,99.2l1.2-0.1c0.1,0.6,0.3,1,0.6,1.3c0.3,0.3,0.7,0.4,1.2,0.4s1-0.2,1.4-0.6c0.399-0.4,0.6-1,0.6-1.7
					S63.3,97.3,63,97s-0.8-0.6-1.4-0.6c-0.399,0-0.699,0.1-1,0.3c-0.3,0.2-0.5,0.4-0.699,0.7L58.8,97.3l0.9-4.8h4.6v1.1h-3.7
					l-0.5,2.5c0.601-0.4,1.101-0.6,1.801-0.6c0.8,0,1.5,0.3,2.1,0.8c0.6,0.6,0.8,1.3,0.8,2.2c0,0.8-0.2,1.6-0.7,2.2
					c-0.6,0.8-1.399,1.1-2.399,1.1c-0.8,0-1.5-0.2-2.101-0.7C58.9,100.6,58.5,99.9,58.5,99.2z"/>
			</g>
			<g>
				<path d="M51.1,78.3l1.101-0.2c0.1,0.6,0.399,1.1,0.7,1.4c0.3,0.3,0.699,0.4,1.199,0.4s1-0.2,1.4-0.6c0.4-0.4,0.6-0.8,0.6-1.4
					c0-0.5-0.199-1-0.5-1.3c-0.3-0.3-0.8-0.5-1.3-0.5c-0.2,0-0.5,0-0.8,0.1l0.1-1c0.101,0,0.101,0,0.2,0c0.5,0,0.9-0.1,1.3-0.4
					c0.4-0.3,0.601-0.6,0.601-1.2c0-0.4-0.101-0.8-0.4-1c-0.3-0.3-0.6-0.4-1.1-0.4c-0.4,0-0.8,0.1-1.101,0.4
					c-0.3,0.3-0.5,0.7-0.6,1.3l-1.1-0.2c0.1-0.8,0.5-1.4,1-1.8s1.1-0.6,1.8-0.6c0.5,0,1,0.1,1.399,0.3c0.4,0.2,0.801,0.5,1,0.9
					c0.2,0.4,0.301,0.8,0.301,1.2c0,0.4-0.101,0.8-0.301,1.1c-0.199,0.3-0.5,0.6-1,0.8c0.5,0.1,1,0.4,1.301,0.8
					c0.3,0.4,0.5,0.9,0.5,1.5c0,0.8-0.301,1.5-0.9,2.1s-1.3,0.8-2.2,0.8c-0.8,0-1.5-0.2-2-0.7C51.5,79.7,51.2,79.1,51.1,78.3z"/>
				<path d="M58.4,76.2c0-1.1,0.1-2,0.3-2.7s0.6-1.2,1-1.6c0.399-0.4,1-0.5,1.7-0.5c0.5,0,0.899,0.1,1.3,0.3
					c0.399,0.2,0.7,0.5,0.899,0.9C63.8,73,64,73.4,64.2,74s0.2,1.3,0.2,2.2c0,1.1-0.101,2-0.301,2.6c-0.199,0.6-0.6,1.2-1,1.6
					c-0.399,0.4-1,0.5-1.699,0.5c-0.9,0-1.601-0.3-2.101-1C58.7,79.2,58.4,77.9,58.4,76.2z M59.5,76.2c0,1.5,0.2,2.5,0.5,3
					s0.8,0.8,1.3,0.8s1-0.3,1.3-0.8c0.301-0.5,0.5-1.5,0.5-3s-0.199-2.5-0.5-3.1c-0.3-0.6-0.8-0.8-1.3-0.8S60.4,72.5,60,73
					C59.7,73.6,59.5,74.6,59.5,76.2z"/>
			</g>
			<g>
				<path d="M51.1,57.5l1.101-0.2c0.1,0.6,0.399,1.1,0.7,1.4c0.3,0.3,0.699,0.4,1.199,0.4s1-0.2,1.4-0.6s0.6-0.8,0.6-1.4
					c0-0.5-0.199-1-0.5-1.3c-0.3-0.3-0.8-0.5-1.3-0.5c-0.2,0-0.5,0-0.8,0.1l0.1-1c0.101,0,0.101,0,0.2,0c0.5,0,0.9-0.1,1.3-0.4
					c0.4-0.3,0.601-0.6,0.601-1.2c0-0.4-0.101-0.8-0.4-1c-0.3-0.3-0.6-0.4-1.1-0.4c-0.4,0-0.8,0.1-1.101,0.4
					c-0.3,0.3-0.5,0.7-0.6,1.3l-1.1-0.2c0.1-0.8,0.5-1.4,1-1.8s1.1-0.6,1.8-0.6c0.5,0,1,0.1,1.399,0.3c0.4,0.2,0.801,0.5,1,0.9
					c0.2,0.4,0.301,0.8,0.301,1.2S56.8,53.7,56.6,54c-0.199,0.3-0.5,0.6-1,0.8c0.5,0.1,1,0.4,1.301,0.8c0.3,0.4,0.5,0.9,0.5,1.5
					c0,0.8-0.301,1.5-0.9,2.1c-0.6,0.6-1.3,0.8-2.2,0.8c-0.8,0-1.5-0.2-2-0.7C51.5,58.9,51.2,58.2,51.1,57.5z"/>
				<path d="M58.4,57.5l1.199-0.1c0.101,0.6,0.301,1,0.601,1.3c0.3,0.3,0.7,0.4,1.2,0.4s1-0.2,1.399-0.6c0.4-0.4,0.601-1,0.601-1.7
					c0-0.7-0.2-1.2-0.5-1.5C62.6,55,62.1,54.7,61.5,54.7c-0.4,0-0.7,0.1-1,0.3s-0.5,0.4-0.7,0.7l-1.1-0.1l0.899-4.8H64.2v1.1h-3.7
					L60,54.4c0.6-0.4,1.1-0.6,1.8-0.6c0.8,0,1.5,0.3,2.101,0.8c0.6,0.6,0.8,1.3,0.8,2.2c0,0.8-0.2,1.6-0.7,2.2
					c-0.6,0.8-1.4,1.1-2.4,1.1c-0.8,0-1.5-0.2-2.1-0.7C58.8,58.9,58.4,58.3,58.4,57.5z"/>
			</g>
			<g>
				<path d="M55.1,39.1v-2.2h-4v-1l4.2-6h0.9v6h1.3v1h-1.3v2.2H55.1z M55.1,35.8v-4.2L52.2,35.8H55.1z"/>
				<path d="M58.7,34.5c0-1.1,0.1-2,0.3-2.7c0.2-0.7,0.6-1.2,1-1.6c0.4-0.4,1-0.5,1.7-0.5c0.5,0,0.899,0.1,1.3,0.3s0.7,0.5,0.9,0.9
					c0.199,0.4,0.399,0.8,0.6,1.4c0.2,0.6,0.2,1.3,0.2,2.2c0,1.1-0.101,2-0.3,2.6c-0.2,0.6-0.601,1.2-1,1.6c-0.4,0.4-1,0.5-1.7,0.5
					c-0.9,0-1.601-0.3-2.101-1C59,37.5,58.7,36.2,58.7,34.5z M59.8,34.5c0,1.5,0.2,2.5,0.5,3s0.8,0.8,1.3,0.8s1-0.3,1.301-0.8
					c0.3-0.5,0.5-1.5,0.5-3s-0.2-2.5-0.5-3.1C62.6,30.8,62.1,30.6,61.6,30.6s-0.899,0.2-1.3,0.7C60,31.9,59.8,33,59.8,34.5z"/>
			</g>
			<g>
				<path d="M55.1,18.2V16h-4v-1l4.2-6h0.9v6h1.3v1h-1.3v2.2H55.1z M55.1,14.9v-4.2L52.2,14.9H55.1z"/>
				<path d="M58.7,15.8l1.2-0.1c0.1,0.6,0.3,1,0.6,1.3s0.7,0.4,1.2,0.4s1-0.2,1.399-0.6c0.4-0.4,0.601-1,0.601-1.7
					c0-0.7-0.2-1.2-0.5-1.5c-0.3-0.3-0.8-0.6-1.4-0.6c-0.399,0-0.7,0.1-1,0.3c-0.3,0.2-0.5,0.4-0.7,0.7L59,13.9l0.9-4.8h4.6v1.1
					h-3.7l-0.5,2.5c0.601-0.4,1.101-0.6,1.8-0.6c0.801,0,1.5,0.3,2.101,0.8c0.6,0.6,0.8,1.3,0.8,2.2c0,0.8-0.2,1.6-0.7,2.2
					c-0.6,0.8-1.399,1.1-2.399,1.1c-0.801,0-1.5-0.2-2.101-0.7C59.1,17.2,58.7,16.6,58.7,15.8z"/>
			</g>
			<path d="M51.1,182.8l1.2-0.1c0.101,0.6,0.3,1,0.601,1.3c0.3,0.3,0.699,0.4,1.199,0.4s1-0.2,1.4-0.6c0.4-0.4,0.6-1,0.6-1.7
				c0-0.7-0.199-1.2-0.5-1.5c-0.3-0.3-0.8-0.6-1.399-0.6c-0.4,0-0.7,0.1-1,0.3c-0.3,0.2-0.5,0.4-0.7,0.7l-1.1-0.1l0.899-4.8H56.9
				v1.1h-3.7l-0.5,2.5c0.6-0.4,1.1-0.6,1.8-0.6c0.8,0,1.5,0.3,2.1,0.8c0.601,0.6,0.801,1.3,0.801,2.2c0,0.8-0.2,1.6-0.7,2.2
				c-0.601,0.8-1.4,1.1-2.4,1.1c-0.8,0-1.5-0.2-2.1-0.7C51.5,184.3,51.1,183.6,51.1,182.8z"/>
		</g>
	</g>
	<g id="Layer_2_1_">
		<g id="Layer_5_2_">
			<line fill="none" stroke="#000000" stroke-miterlimit="10" x1="27.4" y1="767" x2="7.1" y2="767"/>
			<line fill="none" stroke="#000000" stroke-miterlimit="10" x1="27.4" y1="771.1" x2="7.1" y2="771.1"/>
			<line fill="none" stroke="#000000" stroke-miterlimit="10" x1="27.4" y1="775.299" x2="7.1" y2="775.299"/>
			<line fill="none" stroke="#000000" stroke-miterlimit="10" x1="27.4" y1="779.5" x2="7.1" y2="779.5"/>
			<line fill="none" stroke="#000000" stroke-miterlimit="10" x1="47.4" y1="783.6" x2="7.1" y2="783.6"/>
			<line fill="none" stroke="#000000" stroke-miterlimit="10" x1="27.4" y1="787.799" x2="7.1" y2="787.799"/>
			<line fill="none" stroke="#000000" stroke-miterlimit="10" x1="27.4" y1="792" x2="7.1" y2="792"/>
			<line fill="none" stroke="#000000" stroke-miterlimit="10" x1="27.4" y1="796.1" x2="7.1" y2="796.1"/>
			<line fill="none" stroke="#000000" stroke-miterlimit="10" x1="27.4" y1="800.299" x2="7.1" y2="800.299"/>
			<line fill="none" stroke="#000000" stroke-miterlimit="10" x1="47.4" y1="804.5" x2="7.1" y2="804.5"/>
			<line fill="none" stroke="#000000" stroke-miterlimit="10" x1="27.4" y1="808.6" x2="7.1" y2="808.6"/>
			<line fill="none" stroke="#000000" stroke-miterlimit="10" x1="27.4" y1="812.799" x2="7.1" y2="812.799"/>
			<line fill="none" stroke="#000000" stroke-miterlimit="10" x1="27.4" y1="817" x2="7.1" y2="817"/>
			<line fill="none" stroke="#000000" stroke-miterlimit="10" x1="27.4" y1="821.1" x2="7.1" y2="821.1"/>
			<line fill="none" stroke="#000000" stroke-miterlimit="10" x1="47.4" y1="825.299" x2="7.1" y2="825.299"/>
			<line fill="none" stroke="#000000" stroke-miterlimit="10" x1="27.4" y1="704.401" x2="7.1" y2="704.401"/>
			<line fill="none" stroke="#000000" stroke-miterlimit="10" x1="27.4" y1="708.6" x2="7.1" y2="708.6"/>
			<line fill="none" stroke="#000000" stroke-miterlimit="10" x1="27.4" y1="712.799" x2="7.1" y2="712.799"/>
			<line fill="none" stroke="#000000" stroke-miterlimit="10" x1="27.4" y1="716.901" x2="7.1" y2="716.901"/>
			<line fill="none" stroke="#000000" stroke-miterlimit="10" x1="47.4" y1="721.1" x2="7.1" y2="721.1"/>
			<line fill="none" stroke="#000000" stroke-miterlimit="10" x1="27.4" y1="725.299" x2="7.1" y2="725.299"/>
			<line fill="none" stroke="#000000" stroke-miterlimit="10" x1="27.4" y1="729.401" x2="7.1" y2="729.401"/>
			<line fill="none" stroke="#000000" stroke-miterlimit="10" x1="27.4" y1="733.6" x2="7.1" y2="733.6"/>
			<line fill="none" stroke="#000000" stroke-miterlimit="10" x1="27.4" y1="737.799" x2="7.1" y2="737.799"/>
			<line fill="none" stroke="#000000" stroke-miterlimit="10" x1="47.4" y1="741.901" x2="7.1" y2="741.901"/>
			<line fill="none" stroke="#000000" stroke-miterlimit="10" x1="27.4" y1="746.1" x2="7.1" y2="746.1"/>
			<line fill="none" stroke="#000000" stroke-miterlimit="10" x1="27.4" y1="750.299" x2="7.1" y2="750.299"/>
			<line fill="none" stroke="#000000" stroke-miterlimit="10" x1="27.4" y1="754.5" x2="7.1" y2="754.5"/>
			<line fill="none" stroke="#000000" stroke-miterlimit="10" x1="27.4" y1="758.6" x2="7.1" y2="758.6"/>
			<line fill="none" stroke="#000000" stroke-miterlimit="10" x1="47.4" y1="762.799" x2="7.1" y2="762.799"/>
			<line fill="none" stroke="#000000" stroke-miterlimit="10" x1="27.4" y1="641.901" x2="7.1" y2="641.901"/>
			<line fill="none" stroke="#000000" stroke-miterlimit="10" x1="27.4" y1="646.1" x2="7.1" y2="646.1"/>
			<line fill="none" stroke="#000000" stroke-miterlimit="10" x1="27.4" y1="650.299" x2="7.1" y2="650.299"/>
			<line fill="none" stroke="#000000" stroke-miterlimit="10" x1="27.4" y1="654.401" x2="7.1" y2="654.401"/>
			<line fill="none" stroke="#000000" stroke-miterlimit="10" x1="47.4" y1="658.6" x2="7.1" y2="658.6"/>
			<line fill="none" stroke="#000000" stroke-miterlimit="10" x1="27.4" y1="662.799" x2="7.1" y2="662.799"/>
			<line fill="none" stroke="#000000" stroke-miterlimit="10" x1="27.4" y1="666.901" x2="7.1" y2="666.901"/>
			<line fill="none" stroke="#000000" stroke-miterlimit="10" x1="27.4" y1="671.1" x2="7.1" y2="671.1"/>
			<line fill="none" stroke="#000000" stroke-miterlimit="10" x1="27.4" y1="675.299" x2="7.1" y2="675.299"/>
			<line fill="none" stroke="#000000" stroke-miterlimit="10" x1="47.4" y1="679.401" x2="7.1" y2="679.401"/>
			<line fill="none" stroke="#000000" stroke-miterlimit="10" x1="27.4" y1="683.6" x2="7.1" y2="683.6"/>
			<line fill="none" stroke="#000000" stroke-miterlimit="10" x1="27.4" y1="687.799" x2="7.1" y2="687.799"/>
			<line fill="none" stroke="#000000" stroke-miterlimit="10" x1="27.4" y1="691.901" x2="7.1" y2="691.901"/>
			<line fill="none" stroke="#000000" stroke-miterlimit="10" x1="27.4" y1="696.1" x2="7.1" y2="696.1"/>
			<line fill="none" stroke="#000000" stroke-miterlimit="10" x1="47.4" y1="700.299" x2="7.1" y2="700.299"/>
			<line fill="none" stroke="#000000" stroke-miterlimit="10" x1="27.4" y1="579.401" x2="7.1" y2="579.401"/>
			<line fill="none" stroke="#000000" stroke-miterlimit="10" x1="27.4" y1="583.6" x2="7.1" y2="583.6"/>
			<line fill="none" stroke="#000000" stroke-miterlimit="10" x1="27.4" y1="587.7" x2="7.1" y2="587.7"/>
			<line fill="none" stroke="#000000" stroke-miterlimit="10" x1="27.4" y1="591.901" x2="7.1" y2="591.901"/>
			<line fill="none" stroke="#000000" stroke-miterlimit="10" x1="47.4" y1="596.1" x2="7.1" y2="596.1"/>
			<line fill="none" stroke="#000000" stroke-miterlimit="10" x1="27.4" y1="600.2" x2="7.1" y2="600.2"/>
			<line fill="none" stroke="#000000" stroke-miterlimit="10" x1="27.4" y1="604.401" x2="7.1" y2="604.401"/>
			<line fill="none" stroke="#000000" stroke-miterlimit="10" x1="27.4" y1="608.6" x2="7.1" y2="608.6"/>
			<line fill="none" stroke="#000000" stroke-miterlimit="10" x1="27.4" y1="612.7" x2="7.1" y2="612.7"/>
			<line fill="none" stroke="#000000" stroke-miterlimit="10" x1="47.4" y1="616.901" x2="7.1" y2="616.901"/>
			<line fill="none" stroke="#000000" stroke-miterlimit="10" x1="27.4" y1="621.1" x2="7.1" y2="621.1"/>
			<line fill="none" stroke="#000000" stroke-miterlimit="10" x1="27.4" y1="625.299" x2="7.1" y2="625.299"/>
			<line fill="none" stroke="#000000" stroke-miterlimit="10" x1="27.4" y1="629.401" x2="7.1" y2="629.401"/>
			<line fill="none" stroke="#000000" stroke-miterlimit="10" x1="27.4" y1="633.6" x2="7.1" y2="633.6"/>
			<line fill="none" stroke="#000000" stroke-miterlimit="10" x1="47.4" y1="637.799" x2="7.1" y2="637.799"/>
			<line fill="none" stroke="#000000" stroke-miterlimit="10" x1="27.4" y1="516.901" x2="7.1" y2="516.901"/>
			<line fill="none" stroke="#000000" stroke-miterlimit="10" x1="27.4" y1="521.1" x2="7.1" y2="521.1"/>
			<line fill="none" stroke="#000000" stroke-miterlimit="10" x1="27.4" y1="525.2" x2="7.1" y2="525.2"/>
			<line fill="none" stroke="#000000" stroke-miterlimit="10" x1="27.4" y1="529.401" x2="7.1" y2="529.401"/>
			<line fill="none" stroke="#000000" stroke-miterlimit="10" x1="47.4" y1="533.6" x2="7.1" y2="533.6"/>
			<line fill="none" stroke="#000000" stroke-miterlimit="10" x1="27.4" y1="537.7" x2="7.1" y2="537.7"/>
			<line fill="none" stroke="#000000" stroke-miterlimit="10" x1="27.4" y1="541.901" x2="7.1" y2="541.901"/>
			<line fill="none" stroke="#000000" stroke-miterlimit="10" x1="27.4" y1="546.1" x2="7.1" y2="546.1"/>
			<line fill="none" stroke="#000000" stroke-miterlimit="10" x1="27.4" y1="550.2" x2="7.1" y2="550.2"/>
			<line fill="none" stroke="#000000" stroke-miterlimit="10" x1="47.4" y1="554.401" x2="7.1" y2="554.401"/>
			<line fill="none" stroke="#000000" stroke-miterlimit="10" x1="27.4" y1="558.6" x2="7.1" y2="558.6"/>
			<line fill="none" stroke="#000000" stroke-miterlimit="10" x1="27.4" y1="562.7" x2="7.1" y2="562.7"/>
			<line fill="none" stroke="#000000" stroke-miterlimit="10" x1="27.4" y1="566.901" x2="7.1" y2="566.901"/>
			<line fill="none" stroke="#000000" stroke-miterlimit="10" x1="27.4" y1="571.1" x2="7.1" y2="571.1"/>
			<line fill="none" stroke="#000000" stroke-miterlimit="10" x1="47.4" y1="575.2" x2="7.1" y2="575.2"/>
			<line fill="none" stroke="#000000" stroke-miterlimit="10" x1="27.4" y1="454.401" x2="7.1" y2="454.401"/>
			<line fill="none" stroke="#000000" stroke-miterlimit="10" x1="27.4" y1="458.5" x2="7.1" y2="458.5"/>
			<line fill="none" stroke="#000000" stroke-miterlimit="10" x1="27.4" y1="462.7" x2="7.1" y2="462.7"/>
			<line fill="none" stroke="#000000" stroke-miterlimit="10" x1="27.4" y1="466.901" x2="7.1" y2="466.901"/>
			<line fill="none" stroke="#000000" stroke-miterlimit="10" x1="47.4" y1="471" x2="7.1" y2="471"/>
			<line fill="none" stroke="#000000" stroke-miterlimit="10" x1="27.4" y1="475.2" x2="7.1" y2="475.2"/>
			<line fill="none" stroke="#000000" stroke-miterlimit="10" x1="27.4" y1="479.401" x2="7.1" y2="479.401"/>
			<line fill="none" stroke="#000000" stroke-miterlimit="10" x1="27.4" y1="483.5" x2="7.1" y2="483.5"/>
			<line fill="none" stroke="#000000" stroke-miterlimit="10" x1="27.4" y1="487.7" x2="7.1" y2="487.7"/>
			<line fill="none" stroke="#000000" stroke-miterlimit="10" x1="47.4" y1="491.901" x2="7.1" y2="491.901"/>
			<line fill="none" stroke="#000000" stroke-miterlimit="10" x1="27.4" y1="496.1" x2="7.1" y2="496.1"/>
			<line fill="none" stroke="#000000" stroke-miterlimit="10" x1="27.4" y1="500.2" x2="7.1" y2="500.2"/>
			<line fill="none" stroke="#000000" stroke-miterlimit="10" x1="27.4" y1="504.401" x2="7.1" y2="504.401"/>
			<line fill="none" stroke="#000000" stroke-miterlimit="10" x1="27.4" y1="508.6" x2="7.1" y2="508.6"/>
			<line fill="none" stroke="#000000" stroke-miterlimit="10" x1="47.4" y1="512.7" x2="7.1" y2="512.7"/>
			<line fill="none" stroke="#000000" stroke-miterlimit="10" x1="27.4" y1="391.9" x2="7.1" y2="391.9"/>
			<line fill="none" stroke="#000000" stroke-miterlimit="10" x1="27.4" y1="396" x2="7.1" y2="396"/>
			<line fill="none" stroke="#000000" stroke-miterlimit="10" x1="27.4" y1="400.2" x2="7.1" y2="400.2"/>
			<line fill="none" stroke="#000000" stroke-miterlimit="10" x1="27.4" y1="404.4" x2="7.1" y2="404.4"/>
			<line fill="none" stroke="#000000" stroke-miterlimit="10" x1="47.4" y1="408.5" x2="7.1" y2="408.5"/>
			<line fill="none" stroke="#000000" stroke-miterlimit="10" x1="27.4" y1="412.7" x2="7.1" y2="412.7"/>
			<line fill="none" stroke="#000000" stroke-miterlimit="10" x1="27.4" y1="416.9" x2="7.1" y2="416.9"/>
			<line fill="none" stroke="#000000" stroke-miterlimit="10" x1="27.4" y1="421" x2="7.1" y2="421"/>
			<line fill="none" stroke="#000000" stroke-miterlimit="10" x1="27.4" y1="425.2" x2="7.1" y2="425.2"/>
			<line fill="none" stroke="#000000" stroke-miterlimit="10" x1="47.4" y1="429.401" x2="7.1" y2="429.401"/>
			<line fill="none" stroke="#000000" stroke-miterlimit="10" x1="27.4" y1="433.5" x2="7.1" y2="433.5"/>
			<line fill="none" stroke="#000000" stroke-miterlimit="10" x1="27.4" y1="437.7" x2="7.1" y2="437.7"/>
			<line fill="none" stroke="#000000" stroke-miterlimit="10" x1="27.4" y1="441.901" x2="7.1" y2="441.901"/>
			<line fill="none" stroke="#000000" stroke-miterlimit="10" x1="27.4" y1="446" x2="7.1" y2="446"/>
			<line fill="none" stroke="#000000" stroke-miterlimit="10" x1="47.4" y1="450.2" x2="7.1" y2="450.2"/>
			<line fill="none" stroke="#000000" stroke-miterlimit="10" x1="27.4" y1="329.3" x2="7.1" y2="329.3"/>
			<line fill="none" stroke="#000000" stroke-miterlimit="10" x1="27.4" y1="333.5" x2="7.1" y2="333.5"/>
			<line fill="none" stroke="#000000" stroke-miterlimit="10" x1="27.4" y1="337.7" x2="7.1" y2="337.7"/>
			<line fill="none" stroke="#000000" stroke-miterlimit="10" x1="27.4" y1="341.8" x2="7.1" y2="341.8"/>
			<line fill="none" stroke="#000000" stroke-miterlimit="10" x1="47.4" y1="346" x2="7.1" y2="346"/>
			<line fill="none" stroke="#000000" stroke-miterlimit="10" x1="27.4" y1="350.2" x2="7.1" y2="350.2"/>
			<line fill="none" stroke="#000000" stroke-miterlimit="10" x1="27.4" y1="354.4" x2="7.1" y2="354.4"/>
			<line fill="none" stroke="#000000" stroke-miterlimit="10" x1="27.4" y1="358.5" x2="7.1" y2="358.5"/>
			<line fill="none" stroke="#000000" stroke-miterlimit="10" x1="27.4" y1="362.7" x2="7.1" y2="362.7"/>
			<line fill="none" stroke="#000000" stroke-miterlimit="10" x1="47.4" y1="366.9" x2="7.1" y2="366.9"/>
			<line fill="none" stroke="#000000" stroke-miterlimit="10" x1="27.4" y1="371" x2="7.1" y2="371"/>
			<line fill="none" stroke="#000000" stroke-miterlimit="10" x1="27.4" y1="375.2" x2="7.1" y2="375.2"/>
			<line fill="none" stroke="#000000" stroke-miterlimit="10" x1="27.4" y1="379.4" x2="7.1" y2="379.4"/>
			<line fill="none" stroke="#000000" stroke-miterlimit="10" x1="27.4" y1="383.5" x2="7.1" y2="383.5"/>
			<line fill="none" stroke="#000000" stroke-miterlimit="10" x1="47.4" y1="387.7" x2="7.1" y2="387.7"/>
			<line fill="none" stroke="#000000" stroke-miterlimit="10" x1="27.4" y1="266.8" x2="7.1" y2="266.8"/>
			<line fill="none" stroke="#000000" stroke-miterlimit="10" x1="27.4" y1="271" x2="7.1" y2="271"/>
			<line fill="none" stroke="#000000" stroke-miterlimit="10" x1="27.4" y1="275.2" x2="7.1" y2="275.2"/>
			<line fill="none" stroke="#000000" stroke-miterlimit="10" x1="27.4" y1="279.3" x2="7.1" y2="279.3"/>
			<line fill="none" stroke="#000000" stroke-miterlimit="10" x1="47.4" y1="283.5" x2="7.1" y2="283.5"/>
			<line fill="none" stroke="#000000" stroke-miterlimit="10" x1="27.4" y1="287.7" x2="7.1" y2="287.7"/>
			<line fill="none" stroke="#000000" stroke-miterlimit="10" x1="27.4" y1="291.8" x2="7.1" y2="291.8"/>
			<line fill="none" stroke="#000000" stroke-miterlimit="10" x1="27.4" y1="296" x2="7.1" y2="296"/>
			<line fill="none" stroke="#000000" stroke-miterlimit="10" x1="27.4" y1="300.2" x2="7.1" y2="300.2"/>
			<line fill="none" stroke="#000000" stroke-miterlimit="10" x1="47.4" y1="304.3" x2="7.1" y2="304.3"/>
			<line fill="none" stroke="#000000" stroke-miterlimit="10" x1="27.4" y1="308.5" x2="7.1" y2="308.5"/>
			<line fill="none" stroke="#000000" stroke-miterlimit="10" x1="27.4" y1="312.7" x2="7.1" y2="312.7"/>
			<line fill="none" stroke="#000000" stroke-miterlimit="10" x1="27.4" y1="316.8" x2="7.1" y2="316.8"/>
			<line fill="none" stroke="#000000" stroke-miterlimit="10" x1="27.4" y1="321" x2="7.1" y2="321"/>
			<line fill="none" stroke="#000000" stroke-miterlimit="10" x1="47.4" y1="325.2" x2="7.1" y2="325.2"/>
			<line fill="none" stroke="#000000" stroke-miterlimit="10" x1="27.4" y1="204.3" x2="7.1" y2="204.3"/>
			<line fill="none" stroke="#000000" stroke-miterlimit="10" x1="27.4" y1="208.5" x2="7.1" y2="208.5"/>
			<line fill="none" stroke="#000000" stroke-miterlimit="10" x1="27.4" y1="212.6" x2="7.1" y2="212.6"/>
			<line fill="none" stroke="#000000" stroke-miterlimit="10" x1="27.4" y1="216.8" x2="7.1" y2="216.8"/>
			<line fill="none" stroke="#000000" stroke-miterlimit="10" x1="47.4" y1="221" x2="7.1" y2="221"/>
			<line fill="none" stroke="#000000" stroke-miterlimit="10" x1="27.4" y1="225.2" x2="7.1" y2="225.2"/>
			<line fill="none" stroke="#000000" stroke-miterlimit="10" x1="27.4" y1="229.3" x2="7.1" y2="229.3"/>
			<line fill="none" stroke="#000000" stroke-miterlimit="10" x1="27.4" y1="233.5" x2="7.1" y2="233.5"/>
			<line fill="none" stroke="#000000" stroke-miterlimit="10" x1="27.4" y1="237.7" x2="7.1" y2="237.7"/>
			<line fill="none" stroke="#000000" stroke-miterlimit="10" x1="47.4" y1="241.8" x2="7.1" y2="241.8"/>
			<line fill="none" stroke="#000000" stroke-miterlimit="10" x1="27.4" y1="246" x2="7.1" y2="246"/>
			<line fill="none" stroke="#000000" stroke-miterlimit="10" x1="27.4" y1="250.2" x2="7.1" y2="250.2"/>
			<line fill="none" stroke="#000000" stroke-miterlimit="10" x1="27.4" y1="254.3" x2="7.1" y2="254.3"/>
			<line fill="none" stroke="#000000" stroke-miterlimit="10" x1="27.4" y1="258.5" x2="7.1" y2="258.5"/>
			<line fill="none" stroke="#000000" stroke-miterlimit="10" x1="47.4" y1="262.7" x2="7.1" y2="262.7"/>
			<line fill="none" stroke="#000000" stroke-miterlimit="10" x1="27.4" y1="141.8" x2="7.1" y2="141.8"/>
			<line fill="none" stroke="#000000" stroke-miterlimit="10" x1="27.4" y1="146" x2="7.1" y2="146"/>
			<line fill="none" stroke="#000000" stroke-miterlimit="10" x1="27.4" y1="150.1" x2="7.1" y2="150.1"/>
			<line fill="none" stroke="#000000" stroke-miterlimit="10" x1="27.4" y1="154.3" x2="7.1" y2="154.3"/>
			<line fill="none" stroke="#000000" stroke-miterlimit="10" x1="47.4" y1="158.5" x2="7.1" y2="158.5"/>
			<line fill="none" stroke="#000000" stroke-miterlimit="10" x1="27.4" y1="162.6" x2="7.1" y2="162.6"/>
			<line fill="none" stroke="#000000" stroke-miterlimit="10" x1="27.4" y1="166.8" x2="7.1" y2="166.8"/>
			<line fill="none" stroke="#000000" stroke-miterlimit="10" x1="27.4" y1="171" x2="7.1" y2="171"/>
			<line fill="none" stroke="#000000" stroke-miterlimit="10" x1="27.4" y1="175.1" x2="7.1" y2="175.1"/>
			<line fill="none" stroke="#000000" stroke-miterlimit="10" x1="47.4" y1="179.3" x2="7.1" y2="179.3"/>
			<line fill="none" stroke="#000000" stroke-miterlimit="10" x1="27.4" y1="183.5" x2="7.1" y2="183.5"/>
			<line fill="none" stroke="#000000" stroke-miterlimit="10" x1="27.4" y1="187.6" x2="7.1" y2="187.6"/>
			<line fill="none" stroke="#000000" stroke-miterlimit="10" x1="27.4" y1="191.8" x2="7.1" y2="191.8"/>
			<line fill="none" stroke="#000000" stroke-miterlimit="10" x1="27.4" y1="196" x2="7.1" y2="196"/>
			<line fill="none" stroke="#000000" stroke-miterlimit="10" x1="47.4" y1="200.1" x2="7.1" y2="200.1"/>
			<line fill="none" stroke="#000000" stroke-miterlimit="10" x1="47.4" y1="96" x2="7.1" y2="96"/>
			<line fill="none" stroke="#000000" stroke-miterlimit="10" x1="27.4" y1="100.1" x2="7.1" y2="100.1"/>
			<line fill="none" stroke="#000000" stroke-miterlimit="10" x1="27.4" y1="104.3" x2="7.1" y2="104.3"/>
			<line fill="none" stroke="#000000" stroke-miterlimit="10" x1="27.4" y1="108.5" x2="7.1" y2="108.5"/>
			<line fill="none" stroke="#000000" stroke-miterlimit="10" x1="27.4" y1="112.6" x2="7.1" y2="112.6"/>
			<line fill="none" stroke="#000000" stroke-miterlimit="10" x1="47.4" y1="116.8" x2="7.1" y2="116.8"/>
			<line fill="none" stroke="#000000" stroke-miterlimit="10" x1="27.4" y1="121" x2="7.1" y2="121"/>
			<line fill="none" stroke="#000000" stroke-miterlimit="10" x1="27.4" y1="125.1" x2="7.1" y2="125.1"/>
			<line fill="none" stroke="#000000" stroke-miterlimit="10" x1="27.4" y1="129.3" x2="7.1" y2="129.3"/>
			<line fill="none" stroke="#000000" stroke-miterlimit="10" x1="27.4" y1="133.5" x2="7.1" y2="133.5"/>
			<line fill="none" stroke="#000000" stroke-miterlimit="10" x1="47.4" y1="137.6" x2="7.1" y2="137.6"/>
			<line fill="none" stroke="#000000" stroke-miterlimit="10" x1="27.4" y1="37.6" x2="7.1" y2="37.6"/>
			<line fill="none" stroke="#000000" stroke-miterlimit="10" x1="27.4" y1="41.8" x2="7.1" y2="41.8"/>
			<line fill="none" stroke="#000000" stroke-miterlimit="10" x1="27.4" y1="45.9" x2="7.1" y2="45.9"/>
			<line fill="none" stroke="#000000" stroke-miterlimit="10" x1="27.4" y1="50.1" x2="7.1" y2="50.1"/>
			<line fill="none" stroke="#000000" stroke-miterlimit="10" x1="47.4" y1="54.3" x2="7.1" y2="54.3"/>
			<line fill="none" stroke="#000000" stroke-miterlimit="10" x1="27.4" y1="58.5" x2="7.1" y2="58.5"/>
			<line fill="none" stroke="#000000" stroke-miterlimit="10" x1="27.4" y1="62.6" x2="7.1" y2="62.6"/>
			<line fill="none" stroke="#000000" stroke-miterlimit="10" x1="27.4" y1="66.8" x2="7.1" y2="66.8"/>
			<line fill="none" stroke="#000000" stroke-miterlimit="10" x1="27.4" y1="71" x2="7.1" y2="71"/>
			<line fill="none" stroke="#000000" stroke-miterlimit="10" x1="47.4" y1="75.1" x2="7.1" y2="75.1"/>
			<line fill="none" stroke="#000000" stroke-miterlimit="10" x1="27.4" y1="79.3" x2="7.1" y2="79.3"/>
			<line fill="none" stroke="#000000" stroke-miterlimit="10" x1="27.4" y1="83.5" x2="7.1" y2="83.5"/>
			<line fill="none" stroke="#000000" stroke-miterlimit="10" x1="27.4" y1="87.6" x2="7.1" y2="87.6"/>
			<line fill="none" stroke="#000000" stroke-miterlimit="10" x1="27.4" y1="91.8" x2="7.1" y2="91.8"/>
			<line fill="none" stroke="#000000" stroke-miterlimit="10" x1="47.4" y1="12.6" x2="7.1" y2="12.6"/>
			<line fill="none" stroke="#000000" stroke-miterlimit="10" x1="27.4" y1="16.8" x2="7.1" y2="16.8"/>
			<line fill="none" stroke="#000000" stroke-miterlimit="10" x1="27.4" y1="20.9" x2="7.1" y2="20.9"/>
			<line fill="none" stroke="#000000" stroke-miterlimit="10" x1="27.4" y1="25.1" x2="7.1" y2="25.1"/>
			<line fill="none" stroke="#000000" stroke-miterlimit="10" x1="27.4" y1="29.3" x2="7.1" y2="29.3"/>
			<line fill="none" stroke="#000000" stroke-miterlimit="10" x1="47.4" y1="33.4" x2="7.1" y2="33.4"/>
		</g>
	</g>
	<g id="Layer_2_2_">
		<g id="Layer_5_1_">
			<line fill="none" stroke="#000000" stroke-miterlimit="10" x1="27.4" y1="-45.699" x2="7.1" y2="-45.699"/>
			<line fill="none" stroke="#000000" stroke-miterlimit="10" x1="27.4" y1="-41.599" x2="7.1" y2="-41.599"/>
			<line fill="none" stroke="#000000" stroke-miterlimit="10" x1="27.4" y1="-37.4" x2="7.1" y2="-37.4"/>
			<line fill="none" stroke="#000000" stroke-miterlimit="10" x1="27.4" y1="-33.199" x2="7.1" y2="-33.199"/>
			<line fill="none" stroke="#000000" stroke-miterlimit="10" x1="47.4" y1="-29.099" x2="7.1" y2="-29.099"/>
			<line fill="none" stroke="#000000" stroke-miterlimit="10" x1="27.4" y1="-24.9" x2="7.1" y2="-24.9"/>
			<line fill="none" stroke="#000000" stroke-miterlimit="10" x1="27.4" y1="-20.699" x2="7.1" y2="-20.699"/>
			<line fill="none" stroke="#000000" stroke-miterlimit="10" x1="27.4" y1="-16.599" x2="7.1" y2="-16.599"/>
			<line fill="none" stroke="#000000" stroke-miterlimit="10" x1="27.4" y1="-12.4" x2="7.1" y2="-12.4"/>
			<line fill="none" stroke="#000000" stroke-miterlimit="10" x1="47.4" y1="-8.199" x2="7.1" y2="-8.199"/>
			<line fill="none" stroke="#000000" stroke-miterlimit="10" x1="27.4" y1="-4.099" x2="7.1" y2="-4.099"/>
			<line fill="none" stroke="#000000" stroke-miterlimit="10" x1="27.4" y1="0.1" x2="7.1" y2="0.1"/>
			<line fill="none" stroke="#000000" stroke-miterlimit="10" x1="27.4" y1="4.301" x2="7.1" y2="4.301"/>
			<line fill="none" stroke="#000000" stroke-miterlimit="10" x1="27.4" y1="8.401" x2="7.1" y2="8.401"/>
			<line fill="none" stroke="#000000" stroke-miterlimit="10" x1="27.4" y1="-108.298" x2="7.1" y2="-108.298"/>
			<line fill="none" stroke="#000000" stroke-miterlimit="10" x1="27.4" y1="-104.099" x2="7.1" y2="-104.099"/>
			<line fill="none" stroke="#000000" stroke-miterlimit="10" x1="27.4" y1="-99.9" x2="7.1" y2="-99.9"/>
			<line fill="none" stroke="#000000" stroke-miterlimit="10" x1="27.4" y1="-95.798" x2="7.1" y2="-95.798"/>
			<line fill="none" stroke="#000000" stroke-miterlimit="10" x1="47.4" y1="-91.599" x2="7.1" y2="-91.599"/>
			<line fill="none" stroke="#000000" stroke-miterlimit="10" x1="27.4" y1="-87.4" x2="7.1" y2="-87.4"/>
			<line fill="none" stroke="#000000" stroke-miterlimit="10" x1="27.4" y1="-83.298" x2="7.1" y2="-83.298"/>
			<line fill="none" stroke="#000000" stroke-miterlimit="10" x1="27.4" y1="-79.099" x2="7.1" y2="-79.099"/>
			<line fill="none" stroke="#000000" stroke-miterlimit="10" x1="27.4" y1="-74.9" x2="7.1" y2="-74.9"/>
			<line fill="none" stroke="#000000" stroke-miterlimit="10" x1="47.4" y1="-70.798" x2="7.1" y2="-70.798"/>
			<line fill="none" stroke="#000000" stroke-miterlimit="10" x1="27.4" y1="-66.599" x2="7.1" y2="-66.599"/>
			<line fill="none" stroke="#000000" stroke-miterlimit="10" x1="27.4" y1="-62.4" x2="7.1" y2="-62.4"/>
			<line fill="none" stroke="#000000" stroke-miterlimit="10" x1="27.4" y1="-58.199" x2="7.1" y2="-58.199"/>
			<line fill="none" stroke="#000000" stroke-miterlimit="10" x1="27.4" y1="-54.099" x2="7.1" y2="-54.099"/>
			<line fill="none" stroke="#000000" stroke-miterlimit="10" x1="47.4" y1="-49.9" x2="7.1" y2="-49.9"/>
			<line fill="none" stroke="#000000" stroke-miterlimit="10" x1="27.4" y1="-170.798" x2="7.1" y2="-170.798"/>
			<line fill="none" stroke="#000000" stroke-miterlimit="10" x1="27.4" y1="-166.599" x2="7.1" y2="-166.599"/>
			<line fill="none" stroke="#000000" stroke-miterlimit="10" x1="27.4" y1="-162.4" x2="7.1" y2="-162.4"/>
			<line fill="none" stroke="#000000" stroke-miterlimit="10" x1="27.4" y1="-158.298" x2="7.1" y2="-158.298"/>
			<line fill="none" stroke="#000000" stroke-miterlimit="10" x1="47.4" y1="-154.099" x2="7.1" y2="-154.099"/>
			<line fill="none" stroke="#000000" stroke-miterlimit="10" x1="27.4" y1="-149.9" x2="7.1" y2="-149.9"/>
			<line fill="none" stroke="#000000" stroke-miterlimit="10" x1="27.4" y1="-145.798" x2="7.1" y2="-145.798"/>
			<line fill="none" stroke="#000000" stroke-miterlimit="10" x1="27.4" y1="-141.599" x2="7.1" y2="-141.599"/>
			<line fill="none" stroke="#000000" stroke-miterlimit="10" x1="27.4" y1="-137.4" x2="7.1" y2="-137.4"/>
			<line fill="none" stroke="#000000" stroke-miterlimit="10" x1="47.4" y1="-133.298" x2="7.1" y2="-133.298"/>
			<line fill="none" stroke="#000000" stroke-miterlimit="10" x1="27.4" y1="-129.099" x2="7.1" y2="-129.099"/>
			<line fill="none" stroke="#000000" stroke-miterlimit="10" x1="27.4" y1="-124.9" x2="7.1" y2="-124.9"/>
			<line fill="none" stroke="#000000" stroke-miterlimit="10" x1="27.4" y1="-120.798" x2="7.1" y2="-120.798"/>
			<line fill="none" stroke="#000000" stroke-miterlimit="10" x1="27.4" y1="-116.599" x2="7.1" y2="-116.599"/>
			<line fill="none" stroke="#000000" stroke-miterlimit="10" x1="47.4" y1="-112.4" x2="7.1" y2="-112.4"/>
			<line fill="none" stroke="#000000" stroke-miterlimit="10" x1="27.4" y1="-233.298" x2="7.1" y2="-233.298"/>
			<line fill="none" stroke="#000000" stroke-miterlimit="10" x1="27.4" y1="-229.099" x2="7.1" y2="-229.099"/>
			<line fill="none" stroke="#000000" stroke-miterlimit="10" x1="27.4" y1="-225" x2="7.1" y2="-225"/>
			<line fill="none" stroke="#000000" stroke-miterlimit="10" x1="27.4" y1="-220.798" x2="7.1" y2="-220.798"/>
			<line fill="none" stroke="#000000" stroke-miterlimit="10" x1="47.4" y1="-216.599" x2="7.1" y2="-216.599"/>
			<line fill="none" stroke="#000000" stroke-miterlimit="10" x1="27.4" y1="-212.5" x2="7.1" y2="-212.5"/>
			<line fill="none" stroke="#000000" stroke-miterlimit="10" x1="27.4" y1="-208.298" x2="7.1" y2="-208.298"/>
			<line fill="none" stroke="#000000" stroke-miterlimit="10" x1="27.4" y1="-204.099" x2="7.1" y2="-204.099"/>
			<line fill="none" stroke="#000000" stroke-miterlimit="10" x1="27.4" y1="-200" x2="7.1" y2="-200"/>
			<line fill="none" stroke="#000000" stroke-miterlimit="10" x1="47.4" y1="-195.798" x2="7.1" y2="-195.798"/>
			<line fill="none" stroke="#000000" stroke-miterlimit="10" x1="27.4" y1="-191.599" x2="7.1" y2="-191.599"/>
			<line fill="none" stroke="#000000" stroke-miterlimit="10" x1="27.4" y1="-187.4" x2="7.1" y2="-187.4"/>
			<line fill="none" stroke="#000000" stroke-miterlimit="10" x1="27.4" y1="-183.298" x2="7.1" y2="-183.298"/>
			<line fill="none" stroke="#000000" stroke-miterlimit="10" x1="27.4" y1="-179.099" x2="7.1" y2="-179.099"/>
			<line fill="none" stroke="#000000" stroke-miterlimit="10" x1="47.4" y1="-174.9" x2="7.1" y2="-174.9"/>
			<line fill="none" stroke="#000000" stroke-miterlimit="10" x1="27.4" y1="-295.798" x2="7.1" y2="-295.798"/>
			<line fill="none" stroke="#000000" stroke-miterlimit="10" x1="27.4" y1="-291.599" x2="7.1" y2="-291.599"/>
			<line fill="none" stroke="#000000" stroke-miterlimit="10" x1="27.4" y1="-287.5" x2="7.1" y2="-287.5"/>
			<line fill="none" stroke="#000000" stroke-miterlimit="10" x1="27.4" y1="-283.298" x2="7.1" y2="-283.298"/>
			<line fill="none" stroke="#000000" stroke-miterlimit="10" x1="47.4" y1="-279.099" x2="7.1" y2="-279.099"/>
			<line fill="none" stroke="#000000" stroke-miterlimit="10" x1="27.4" y1="-275" x2="7.1" y2="-275"/>
			<line fill="none" stroke="#000000" stroke-miterlimit="10" x1="27.4" y1="-270.798" x2="7.1" y2="-270.798"/>
			<line fill="none" stroke="#000000" stroke-miterlimit="10" x1="27.4" y1="-266.599" x2="7.1" y2="-266.599"/>
			<line fill="none" stroke="#000000" stroke-miterlimit="10" x1="27.4" y1="-262.5" x2="7.1" y2="-262.5"/>
			<line fill="none" stroke="#000000" stroke-miterlimit="10" x1="47.4" y1="-258.298" x2="7.1" y2="-258.298"/>
			<line fill="none" stroke="#000000" stroke-miterlimit="10" x1="27.4" y1="-254.099" x2="7.1" y2="-254.099"/>
			<line fill="none" stroke="#000000" stroke-miterlimit="10" x1="27.4" y1="-250" x2="7.1" y2="-250"/>
			<line fill="none" stroke="#000000" stroke-miterlimit="10" x1="27.4" y1="-245.798" x2="7.1" y2="-245.798"/>
			<line fill="none" stroke="#000000" stroke-miterlimit="10" x1="27.4" y1="-241.599" x2="7.1" y2="-241.599"/>
			<line fill="none" stroke="#000000" stroke-miterlimit="10" x1="47.4" y1="-237.5" x2="7.1" y2="-237.5"/>
			<line fill="none" stroke="#000000" stroke-miterlimit="10" x1="27.4" y1="-358.298" x2="7.1" y2="-358.298"/>
			<line fill="none" stroke="#000000" stroke-miterlimit="10" x1="27.4" y1="-354.199" x2="7.1" y2="-354.199"/>
			<line fill="none" stroke="#000000" stroke-miterlimit="10" x1="27.4" y1="-350" x2="7.1" y2="-350"/>
			<line fill="none" stroke="#000000" stroke-miterlimit="10" x1="27.4" y1="-345.798" x2="7.1" y2="-345.798"/>
			<line fill="none" stroke="#000000" stroke-miterlimit="10" x1="47.4" y1="-341.699" x2="7.1" y2="-341.699"/>
			<line fill="none" stroke="#000000" stroke-miterlimit="10" x1="27.4" y1="-337.5" x2="7.1" y2="-337.5"/>
			<line fill="none" stroke="#000000" stroke-miterlimit="10" x1="27.4" y1="-333.298" x2="7.1" y2="-333.298"/>
			<line fill="none" stroke="#000000" stroke-miterlimit="10" x1="27.4" y1="-329.199" x2="7.1" y2="-329.199"/>
			<line fill="none" stroke="#000000" stroke-miterlimit="10" x1="27.4" y1="-325" x2="7.1" y2="-325"/>
			<line fill="none" stroke="#000000" stroke-miterlimit="10" x1="47.4" y1="-320.798" x2="7.1" y2="-320.798"/>
			<line fill="none" stroke="#000000" stroke-miterlimit="10" x1="27.4" y1="-316.599" x2="7.1" y2="-316.599"/>
			<line fill="none" stroke="#000000" stroke-miterlimit="10" x1="27.4" y1="-312.5" x2="7.1" y2="-312.5"/>
			<line fill="none" stroke="#000000" stroke-miterlimit="10" x1="27.4" y1="-308.298" x2="7.1" y2="-308.298"/>
			<line fill="none" stroke="#000000" stroke-miterlimit="10" x1="27.4" y1="-304.099" x2="7.1" y2="-304.099"/>
			<line fill="none" stroke="#000000" stroke-miterlimit="10" x1="47.4" y1="-300" x2="7.1" y2="-300"/>
			<line fill="none" stroke="#000000" stroke-miterlimit="10" x1="47.4" y1="-404.199" x2="7.1" y2="-404.199"/>
			<line fill="none" stroke="#000000" stroke-miterlimit="10" x1="27.4" y1="-399.999" x2="7.1" y2="-399.999"/>
			<line fill="none" stroke="#000000" stroke-miterlimit="10" x1="27.4" y1="-395.799" x2="7.1" y2="-395.799"/>
			<line fill="none" stroke="#000000" stroke-miterlimit="10" x1="27.4" y1="-391.699" x2="7.1" y2="-391.699"/>
			<line fill="none" stroke="#000000" stroke-miterlimit="10" x1="27.4" y1="-387.5" x2="7.1" y2="-387.5"/>
			<line fill="none" stroke="#000000" stroke-miterlimit="10" x1="47.4" y1="-383.298" x2="7.1" y2="-383.298"/>
			<line fill="none" stroke="#000000" stroke-miterlimit="10" x1="27.4" y1="-379.199" x2="7.1" y2="-379.199"/>
			<line fill="none" stroke="#000000" stroke-miterlimit="10" x1="27.4" y1="-375" x2="7.1" y2="-375"/>
			<line fill="none" stroke="#000000" stroke-miterlimit="10" x1="27.4" y1="-370.798" x2="7.1" y2="-370.798"/>
			<line fill="none" stroke="#000000" stroke-miterlimit="10" x1="27.4" y1="-366.699" x2="7.1" y2="-366.699"/>
			<line fill="none" stroke="#000000" stroke-miterlimit="10" x1="47.4" y1="-362.5" x2="7.1" y2="-362.5"/>
		</g>
	</g>
</g>
<g id="Layer_2">
	<g>
		<path d="M51.1-8.6c0-1.1,0.101-2,0.301-2.7c0.199-0.7,0.6-1.2,1-1.6c0.399-0.4,1-0.5,1.699-0.5c0.5,0,0.9,0.1,1.301,0.3
			c0.399,0.2,0.699,0.5,0.899,0.9c0.2,0.4,0.4,0.8,0.601,1.4C57.1-10.2,57.1-9.5,57.1-8.6c0,1.1-0.1,2-0.3,2.6s-0.6,1.2-1,1.6
			c-0.399,0.4-1,0.5-1.7,0.5c-0.899,0-1.6-0.3-2.1-1C51.4-5.6,51.1-6.9,51.1-8.6z M52.3-8.6c0,1.5,0.2,2.5,0.5,3s0.8,0.8,1.3,0.8
			s1-0.3,1.301-0.8c0.3-0.5,0.5-1.5,0.5-3s-0.2-2.5-0.5-3.1C55.1-12.3,54.6-12.5,54.1-12.5s-0.899,0.2-1.3,0.7
			C52.5-11.2,52.3-10.2,52.3-8.6z"/>
	</g>
	<g>
		<path d="M54.5-44.9h-1.1v-7.3C53.1-51.9,52.8-51.7,52.3-51.4c-0.399,0.3-0.8,0.5-1.2,0.6v-1.1c0.601-0.3,1.2-0.7,1.7-1.1
			s0.8-0.8,1-1.2h0.7V-44.9z"/>
		<path d="M57.5-49.5c0-1.1,0.1-2,0.3-2.7c0.2-0.7,0.601-1.2,1-1.6c0.4-0.4,1-0.5,1.7-0.5c0.5,0,0.9,0.1,1.3,0.3
			c0.4,0.2,0.7,0.5,0.9,0.9s0.399,0.8,0.6,1.4c0.2,0.6,0.2,1.3,0.2,2.2c0,1.1-0.1,2-0.3,2.6s-0.601,1.2-1,1.6
			c-0.4,0.4-1,0.5-1.7,0.5c-0.9,0-1.6-0.3-2.1-1C57.8-46.5,57.5-47.7,57.5-49.5z M58.6-49.5c0,1.5,0.2,2.5,0.5,3
			C59.4-46,59.9-45.7,60.4-45.7s1-0.3,1.3-0.8s0.5-1.5,0.5-3S62-52,61.7-52.6s-0.8-0.8-1.3-0.8s-0.9,0.2-1.301,0.7
			C58.8-52,58.6-51,58.6-49.5z"/>
	</g>
	<g>
		<path d="M54.5-65.7h-1.1V-73C53.1-72.7,52.8-72.5,52.3-72.2c-0.399,0.3-0.8,0.5-1.2,0.6v-1.1c0.601-0.3,1.2-0.7,1.7-1.1
			c0.5-0.4,0.8-0.8,1-1.2h0.7V-65.7z"/>
		<path d="M57.5-68.2l1.2-0.1c0.1,0.6,0.3,1,0.6,1.3s0.7,0.4,1.2,0.4s1-0.2,1.4-0.6c0.399-0.4,0.6-1,0.6-1.7c0-0.7-0.2-1.2-0.5-1.5
			c-0.3-0.3-0.8-0.6-1.4-0.6c-0.399,0-0.699,0.1-1,0.3c-0.3,0.2-0.5,0.4-0.699,0.7L57.8-70.1l0.9-4.8h4.6v1.1h-3.7l-0.5,2.5
			c0.601-0.4,1.101-0.6,1.801-0.6c0.8,0,1.5,0.3,2.1,0.8c0.6,0.6,0.8,1.3,0.8,2.2c0,0.8-0.2,1.6-0.7,2.2
			c-0.6,0.8-1.399,1.1-2.399,1.1c-0.8,0-1.5-0.2-2.101-0.7C57.9-66.7,57.5-67.4,57.5-68.2z"/>
	</g>
	<g>
		<path d="M57.2-87.7v1.1H51.1c0-0.3,0-0.5,0.101-0.8c0.2-0.4,0.399-0.8,0.8-1.2s0.8-0.9,1.5-1.4c1-0.8,1.7-1.5,2.1-2
			c0.4-0.5,0.5-0.9,0.5-1.4s-0.199-0.8-0.5-1.1C55.3-94.8,54.9-95,54.3-95c-0.5,0-1,0.2-1.3,0.5s-0.5,0.8-0.5,1.4l-1.2-0.1
			c0.101-0.9,0.4-1.5,0.9-2s1.2-0.7,2.1-0.7c0.9,0,1.601,0.2,2.101,0.7s0.8,1.1,0.8,1.8c0,0.4-0.101,0.7-0.2,1.1
			c-0.1,0.4-0.4,0.7-0.8,1.1c-0.4,0.4-0.9,0.9-1.8,1.6c-0.7,0.6-1.101,1-1.301,1.2C52.9-88.2,52.7-88,52.6-87.8H57.2V-87.7z"/>
		<path d="M58.5-91.2c0-1.1,0.1-2,0.3-2.7c0.2-0.7,0.601-1.2,1-1.6c0.4-0.4,1-0.5,1.7-0.5c0.5,0,0.9,0.1,1.3,0.3
			c0.4,0.2,0.7,0.5,0.9,0.9c0.2,0.4,0.399,0.8,0.6,1.4s0.2,1.3,0.2,2.2c0,1.1-0.1,2-0.3,2.6s-0.601,1.2-1,1.6
			c-0.4,0.4-1,0.5-1.7,0.5c-0.9,0-1.6-0.3-2.1-1C58.8-88.1,58.5-89.4,58.5-91.2z M59.6-91.2c0,1.5,0.2,2.5,0.5,3
			c0.301,0.5,0.801,0.8,1.301,0.8s1-0.3,1.3-0.8s0.5-1.5,0.5-3s-0.2-2.5-0.5-3.1c-0.3-0.6-0.8-0.8-1.3-0.8s-0.9,0.2-1.301,0.7
			C59.8-93.7,59.6-92.7,59.6-91.2z"/>
	</g>
	<g>
		<path d="M57.2-108.5v1.1H51.1c0-0.3,0-0.5,0.101-0.8c0.2-0.4,0.399-0.8,0.8-1.2s0.8-0.9,1.5-1.4c1-0.8,1.7-1.5,2.1-2
			c0.4-0.5,0.5-0.9,0.5-1.4s-0.199-0.8-0.5-1.1c-0.3-0.3-0.699-0.5-1.3-0.5c-0.5,0-1,0.2-1.3,0.5c-0.3,0.3-0.5,0.8-0.5,1.4l-1.2-0.1
			c0.101-0.9,0.4-1.5,0.9-2s1.2-0.7,2.1-0.7c0.9,0,1.601,0.2,2.101,0.7s0.8,1.1,0.8,1.8c0,0.4-0.101,0.7-0.2,1.1s-0.4,0.7-0.8,1.1
			c-0.4,0.4-0.9,0.9-1.8,1.6c-0.7,0.6-1.101,1-1.301,1.2c-0.199,0.2-0.399,0.4-0.5,0.6H57.2V-108.5z"/>
		<path d="M58.5-109.8l1.2-0.1c0.1,0.6,0.3,1,0.6,1.3c0.3,0.3,0.7,0.4,1.2,0.4s1-0.2,1.4-0.6c0.399-0.4,0.6-1,0.6-1.7
			s-0.2-1.2-0.5-1.5s-0.8-0.6-1.4-0.6c-0.399,0-0.699,0.1-1,0.3c-0.3,0.2-0.5,0.4-0.699,0.7l-1.101-0.1l0.9-4.8h4.6v1.1h-3.7
			l-0.5,2.5c0.601-0.4,1.101-0.6,1.801-0.6c0.8,0,1.5,0.3,2.1,0.8c0.6,0.6,0.8,1.3,0.8,2.2c0,0.8-0.2,1.6-0.7,2.2
			c-0.6,0.8-1.399,1.1-2.399,1.1c-0.8,0-1.5-0.2-2.101-0.7C58.9-108.4,58.5-109.1,58.5-109.8z"/>
	</g>
	<g>
		<path d="M51.1-130.7l1.101-0.2c0.1,0.6,0.399,1.1,0.7,1.4c0.3,0.3,0.699,0.4,1.199,0.4s1-0.2,1.4-0.6c0.4-0.4,0.6-0.8,0.6-1.4
			c0-0.5-0.199-1-0.5-1.3c-0.3-0.3-0.8-0.5-1.3-0.5c-0.2,0-0.5,0-0.8,0.1l0.1-1c0.101,0,0.101,0,0.2,0c0.5,0,0.9-0.1,1.3-0.4
			c0.4-0.3,0.601-0.6,0.601-1.2c0-0.4-0.101-0.8-0.4-1c-0.3-0.3-0.6-0.4-1.1-0.4c-0.4,0-0.8,0.1-1.101,0.4c-0.3,0.3-0.5,0.7-0.6,1.3
			l-1.1-0.2c0.1-0.8,0.5-1.4,1-1.8s1.1-0.6,1.8-0.6c0.5,0,1,0.1,1.399,0.3c0.4,0.2,0.801,0.5,1,0.9c0.2,0.4,0.301,0.8,0.301,1.2
			c0,0.4-0.101,0.8-0.301,1.1c-0.199,0.3-0.5,0.6-1,0.8c0.5,0.1,1,0.4,1.301,0.8c0.3,0.4,0.5,0.9,0.5,1.5c0,0.8-0.301,1.5-0.9,2.1
			s-1.3,0.8-2.2,0.8c-0.8,0-1.5-0.2-2-0.7C51.5-129.3,51.2-129.9,51.1-130.7z"/>
		<path d="M58.4-132.8c0-1.1,0.1-2,0.3-2.7s0.6-1.2,1-1.6c0.399-0.4,1-0.5,1.7-0.5c0.5,0,0.899,0.1,1.3,0.3
			c0.399,0.2,0.7,0.5,0.899,0.9c0.2,0.4,0.4,0.8,0.601,1.4s0.2,1.3,0.2,2.2c0,1.1-0.101,2-0.301,2.6c-0.199,0.6-0.6,1.2-1,1.6
			c-0.399,0.4-1,0.5-1.699,0.5c-0.9,0-1.601-0.3-2.101-1C58.7-129.8,58.4-131.1,58.4-132.8z M59.5-132.8c0,1.5,0.2,2.5,0.5,3
			s0.8,0.8,1.3,0.8s1-0.3,1.3-0.8c0.301-0.5,0.5-1.5,0.5-3s-0.199-2.5-0.5-3.1c-0.3-0.6-0.8-0.8-1.3-0.8S60.4-136.5,60-136
			C59.7-135.4,59.5-134.4,59.5-132.8z"/>
	</g>
	<g>
		<path d="M51.1-151.5l1.101-0.2c0.1,0.6,0.399,1.1,0.7,1.4c0.3,0.3,0.699,0.4,1.199,0.4s1-0.2,1.4-0.6s0.6-0.8,0.6-1.4
			c0-0.5-0.199-1-0.5-1.3c-0.3-0.3-0.8-0.5-1.3-0.5c-0.2,0-0.5,0-0.8,0.1l0.1-1c0.101,0,0.101,0,0.2,0c0.5,0,0.9-0.1,1.3-0.4
			c0.4-0.3,0.601-0.6,0.601-1.2c0-0.4-0.101-0.8-0.4-1c-0.3-0.3-0.6-0.4-1.1-0.4c-0.4,0-0.8,0.1-1.101,0.4c-0.3,0.3-0.5,0.7-0.6,1.3
			l-1.1-0.2c0.1-0.8,0.5-1.4,1-1.8s1.1-0.6,1.8-0.6c0.5,0,1,0.1,1.399,0.3c0.4,0.2,0.801,0.5,1,0.9c0.2,0.4,0.301,0.8,0.301,1.2
			S56.8-155.3,56.6-155c-0.199,0.3-0.5,0.6-1,0.8c0.5,0.1,1,0.4,1.301,0.8c0.3,0.4,0.5,0.9,0.5,1.5c0,0.8-0.301,1.5-0.9,2.1
			c-0.6,0.6-1.3,0.8-2.2,0.8c-0.8,0-1.5-0.2-2-0.7C51.5-150.1,51.2-150.8,51.1-151.5z"/>
		<path d="M58.4-151.5l1.199-0.1c0.101,0.6,0.301,1,0.601,1.3c0.3,0.3,0.7,0.4,1.2,0.4s1-0.2,1.399-0.6c0.4-0.4,0.601-1,0.601-1.7
			c0-0.7-0.2-1.2-0.5-1.5c-0.301-0.3-0.801-0.6-1.4-0.6c-0.4,0-0.7,0.1-1,0.3s-0.5,0.4-0.7,0.7l-1.1-0.1l0.899-4.8H64.2v1.1h-3.7
			l-0.5,2.5c0.6-0.4,1.1-0.6,1.8-0.6c0.8,0,1.5,0.3,2.101,0.8c0.6,0.6,0.8,1.3,0.8,2.2c0,0.8-0.2,1.6-0.7,2.2
			c-0.6,0.8-1.4,1.1-2.4,1.1c-0.8,0-1.5-0.2-2.1-0.7C58.8-150.1,58.4-150.7,58.4-151.5z"/>
	</g>
	<g>
		<path d="M55.1-169.9v-2.2h-4v-1l4.2-6h0.9v6h1.3v1h-1.3v2.2H55.1z M55.1-173.2v-4.2l-2.899,4.2H55.1z"/>
		<path d="M58.7-174.5c0-1.1,0.1-2,0.3-2.7c0.2-0.7,0.6-1.2,1-1.6c0.4-0.4,1-0.5,1.7-0.5c0.5,0,0.899,0.1,1.3,0.3s0.7,0.5,0.9,0.9
			c0.199,0.4,0.399,0.8,0.6,1.4c0.2,0.6,0.2,1.3,0.2,2.2c0,1.1-0.101,2-0.3,2.6c-0.2,0.6-0.601,1.2-1,1.6c-0.4,0.4-1,0.5-1.7,0.5
			c-0.9,0-1.601-0.3-2.101-1C59-171.5,58.7-172.8,58.7-174.5z M59.8-174.5c0,1.5,0.2,2.5,0.5,3s0.8,0.8,1.3,0.8s1-0.3,1.301-0.8
			c0.3-0.5,0.5-1.5,0.5-3s-0.2-2.5-0.5-3.1c-0.301-0.6-0.801-0.8-1.301-0.8s-0.899,0.2-1.3,0.7C60-177.1,59.8-176,59.8-174.5z"/>
	</g>
	<g>
		<path d="M55.1-190.8v-2.2h-4v-1l4.2-6h0.9v6h1.3v1h-1.3v2.2H55.1z M55.1-194.1v-4.2l-2.899,4.2H55.1z"/>
		<path d="M58.7-193.2l1.2-0.1c0.1,0.6,0.3,1,0.6,1.3s0.7,0.4,1.2,0.4s1-0.2,1.399-0.6c0.4-0.4,0.601-1,0.601-1.7
			c0-0.7-0.2-1.2-0.5-1.5c-0.3-0.3-0.8-0.6-1.4-0.6c-0.399,0-0.7,0.1-1,0.3c-0.3,0.2-0.5,0.4-0.7,0.7l-1.1-0.1l0.9-4.8h4.6v1.1h-3.7
			l-0.5,2.5c0.601-0.4,1.101-0.6,1.8-0.6c0.801,0,1.5,0.3,2.101,0.8c0.6,0.6,0.8,1.3,0.8,2.2c0,0.8-0.2,1.6-0.7,2.2
			c-0.6,0.8-1.399,1.1-2.399,1.1c-0.801,0-1.5-0.2-2.101-0.7C59.1-191.8,58.7-192.4,58.7-193.2z"/>
	</g>
	<path d="M51.1-26.2l1.2-0.1c0.101,0.6,0.3,1,0.601,1.3c0.3,0.3,0.699,0.4,1.199,0.4s1-0.2,1.4-0.6c0.4-0.4,0.6-1,0.6-1.7
		c0-0.7-0.199-1.2-0.5-1.5C55.3-28.7,54.8-29,54.2-29c-0.4,0-0.7,0.1-1,0.3c-0.3,0.2-0.5,0.4-0.7,0.7l-1.1-0.1l0.899-4.8H56.9v1.1
		h-3.7l-0.5,2.5c0.6-0.4,1.1-0.6,1.8-0.6c0.8,0,1.5,0.3,2.1,0.8c0.601,0.6,0.801,1.3,0.801,2.2c0,0.8-0.2,1.6-0.7,2.2
		c-0.601,0.8-1.4,1.1-2.4,1.1c-0.8,0-1.5-0.2-2.1-0.7C51.5-24.7,51.1-25.4,51.1-26.2z"/>
	<g>
		<path d="M51.1-216.6c0-1.1,0.101-2,0.301-2.7c0.199-0.7,0.6-1.2,1-1.6c0.399-0.4,1-0.5,1.699-0.5c0.5,0,0.9,0.1,1.301,0.3
			c0.399,0.2,0.699,0.5,0.899,0.9c0.2,0.4,0.4,0.8,0.601,1.4c0.199,0.6,0.199,1.3,0.199,2.2c0,1.1-0.1,2-0.3,2.6s-0.6,1.2-1,1.6
			c-0.399,0.4-1,0.5-1.7,0.5c-0.899,0-1.6-0.3-2.1-1C51.4-213.6,51.1-214.9,51.1-216.6z M52.3-216.6c0,1.5,0.2,2.5,0.5,3
			s0.8,0.8,1.3,0.8s1-0.3,1.301-0.8c0.3-0.5,0.5-1.5,0.5-3s-0.2-2.5-0.5-3.1c-0.301-0.6-0.801-0.8-1.301-0.8s-0.899,0.2-1.3,0.7
			C52.5-219.2,52.3-218.2,52.3-216.6z"/>
	</g>
	<g>
		<path d="M54.5-252.9h-1.1v-7.3c-0.301,0.3-0.601,0.5-1.101,0.8c-0.399,0.3-0.8,0.5-1.2,0.6v-1.1c0.601-0.3,1.2-0.7,1.7-1.1
			s0.8-0.8,1-1.2h0.7V-252.9z"/>
		<path d="M57.5-257.5c0-1.1,0.1-2,0.3-2.7c0.2-0.7,0.601-1.2,1-1.6c0.4-0.4,1-0.5,1.7-0.5c0.5,0,0.9,0.1,1.3,0.3
			c0.4,0.2,0.7,0.5,0.9,0.9s0.399,0.8,0.6,1.4c0.2,0.6,0.2,1.3,0.2,2.2c0,1.1-0.1,2-0.3,2.6s-0.601,1.2-1,1.6
			c-0.4,0.4-1,0.5-1.7,0.5c-0.9,0-1.6-0.3-2.1-1C57.8-254.5,57.5-255.7,57.5-257.5z M58.6-257.5c0,1.5,0.2,2.5,0.5,3
			c0.301,0.5,0.801,0.8,1.301,0.8s1-0.3,1.3-0.8s0.5-1.5,0.5-3s-0.2-2.5-0.5-3.1s-0.8-0.8-1.3-0.8s-0.9,0.2-1.301,0.7
			C58.8-260,58.6-259,58.6-257.5z"/>
	</g>
	<g>
		<path d="M54.5-273.7h-1.1v-7.3c-0.301,0.3-0.601,0.5-1.101,0.8c-0.399,0.3-0.8,0.5-1.2,0.6v-1.1c0.601-0.3,1.2-0.7,1.7-1.1
			c0.5-0.4,0.8-0.8,1-1.2h0.7V-273.7z"/>
		<path d="M57.5-276.2l1.2-0.1c0.1,0.6,0.3,1,0.6,1.3s0.7,0.4,1.2,0.4s1-0.2,1.4-0.6c0.399-0.4,0.6-1,0.6-1.7c0-0.7-0.2-1.2-0.5-1.5
			c-0.3-0.3-0.8-0.6-1.4-0.6c-0.399,0-0.699,0.1-1,0.3c-0.3,0.2-0.5,0.4-0.699,0.7l-1.101-0.1l0.9-4.8h4.6v1.1h-3.7l-0.5,2.5
			c0.601-0.4,1.101-0.6,1.801-0.6c0.8,0,1.5,0.3,2.1,0.8c0.6,0.6,0.8,1.3,0.8,2.2c0,0.8-0.2,1.6-0.7,2.2
			c-0.6,0.8-1.399,1.1-2.399,1.1c-0.8,0-1.5-0.2-2.101-0.7C57.9-274.7,57.5-275.4,57.5-276.2z"/>
	</g>
	<g>
		<path d="M57.2-295.7v1.1H51.1c0-0.3,0-0.5,0.101-0.8c0.2-0.4,0.399-0.8,0.8-1.2s0.8-0.9,1.5-1.4c1-0.8,1.7-1.5,2.1-2
			c0.4-0.5,0.5-0.9,0.5-1.4s-0.199-0.8-0.5-1.1c-0.3-0.3-0.699-0.5-1.3-0.5c-0.5,0-1,0.2-1.3,0.5s-0.5,0.8-0.5,1.4l-1.2-0.1
			c0.101-0.9,0.4-1.5,0.9-2s1.2-0.7,2.1-0.7c0.9,0,1.601,0.2,2.101,0.7s0.8,1.1,0.8,1.8c0,0.4-0.101,0.7-0.2,1.1
			c-0.1,0.4-0.4,0.7-0.8,1.1c-0.4,0.4-0.9,0.9-1.8,1.6c-0.7,0.6-1.101,1-1.301,1.2c-0.199,0.2-0.399,0.4-0.5,0.6H57.2V-295.7z"/>
		<path d="M58.5-299.2c0-1.1,0.1-2,0.3-2.7c0.2-0.7,0.601-1.2,1-1.6c0.4-0.4,1-0.5,1.7-0.5c0.5,0,0.9,0.1,1.3,0.3
			c0.4,0.2,0.7,0.5,0.9,0.9c0.2,0.4,0.399,0.8,0.6,1.4s0.2,1.3,0.2,2.2c0,1.1-0.1,2-0.3,2.6s-0.601,1.2-1,1.6
			c-0.4,0.4-1,0.5-1.7,0.5c-0.9,0-1.6-0.3-2.1-1C58.8-296.1,58.5-297.4,58.5-299.2z M59.6-299.2c0,1.5,0.2,2.5,0.5,3
			c0.301,0.5,0.801,0.8,1.301,0.8s1-0.3,1.3-0.8s0.5-1.5,0.5-3s-0.2-2.5-0.5-3.1c-0.3-0.6-0.8-0.8-1.3-0.8s-0.9,0.2-1.301,0.7
			C59.8-301.7,59.6-300.7,59.6-299.2z"/>
	</g>
	<g>
		<path d="M57.2-316.5v1.1H51.1c0-0.3,0-0.5,0.101-0.8c0.2-0.4,0.399-0.8,0.8-1.2s0.8-0.9,1.5-1.4c1-0.8,1.7-1.5,2.1-2
			c0.4-0.5,0.5-0.9,0.5-1.4s-0.199-0.8-0.5-1.1c-0.3-0.3-0.699-0.5-1.3-0.5c-0.5,0-1,0.2-1.3,0.5c-0.3,0.3-0.5,0.8-0.5,1.4l-1.2-0.1
			c0.101-0.9,0.4-1.5,0.9-2s1.2-0.7,2.1-0.7c0.9,0,1.601,0.2,2.101,0.7s0.8,1.1,0.8,1.8c0,0.4-0.101,0.7-0.2,1.1s-0.4,0.7-0.8,1.1
			c-0.4,0.4-0.9,0.9-1.8,1.6c-0.7,0.6-1.101,1-1.301,1.2c-0.199,0.2-0.399,0.4-0.5,0.6H57.2V-316.5z"/>
		<path d="M58.5-317.8l1.2-0.1c0.1,0.6,0.3,1,0.6,1.3c0.3,0.3,0.7,0.4,1.2,0.4s1-0.2,1.4-0.6c0.399-0.4,0.6-1,0.6-1.7
			s-0.2-1.2-0.5-1.5s-0.8-0.6-1.4-0.6c-0.399,0-0.699,0.1-1,0.3c-0.3,0.2-0.5,0.4-0.699,0.7l-1.101-0.1l0.9-4.8h4.6v1.1h-3.7
			l-0.5,2.5c0.601-0.4,1.101-0.6,1.801-0.6c0.8,0,1.5,0.3,2.1,0.8c0.6,0.6,0.8,1.3,0.8,2.2c0,0.8-0.2,1.6-0.7,2.2
			c-0.6,0.8-1.399,1.1-2.399,1.1c-0.8,0-1.5-0.2-2.101-0.7C58.9-316.4,58.5-317.1,58.5-317.8z"/>
	</g>
	<g>
		<path d="M51.1-338.7l1.101-0.2c0.1,0.6,0.399,1.1,0.7,1.4c0.3,0.3,0.699,0.4,1.199,0.4s1-0.2,1.4-0.6c0.4-0.4,0.6-0.8,0.6-1.4
			c0-0.5-0.199-1-0.5-1.3c-0.3-0.3-0.8-0.5-1.3-0.5c-0.2,0-0.5,0-0.8,0.1l0.1-1c0.101,0,0.101,0,0.2,0c0.5,0,0.9-0.1,1.3-0.4
			c0.4-0.3,0.601-0.6,0.601-1.2c0-0.4-0.101-0.8-0.4-1c-0.3-0.3-0.6-0.4-1.1-0.4c-0.4,0-0.8,0.1-1.101,0.4c-0.3,0.3-0.5,0.7-0.6,1.3
			l-1.1-0.2c0.1-0.8,0.5-1.4,1-1.8s1.1-0.6,1.8-0.6c0.5,0,1,0.1,1.399,0.3c0.4,0.2,0.801,0.5,1,0.9c0.2,0.4,0.301,0.8,0.301,1.2
			c0,0.4-0.101,0.8-0.301,1.1c-0.199,0.3-0.5,0.6-1,0.8c0.5,0.1,1,0.4,1.301,0.8c0.3,0.4,0.5,0.9,0.5,1.5c0,0.8-0.301,1.5-0.9,2.1
			s-1.3,0.8-2.2,0.8c-0.8,0-1.5-0.2-2-0.7C51.5-337.3,51.2-337.9,51.1-338.7z"/>
		<path d="M58.4-340.8c0-1.1,0.1-2,0.3-2.7s0.6-1.2,1-1.6c0.399-0.4,1-0.5,1.7-0.5c0.5,0,0.899,0.1,1.3,0.3
			c0.399,0.2,0.7,0.5,0.899,0.9c0.2,0.4,0.4,0.8,0.601,1.4s0.2,1.3,0.2,2.2c0,1.1-0.101,2-0.301,2.6c-0.199,0.6-0.6,1.2-1,1.6
			c-0.399,0.4-1,0.5-1.699,0.5c-0.9,0-1.601-0.3-2.101-1C58.7-337.8,58.4-339.1,58.4-340.8z M59.5-340.8c0,1.5,0.2,2.5,0.5,3
			s0.8,0.8,1.3,0.8s1-0.3,1.3-0.8c0.301-0.5,0.5-1.5,0.5-3s-0.199-2.5-0.5-3.1c-0.3-0.6-0.8-0.8-1.3-0.8S60.4-344.5,60-344
			C59.7-343.4,59.5-342.4,59.5-340.8z"/>
	</g>
	<g>
		<path d="M51.1-359.5l1.101-0.2c0.1,0.6,0.399,1.1,0.7,1.4c0.3,0.3,0.699,0.4,1.199,0.4s1-0.2,1.4-0.6s0.6-0.8,0.6-1.4
			c0-0.5-0.199-1-0.5-1.3c-0.3-0.3-0.8-0.5-1.3-0.5c-0.2,0-0.5,0-0.8,0.1l0.1-1c0.101,0,0.101,0,0.2,0c0.5,0,0.9-0.1,1.3-0.4
			c0.4-0.3,0.601-0.6,0.601-1.2c0-0.4-0.101-0.8-0.4-1c-0.3-0.3-0.6-0.4-1.1-0.4c-0.4,0-0.8,0.1-1.101,0.4c-0.3,0.3-0.5,0.7-0.6,1.3
			l-1.1-0.2c0.1-0.8,0.5-1.4,1-1.8s1.1-0.6,1.8-0.6c0.5,0,1,0.1,1.399,0.3c0.4,0.2,0.801,0.5,1,0.9c0.2,0.4,0.301,0.8,0.301,1.2
			S56.8-363.3,56.6-363c-0.199,0.3-0.5,0.6-1,0.8c0.5,0.1,1,0.4,1.301,0.8c0.3,0.4,0.5,0.9,0.5,1.5c0,0.8-0.301,1.5-0.9,2.1
			c-0.6,0.6-1.3,0.8-2.2,0.8c-0.8,0-1.5-0.2-2-0.7C51.5-358.1,51.2-358.8,51.1-359.5z"/>
		<path d="M58.4-359.5l1.199-0.1c0.101,0.6,0.301,1,0.601,1.3c0.3,0.3,0.7,0.4,1.2,0.4s1-0.2,1.399-0.6c0.4-0.4,0.601-1,0.601-1.7
			c0-0.7-0.2-1.2-0.5-1.5c-0.301-0.3-0.801-0.6-1.4-0.6c-0.4,0-0.7,0.1-1,0.3s-0.5,0.4-0.7,0.7l-1.1-0.1l0.899-4.8H64.2v1.1h-3.7
			l-0.5,2.5c0.6-0.4,1.1-0.6,1.8-0.6c0.8,0,1.5,0.3,2.101,0.8c0.6,0.6,0.8,1.3,0.8,2.2c0,0.8-0.2,1.6-0.7,2.2
			c-0.6,0.8-1.4,1.1-2.4,1.1c-0.8,0-1.5-0.2-2.1-0.7C58.8-358.1,58.4-358.7,58.4-359.5z"/>
	</g>
	<g>
		<path d="M55.1-377.9v-2.2h-4v-1l4.2-6h0.9v6h1.3v1h-1.3v2.2H55.1z M55.1-381.2v-4.2l-2.899,4.2H55.1z"/>
		<path d="M58.7-382.5c0-1.1,0.1-2,0.3-2.7c0.2-0.7,0.6-1.2,1-1.6c0.4-0.4,1-0.5,1.7-0.5c0.5,0,0.899,0.1,1.3,0.3s0.7,0.5,0.9,0.9
			c0.199,0.4,0.399,0.8,0.6,1.4c0.2,0.6,0.2,1.3,0.2,2.2c0,1.1-0.101,2-0.3,2.6c-0.2,0.6-0.601,1.2-1,1.6c-0.4,0.4-1,0.5-1.7,0.5
			c-0.9,0-1.601-0.3-2.101-1C59-379.5,58.7-380.8,58.7-382.5z M59.8-382.5c0,1.5,0.2,2.5,0.5,3s0.8,0.8,1.3,0.8s1-0.3,1.301-0.8
			c0.3-0.5,0.5-1.5,0.5-3s-0.2-2.5-0.5-3.1c-0.301-0.6-0.801-0.8-1.301-0.8s-0.899,0.2-1.3,0.7C60-385.1,59.8-384,59.8-382.5z"/>
	</g>
	<g>
		<path d="M55.1-398.8v-2.2h-4v-1l4.2-6h0.9v6h1.3v1h-1.3v2.2H55.1z M55.1-402.1v-4.2l-2.899,4.2H55.1z"/>
		<path d="M58.7-401.2l1.2-0.1c0.1,0.6,0.3,1,0.6,1.3s0.7,0.4,1.2,0.4s1-0.2,1.399-0.6c0.4-0.4,0.601-1,0.601-1.7
			c0-0.7-0.2-1.2-0.5-1.5c-0.3-0.3-0.8-0.6-1.4-0.6c-0.399,0-0.7,0.1-1,0.3c-0.3,0.2-0.5,0.4-0.7,0.7l-1.1-0.1l0.9-4.8h4.6v1.1h-3.7
			l-0.5,2.5c0.601-0.4,1.101-0.6,1.8-0.6c0.801,0,1.5,0.3,2.101,0.8c0.6,0.6,0.8,1.3,0.8,2.2c0,0.8-0.2,1.6-0.7,2.2
			c-0.6,0.8-1.399,1.1-2.399,1.1c-0.801,0-1.5-0.2-2.101-0.7C59.1-399.8,58.7-400.4,58.7-401.2z"/>
	</g>
	<path d="M51.1-234.2l1.2-0.1c0.101,0.6,0.3,1,0.601,1.3c0.3,0.3,0.699,0.4,1.199,0.4s1-0.2,1.4-0.6c0.4-0.4,0.6-1,0.6-1.7
		c0-0.7-0.199-1.2-0.5-1.5c-0.3-0.3-0.8-0.6-1.399-0.6c-0.4,0-0.7,0.1-1,0.3c-0.3,0.2-0.5,0.4-0.7,0.7l-1.1-0.1l0.899-4.8H56.9v1.1
		h-3.7l-0.5,2.5c0.6-0.4,1.1-0.6,1.8-0.6c0.8,0,1.5,0.3,2.1,0.8c0.601,0.6,0.801,1.3,0.801,2.2c0,0.8-0.2,1.6-0.7,2.2
		c-0.601,0.8-1.4,1.1-2.4,1.1c-0.8,0-1.5-0.2-2.1-0.7C51.5-232.7,51.1-233.4,51.1-234.2z"/>
</g>
</svg>
