<?xml version="1.0" encoding="utf-8"?>
<!-- Generator: Adobe Illustrator 16.0.0, SVG Export Plug-In . SVG Version: 6.00 Build 0)  -->
<!DOCTYPE svg PUBLIC "-//W3C//DTD SVG 1.1//EN" "http://www.w3.org/Graphics/SVG/1.1/DTD/svg11.dtd">
<svg version="1.1" id="Layer_1" xmlns="http://www.w3.org/2000/svg" xmlns:xlink="http://www.w3.org/1999/xlink" x="0px" y="0px"
	 width="700px" height="700px" viewBox="0 0 700 700" enable-background="new 0 0 700 700" xml:space="preserve">
<g>
	<g>
		<g>
			
				<linearGradient id="SVGID_1_" gradientUnits="userSpaceOnUse" x1="-255.2969" y1="588.3848" x2="-206.7993" y2="588.3848" gradientTransform="matrix(0.9923 -0.1237 0.8275 0.9046 3.918409e-004 -9.633601e-005)">
				<stop  offset="0" style="stop-color:#000000"/>
				<stop  offset="1" style="stop-color:#000000;stop-opacity:0"/>
			</linearGradient>
			<path fill-rule="evenodd" clip-rule="evenodd" fill="url(#SVGID_1_)" d="M284,561.4c3.5,0,6.3,0.6,8.4,1.8l21.1,13.5
				c0.4,1.2-0.9,1.8-3.7,1.8H131h-7.6H89.1H64.5c-2.8,0-4.4-0.6-4.9-1.8l-4.4-13.5c-0.4-1.2,0.9-1.8,3.7-1.8h30.2h34.3h7.6H284z"/>
		</g>
		<g>
			<path fill-rule="evenodd" clip-rule="evenodd" fill-opacity="0.2471" d="M217,583.9h1.5l0.2,2.8l-1.5,0.1
				c-29,1.5-50.1,1-63.1-1.8c-6.9-1.3-11.6-3.3-14.1-5.9c-3-2.8-3.7-6.3-1.9-10.4l0.5-1.3l2.7,1.1l-0.6,1.4
				c-1.3,2.9-0.9,5.2,1.2,7.1c2.3,2.4,6.6,4.1,12.8,5.3C167.5,585,188.3,585.5,217,583.9z M249.5,557.8l1.5,0.4
				c23.7,5.8,52.7,9.6,86.8,11.4c7.8,1,13,2.1,15.5,3.3c2.1,0.9,2.9,1.9,2.5,3c0.1,1-0.9,2-3,2.9c-5.6,2.2-21.5,4.6-47.9,7.3
				l-1.5,0.3l-0.3-3l1.4-0.1c26.1-2.6,41.9-5,47.4-7.1c0.4-0.2,0.8-0.3,1-0.4c-0.2,0-0.4,0-0.6-0.1c-2.3-1-7.2-1.9-14.6-2.8
				c-34.3-1.9-63.4-5.8-87.3-11.8l-1.4-0.3L249.5,557.8z"/>
		</g>
		<g>
			<g>
				<linearGradient id="SVGID_2_" gradientUnits="userSpaceOnUse" x1="215.9624" y1="569.3193" x2="244.3374" y2="569.3193">
					<stop  offset="0" style="stop-color:#283E4B"/>
					<stop  offset="0.3686" style="stop-color:#739EA2"/>
					<stop  offset="0.502" style="stop-color:#80C4C2"/>
					<stop  offset="0.5961" style="stop-color:#84ABAE"/>
					<stop  offset="1" style="stop-color:#494B58"/>
				</linearGradient>
				<path fill-rule="evenodd" clip-rule="evenodd" fill="url(#SVGID_2_)" d="M219.9,576.1l-5-14.1h29.6l-4.2,13.8
					C233.5,576.9,226.7,577,219.9,576.1z"/>
				<linearGradient id="SVGID_3_" gradientUnits="userSpaceOnUse" x1="76.9624" y1="569.7695" x2="105.3374" y2="569.7695">
					<stop  offset="0" style="stop-color:#283E4B"/>
					<stop  offset="0.3686" style="stop-color:#739EA2"/>
					<stop  offset="0.502" style="stop-color:#80C4C2"/>
					<stop  offset="0.5961" style="stop-color:#84ABAE"/>
					<stop  offset="1" style="stop-color:#494B58"/>
				</linearGradient>
				<path fill-rule="evenodd" clip-rule="evenodd" fill="url(#SVGID_3_)" d="M101.4,576.3c-6.8,1.1-13.7,1.1-20.5,0.2L76,562.3h29.6
					L101.4,576.3z"/>
			</g>
		</g>
		<g>
			<g>
				<linearGradient id="SVGID_4_" gradientUnits="userSpaceOnUse" x1="86.8833" y1="529.9492" x2="94.2263" y2="525.6872">
					<stop  offset="0" style="stop-color:#717C90"/>
					<stop  offset="0.4235" style="stop-color:#D2EAEA"/>
					<stop  offset="0.5647" style="stop-color:#DEF0F0"/>
					<stop  offset="0.8" style="stop-color:#D1E9E8"/>
					<stop  offset="1" style="stop-color:#ABD7D6"/>
				</linearGradient>
				<path fill-rule="evenodd" clip-rule="evenodd" fill="url(#SVGID_4_)" d="M60.3,559.3c-0.6,1.2-1.2,3.2-1.8,6
					c-0.3,0.1-1.5-2.3-3.6-7.3c-1.3-3-2.2-5.3-2.7-7c-0.4-1.1-0.6-1.8-0.6-2.3v-82.2c0.3-2.5,2.3-4.1,6-4.8
					c11.1-0.1,16.5,0,16.4,0.2h136.2l39.9,10l2.1,1l0.7,0.1c1.8,0.6,2.9,1.7,3.5,3.3c0.2,0.6,0.3,1.4,0.3,2.3c0,0.1,0,0.2,0,0.3
					v38.5h-3v-38.5c-0.1-1.5-0.9-2.5-2.3-2.9c-0.1,0-0.3,0-0.6,0H63c-1.6,0.3-2.5,1.2-2.7,2.9c0,0.3,0,0.5,0,0.8V559.3z"/>
				<path fill-rule="evenodd" clip-rule="evenodd" fill="#DEF0F0" d="M60.3,559.3v6h-1.8C59.1,562.4,59.7,560.4,60.3,559.3z
					 M256.7,534v15.3c0,6.4-0.1,11.8-0.2,16h-2.8V534H256.7z"/>
			</g>
		</g>
		<g>
			<linearGradient id="SVGID_5_" gradientUnits="userSpaceOnUse" x1="74.8374" y1="521.0254" x2="253.8624" y2="521.0254">
				<stop  offset="0" style="stop-color:#18243A"/>
				<stop  offset="1" style="stop-color:#151B2B"/>
			</linearGradient>
			<path fill-rule="evenodd" clip-rule="evenodd" fill="url(#SVGID_5_)" d="M251.5,476.8c1.4,0.3,2.2,1.3,2.3,2.8v85.8H60.5v-85
				c0-0.3,0-0.5,0.1-0.8c0.2-1.6,1.1-2.5,2.6-2.8c0.1,0,0.1,0,0.3,0h187.5C251.2,476.8,251.4,476.8,251.5,476.8z"/>
		</g>
		<g>
			<g>
				<linearGradient id="SVGID_6_" gradientUnits="userSpaceOnUse" x1="157.1001" y1="477.6377" x2="157.1001" y2="486.0627">
					<stop  offset="0" style="stop-color:#000000"/>
					<stop  offset="1" style="stop-color:#000000;stop-opacity:0"/>
				</linearGradient>
				<path fill-rule="evenodd" clip-rule="evenodd" fill="url(#SVGID_6_)" d="M71.5,486.8l-11-9.7c0.4-0.5,1-0.7,1.8-0.8h188.6
					c0.3,0,0.5,0,0.6,0c1.4,0.3,2.2,1.3,2.3,2.8v7.3l-182.3,0.3V486.8z"/>
				<linearGradient id="SVGID_7_" gradientUnits="userSpaceOnUse" x1="156.5073" y1="568.7871" x2="156.5073" y2="558.6121">
					<stop  offset="0.4196" style="stop-color:#000000"/>
					<stop  offset="1" style="stop-color:#000000;stop-opacity:0"/>
				</linearGradient>
				<path fill-rule="evenodd" clip-rule="evenodd" fill="url(#SVGID_7_)" d="M59.5,564.9l12.6-7.6h181.2c0.7,5.5-0.8,8.1-4.6,8H59.5
					V564.9z"/>
				<linearGradient id="SVGID_8_" gradientUnits="userSpaceOnUse" x1="60.25" y1="521.0254" x2="70.55" y2="521.0254">
					<stop  offset="0" style="stop-color:#000000"/>
					<stop  offset="1" style="stop-color:#000000;stop-opacity:0"/>
				</linearGradient>
				<path fill-rule="evenodd" clip-rule="evenodd" fill="url(#SVGID_8_)" d="M72.1,557.3l-12.6,7.6v-85c0-0.3,0-0.6,0.1-0.8
					c0.1-0.8,0.3-1.5,0.8-2l11,9.7v70.5H72.1z"/>
			</g>
		</g>
		<g>
			<path fill-rule="evenodd" clip-rule="evenodd" fill="#DEF0F0" d="M250.5,473.8c4.3,0,6.5,2.2,6.5,6.6V562c0,4.3-2.2,6.5-6.5,6.5
				h-186c-4.4,0-6.6-2.2-6.6-6.5v-81.7c0-4.4,2.2-6.6,6.6-6.6H250.5z M253.6,480.3c0-2.1-1-3.2-3.1-3.2h-186c-2.2,0-3.3,1.1-3.3,3.2
				V562c0,2.1,1.1,3.1,3.3,3.1h186c2.1,0,3.1-1,3.1-3.1V480.3z"/>
		</g>
		<path fill-rule="evenodd" clip-rule="evenodd" fill="#0C0F18" d="M94.7,507.4c0-3.9,2-5.9,5.9-5.9H224c3.9,0,5.9,2,5.9,5.9v36.7
			c0,3.9-2,5.9-5.9,5.9H100.6c-3.9,0-5.9-2-5.9-5.9V507.4z"/>
		<g>
			<path fill-rule="evenodd" clip-rule="evenodd" fill="#260F15" d="M99.5,501.9h122.2c3.2,0,4.8,1.6,4.8,4.8v34.7
				c0,3.1-1.6,4.6-4.8,4.6H99.5c-3.1,0-4.6-1.5-4.6-4.6v-34.7C94.9,503.4,96.4,501.9,99.5,501.9z"/>
			<path fill-rule="evenodd" clip-rule="evenodd" fill="#77ABA9" d="M99.5,501.9c-3.1,0-4.6,1.6-4.6,4.8v34.7c0,3.1,1.5,4.6,4.6,4.6
				h122.2c3.2,0,4.8-1.5,4.8-4.6v-34.7c0-3.2-1.6-4.8-4.8-4.8H99.5z M92.3,506.6c0-4.8,2.4-7.3,7.3-7.3h122.2c4.8,0,7.3,2.4,7.3,7.3
				v34.7c0,4.8-2.4,7.1-7.3,7.1H99.5c-4.8,0-7.3-2.4-7.3-7.1V506.6z"/>
		</g>
		<g>
			<g>
				<path fill-rule="evenodd" clip-rule="evenodd" fill="#FFFFFF" fill-opacity="0.4549" d="M189.7,488.8h-1.6v4.6H187v-4.6h-1.6
					v-0.9h4.3V488.8z M192.5,490.9v-3h1.2v3c0,0.4,0,0.8,0,0.9c0,0.2,0.1,0.3,0.4,0.5c0.2,0.2,0.4,0.3,0.7,0.3
					c0.3,0,0.6-0.1,0.8-0.3c0.2-0.2,0.3-0.3,0.3-0.4c0-0.3,0-0.6,0-1v-3.1h1.1v2.8c0,0.7,0,1.2,0,1.5c-0.1,0.3-0.2,0.5-0.4,0.7
					c-0.1,0.2-0.3,0.4-0.7,0.5c-0.3,0.1-0.6,0.1-0.9,0.1c-0.5,0-0.9,0-1.2-0.1c-0.4-0.2-0.6-0.4-0.8-0.5c-0.1-0.2-0.2-0.4-0.2-0.7
					C192.6,492,192.5,491.5,192.5,490.9z M183.5,487.9h1.1v2.8c0,0.7-0.1,1.2-0.1,1.5c0,0.3-0.1,0.5-0.3,0.7
					c-0.2,0.2-0.4,0.4-0.6,0.5c-0.4,0.1-0.8,0.1-1.2,0.1c-0.6,0-0.9,0-1.1-0.1c-0.4-0.2-0.6-0.4-0.6-0.5c-0.2-0.2-0.4-0.4-0.5-0.7
					c-0.1-0.3-0.1-0.7-0.1-1.3v-3h1.2v3c0,0.4,0,0.8,0,0.9c0.1,0.2,0.2,0.3,0.4,0.5c0.2,0.2,0.4,0.3,0.7,0.3c0.3,0,0.5-0.1,0.6-0.3
					c0.2-0.2,0.3-0.3,0.4-0.4c0-0.3,0-0.6,0-1V487.9z M178.6,491c-0.2,0.2-0.4,0.3-0.6,0.3c-0.2,0.1-0.6,0.2-1.1,0.2h-0.6v2h-1.1
					v-5.5h1.8c0.7,0,1.1,0,1.2,0c0.4,0.2,0.6,0.4,0.8,0.7c0.3,0.3,0.5,0.6,0.5,1.1c0,0.3-0.1,0.5-0.1,0.8
					C179,490.7,178.8,490.8,178.6,491z M176.3,488.8v1.7h0.5c0.5,0,0.8,0,1-0.2c0.2-0.1,0.3-0.2,0.3-0.3c0.1-0.1,0.1-0.2,0.1-0.4
					c0-0.3,0-0.5-0.1-0.5c-0.1-0.2-0.2-0.3-0.4-0.3c-0.2-0.1-0.5-0.2-1-0.2H176.3z M174.4,488.8h-1.6v4.6h-1.1v-4.6H170v-0.9h4.3
					V488.8z M210,488.8h-1.7v4.6h-1v-4.6h-1.8v-0.9h4.5V488.8z M205,487.9v5.5h-1.2v-5.5H205z M202.6,487.9v5.5h-1.1l-2.3-3.5v3.5
					h-1.1v-5.5h1.1l2.3,3.6v-3.6H202.6z M152.3,487.9l2.3,3.6v-3.6h1v5.5h-1.1l-2.3-3.5v3.5h-1v-5.5H152.3z M150.2,490.8
					c0,0.9-0.2,1.6-0.7,2c-0.5,0.5-1.2,0.8-1.9,0.8c-0.8,0-1.5-0.3-2-0.8c-0.5-0.5-0.7-1.1-0.7-2c0-0.5,0.1-1,0.3-1.5
					c0.1-0.3,0.3-0.5,0.5-0.7c0.2-0.3,0.4-0.4,0.7-0.5c0.3-0.1,0.6-0.1,1-0.1c0.8,0,1.5,0.2,2,0.7C150,489,150.2,489.8,150.2,490.8z
					 M148.8,489.3c-0.4-0.3-0.7-0.5-1.1-0.5c-0.5,0-0.9,0.2-1.1,0.5c-0.3,0.4-0.5,0.9-0.5,1.5c0,0.5,0.2,1,0.5,1.3
					c0.3,0.4,0.7,0.6,1.1,0.6c0.4,0,0.7-0.2,1.1-0.6c0.3-0.4,0.4-0.8,0.4-1.3C149.1,490.1,149,489.6,148.8,489.3z M144.1,487.9v5.5
					H143v-5.5H144.1z M142.3,488.8h-1.6v4.6h-1.2v-4.6H138v-0.9h4.3V488.8z M137.3,489.4l-1,0.4c-0.1-0.4-0.2-0.6-0.3-0.8
					c-0.3-0.2-0.5-0.3-0.8-0.3c-0.4,0-0.8,0.2-1.1,0.5c-0.3,0.3-0.4,0.8-0.4,1.5c0,0.6,0.1,1.1,0.4,1.3c0.3,0.4,0.6,0.6,1.1,0.6
					c0.3,0,0.5-0.1,0.7-0.4c0.2-0.1,0.3-0.4,0.4-0.8l1,0.4c-0.1,0.6-0.3,1-0.8,1.2c-0.4,0.4-0.8,0.5-1.4,0.5c-0.8,0-1.4-0.3-1.9-0.8
					c-0.5-0.5-0.7-1.1-0.7-2c0-1,0.2-1.7,0.7-2.2c0.4-0.5,1-0.7,1.9-0.7c0.6,0,1.2,0.2,1.6,0.5C137,488.7,137.2,489,137.3,489.4z
					 M169.2,490.8c0,0.7,0,1.2-0.1,1.5c-0.1,0.3-0.2,0.5-0.4,0.7c-0.1,0.2-0.3,0.4-0.7,0.5c-0.2,0.1-0.5,0.1-1,0.1
					c-0.5,0-0.9,0-1.2-0.1c-0.3-0.2-0.5-0.4-0.7-0.5c-0.2-0.2-0.3-0.4-0.3-0.7c-0.1-0.3-0.1-0.7-0.1-1.3v-3h1.1v3c0,0.4,0,0.8,0,0.9
					c0.1,0.2,0.2,0.3,0.4,0.5c0.2,0.2,0.4,0.3,0.8,0.3c0.3,0,0.5-0.1,0.7-0.3c0.2-0.2,0.3-0.3,0.3-0.4c0-0.3,0-0.6,0-1v-3.1h1.2
					V490.8z M163.9,490.8c0,0.9-0.2,1.6-0.7,2c-0.4,0.5-1.1,0.8-1.9,0.8c-0.8,0-1.4-0.3-1.9-0.8c-0.6-0.5-0.9-1.1-0.9-2v-0.2
					c0-0.4,0.1-0.9,0.2-1.3c0.2-0.3,0.4-0.5,0.7-0.7c0.2-0.3,0.4-0.4,0.6-0.5c0.4-0.1,0.8-0.1,1.2-0.1c0.8,0,1.5,0.2,1.9,0.7
					C163.6,489,163.9,489.8,163.9,490.8z M161.3,488.8c-0.4,0-0.8,0.2-1,0.5c-0.3,0.4-0.4,0.9-0.4,1.5c0,0.5,0.1,1,0.4,1.3
					c0.3,0.4,0.6,0.6,1,0.6c0.5,0,0.8-0.2,1.1-0.6c0.3-0.4,0.4-0.8,0.4-1.3c0-0.6-0.1-1.1-0.4-1.5
					C162.1,488.9,161.7,488.8,161.3,488.8z M112.2,487.9h2c0.4,0,0.7,0,0.9,0.1c0.4,0.1,0.6,0.3,0.8,0.5c0.3,0.3,0.5,0.5,0.7,0.8
					c0,0.5,0,0.9,0,1.3c0,0.5,0,0.9,0,1.2c-0.2,0.4-0.4,0.7-0.7,1c-0.2,0.2-0.4,0.4-0.8,0.5c-0.3,0-0.6,0-0.9,0h-2V487.9z
					 M128.8,492.5h3v1h-4.2v-5.5h4.1v0.9h-2.8v1.3h2.7v0.9h-2.7V492.5z M125.1,488.8v4.6H124v-4.6h-1.6v-0.9h4.3v0.9H125.1z
					 M121.8,488.8h-3v1.3h2.9v0.9h-2.9v1.5h3.1v1h-4.2v-5.5h4V488.8z M113.1,488.8v3.7h1c0.3,0,0.5,0,0.6,0c0.2-0.1,0.3-0.2,0.4-0.3
					c0.1-0.1,0.2-0.3,0.3-0.5c0.1-0.2,0.1-0.5,0.1-1c0-0.4,0-0.8-0.1-1c-0.1-0.3-0.2-0.5-0.3-0.5c-0.1-0.2-0.3-0.3-0.5-0.3
					c-0.1-0.1-0.3-0.2-0.8-0.2H113.1z"/>
				<path fill-rule="evenodd" clip-rule="evenodd" fill="#FFFFFF" fill-opacity="0.1882" d="M136.6,555.5c-0.4,0.4-0.6,0.9-0.6,1.5
					c0,0.7,0.2,1.2,0.6,1.5c0.2,0.3,0.4,0.4,0.8,0.4s0.6-0.1,0.8-0.3c0.3-0.2,0.4-0.4,0.5-0.8l1,0.3c-0.2,0.6-0.4,1.1-0.8,1.3
					c-0.4,0.4-0.9,0.6-1.5,0.6s-1.2-0.3-1.8-0.8c-0.4-0.5-0.6-1.1-0.6-2c0-0.9,0.2-1.6,0.6-2.1c0.5-0.4,1.2-0.7,1.9-0.7
					c0.7,0,1.2,0.2,1.6,0.5c0.3,0.2,0.5,0.5,0.6,1l-1,0.3c-0.1-0.3-0.3-0.5-0.5-0.7c-0.2-0.2-0.4-0.3-0.8-0.3
					S136.8,555.2,136.6,555.5z M142.6,554.3h1.1v3c0,0.5,0,0.8,0,1c0.1,0.3,0.2,0.4,0.4,0.5c0.2,0.1,0.4,0.1,0.8,0.1
					c0.3,0,0.5,0,0.7-0.1c0.2-0.1,0.3-0.3,0.3-0.5c0-0.2,0-0.5,0-1v-3h1.2v2.8c0,0.6,0,1.1-0.1,1.5c-0.1,0.3-0.3,0.5-0.5,0.7
					c-0.1,0.2-0.2,0.3-0.5,0.4c-0.3,0.2-0.6,0.3-1.1,0.3c-0.5,0-0.9-0.1-1.2-0.3c-0.3-0.2-0.5-0.3-0.7-0.4c-0.1-0.3-0.1-0.5-0.3-0.7
					c-0.1-0.4-0.1-0.9-0.1-1.5V554.3z M152.5,554.3c0.6,0,1,0,1.2,0.2c0.4,0.1,0.6,0.2,0.8,0.5c0.1,0.2,0.1,0.5,0.1,0.8
					c0,0.4-0.1,0.8-0.3,1c-0.3,0.2-0.7,0.3-1.2,0.4c0.3,0.2,0.5,0.4,0.6,0.5s0.3,0.5,0.6,1l0.7,1h-1.5l-0.7-1.2
					c-0.4-0.4-0.6-0.7-0.7-0.8c0-0.1-0.1-0.2-0.3-0.3c-0.1-0.1-0.3-0.2-0.6-0.2h-0.3v2.4h-1.1v-5.5H152.5z M151.3,556.5h1
					c0.5,0,0.8,0,0.8-0.1c0.2,0,0.3-0.1,0.4-0.2c0.1-0.1,0.1-0.2,0.1-0.5c0-0.1-0.1-0.2-0.1-0.3c-0.2-0.2-0.3-0.3-0.4-0.3
					c-0.1,0-0.4,0-0.8,0h-1V556.5z M161.4,554.4c0.2,0.1,0.4,0.2,0.6,0.5c0.2,0.2,0.3,0.5,0.3,0.8c0,0.4-0.1,0.8-0.4,1
					c-0.2,0.2-0.5,0.3-1,0.4c0.3,0.2,0.5,0.4,0.6,0.5c0.1,0.2,0.3,0.5,0.6,1l0.6,1h-1.2l-0.9-1.2c-0.2-0.4-0.4-0.7-0.6-0.8
					c-0.1-0.1-0.2-0.2-0.4-0.3c0-0.1-0.1-0.2-0.4-0.2h-0.3v2.4h-1.1v-5.5h2.3C160.6,554.3,161,554.3,161.4,554.4z M160.9,556.3
					c0.1-0.1,0.1-0.2,0.1-0.5c0-0.1,0-0.2-0.1-0.3c-0.1-0.2-0.2-0.3-0.4-0.3c-0.1,0-0.4,0-0.8,0h-0.8v1.3h0.8c0.5,0,0.9,0,1.1-0.1
					C160.8,556.4,160.9,556.3,160.9,556.3z M166.4,556.4h2.7v0.9h-2.7v1.5h3.1v0.9h-4.4v-5.5h4.2v1h-3V556.4z M172.3,554.3h1.1
					l2.3,3.7v-3.7h0.9v5.5h-1.1l-2.3-3.6v3.6h-1V554.3z M179.5,555.2v-1h4.3v1h-1.6v4.5H181v-4.5H179.5z"/>
			</g>
		</g>
		<g>
			<g>
				<path fill-rule="evenodd" clip-rule="evenodd" fill-opacity="0.498" d="M245.3,488.4c-0.8,0.8-1.7,1.2-2.9,1.2
					c-1.1,0-2.1-0.4-2.9-1.2c-0.8-0.8-1.2-1.7-1.2-2.9c0-1.1,0.4-2.1,1.2-2.9c0.8-0.8,1.7-1.2,2.9-1.2c1.1,0,2.1,0.4,2.9,1.2
					c0.8,0.8,1.2,1.7,1.2,2.9C246.5,486.7,246.1,487.6,245.3,488.4z"/>
				
					<linearGradient id="SVGID_9_" gradientUnits="userSpaceOnUse" x1="201.5488" y1="22.3477" x2="225.75" y2="22.3477" gradientTransform="matrix(0.3336 0 0 0.3336 170.55 477.9005)">
					<stop  offset="0" style="stop-color:#E8E8E0"/>
					<stop  offset="1" style="stop-color:#49484A"/>
				</linearGradient>
				<path fill-rule="evenodd" clip-rule="evenodd" fill="url(#SVGID_9_)" d="M244.7,488.2c-0.8,0.8-1.7,1.2-2.9,1.2
					c-1.1,0-2.1-0.4-2.9-1.2c-0.8-0.8-1.2-1.7-1.2-2.9c0-1.1,0.4-2.1,1.2-2.9c0.8-0.8,1.7-1.2,2.9-1.2c1.1,0,2.1,0.4,2.9,1.2
					c0.8,0.8,1.2,1.7,1.2,2.9C245.9,486.5,245.5,487.4,244.7,488.2z"/>
				
					<linearGradient id="SVGID_10_" gradientUnits="userSpaceOnUse" x1="201.5483" y1="22.3472" x2="225.749" y2="22.3472" gradientTransform="matrix(0.2969 0 0 0.2969 178.4503 478.6505)">
					<stop  offset="0" style="stop-color:#77777A"/>
					<stop  offset="1" style="stop-color:#595F6F"/>
				</linearGradient>
				<path fill-rule="evenodd" clip-rule="evenodd" fill="url(#SVGID_10_)" d="M244.4,487.8c-0.7,0.7-1.5,1.1-2.5,1.1
					s-1.8-0.4-2.5-1.1c-0.7-0.7-1.1-1.5-1.1-2.5c0-1,0.4-1.8,1.1-2.5c0.7-0.7,1.5-1.1,2.5-1.1s1.8,0.4,2.5,1.1
					c0.7,0.7,1.1,1.5,1.1,2.5C245.5,486.3,245.1,487.1,244.4,487.8z"/>
				
					<rect x="238.1" y="484.5" transform="matrix(0.3614 -0.9324 0.9324 0.3614 -297.9399 534.8571)" fill-rule="evenodd" clip-rule="evenodd" fill="#363840" width="6.7" height="1"/>
				
					<rect x="238.7" y="484.8" transform="matrix(0.3614 -0.9324 0.9324 0.3614 -297.8362 535.608)" fill-rule="evenodd" clip-rule="evenodd" fill="#AAB2B4" width="6.7" height="1"/>
				
					<rect x="238.2" y="484.5" transform="matrix(0.3614 -0.9324 0.9324 0.3614 -297.9224 534.9822)" fill-rule="evenodd" clip-rule="evenodd" fill="#6A7579" width="6.7" height="1"/>
				
					<rect x="238.4" y="484.7" transform="matrix(0.3614 -0.9324 0.9324 0.3614 -298.0134 535.2498)" fill-rule="evenodd" clip-rule="evenodd" fill="#363840" width="6.7" height="1"/>
			</g>
		</g>
		<g>
			<g>
				<g>
					<linearGradient id="SVGID_11_" gradientUnits="userSpaceOnUse" x1="234.5234" y1="520.0166" x2="245.938" y2="539.8333">
						<stop  offset="0" style="stop-color:#4D4D4D"/>
						<stop  offset="0.3059" style="stop-color:#A6A6A6"/>
						<stop  offset="1" style="stop-color:#000000"/>
					</linearGradient>
					<path fill-rule="evenodd" clip-rule="evenodd" fill="url(#SVGID_11_)" d="M234.4,524.2c1.6-1.6,3.5-2.5,5.8-2.5
						c2.4,0,4.4,0.8,5.9,2.5c1.7,1.5,2.6,3.4,2.6,5.8c0,2.2-0.9,4.1-2.6,5.7c-1.6,1.6-3.6,2.4-5.9,2.4c-2.2,0-4.1-0.8-5.8-2.4
						c-1.6-1.5-2.5-3.4-2.5-5.7C231.9,527.6,232.7,525.7,234.4,524.2z M246.6,530c0-1.8-0.6-3.3-1.9-4.5c-1.2-1.3-2.7-1.9-4.6-1.9
						c-1.7,0-3.2,0.6-4.5,1.9c-1.2,1.2-1.9,2.7-1.9,4.5c0,1.7,0.6,3.1,1.9,4.3c1.3,1.3,2.8,1.9,4.5,1.9c1.9,0,3.4-0.6,4.6-1.9
						C246,533.1,246.6,531.7,246.6,530z"/>
					<linearGradient id="SVGID_12_" gradientUnits="userSpaceOnUse" x1="232.75" y1="529.9258" x2="247.45" y2="529.9258">
						<stop  offset="0" style="stop-color:#081828"/>
						<stop  offset="0.5569" style="stop-color:#000E11"/>
						<stop  offset="1" style="stop-color:#41587A"/>
					</linearGradient>
					<path fill-rule="evenodd" clip-rule="evenodd" fill="url(#SVGID_12_)" d="M246.6,530c0,1.7-0.6,3.1-1.9,4.3
						c-1.2,1.3-2.7,1.9-4.6,1.9c-1.7,0-3.2-0.6-4.5-1.9c-1.2-1.2-1.9-2.6-1.9-4.3c0-1.8,0.6-3.3,1.9-4.5c1.3-1.3,2.8-1.9,4.5-1.9
						c1.9,0,3.4,0.6,4.6,1.9C246,526.7,246.6,528.2,246.6,530z"/>
				</g>
			</g>
			<g>
				<g>
					<g>
						<linearGradient id="SVGID_13_" gradientUnits="userSpaceOnUse" x1="238.4473" y1="534.4072" x2="243.9024" y2="526.936">
							<stop  offset="0" style="stop-color:#081828"/>
							<stop  offset="0.5569" style="stop-color:#000E11"/>
							<stop  offset="1" style="stop-color:#41587A"/>
						</linearGradient>
						<path fill-rule="evenodd" clip-rule="evenodd" fill="url(#SVGID_13_)" d="M243.2,537.5l-3.9-1.9h-0.1c-0.1,0-0.2,0-0.3,0
							c-0.6-0.4-1.2-0.8-1.6-1.4c-1.3-1-1.9-2.3-1.9-4c0-1.5,0.6-2.9,1.9-4c1.2-1.2,2.6-1.8,4.2-1.8c1.8,0,3.3,0.6,4.3,1.8
							c0.3,0.2,0.5,0.4,0.7,0.8l2.4,3.1c-0.4-0.4-0.8-0.7-1.4-0.8c-0.6-0.4-1.3-0.5-2-0.5c-1.2,0-2.4,0.5-3.5,1.3
							c-0.9,0.9-1.4,2-1.4,3.3c0,1.1,0.3,2,1,2.9c0.1,0.2,0.2,0.3,0.4,0.3C242.5,536.9,242.9,537.3,243.2,537.5z"/>
						<linearGradient id="SVGID_14_" gradientUnits="userSpaceOnUse" x1="246.6924" y1="545.6621" x2="245.3098" y2="531.9827">
							<stop  offset="0" style="stop-color:#081828"/>
							<stop  offset="1" style="stop-color:#41587A"/>
						</linearGradient>
						<path fill-rule="evenodd" clip-rule="evenodd" fill="url(#SVGID_14_)" d="M248.9,530.1c0.1,0,0.1,0.1,0.1,0.2
							c0.1,0,0.1,0,0.1,0.2l0.1,0.1c0.1,0.1,0.1,0.2,0.1,0.3c0.6,0.8,0.9,1.7,0.9,2.5c0,1.3-0.5,2.3-1.4,3.1c-0.9,1-2,1.5-3.4,1.5
							c-0.5,0-1.1,0-1.6-0.2c-0.2-0.1-0.4-0.2-0.7-0.3c-0.3-0.3-0.7-0.7-1.2-1.1c-0.2,0-0.3-0.1-0.4-0.3c-0.6-0.8-1-1.8-1-2.9
							c0-1.3,0.5-2.3,1.4-3.3c1.1-0.9,2.3-1.3,3.5-1.3c0.7,0,1.4,0.2,2,0.5C248.1,529.4,248.5,529.7,248.9,530.1z M247.5,532.4
							c0-0.1,0-0.2-0.1-0.2c0-0.1,0-0.1-0.1-0.1c-0.1-0.2-0.2-0.4-0.5-0.6c-0.3-0.1-0.6-0.1-1-0.1c-0.5,0-1,0.2-1.3,0.7
							c-0.5,0.4-0.8,0.8-0.8,1.3c0,0.4,0.2,0.8,0.5,1.2c0.1,0.1,0.2,0.2,0.3,0.3c0.1,0.1,0.2,0.2,0.4,0.3l0.3,0.1
							c0.3,0.1,0.5,0.2,0.7,0.2c0.6,0,1.1-0.2,1.5-0.5c0.5-0.4,0.7-0.9,0.7-1.5C248,533,247.8,532.7,247.5,532.4z"/>
						<path fill-rule="evenodd" clip-rule="evenodd" d="M247.5,532.4c0.3,0.3,0.4,0.6,0.4,1.1c0,0.5-0.2,1-0.7,1.5
							c-0.3,0.4-0.8,0.5-1.5,0.5c-0.2,0-0.4,0-0.7-0.2l-0.3-0.1c-0.2-0.1-0.3-0.2-0.4-0.3c-0.1-0.1-0.2-0.2-0.3-0.3
							c-0.3-0.4-0.5-0.8-0.5-1.2c0-0.5,0.3-1,0.8-1.3c0.4-0.5,0.8-0.7,1.3-0.7c0.3,0,0.7,0,1,0.1c0.3,0.2,0.4,0.4,0.5,0.6
							c0.1,0,0.1,0,0.1,0.1C247.5,532.3,247.5,532.3,247.5,532.4z"/>
					</g>
				</g>
			</g>
			<path fill-rule="evenodd" clip-rule="evenodd" d="M136.9,568.9h3c0,0.1,0,0.2,0,0.2c0.4,4.3,3,7.5,8,9.7c6.2,2.7,16.6,4.4,31.3,5
				c8.8,0.3,25.5,0.2,50.1-0.2c26.5-0.5,47.7-0.6,63.6-0.3c13.2,0.3,25-0.1,35.4-1.2c9.3-1,16.1-2.4,20.4-4.2
				c3.1-1.3,5.3-3.1,6.6-5.3c1.1-2.2,1.2-4.4,0.2-6.6c-2.8-6-10.8-9.8-24-11.3c-36.1-4.4-64.6-10.9-85.4-19.5
				c-0.4-0.2-0.6-0.4-0.8-0.8c-0.2-0.4-0.2-0.8,0-1.1c0.2-0.4,0.4-0.6,0.8-0.8c0.4-0.2,0.8-0.2,1.1,0c20.6,8.5,48.7,15,84.6,19.4
				c14.6,1.7,23.4,6.1,26.4,13c1.4,3,1.2,6-0.3,9.1c-1.6,2.9-4.3,5.1-8.2,6.7c-4.5,1.8-11.5,3.3-21.1,4.3
				c-10.5,1.1-22.4,1.6-35.8,1.4c-15.8-0.4-36.9-0.3-63.4,0.2c-24.7,0.5-41.5,0.6-50.2,0.2c-15.3-0.5-26.1-2.2-32.5-5.1
				c-6.2-2.8-9.5-7-9.8-12.5C136.9,569,136.9,568.9,136.9,568.9z"/>
			<g>
				
					<radialGradient id="SVGID_15_" cx="58.4502" cy="537.7998" r="10.4125" gradientTransform="matrix(2.2674 0 0 1.3202 26.2985 -135.2236)" gradientUnits="userSpaceOnUse">
					<stop  offset="0" style="stop-color:#FFFFFF"/>
					<stop  offset="1" style="stop-color:#FFFFFF;stop-opacity:0"/>
				</radialGradient>
				<path fill-rule="evenodd" clip-rule="evenodd" fill="url(#SVGID_15_)" d="M137.7,568.9h1c0.3,4.7,3.2,8.3,8.7,10.8
					c6.2,2.8,16.7,4.5,31.6,5h0.1c0.2,0,0.3,0,0.6,0.1c0.1,0,0.2,0,0.2,0.1c0.2,0.2,0.2,0.3,0.1,0.5c0,0.1-0.1,0.2-0.2,0.2
					c-0.1,0.2-0.2,0.2-0.2,0.1c-0.2,0-0.4,0-0.6,0c-15-0.5-25.7-2.2-32.1-5.1C141.1,577.9,138,574,137.7,568.9z"/>
				
					<radialGradient id="SVGID_16_" cx="112.2495" cy="523.4502" r="15.363" gradientTransform="matrix(2.2674 0 0 0.5941 26.2985 231.2562)" gradientUnits="userSpaceOnUse">
					<stop  offset="0" style="stop-color:#FFFFFF"/>
					<stop  offset="1" style="stop-color:#FFFFFF;stop-opacity:0"/>
				</radialGradient>
				<path fill-rule="evenodd" clip-rule="evenodd" fill="url(#SVGID_16_)" d="M315.5,551.3c-0.2,0.1-0.3,0.1-0.3,0.1
					c-28.4-4.3-51.4-10.1-68.9-17.3c-0.1-0.1-0.2-0.2-0.2-0.2c-0.1-0.2-0.1-0.3,0-0.5c0.1-0.1,0.2-0.2,0.2-0.2
					c0.2-0.1,0.3-0.1,0.5,0c17.4,7.3,40.2,13,68.6,17.2c0.2,0,0.3,0.1,0.3,0.2c0.1,0.1,0.1,0.2,0,0.3
					C315.6,551.1,315.6,551.2,315.5,551.3z"/>
				
					<radialGradient id="SVGID_17_" cx="143.7002" cy="535.0498" r="9.175" gradientTransform="matrix(2.2674 0 0 2.1593 26.2985 -586.8021)" gradientUnits="userSpaceOnUse">
					<stop  offset="0" style="stop-color:#FFFFFF"/>
					<stop  offset="1" style="stop-color:#FFFFFF;stop-opacity:0"/>
				</radialGradient>
				<path fill-rule="evenodd" clip-rule="evenodd" fill="url(#SVGID_17_)" d="M325.5,552.8c-0.1,0-0.2,0-0.3-0.1
					c-0.1-0.2-0.1-0.3,0-0.3c0-0.2,0-0.3,0.1-0.3c0.2-0.2,0.3-0.2,0.3-0.1c2,0.2,4,0.5,6,0.7c14.1,1.7,22.6,5.9,25.5,12.5
					c1.3,2.8,1.2,5.6-0.3,8.3c-1.4,2.6-4,4.7-7.6,6.2c-2.9,1.2-7.1,2.3-12.4,3.2c-2.6,0.5-5.4,0.8-8.5,1.1c-1.3,0.2-2.6,0.3-3.9,0.3
					c-0.1,0-0.2,0-0.2,0c-0.2-0.2-0.2-0.3-0.2-0.3c0-0.2,0-0.3,0.1-0.3c0.1-0.2,0.2-0.2,0.3-0.2c1.3-0.2,2.5-0.3,3.7-0.3
					c3.1-0.4,5.9-0.8,8.4-1.1c5.2-0.9,9.3-2,12.2-3.2c3.3-1.4,5.7-3.3,7.1-5.8c1.3-2.4,1.4-4.9,0.2-7.5
					c-2.9-6.3-11.1-10.2-24.7-11.8C329.5,553.3,327.4,553,325.5,552.8z"/>
				
					<radialGradient id="SVGID_18_" cx="101.6499" cy="542.25" r="17.9625" gradientTransform="matrix(2.2674 0 0 0.3897 26.2985 373.5114)" gradientUnits="userSpaceOnUse">
					<stop  offset="0" style="stop-color:#FFFFFF"/>
					<stop  offset="1" style="stop-color:#FFFFFF;stop-opacity:0"/>
				</radialGradient>
				<path fill-rule="evenodd" clip-rule="evenodd" fill="url(#SVGID_18_)" d="M199.1,585.9c-0.2,0-0.3,0-0.3-0.1
					c-0.1-0.2-0.1-0.3-0.1-0.3c0-0.2,0-0.3,0.1-0.3c0.1-0.2,0.2-0.2,0.3-0.2c8.2,0,18.3-0.1,30.2-0.3c26.5-0.6,47.6-0.7,63.4-0.3
					c7.8,0.2,15.1,0.1,21.9-0.2c0.1,0,0.2,0,0.3,0.1c0.1,0.1,0.1,0.2,0.1,0.3s0,0.3-0.1,0.3s-0.2,0.1-0.3,0.1
					c-6.8,0.4-14.1,0.5-21.9,0.3c-15.8-0.4-36.9-0.3-63.4,0.2C217.4,585.6,207.3,585.8,199.1,585.9z"/>
			</g>
		</g>
		<g>
			<g>
				<path fill-rule="evenodd" clip-rule="evenodd" fill-opacity="0.498" d="M245.3,557.8c-0.8,0.8-1.7,1.2-2.9,1.2
					c-1.1,0-2.1-0.4-2.9-1.2c-0.8-0.8-1.2-1.7-1.2-2.9c0-1.1,0.4-2.1,1.2-2.9c0.8-0.8,1.7-1.2,2.9-1.2c1.1,0,2.1,0.4,2.9,1.2
					c0.8,0.8,1.2,1.7,1.2,2.9C246.5,556.1,246.1,557,245.3,557.8z"/>
				
					<linearGradient id="SVGID_19_" gradientUnits="userSpaceOnUse" x1="201.5488" y1="22.3477" x2="225.75" y2="22.3477" gradientTransform="matrix(0.3336 0 0 0.3336 170.55 547.2999)">
					<stop  offset="0" style="stop-color:#E8E8E0"/>
					<stop  offset="1" style="stop-color:#49484A"/>
				</linearGradient>
				<path fill-rule="evenodd" clip-rule="evenodd" fill="url(#SVGID_19_)" d="M244.7,557.6c-0.8,0.8-1.7,1.2-2.9,1.2
					c-1.1,0-2.1-0.4-2.9-1.2c-0.8-0.8-1.2-1.7-1.2-2.9c0-1.1,0.4-2.1,1.2-2.9c0.8-0.8,1.7-1.2,2.9-1.2c1.1,0,2.1,0.4,2.9,1.2
					c0.8,0.8,1.2,1.7,1.2,2.9C245.9,555.9,245.5,556.8,244.7,557.6z"/>
				
					<linearGradient id="SVGID_20_" gradientUnits="userSpaceOnUse" x1="201.5483" y1="22.3501" x2="225.749" y2="22.3501" gradientTransform="matrix(0.2969 0 0 0.2969 178.4503 548.0499)">
					<stop  offset="0" style="stop-color:#77777A"/>
					<stop  offset="1" style="stop-color:#595F6F"/>
				</linearGradient>
				<path fill-rule="evenodd" clip-rule="evenodd" fill="url(#SVGID_20_)" d="M244.4,557.2c-0.7,0.7-1.5,1.1-2.5,1.1
					s-1.8-0.4-2.5-1.1c-0.7-0.7-1.1-1.5-1.1-2.5c0-1,0.4-1.8,1.1-2.5c0.7-0.7,1.5-1.1,2.5-1.1s1.8,0.4,2.5,1.1
					c0.7,0.7,1.1,1.5,1.1,2.5C245.5,555.7,245.1,556.5,244.4,557.2z"/>
				
					<rect x="238.1" y="553.9" transform="matrix(0.3614 -0.9324 0.9324 0.3614 -362.6472 579.2059)" fill-rule="evenodd" clip-rule="evenodd" fill="#363840" width="6.7" height="1"/>
				
					<rect x="238.7" y="554.2" transform="matrix(0.3614 -0.9324 0.9324 0.3614 -362.5435 579.9569)" fill-rule="evenodd" clip-rule="evenodd" fill="#AAB2B4" width="6.7" height="1"/>
				
					<rect x="238.2" y="553.9" transform="matrix(0.3614 -0.9324 0.9324 0.3614 -362.6297 579.3311)" fill-rule="evenodd" clip-rule="evenodd" fill="#6A7579" width="6.7" height="1"/>
				
					<rect x="238.4" y="554.1" transform="matrix(0.3614 -0.9324 0.9324 0.3614 -362.7206 579.5987)" fill-rule="evenodd" clip-rule="evenodd" fill="#363840" width="6.7" height="1"/>
			</g>
		</g>
		<g>
			<g>
				<path fill-rule="evenodd" clip-rule="evenodd" fill-opacity="0.498" d="M81.3,488.4c-0.8,0.8-1.7,1.2-2.9,1.2
					c-1.1,0-2.1-0.4-2.9-1.2c-0.8-0.8-1.2-1.7-1.2-2.9c0-1.1,0.4-2.1,1.2-2.9c0.8-0.8,1.7-1.2,2.9-1.2c1.1,0,2.1,0.4,2.9,1.2
					c0.8,0.8,1.2,1.7,1.2,2.9C82.5,486.7,82.1,487.6,81.3,488.4z"/>
				
					<linearGradient id="SVGID_21_" gradientUnits="userSpaceOnUse" x1="201.5488" y1="22.3477" x2="225.75" y2="22.3477" gradientTransform="matrix(0.3336 0 0 0.3336 6.55 477.9005)">
					<stop  offset="0" style="stop-color:#E8E8E0"/>
					<stop  offset="1" style="stop-color:#49484A"/>
				</linearGradient>
				<path fill-rule="evenodd" clip-rule="evenodd" fill="url(#SVGID_21_)" d="M80.7,488.2c-0.8,0.8-1.7,1.2-2.9,1.2
					c-1.1,0-2.1-0.4-2.9-1.2c-0.8-0.8-1.2-1.7-1.2-2.9c0-1.1,0.4-2.1,1.2-2.9c0.8-0.8,1.7-1.2,2.9-1.2c1.1,0,2.1,0.4,2.9,1.2
					c0.8,0.8,1.2,1.7,1.2,2.9C81.9,486.5,81.5,487.4,80.7,488.2z"/>
				
					<linearGradient id="SVGID_22_" gradientUnits="userSpaceOnUse" x1="201.5493" y1="22.3472" x2="225.75" y2="22.3472" gradientTransform="matrix(0.2969 0 0 0.2969 14.4503 478.6505)">
					<stop  offset="0" style="stop-color:#77777A"/>
					<stop  offset="1" style="stop-color:#595F6F"/>
				</linearGradient>
				<path fill-rule="evenodd" clip-rule="evenodd" fill="url(#SVGID_22_)" d="M80.4,487.8c-0.7,0.7-1.5,1.1-2.5,1.1
					s-1.8-0.4-2.5-1.1c-0.7-0.7-1.1-1.5-1.1-2.5c0-1,0.4-1.8,1.1-2.5c0.7-0.7,1.5-1.1,2.5-1.1s1.8,0.4,2.5,1.1
					c0.7,0.7,1.1,1.5,1.1,2.5C81.5,486.3,81.1,487.1,80.4,487.8z"/>
				
					<rect x="74.1" y="484.5" transform="matrix(0.3614 -0.9324 0.9324 0.3614 -402.6664 381.9432)" fill-rule="evenodd" clip-rule="evenodd" fill="#363840" width="6.7" height="1"/>
				
					<rect x="74.7" y="484.8" transform="matrix(0.3614 -0.9324 0.9324 0.3614 -402.5627 382.6942)" fill-rule="evenodd" clip-rule="evenodd" fill="#AAB2B4" width="6.7" height="1"/>
				
					<rect x="74.2" y="484.5" transform="matrix(0.3614 -0.9324 0.9324 0.3614 -402.6489 382.0683)" fill-rule="evenodd" clip-rule="evenodd" fill="#6A7579" width="6.7" height="1"/>
				
					<rect x="74.4" y="484.7" transform="matrix(0.3614 -0.9324 0.9324 0.3614 -402.7399 382.3359)" fill-rule="evenodd" clip-rule="evenodd" fill="#363840" width="6.7" height="1"/>
			</g>
		</g>
		<g>
			<g>
				<path fill-rule="evenodd" clip-rule="evenodd" fill-opacity="0.498" d="M81.3,557.8c-0.8,0.8-1.7,1.2-2.9,1.2
					c-1.1,0-2.1-0.4-2.9-1.2c-0.8-0.8-1.2-1.7-1.2-2.9c0-1.1,0.4-2.1,1.2-2.9c0.8-0.8,1.7-1.2,2.9-1.2c1.1,0,2.1,0.4,2.9,1.2
					c0.8,0.8,1.2,1.7,1.2,2.9C82.5,556.1,82.1,557,81.3,557.8z"/>
				
					<linearGradient id="SVGID_23_" gradientUnits="userSpaceOnUse" x1="201.5488" y1="22.3477" x2="225.75" y2="22.3477" gradientTransform="matrix(0.3336 0 0 0.3336 6.55 547.2999)">
					<stop  offset="0" style="stop-color:#E8E8E0"/>
					<stop  offset="1" style="stop-color:#49484A"/>
				</linearGradient>
				<path fill-rule="evenodd" clip-rule="evenodd" fill="url(#SVGID_23_)" d="M80.7,557.6c-0.8,0.8-1.7,1.2-2.9,1.2
					c-1.1,0-2.1-0.4-2.9-1.2c-0.8-0.8-1.2-1.7-1.2-2.9c0-1.1,0.4-2.1,1.2-2.9c0.8-0.8,1.7-1.2,2.9-1.2c1.1,0,2.1,0.4,2.9,1.2
					c0.8,0.8,1.2,1.7,1.2,2.9C81.9,555.9,81.5,556.8,80.7,557.6z"/>
				
					<linearGradient id="SVGID_24_" gradientUnits="userSpaceOnUse" x1="201.5493" y1="22.3501" x2="225.75" y2="22.3501" gradientTransform="matrix(0.2969 0 0 0.2969 14.4503 548.0499)">
					<stop  offset="0" style="stop-color:#77777A"/>
					<stop  offset="1" style="stop-color:#595F6F"/>
				</linearGradient>
				<path fill-rule="evenodd" clip-rule="evenodd" fill="url(#SVGID_24_)" d="M80.4,557.2c-0.7,0.7-1.5,1.1-2.5,1.1
					s-1.8-0.4-2.5-1.1c-0.7-0.7-1.1-1.5-1.1-2.5c0-1,0.4-1.8,1.1-2.5c0.7-0.7,1.5-1.1,2.5-1.1s1.8,0.4,2.5,1.1
					c0.7,0.7,1.1,1.5,1.1,2.5C81.5,555.7,81.1,556.5,80.4,557.2z"/>
				
					<rect x="74.1" y="553.9" transform="matrix(0.3614 -0.9324 0.9324 0.3614 -467.3817 426.2889)" fill-rule="evenodd" clip-rule="evenodd" fill="#363840" width="6.7" height="1"/>
				
					<rect x="74.7" y="554.2" transform="matrix(0.3614 -0.9324 0.9324 0.3614 -467.278 427.0399)" fill-rule="evenodd" clip-rule="evenodd" fill="#AAB2B4" width="6.7" height="1"/>
				
					<rect x="74.2" y="553.9" transform="matrix(0.3614 -0.9324 0.9324 0.3614 -467.3643 426.4141)" fill-rule="evenodd" clip-rule="evenodd" fill="#6A7579" width="6.7" height="1"/>
				
					<rect x="74.4" y="554.1" transform="matrix(0.3614 -0.9324 0.9324 0.3614 -467.4552 426.6817)" fill-rule="evenodd" clip-rule="evenodd" fill="#363840" width="6.7" height="1"/>
			</g>
		</g>
	</g>
	<g>
		<path fill-rule="evenodd" clip-rule="evenodd" d="M314.8,516.7v3c-27.2,8.6-50.2,13.6-69,14.8c-0.4,0-0.8-0.1-1-0.3
			c-0.3-0.3-0.5-0.7-0.5-1c0-0.4,0.1-0.8,0.3-1.1c0.3-0.3,0.7-0.5,1.1-0.5C264.4,530.4,287.5,525.4,314.8,516.7z"/>
		
			<radialGradient id="SVGID_25_" cx="280" cy="525.6055" r="34.8318" gradientTransform="matrix(0.897 -0.442 0.1158 0.2351 -32.049 525.8079)" gradientUnits="userSpaceOnUse">
			<stop  offset="0" style="stop-color:#FFFFFF"/>
			<stop  offset="1" style="stop-color:#FFFFFF;stop-opacity:0"/>
		</radialGradient>
		<path fill-rule="evenodd" clip-rule="evenodd" fill="url(#SVGID_25_)" d="M315.2,518.5c-0.1,0.1-0.2,0.2-0.3,0.2
			c-27.4,8.7-50.6,13.7-69.5,14.9c-0.1,0-0.2,0-0.3,0c-0.2-0.1-0.2-0.3-0.2-0.5c0-0.1,0-0.2,0.1-0.3c0.1-0.1,0.2-0.2,0.4-0.2
			c18.8-1.1,41.8-6.1,69.1-14.8c0.1-0.1,0.3,0,0.4,0c0.1,0,0.1,0.1,0.1,0.3C315.2,518.2,315.2,518.3,315.2,518.5z"/>
	</g>
	<g>
		<g>
			<path fill-rule="evenodd" clip-rule="evenodd" fill-opacity="0.502" d="M74,518.4c1.5-1.6,3.4-2.5,5.6-2.5c2.2,0,4.1,0.8,5.5,2.5
				c1.5,1.4,2.3,3.3,2.3,5.6c0,2.2-0.8,4-2.3,5.4c-1.4,1.6-3.3,2.4-5.5,2.4c-2.2,0-4-0.8-5.6-2.4h-0.1c-1.5-1.4-2.3-3.2-2.3-5.4
				C71.6,521.7,72.4,519.8,74,518.4z"/>
		</g>
		<g>
			<g>
				<linearGradient id="SVGID_26_" gradientUnits="userSpaceOnUse" x1="74.6382" y1="507.9961" x2="80.8869" y2="531.3781">
					<stop  offset="0" style="stop-color:#A29C9C"/>
					<stop  offset="1" style="stop-color:#223148"/>
				</linearGradient>
				<path fill-rule="evenodd" clip-rule="evenodd" fill="url(#SVGID_26_)" d="M84.5,521.9c0-1.7-0.6-3.1-1.9-4.3
					c-1.2-1.1-2.6-1.6-4.2-1.6c-1.6,0-3,0.5-4.3,1.6c-1.2,1.2-1.8,2.6-1.8,4.3c0,1.6,0.6,3,1.8,4.1c1.3,1.2,2.7,1.8,4.3,1.8
					c1.6,0,3-0.6,4.2-1.8C83.8,524.9,84.5,523.5,84.5,521.9z M83.9,516.3L83.9,516.3c1.6,1.5,2.4,3.4,2.4,5.7c0,2.2-0.8,4-2.4,5.5
					c-1.4,1.6-3.3,2.4-5.5,2.4c-2.1,0-4-0.8-5.6-2.4c-1.5-1.5-2.3-3.3-2.3-5.5c0-2.3,0.8-4.1,2.3-5.6c1.6-1.5,3.5-2.3,5.6-2.3
					C80.6,514,82.5,514.8,83.9,516.3z"/>
				<radialGradient id="SVGID_27_" cx="78.3501" cy="521.5996" r="5.625" gradientUnits="userSpaceOnUse">
					<stop  offset="0" style="stop-color:#5D1018"/>
					<stop  offset="0.2706" style="stop-color:#540F15"/>
					<stop  offset="1" style="stop-color:#300809"/>
				</radialGradient>
				<path fill-rule="evenodd" clip-rule="evenodd" fill="url(#SVGID_27_)" d="M84.5,521.9c0,1.6-0.6,3-1.9,4.1
					c-1.2,1.2-2.6,1.8-4.2,1.8c-1.6,0-3-0.6-4.3-1.8c-1.2-1.2-1.8-2.5-1.8-4.1c0-1.7,0.6-3.1,1.8-4.3c1.3-1.1,2.7-1.6,4.3-1.6
					c1.6,0,3,0.5,4.2,1.6C83.8,518.8,84.5,520.2,84.5,521.9z"/>
			</g>
		</g>
		<g>
			<g>
				<linearGradient id="SVGID_28_" gradientUnits="userSpaceOnUse" x1="79.8325" y1="516.501" x2="76.3152" y2="520.812">
					<stop  offset="0" style="stop-color:#FFFFFF;stop-opacity:0.5216"/>
					<stop  offset="1" style="stop-color:#FAFAFA;stop-opacity:0"/>
				</linearGradient>
				<path fill-rule="evenodd" clip-rule="evenodd" fill="url(#SVGID_28_)" d="M80.1,520c-0.5,0.5-1.2,0.7-2,0.7
					c-0.7,0-1.4-0.2-2.1-0.7c-0.4-0.4-0.6-0.8-0.6-1.2c0-0.6,0.2-1.2,0.6-1.6c0.6-0.3,1.3-0.6,2.1-0.7c0.8-0.1,1.5,0.1,2,0.7
					c0.5,0.5,0.8,1,0.8,1.6C80.9,519.2,80.6,519.6,80.1,520z"/>
			</g>
		</g>
	</g>
	<g>
		<g>
			<linearGradient id="SVGID_29_" gradientUnits="userSpaceOnUse" x1="233.4248" y1="503.2246" x2="249.4748" y2="503.2246">
				<stop  offset="0" style="stop-color:#E6E6E6"/>
				<stop  offset="0.102" style="stop-color:#FFFFFF"/>
				<stop  offset="0.251" style="stop-color:#E6E6E6"/>
				<stop  offset="0.5333" style="stop-color:#919191"/>
				<stop  offset="0.7882" style="stop-color:#FFFFFF"/>
				<stop  offset="1" style="stop-color:#AFAFAF"/>
			</linearGradient>
			<polygon fill-rule="evenodd" clip-rule="evenodd" fill="url(#SVGID_29_)" points="246.6,509.8 237.7,510.2 234.4,502 
				241.5,496.3 248.8,501 			"/>
		</g>
		<g>
			<g>
				<linearGradient id="SVGID_30_" gradientUnits="userSpaceOnUse" x1="237.9624" y1="504.9746" x2="247.1374" y2="504.9746">
					<stop  offset="0" style="stop-color:#E6E6E6"/>
					<stop  offset="0.102" style="stop-color:#FFFFFF"/>
					<stop  offset="0.251" style="stop-color:#E6E6E6"/>
					<stop  offset="0.5333" style="stop-color:#919191"/>
					<stop  offset="0.7882" style="stop-color:#FFFFFF"/>
					<stop  offset="1" style="stop-color:#AFAFAF"/>
				</linearGradient>
				<path fill-rule="evenodd" clip-rule="evenodd" fill="url(#SVGID_30_)" d="M239.3,501.5c0.9-0.8,2-1.3,3.3-1.3
					c1.3,0,2.4,0.4,3.3,1.3c1,1,1.5,2.1,1.5,3.5c0,1.3-0.5,2.3-1.5,3.1c-0.9,1-2,1.5-3.3,1.5c-1.3,0-2.3-0.5-3.3-1.5
					c-0.9-0.8-1.3-1.8-1.3-3.1C238,503.7,238.4,502.5,239.3,501.5z M240.8,506.3c0,0.6,0.2,1.2,0.7,1.8c0.6,0.5,1.2,0.7,1.9,0.7
					c0.7,0,1.3-0.2,1.8-0.7c0.6-0.5,0.9-1.1,0.9-1.8c0-0.8-0.3-1.5-0.9-2c-0.4-0.6-1-0.8-1.8-0.8c-0.7,0-1.3,0.3-1.9,0.8
					C241,504.8,240.8,505.5,240.8,506.3z"/>
				<path fill-rule="evenodd" clip-rule="evenodd" d="M240.8,506.3c0-0.8,0.2-1.5,0.7-2c0.6-0.6,1.2-0.8,1.9-0.8
					c0.7,0,1.3,0.3,1.8,0.8c0.6,0.5,0.9,1.2,0.9,2c0,0.6-0.3,1.2-0.9,1.8c-0.4,0.5-1,0.7-1.8,0.7c-0.7,0-1.3-0.2-1.9-0.7
					C241,507.5,240.8,506.9,240.8,506.3z"/>
			</g>
		</g>
	</g>
</g>
</svg>
