<?xml version="1.0" encoding="utf-8"?>
<!-- Generator: Adobe Illustrator 16.0.0, SVG Export Plug-In . SVG Version: 6.00 Build 0)  -->
<!DOCTYPE svg PUBLIC "-//W3C//DTD SVG 1.1//EN" "http://www.w3.org/Graphics/SVG/1.1/DTD/svg11.dtd">
<svg version="1.1" id="Layer_1" xmlns="http://www.w3.org/2000/svg" xmlns:xlink="http://www.w3.org/1999/xlink" x="0px" y="0px"
	 width="184.3px" height="75px" viewBox="0 0 184.3 75" enable-background="new 0 0 184.3 75" xml:space="preserve">
<g>
	<g>
		<path fill-rule="evenodd" clip-rule="evenodd" fill="#2CD0E2" fill-opacity="0.898" d="M181.5,38c0,10-5,15-15,15H69.2L55.5,74
			l1.1-21H18.5c-10,0-15-5-15-15V18c0-10,5-15,15-15h148c10,0,15,5,15,15V38z"/>
		
			<path fill-rule="evenodd" clip-rule="evenodd" fill="none" stroke="#FFFFFF" stroke-linecap="round" stroke-linejoin="round" stroke-miterlimit="3" d="
			M181.5,38V18c0-10-5-15-15-15h-148c-10,0-15,5-15,15v20c0,10,5,15,15,15h38.1l-1.1,21l13.7-21h97.3C176.5,53,181.5,48,181.5,38z"
			/>
	</g>
</g>
</svg>
