<?xml version="1.0" encoding="utf-8"?>
<!-- Generator: Adobe Illustrator 16.0.0, SVG Export Plug-In . SVG Version: 6.00 Build 0)  -->
<!DOCTYPE svg PUBLIC "-//W3C//DTD SVG 1.1//EN" "http://www.w3.org/Graphics/SVG/1.1/DTD/svg11.dtd">
<svg version="1.1" id="Layer_1" xmlns="http://www.w3.org/2000/svg" xmlns:xlink="http://www.w3.org/1999/xlink" x="0px" y="0px"
	 width="283.7px" height="97px" viewBox="0 0 283.7 97" enable-background="new 0 0 283.7 97" xml:space="preserve">
<g>
	<g>
		<g>
			
				<radialGradient id="SVGID_1_" cx="-172.8672" cy="-256.3501" r="11.3875" gradientTransform="matrix(-1 0 0 1 -67.334 320.7002)" gradientUnits="userSpaceOnUse">
				<stop  offset="0" style="stop-color:#FFFFFF;stop-opacity:0.3294"/>
				<stop  offset="1" style="stop-color:#FFFFFF;stop-opacity:0"/>
			</radialGradient>
			<path fill-rule="evenodd" clip-rule="evenodd" fill="url(#SVGID_1_)" d="M117.1,64.3v0.2c-0.1,0.1-0.1,0.1-0.1,0.1H94.2
				c0,0-0.1,0-0.1-0.1v-0.2c0.1,0,0.1,0,0.1,0h22.8C117,64.2,117,64.2,117.1,64.3z"/>
			<line fill-rule="evenodd" clip-rule="evenodd" fill="none" x1="117.7" y1="64" x2="90.8" y2="64"/>
			<line fill-rule="evenodd" clip-rule="evenodd" fill="none" x1="118" y1="71.6" x2="54.4" y2="71.6"/>
		</g>
		<g>
			
				<linearGradient id="SVGID_2_" gradientUnits="userSpaceOnUse" x1="-101.3545" y1="-278.6001" x2="-70.0795" y2="-278.6001" gradientTransform="matrix(-1 0 0 -1 -67.334 -192)">
				<stop  offset="0" style="stop-color:#000000"/>
				<stop  offset="0.7569" style="stop-color:#000000;stop-opacity:0.6431"/>
				<stop  offset="1" style="stop-color:#000000;stop-opacity:4.705882e-002"/>
			</linearGradient>
			<rect x="2.3" y="85.6" fill-rule="evenodd" clip-rule="evenodd" fill="url(#SVGID_2_)" width="116.4" height="2"/>
		</g>
		<g>
			<g>
				
					<linearGradient id="SVGID_3_" gradientUnits="userSpaceOnUse" x1="-129.1543" y1="-277.9248" x2="-120.9793" y2="-277.9248" gradientTransform="matrix(-1 0 0 -1 -67.334 -192)">
					<stop  offset="0" style="stop-color:#3C4855"/>
					<stop  offset="1" style="stop-color:#0F141C"/>
				</linearGradient>
				<path fill-rule="evenodd" clip-rule="evenodd" fill="url(#SVGID_3_)" d="M57,85.3v0.6c0.5,0.2,1,0.2,1.4,0v-0.6
					c0.8,0,1.6,0.1,2.4,0.3c0.7,0.1,1.1,0.2,1.1,0.4V86c-0.1,0.2-0.5,0.4-1.2,0.5c0,0-0.1,0-0.1,0c-0.3,0-0.6,0.1-1,0.1
					c-0.2,0-0.4,0-0.6,0h-1.6c-0.7,0-1.4,0-2.1-0.1c-0.1,0-0.1,0-0.3,0h-0.1c-0.3,0-0.5-0.1-0.8-0.2c-0.1,0-0.2-0.1-0.2-0.1
					c0,0-0.1,0-0.1-0.1c0,0-0.1-0.1-0.1-0.1l0.1,0c0.1-0.2,0.4-0.3,1-0.4C55.5,85.4,56.2,85.3,57,85.3z"/>
				
					<linearGradient id="SVGID_4_" gradientUnits="userSpaceOnUse" x1="-129.1294" y1="-278.6123" x2="-121.0044" y2="-278.6123" gradientTransform="matrix(-1 0 0 -1 -67.334 -192)">
					<stop  offset="0" style="stop-color:#070A0A"/>
					<stop  offset="0.6196" style="stop-color:#3B4754"/>
					<stop  offset="1" style="stop-color:#0F141C"/>
				</linearGradient>
				<path fill-rule="evenodd" clip-rule="evenodd" fill="url(#SVGID_4_)" d="M61.8,86v0.6c-0.1,0.2-0.5,0.3-1.2,0.4c0,0-0.1,0-0.1,0
					c-1.8,0.2-3.7,0.2-5.6,0h-0.1c-0.6-0.1-1-0.2-1.1-0.4V86c0.1,0.1,0.1,0.1,0.1,0.1c0,0.1,0.1,0.1,0.2,0.1
					c0.2,0.1,0.5,0.1,0.8,0.2h0.1c0.1,0,0.2,0,0.3,0c0.7,0.1,1.4,0.1,2.1,0.1h1.6c0.2,0,0.4,0,0.6,0c0.4-0.1,0.7-0.1,1-0.1
					c0.1,0,0.1,0,0.1,0C61.3,86.4,61.7,86.2,61.8,86z"/>
				
					<linearGradient id="SVGID_5_" gradientUnits="userSpaceOnUse" x1="-125.7671" y1="-274.7129" x2="-124.3672" y2="-274.7129" gradientTransform="matrix(-1 0 0 -1 -67.334 -192)">
					<stop  offset="0" style="stop-color:#3C4855"/>
					<stop  offset="1" style="stop-color:#0F141C"/>
				</linearGradient>
				<path fill-rule="evenodd" clip-rule="evenodd" fill="url(#SVGID_5_)" d="M57,85.3v-5.9h1.4v5.9v0.6c-0.4,0.2-0.9,0.2-1.4,0V85.3
					z"/>
				<path fill-rule="evenodd" clip-rule="evenodd" fill="none" d="M53.8,86.1c0,0.1,0.1,0.1,0.2,0.1c0.2,0.1,0.5,0.1,0.8,0.2h0.1
					c0.1,0,0.2,0,0.3,0c0.7,0.1,1.4,0.1,2.1,0.1h1.6c0.2,0,0.4,0,0.6,0"/>
			</g>
		</g>
		<g>
			<g>
				
					<linearGradient id="SVGID_6_" gradientUnits="userSpaceOnUse" x1="-180.0171" y1="-274.8125" x2="-178.6171" y2="-274.8125" gradientTransform="matrix(-1 0 0 -1 -67.334 -192)">
					<stop  offset="0" style="stop-color:#3C4855"/>
					<stop  offset="1" style="stop-color:#0F141C"/>
				</linearGradient>
				<path fill-rule="evenodd" clip-rule="evenodd" fill="url(#SVGID_6_)" d="M112.6,85.4V86c-0.4,0.2-0.8,0.2-1.3,0v-0.6v-5.9h1.3
					V85.4z"/>
				
					<linearGradient id="SVGID_7_" gradientUnits="userSpaceOnUse" x1="-183.4043" y1="-278.0752" x2="-175.2293" y2="-278.0752" gradientTransform="matrix(-1 0 0 -1 -67.334 -192)">
					<stop  offset="0" style="stop-color:#3C4855"/>
					<stop  offset="1" style="stop-color:#0F141C"/>
				</linearGradient>
				<path fill-rule="evenodd" clip-rule="evenodd" fill="url(#SVGID_7_)" d="M111.3,85.4V86c0.5,0.2,1,0.2,1.3,0v-0.6
					c0.8,0,1.6,0.1,2.3,0.2c0.8,0.2,1.1,0.3,1.1,0.4v0.1c-0.1,0.2-0.5,0.3-1.2,0.5h0c-0.4,0-0.8,0-1.1,0c-0.2,0.1-0.4,0.1-0.6,0.1
					h-1.6c-0.7,0-1.4,0-2.1-0.1c-0.1,0-0.2,0-0.3,0h-0.1c-0.3-0.1-0.6-0.1-0.8-0.2c-0.1,0-0.3,0-0.3-0.1l-0.2-0.1V86c0,0,0,0,0.1,0
					c0.1-0.2,0.5-0.3,1.1-0.4C109.8,85.5,110.5,85.5,111.3,85.4z"/>
				
					<linearGradient id="SVGID_8_" gradientUnits="userSpaceOnUse" x1="-183.3794" y1="-278.75" x2="-175.2544" y2="-278.75" gradientTransform="matrix(-1 0 0 -1 -67.334 -192)">
					<stop  offset="0" style="stop-color:#070A0A"/>
					<stop  offset="0.6196" style="stop-color:#3B4754"/>
					<stop  offset="1" style="stop-color:#0F141C"/>
				</linearGradient>
				<path fill-rule="evenodd" clip-rule="evenodd" fill="url(#SVGID_8_)" d="M116.1,86.1v0.7c-0.2,0.1-0.6,0.2-1.2,0.4h0
					c-1.9,0.2-3.8,0.2-5.7,0H109c-0.6-0.1-0.9-0.2-1.1-0.4l-0.1-0.7l0.2,0.1c0.1,0.1,0.2,0.1,0.3,0.1c0.2,0.1,0.4,0.1,0.8,0.2h0.1
					c0.1,0,0.1,0,0.3,0c0.7,0.1,1.4,0.1,2.1,0.1h1.6c0.2,0,0.4,0,0.6-0.1c0.3,0,0.7,0,1.1,0h0C115.6,86.5,116,86.3,116.1,86.1z"/>
				<path fill-rule="evenodd" clip-rule="evenodd" fill="none" d="M108,86.3c0.1,0.1,0.2,0.1,0.3,0.1c0.2,0.1,0.4,0.1,0.8,0.2h0.1
					c0.1,0,0.1,0,0.3,0c0.7,0.1,1.4,0.1,2.1,0.1h1.6c0.2,0,0.4,0,0.6-0.1"/>
			</g>
		</g>
		<g>
			<g>
				
					<linearGradient id="SVGID_9_" gradientUnits="userSpaceOnUse" x1="-206.6172" y1="-230.0254" x2="-69.0172" y2="-230.0254" gradientTransform="matrix(-1 0 0 -1 -67.334 -192)">
					<stop  offset="0" style="stop-color:#3C4855"/>
					<stop  offset="1" style="stop-color:#0F141C"/>
				</linearGradient>
				<polygon fill-rule="evenodd" clip-rule="evenodd" fill="url(#SVGID_9_)" points="10.9,37.5 117.8,37.5 118.5,38.5 118.5,38.6 
					10.9,38.5 				"/>
				
					<linearGradient id="SVGID_10_" gradientUnits="userSpaceOnUse" x1="-206.6172" y1="-229.9751" x2="-69.0172" y2="-229.9751" gradientTransform="matrix(-1 0 0 -1 -67.334 -192)">
					<stop  offset="0" style="stop-color:#242F39"/>
					<stop  offset="1" style="stop-color:#000000"/>
				</linearGradient>
				<polygon fill-rule="evenodd" clip-rule="evenodd" fill="url(#SVGID_10_)" points="10.9,37.5 10.9,38.5 9.7,38.5 				"/>
				
					<linearGradient id="SVGID_11_" gradientUnits="userSpaceOnUse" x1="50.2954" y1="-221.415" x2="111.6847" y2="-221.415" gradientTransform="matrix(-0.1959 0.9806 -0.9806 -0.1959 -134.4026 -81.7935)">
					<stop  offset="0" style="stop-color:#3C4855"/>
					<stop  offset="1" style="stop-color:#0F141C"/>
				</linearGradient>
				<polygon fill-rule="evenodd" clip-rule="evenodd" fill="url(#SVGID_11_)" points="9.7,38.5 10.9,38.5 118.5,38.6 118.5,71.5 
					9.6,71.5 9.6,38.5 				"/>
			</g>
		</g>
		<g>
			<g>
				
					<linearGradient id="SVGID_12_" gradientUnits="userSpaceOnUse" x1="-198.6294" y1="-263.4746" x2="-116.4044" y2="-263.4746" gradientTransform="matrix(-1 0 0 -1 -67.334 -192)">
					<stop  offset="0" style="stop-color:#242F39"/>
					<stop  offset="1" style="stop-color:#000000"/>
				</linearGradient>
				<polygon fill-rule="evenodd" clip-rule="evenodd" fill="url(#SVGID_12_)" points="53.9,71.6 54.6,71.3 118.5,71.3 118.7,71.6 
					118.7,71.6 				"/>
				
					<linearGradient id="SVGID_13_" gradientUnits="userSpaceOnUse" x1="113.5767" y1="-268.0635" x2="134.4338" y2="-268.0635" gradientTransform="matrix(-0.3452 0.9385 -1.0244 -0.1116 -143.6355 -75.1208)">
					<stop  offset="0" style="stop-color:#3C4855"/>
					<stop  offset="1" style="stop-color:#0F141C"/>
				</linearGradient>
				<polygon fill-rule="evenodd" clip-rule="evenodd" fill="url(#SVGID_13_)" points="53.9,71.6 118.7,71.6 118.7,81 53.8,81 
					53.8,71.6 				"/>
			</g>
		</g>
		<g>
			
				<linearGradient id="SVGID_14_" gradientUnits="userSpaceOnUse" x1="91.4072" y1="-265.7236" x2="106.7415" y2="-265.7236" gradientTransform="matrix(-0.2152 0.9766 -0.9848 -0.1779 -135.4512 -80.1998)">
				<stop  offset="0" style="stop-color:#3C4855"/>
				<stop  offset="1" style="stop-color:#0F141C"/>
			</linearGradient>
			<path fill-rule="evenodd" clip-rule="evenodd" fill="url(#SVGID_14_)" d="M90,64.1l28.7,0.1v7.2H89.1v-5.8
				C89.1,64.8,89.4,64.3,90,64.1z"/>
		</g>
		<g>
			<g>
				<path fill-rule="evenodd" clip-rule="evenodd" fill-opacity="0.498" d="M112.1,68.8c0.4,0.4,0.8,0.6,1.4,0.6
					c0.5,0,1-0.2,1.4-0.6c0.4-0.4,0.6-0.8,0.6-1.4s-0.2-1-0.6-1.4s-0.8-0.6-1.4-0.6c-0.5,0-1,0.2-1.4,0.6s-0.6,0.8-0.6,1.4
					S111.7,68.5,112.1,68.8z"/>
				
					<linearGradient id="SVGID_15_" gradientUnits="userSpaceOnUse" x1="167.8833" y1="-73.6514" x2="192.0864" y2="-73.6514" gradientTransform="matrix(-0.1617 0 0 0.1617 143.1395 79.3732)">
					<stop  offset="0" style="stop-color:#E8E8E0"/>
					<stop  offset="1" style="stop-color:#49484A"/>
				</linearGradient>
				<path fill-rule="evenodd" clip-rule="evenodd" fill="url(#SVGID_15_)" d="M112.7,68.8c0.4,0.4,0.8,0.6,1.4,0.6
					c0.5,0,1-0.2,1.4-0.6c0.4-0.4,0.6-0.8,0.6-1.4s-0.2-1-0.6-1.4s-0.8-0.6-1.4-0.6c-0.5,0-1,0.2-1.4,0.6s-0.6,0.8-0.6,1.4
					S112.3,68.5,112.7,68.8z"/>
				
					<linearGradient id="SVGID_16_" gradientUnits="userSpaceOnUse" x1="167.8828" y1="-73.6475" x2="192.083" y2="-73.6475" gradientTransform="matrix(-0.1439 0 0 0.1439 140.1373 78.116)">
					<stop  offset="0" style="stop-color:#77777A"/>
					<stop  offset="1" style="stop-color:#595F6F"/>
				</linearGradient>
				<path fill-rule="evenodd" clip-rule="evenodd" fill="url(#SVGID_16_)" d="M113,68.7c0.3,0.3,0.8,0.5,1.2,0.5
					c0.5,0,0.9-0.2,1.2-0.5c0.3-0.3,0.5-0.8,0.5-1.2c0-0.5-0.2-0.9-0.5-1.2c-0.3-0.3-0.8-0.5-1.2-0.5c-0.5,0-0.9,0.2-1.2,0.5
					c-0.3,0.3-0.5,0.8-0.5,1.2C112.5,68,112.7,68.4,113,68.7z"/>
				
					<rect x="113.2" y="67.7" transform="matrix(-0.3614 -0.9324 0.9324 -0.3614 92.9529 199.6039)" fill-rule="evenodd" clip-rule="evenodd" fill="#363840" width="3.3" height="0.5"/>
				
					<rect x="112.4" y="67.8" transform="matrix(-0.3614 -0.9324 0.9324 -0.3614 91.8175 198.9259)" fill-rule="evenodd" clip-rule="evenodd" fill="#AAB2B4" width="3.3" height="0.5"/>
				
					<rect x="113.2" y="67.7" transform="matrix(-0.3614 -0.9324 0.9324 -0.3614 92.9529 199.6039)" fill-rule="evenodd" clip-rule="evenodd" fill="#6A7579" width="3.3" height="0.5"/>
				
					<rect x="112.4" y="67.8" transform="matrix(-0.3614 -0.9324 0.9324 -0.3614 91.8175 198.9259)" fill-rule="evenodd" clip-rule="evenodd" fill="#363840" width="3.3" height="0.5"/>
			</g>
		</g>
		<g>
			<g>
				<path fill-rule="evenodd" clip-rule="evenodd" fill-opacity="0.498" d="M84.7,79.2c0.4,0.4,0.8,0.6,1.4,0.6c0.5,0,1-0.2,1.4-0.6
					c0.4-0.4,0.6-0.8,0.6-1.4s-0.2-1-0.6-1.4s-0.8-0.6-1.4-0.6c-0.5,0-1,0.2-1.4,0.6s-0.6,0.8-0.6,1.4S84.3,78.8,84.7,79.2z"/>
				
					<linearGradient id="SVGID_17_" gradientUnits="userSpaceOnUse" x1="167.8818" y1="-73.6504" x2="192.085" y2="-73.6504" gradientTransform="matrix(-0.1617 0 0 0.1617 115.7391 89.7233)">
					<stop  offset="0" style="stop-color:#E8E8E0"/>
					<stop  offset="1" style="stop-color:#49484A"/>
				</linearGradient>
				<path fill-rule="evenodd" clip-rule="evenodd" fill="url(#SVGID_17_)" d="M85.3,79.2c0.4,0.4,0.8,0.6,1.4,0.6
					c0.5,0,1-0.2,1.4-0.6c0.4-0.4,0.6-0.8,0.6-1.4s-0.2-1-0.6-1.4s-0.8-0.6-1.4-0.6c-0.5,0-1,0.2-1.4,0.6s-0.6,0.8-0.6,1.4
					S84.9,78.8,85.3,79.2z"/>
				
					<linearGradient id="SVGID_18_" gradientUnits="userSpaceOnUse" x1="167.8828" y1="-73.6475" x2="192.083" y2="-73.6475" gradientTransform="matrix(-0.1439 0 0 0.1439 113.0875 88.0662)">
					<stop  offset="0" style="stop-color:#77777A"/>
					<stop  offset="1" style="stop-color:#595F6F"/>
				</linearGradient>
				<path fill-rule="evenodd" clip-rule="evenodd" fill="url(#SVGID_18_)" d="M86,78.7c0.3,0.3,0.8,0.5,1.2,0.5
					c0.5,0,0.9-0.2,1.2-0.5c0.3-0.3,0.5-0.8,0.5-1.2c0-0.5-0.2-0.9-0.5-1.2c-0.3-0.3-0.8-0.5-1.2-0.5c-0.5,0-0.9,0.2-1.2,0.5
					c-0.3,0.3-0.5,0.8-0.5,1.2C85.4,77.9,85.6,78.4,86,78.7z"/>
				
					<rect x="85.1" y="78.3" transform="matrix(-0.3614 -0.9324 0.9324 -0.3614 44.8598 187.7663)" fill-rule="evenodd" clip-rule="evenodd" fill="#363840" width="3.3" height="0.5"/>
				
					<rect x="85.1" y="78.3" transform="matrix(-0.3614 -0.9324 0.9324 -0.3614 44.8598 187.7663)" fill-rule="evenodd" clip-rule="evenodd" fill="#AAB2B4" width="3.3" height="0.5"/>
				
					<rect x="85.1" y="78.3" transform="matrix(-0.3614 -0.9324 0.9324 -0.3614 44.8598 187.7663)" fill-rule="evenodd" clip-rule="evenodd" fill="#6A7579" width="3.3" height="0.5"/>
				
					<rect x="85.1" y="78.3" transform="matrix(-0.3614 -0.9324 0.9324 -0.3614 44.8598 187.7663)" fill-rule="evenodd" clip-rule="evenodd" fill="#363840" width="3.3" height="0.5"/>
			</g>
		</g>
		<g>
			<g>
				<path fill-rule="evenodd" clip-rule="evenodd" fill-opacity="0.498" d="M63.4,69.3c0.4,0.4,0.8,0.6,1.4,0.6c0.5,0,1-0.2,1.4-0.6
					c0.4-0.4,0.6-0.8,0.6-1.4s-0.2-1-0.6-1.4S65.3,66,64.8,66c-0.5,0-1,0.2-1.4,0.6s-0.6,0.8-0.6,1.4S63,68.9,63.4,69.3z"/>
				
					<linearGradient id="SVGID_19_" gradientUnits="userSpaceOnUse" x1="167.8833" y1="-73.6519" x2="192.0864" y2="-73.6519" gradientTransform="matrix(-0.1617 0 0 0.1617 94.1395 79.8229)">
					<stop  offset="0" style="stop-color:#E8E8E0"/>
					<stop  offset="1" style="stop-color:#49484A"/>
				</linearGradient>
				<path fill-rule="evenodd" clip-rule="evenodd" fill="url(#SVGID_19_)" d="M63.7,69.3c0.4,0.4,0.8,0.6,1.4,0.6
					c0.5,0,1-0.2,1.4-0.6c0.4-0.4,0.6-0.8,0.6-1.4s-0.2-1-0.6-1.4S65.6,66,65,66c-0.5,0-1,0.2-1.4,0.6s-0.6,0.8-0.6,1.4
					S63.3,68.9,63.7,69.3z"/>
				
					<linearGradient id="SVGID_20_" gradientUnits="userSpaceOnUse" x1="167.8843" y1="-73.6475" x2="192.0845" y2="-73.6475" gradientTransform="matrix(-0.1439 0 0 0.1439 90.5377 78.116)">
					<stop  offset="0" style="stop-color:#77777A"/>
					<stop  offset="1" style="stop-color:#595F6F"/>
				</linearGradient>
				<path fill-rule="evenodd" clip-rule="evenodd" fill="url(#SVGID_20_)" d="M63.4,68.7c0.3,0.3,0.8,0.5,1.2,0.5
					c0.5,0,0.9-0.2,1.2-0.5c0.3-0.3,0.5-0.8,0.5-1.2c0-0.5-0.2-0.9-0.5-1.2c-0.3-0.3-0.8-0.5-1.2-0.5c-0.5,0-0.9,0.2-1.2,0.5
					c-0.3,0.3-0.5,0.8-0.5,1.2C62.9,68,63.1,68.4,63.4,68.7z"/>
				
					<rect x="63" y="67.8" transform="matrix(-0.3614 -0.9324 0.9324 -0.3614 24.5628 152.8656)" fill-rule="evenodd" clip-rule="evenodd" fill="#363840" width="3.3" height="0.5"/>
				
					<rect x="63" y="67.8" transform="matrix(-0.3614 -0.9324 0.9324 -0.3614 24.5628 152.8656)" fill-rule="evenodd" clip-rule="evenodd" fill="#AAB2B4" width="3.3" height="0.5"/>
				
					<rect x="63" y="67.8" transform="matrix(-0.3614 -0.9324 0.9324 -0.3614 24.5628 152.8656)" fill-rule="evenodd" clip-rule="evenodd" fill="#6A7579" width="3.3" height="0.5"/>
				
					<rect x="63" y="67.8" transform="matrix(-0.3614 -0.9324 0.9324 -0.3614 24.5628 152.8656)" fill-rule="evenodd" clip-rule="evenodd" fill="#363840" width="3.3" height="0.5"/>
			</g>
		</g>
		<g>
			<g>
				<path fill-rule="evenodd" clip-rule="evenodd" fill-opacity="0.498" d="M19.8,69.3c0.4,0.4,0.8,0.6,1.4,0.6c0.5,0,1-0.2,1.4-0.6
					c0.4-0.4,0.6-0.8,0.6-1.4s-0.2-1-0.6-1.4S21.7,66,21.1,66c-0.5,0-1,0.2-1.4,0.6s-0.6,0.8-0.6,1.4S19.4,68.9,19.8,69.3z"/>
				
					<linearGradient id="SVGID_21_" gradientUnits="userSpaceOnUse" x1="167.8838" y1="-73.6519" x2="192.0869" y2="-73.6519" gradientTransform="matrix(-0.1617 0 0 0.1617 50.3397 79.8229)">
					<stop  offset="0" style="stop-color:#E8E8E0"/>
					<stop  offset="1" style="stop-color:#49484A"/>
				</linearGradient>
				<path fill-rule="evenodd" clip-rule="evenodd" fill="url(#SVGID_21_)" d="M19.9,69.3c0.4,0.4,0.8,0.6,1.4,0.6
					c0.5,0,1-0.2,1.4-0.6c0.4-0.4,0.6-0.8,0.6-1.4s-0.2-1-0.6-1.4S21.8,66,21.2,66c-0.5,0-1,0.2-1.4,0.6s-0.6,0.8-0.6,1.4
					S19.5,68.9,19.9,69.3z"/>
				
					<linearGradient id="SVGID_22_" gradientUnits="userSpaceOnUse" x1="167.8833" y1="-73.6475" x2="192.0835" y2="-73.6475" gradientTransform="matrix(-0.1439 0 0 0.1439 46.5875 78.116)">
					<stop  offset="0" style="stop-color:#77777A"/>
					<stop  offset="1" style="stop-color:#595F6F"/>
				</linearGradient>
				<path fill-rule="evenodd" clip-rule="evenodd" fill="url(#SVGID_22_)" d="M19.5,68.7c0.3,0.3,0.8,0.5,1.2,0.5
					c0.5,0,0.9-0.2,1.2-0.5c0.3-0.3,0.5-0.8,0.5-1.2c0-0.5-0.2-0.9-0.5-1.2c-0.3-0.3-0.8-0.5-1.2-0.5c-0.5,0-0.9,0.2-1.2,0.5
					c-0.3,0.3-0.5,0.8-0.5,1.2C18.9,68,19.1,68.4,19.5,68.7z"/>
				
					<rect x="19.5" y="67.8" transform="matrix(-0.3614 -0.9324 0.9324 -0.3614 -34.5918 112.3528)" fill-rule="evenodd" clip-rule="evenodd" fill="#363840" width="3.3" height="0.5"/>
				
					<rect x="19.3" y="67.8" transform="matrix(-0.3614 -0.9324 0.9324 -0.3614 -34.9322 112.1197)" fill-rule="evenodd" clip-rule="evenodd" fill="#AAB2B4" width="3.3" height="0.5"/>
				
					<rect x="19.5" y="67.8" transform="matrix(-0.3614 -0.9324 0.9324 -0.3614 -34.5918 112.3528)" fill-rule="evenodd" clip-rule="evenodd" fill="#6A7579" width="3.3" height="0.5"/>
				
					<rect x="19.5" y="67.8" transform="matrix(-0.3614 -0.9324 0.9324 -0.3614 -34.5918 112.3528)" fill-rule="evenodd" clip-rule="evenodd" fill="#363840" width="3.3" height="0.5"/>
			</g>
		</g>
		<g>
			
				<radialGradient id="SVGID_23_" cx="-153.3418" cy="-263.75" r="30.0873" gradientTransform="matrix(-1 0 0 1 -67.334 335.5)" gradientUnits="userSpaceOnUse">
				<stop  offset="0" style="stop-color:#FFFFFF;stop-opacity:0.3294"/>
				<stop  offset="1" style="stop-color:#FFFFFF;stop-opacity:0"/>
			</radialGradient>
			<path fill-rule="evenodd" clip-rule="evenodd" fill="url(#SVGID_23_)" d="M55.9,71.6L55.9,71.6l60.2,0c0.1,0,0.1,0,0.1,0v0.1
				c0,0,0,0.1,0,0.1c0,0-0.1,0-0.1,0H55.9c-0.1-0.1-0.1-0.1-0.1-0.1C55.8,71.7,55.8,71.6,55.9,71.6z"/>
		</g>
	</g>
	<g>
		<g>
			<g>
				
					<linearGradient id="SVGID_24_" gradientUnits="userSpaceOnUse" x1="-369.7046" y1="-267.1826" x2="-353.2771" y2="-267.1826" gradientTransform="matrix(-0.9983 -5.782989e-002 0.664 -0.9632 -3.5375 -190.4159)">
					<stop  offset="0" style="stop-color:#000000"/>
					<stop  offset="1" style="stop-color:#000000;stop-opacity:0"/>
				</linearGradient>
				<path fill-rule="evenodd" clip-rule="evenodd" fill="url(#SVGID_24_)" d="M169.4,88.1c0.5-0.2,1.3-0.3,2.4-0.3h62.3h4.2
					c0.9,0,1.4,0.1,1.5,0.3l1.2,2.1c0,0.2-0.4,0.3-1.3,0.3h-5h-68c-0.9,0-1.4-0.1-1.4-0.3L169.4,88.1z"/>
			</g>
			<g>
				
					<linearGradient id="SVGID_25_" gradientUnits="userSpaceOnUse" x1="-221.7144" y1="155.062" x2="-214.6642" y2="155.062" gradientTransform="matrix(6.303319e-003 -1 1 6.303319e-003 62.5434 -129.0614)">
					<stop  offset="0" style="stop-color:#1C232C;stop-opacity:0"/>
					<stop  offset="1" style="stop-color:#1C232C"/>
				</linearGradient>
				<rect x="192" y="90.9" fill-rule="evenodd" clip-rule="evenodd" fill="url(#SVGID_25_)" width="48.3" height="4.5"/>
			</g>
			<g>
				<g>
					<polygon fill-rule="evenodd" clip-rule="evenodd" points="192,85.8 193.5,81.7 238.9,81.7 240.3,85.8 					"/>
					
						<linearGradient id="SVGID_26_" gradientUnits="userSpaceOnUse" x1="-15.0176" y1="-403.814" x2="13.14" y2="-403.814" gradientTransform="matrix(-0.4861 0.8739 -0.8739 -0.4861 -133.9274 -113.2435)">
						<stop  offset="0" style="stop-color:#3C4855"/>
						<stop  offset="1" style="stop-color:#0F141C"/>
					</linearGradient>
					<rect x="192" y="85.8" fill-rule="evenodd" clip-rule="evenodd" fill="url(#SVGID_26_)" width="48.3" height="4.6"/>
				</g>
			</g>
			<g>
				<g>
					<linearGradient id="SVGID_27_" gradientUnits="userSpaceOnUse" x1="272.939" y1="72.6875" x2="272.939" y2="77.9125">
						<stop  offset="0" style="stop-color:#758793"/>
						<stop  offset="8.627451e-002" style="stop-color:#A8C1D5"/>
						<stop  offset="0.2431" style="stop-color:#FFFFFF"/>
						<stop  offset="0.3686" style="stop-color:#9FB1BD"/>
						<stop  offset="0.7529" style="stop-color:#363741"/>
						<stop  offset="1" style="stop-color:#8A7D89"/>
					</linearGradient>
					<path fill-rule="evenodd" clip-rule="evenodd" fill="url(#SVGID_27_)" d="M281.1,73.1c0.1,0.3,0.1,0.8,0.2,1.5
						c0,0.7,0,1.4-0.1,2.1c-0.1,0.2-0.1,0.4-0.1,0.6c0,0.3-0.2,0.5-0.5,0.5h-16.1v-5.2h16.2c0.2,0.1,0.3,0.2,0.4,0.4
						C281.1,73,281.1,73,281.1,73.1z"/>
				</g>
				<g>
					<g>
						<g>
							
								<linearGradient id="SVGID_28_" gradientUnits="userSpaceOnUse" x1="162.4102" y1="-363.7012" x2="170.6172" y2="-363.7012" gradientTransform="matrix(8.833830e-002 0.9961 -0.9946 0.1053 -126.1728 -52.3552)">
								<stop  offset="0" style="stop-color:#D1D9DF"/>
								<stop  offset="8.627451e-002" style="stop-color:#798C99"/>
								<stop  offset="0.2431" style="stop-color:#FFFFFF"/>
								<stop  offset="0.3686" style="stop-color:#9FB1BD"/>
								<stop  offset="0.6275" style="stop-color:#ACB0B9"/>
								<stop  offset="0.7529" style="stop-color:#696B7C"/>
								<stop  offset="0.8706" style="stop-color:#363741"/>
								<stop  offset="1" style="stop-color:#857985"/>
							</linearGradient>
							<path fill-rule="evenodd" clip-rule="evenodd" fill="url(#SVGID_28_)" d="M251.2,70.4c0.3,3.4,0.3,6.6,0,9.6
								c-0.7-0.2-1.3-0.4-1.9-0.8c0.2-2.5,0.2-5.2,0-8c0.1,0,0.2-0.1,0.3-0.1h0c0.1-0.1,0.1-0.1,0.2-0.1c0.3-0.1,0.7-0.3,1.3-0.6
								H251.2z"/>
							<linearGradient id="SVGID_29_" gradientUnits="userSpaceOnUse" x1="252.958" y1="70.4502" x2="252.958" y2="80.2502">
								<stop  offset="0" style="stop-color:#758793"/>
								<stop  offset="8.627451e-002" style="stop-color:#A8C1D5"/>
								<stop  offset="0.1961" style="stop-color:#FFFFFF"/>
								<stop  offset="0.3843" style="stop-color:#9FB1BD"/>
								<stop  offset="0.8471" style="stop-color:#363741"/>
								<stop  offset="1" style="stop-color:#8A7D89"/>
							</linearGradient>
							<path fill-rule="evenodd" clip-rule="evenodd" fill="url(#SVGID_29_)" d="M254.7,70.4v9.8h-2.8c-0.3,0-0.5,0-0.8-0.1
								c0.3-3.1,0.3-6.3,0-9.6H254.7z"/>
							<linearGradient id="SVGID_30_" gradientUnits="userSpaceOnUse" x1="256.9829" y1="70.4502" x2="256.9829" y2="80.2502">
								<stop  offset="0" style="stop-color:#758793"/>
								<stop  offset="8.627451e-002" style="stop-color:#A8C1D5"/>
								<stop  offset="0.1961" style="stop-color:#FFFFFF"/>
								<stop  offset="0.3843" style="stop-color:#9FB1BD"/>
								<stop  offset="0.8471" style="stop-color:#363741"/>
								<stop  offset="1" style="stop-color:#8A7D89"/>
							</linearGradient>
							<rect x="254.7" y="70.4" fill-rule="evenodd" clip-rule="evenodd" fill="url(#SVGID_30_)" width="4.5" height="9.8"/>
							<linearGradient id="SVGID_31_" gradientUnits="userSpaceOnUse" x1="273.0581" y1="69.9873" x2="273.0581" y2="80.7123">
								<stop  offset="0" style="stop-color:#758793"/>
								<stop  offset="8.627451e-002" style="stop-color:#A8C1D5"/>
								<stop  offset="0.1961" style="stop-color:#FFFFFF"/>
								<stop  offset="0.3843" style="stop-color:#9FB1BD"/>
								<stop  offset="0.8471" style="stop-color:#363741"/>
								<stop  offset="1" style="stop-color:#8A7D89"/>
							</linearGradient>
							<path fill-rule="evenodd" clip-rule="evenodd" fill="url(#SVGID_31_)" d="M267,80.6c0-0.3,0.1-0.7,0.1-1.1
								c0.4-2.5,0.4-5.4,0-8.7c0-0.3,0-0.6,0-0.9h10.6c0.5,0,0.7,0.3,0.8,0.8c0.2,0.5,0.3,1.3,0.4,2.4c0.3,1.6,0.3,3.1,0,4.7
								l-0.1,0.8c-0.1,0.6-0.2,1.1-0.4,1.6c-0.2,0.3-0.5,0.5-0.9,0.5H267z"/>
							<linearGradient id="SVGID_32_" gradientUnits="userSpaceOnUse" x1="266.2061" y1="69.0747" x2="267.0376" y2="79.0534">
								<stop  offset="0" style="stop-color:#758793"/>
								<stop  offset="8.627451e-002" style="stop-color:#A8C1D5"/>
								<stop  offset="0.2431" style="stop-color:#FFFFFF"/>
								<stop  offset="0.3686" style="stop-color:#9FB1BD"/>
								<stop  offset="0.7529" style="stop-color:#363741"/>
								<stop  offset="1" style="stop-color:#8A7D89"/>
							</linearGradient>
							<path fill-rule="evenodd" clip-rule="evenodd" fill="url(#SVGID_32_)" d="M266.3,80.1c0.3-3.1,0.3-6.3,0-9.5v-0.2l0.6-0.4
								h0.1c0,0.3,0,0.6,0,0.9c0.5,3.3,0.5,6.2,0,8.7c0,0.4-0.1,0.8-0.1,1.1l-0.6-0.5H266.3z"/>
							<linearGradient id="SVGID_33_" gradientUnits="userSpaceOnUse" x1="262.8955" y1="70.4502" x2="262.8955" y2="80.2502">
								<stop  offset="0" style="stop-color:#758793"/>
								<stop  offset="8.627451e-002" style="stop-color:#A8C1D5"/>
								<stop  offset="0.1961" style="stop-color:#FFFFFF"/>
								<stop  offset="0.3843" style="stop-color:#9FB1BD"/>
								<stop  offset="0.8471" style="stop-color:#363741"/>
								<stop  offset="1" style="stop-color:#8A7D89"/>
							</linearGradient>
							<path fill-rule="evenodd" clip-rule="evenodd" fill="url(#SVGID_33_)" d="M259.2,80.1v-9.8h7.1v0.2c0.3,3.2,0.3,6.4,0,9.5
								H259.2z"/>
						</g>
					</g>
					<g>
						<linearGradient id="SVGID_34_" gradientUnits="userSpaceOnUse" x1="273.0581" y1="69.9873" x2="273.0581" y2="80.7123">
							<stop  offset="0" style="stop-color:#758793;stop-opacity:0.7804"/>
							<stop  offset="8.627451e-002" style="stop-color:#A8C1D5;stop-opacity:0.7529"/>
							<stop  offset="0.1961" style="stop-color:#FFFFFF;stop-opacity:0.6824"/>
							<stop  offset="0.251" style="stop-color:#9FB1BD;stop-opacity:0.3608"/>
							<stop  offset="0.4549" style="stop-color:#54585D;stop-opacity:0.6667"/>
							<stop  offset="0.6588" style="stop-color:#343134;stop-opacity:0.7608"/>
							<stop  offset="0.8235" style="stop-color:#000000;stop-opacity:0.8706"/>
							<stop  offset="1" style="stop-color:#726D78;stop-opacity:0.9725"/>
						</linearGradient>
						<path fill-rule="evenodd" clip-rule="evenodd" fill="url(#SVGID_34_)" d="M278.4,70.6c0.2,0.5,0.3,1.4,0.4,2.5
							c0.3,1.6,0.3,3.1,0,4.7l-0.1,0.8c-0.1,0.5-0.2,1-0.4,1.4c-0.1,0.5-0.4,0.7-0.9,0.7H267c0-0.3,0.1-0.7,0.1-1.1
							c0.4-2.5,0.4-5.4,0-8.7c0-0.3,0-0.6,0-0.9h10.5v0.6H278.4z"/>
					</g>
				</g>
			</g>
			<g>
				<g>
					<g>
						<path fill-rule="evenodd" clip-rule="evenodd" d="M231.8,81.5v-1.4h10.9v-6v-6.3h0.1l0.9,1.4v2.9c0,4.5,0,7.6,0,9.4H231.8z"/>
						<path fill-rule="evenodd" clip-rule="evenodd" fill="#162334" d="M231.8,81.5h11.9c0-1.8,0-4.9,0-9.4v-2.9l-0.9-1.4h5.9
							l1.3,1.4l0.2,15.1h-18.3V81.5z"/>
						<rect x="231.8" y="74.1" fill-rule="evenodd" clip-rule="evenodd" fill="#172933" width="10.9" height="6"/>
					</g>
				</g>
				<g>
					<linearGradient id="SVGID_35_" gradientUnits="userSpaceOnUse" x1="237.7202" y1="71.5166" x2="237.6731" y2="73.9917">
						<stop  offset="0" style="stop-color:#018786"/>
						<stop  offset="8.627451e-002" style="stop-color:#FCFFFF"/>
						<stop  offset="0.4" style="stop-color:#315E7B"/>
						<stop  offset="0.6353" style="stop-color:#5A4F4B"/>
						<stop  offset="1" style="stop-color:#000000"/>
					</linearGradient>
					<path fill-rule="evenodd" clip-rule="evenodd" fill="url(#SVGID_35_)" d="M231.8,74.1v-2.6h11.6c0.1,0.8,0.1,1.6,0,2.6H231.8z"
						/>
				</g>
			</g>
			<g>
				<g>
					<rect x="188.6" y="69.9" fill-rule="evenodd" clip-rule="evenodd" width="45.2" height="1.2"/>
				</g>
				<g>
					
						<linearGradient id="SVGID_36_" gradientUnits="userSpaceOnUse" x1="72.1177" y1="-369.7949" x2="98.1081" y2="-369.7949" gradientTransform="matrix(-0.1933 0.9811 -0.9836 -0.1806 -134.6059 -80.3062)">
						<stop  offset="0" style="stop-color:#3C4855"/>
						<stop  offset="1" style="stop-color:#0F141C"/>
					</linearGradient>
					<rect x="188.6" y="70.3" fill-rule="evenodd" clip-rule="evenodd" fill="url(#SVGID_36_)" width="45.2" height="14.7"/>
				</g>
			</g>
			<g>
				<g>
					
						<linearGradient id="SVGID_37_" gradientUnits="userSpaceOnUse" x1="-377.6543" y1="-245.7998" x2="-258.1793" y2="-245.7998" gradientTransform="matrix(-1 0 0 -1 -67.334 -192)">
						<stop  offset="0" style="stop-color:#000000"/>
						<stop  offset="0.4549" style="stop-color:#000000"/>
						<stop  offset="1" style="stop-color:#445D80"/>
					</linearGradient>
					<path fill-rule="evenodd" clip-rule="evenodd" fill="url(#SVGID_37_)" d="M233.7,54.4h-46.6H187c0.2-0.5,0.3-0.8,0.5-1.1h0.1h0
						h0.5h1.8h0.6h0.6h1.3h1h37.4h2.1h0L233.7,54.4z"/>
					
						<linearGradient id="SVGID_38_" gradientUnits="userSpaceOnUse" x1="73.4468" y1="-359.0571" x2="92.6667" y2="-359.0571" gradientTransform="matrix(-0.1345 0.9909 -0.9909 -0.1345 -133.324 -75.5555)">
						<stop  offset="0" style="stop-color:#3C4855"/>
						<stop  offset="1" style="stop-color:#0F141C"/>
					</linearGradient>
					<polygon fill-rule="evenodd" clip-rule="evenodd" fill="url(#SVGID_38_)" points="187.1,54.4 233.7,54.4 233.7,68.3 
						233.7,69.9 187,69.9 187,54.4 					"/>
					<line fill-rule="evenodd" clip-rule="evenodd" fill="none" x1="187.1" y1="54.4" x2="187" y2="54.4"/>
					<line fill-rule="evenodd" clip-rule="evenodd" fill="none" x1="233.7" y1="68.3" x2="234.1" y2="68.3"/>
				</g>
			</g>
			<g>
				<rect x="188.6" y="54.4" fill-rule="evenodd" clip-rule="evenodd" fill="#0C1016" width="0.8" height="15.6"/>
			</g>
			<g>
				<g>
					
						<linearGradient id="SVGID_39_" gradientUnits="userSpaceOnUse" x1="24.939" y1="-342.6797" x2="75.1838" y2="-342.6797" gradientTransform="matrix(-0.2667 0.9638 -0.9797 -0.2091 -136.6998 -83.6216)">
						<stop  offset="0" style="stop-color:#3C4855"/>
						<stop  offset="1" style="stop-color:#0F141C"/>
					</linearGradient>
					<polygon fill-rule="evenodd" clip-rule="evenodd" fill="url(#SVGID_39_)" points="188.3,20.4 188.6,20.7 188.6,69.9 
						177.8,69.9 177.8,20.7 178,20.4 					"/>
				</g>
				<g>
					
						<linearGradient id="SVGID_40_" gradientUnits="userSpaceOnUse" x1="43.1914" y1="-335.4688" x2="73.2727" y2="-335.4688" gradientTransform="matrix(-0.2942 0.9557 -0.988 -0.1895 -138.4188 -82.0126)">
						<stop  offset="0" style="stop-color:#3C4855"/>
						<stop  offset="1" style="stop-color:#0F141C"/>
					</linearGradient>
					<polygon fill-rule="evenodd" clip-rule="evenodd" fill="url(#SVGID_40_)" points="170.7,28 170.8,27.8 177.8,27.8 177.8,57.1 
						170.7,57.1 					"/>
				</g>
			</g>
			<g>
				<g>
					
						<linearGradient id="SVGID_41_" gradientUnits="userSpaceOnUse" x1="-254.0918" y1="-210.125" x2="-246.6418" y2="-210.125" gradientTransform="matrix(-1 0 0 -1 -67.334 -192)">
						<stop  offset="0" style="stop-color:#2E2816"/>
						<stop  offset="9.803922e-002" style="stop-color:#756D39"/>
						<stop  offset="0.2118" style="stop-color:#675C2F"/>
						<stop  offset="0.2588" style="stop-color:#614F27"/>
						<stop  offset="0.4078" style="stop-color:#554622"/>
						<stop  offset="0.5059" style="stop-color:#45391C"/>
						<stop  offset="0.8039" style="stop-color:#D2C098"/>
						<stop  offset="0.9412" style="stop-color:#352C16"/>
						<stop  offset="1" style="stop-color:#5C3816"/>
					</linearGradient>
					<path fill-rule="evenodd" clip-rule="evenodd" fill="url(#SVGID_41_)" d="M186.7,15.6v4.9c-2.5,0.1-5,0.1-7.5,0v-4.9H186.7z"/>
				</g>
				<g>
					<g>
						
							<linearGradient id="SVGID_42_" gradientUnits="userSpaceOnUse" x1="-255.7793" y1="-199.625" x2="-244.7543" y2="-199.625" gradientTransform="matrix(-1 0 0 -1 -67.334 -192)">
							<stop  offset="0" style="stop-color:#515151"/>
							<stop  offset="0.2118" style="stop-color:#1C2524"/>
							<stop  offset="0.4784" style="stop-color:#3F4B61"/>
							<stop  offset="0.7137" style="stop-color:#232A36"/>
							<stop  offset="0.8" style="stop-color:#394657"/>
							<stop  offset="0.8863" style="stop-color:#13161D"/>
							<stop  offset="1" style="stop-color:#000000"/>
						</linearGradient>
						<path fill-rule="evenodd" clip-rule="evenodd" fill="url(#SVGID_42_)" d="M188.4,12.9c-3.8,0.7-7.4,0.7-10.9,0l0-0.1V6.1V5.7
							V1.8c0.2,0,0.8,0.1,1.5,0.2c1.1,0.1,2.4,0.1,3.9,0.1c1.6,0,2.9,0,4-0.1c0.7,0,1.2-0.1,1.4-0.1c0.1,0,0.1-0.1,0.1-0.1v3.9v0.4
							l0.1,1.9v3.9v1H188.4z"/>
						
							<linearGradient id="SVGID_43_" gradientUnits="userSpaceOnUse" x1="-277.4175" y1="-76.6401" x2="-263.329" y2="-76.6401" gradientTransform="matrix(-0.8748 -0.4844 0.4605 -0.8881 -18.9128 -197.565)">
							<stop  offset="0" style="stop-color:#000000"/>
							<stop  offset="0.1294" style="stop-color:#2C2F34"/>
							<stop  offset="0.2118" style="stop-color:#1C2524"/>
							<stop  offset="0.4784" style="stop-color:#3F4B61"/>
							<stop  offset="0.7137" style="stop-color:#232A36"/>
							<stop  offset="0.8" style="stop-color:#394657"/>
							<stop  offset="0.8863" style="stop-color:#13161D"/>
							<stop  offset="1" style="stop-color:#000000"/>
						</linearGradient>
						<path fill-rule="evenodd" clip-rule="evenodd" fill="url(#SVGID_43_)" d="M188.4,1.8c0,0-0.1,0-0.1,0.1
							C188,1.9,187.6,2,186.9,2c-1.1,0.1-2.4,0.1-4,0.1c-1.5,0-2.8,0-3.9-0.1c-0.8-0.1-1.3-0.2-1.5-0.2
							C180.6,1.5,184.2,1.5,188.4,1.8z"/>
						
							<linearGradient id="SVGID_44_" gradientUnits="userSpaceOnUse" x1="-255.8545" y1="-206.8125" x2="-244.8795" y2="-206.8125" gradientTransform="matrix(-1 0 0 -1 -67.334 -192)">
							<stop  offset="0" style="stop-color:#000000"/>
							<stop  offset="0.1294" style="stop-color:#131517"/>
							<stop  offset="0.2118" style="stop-color:#0B0F0E"/>
							<stop  offset="0.4784" style="stop-color:#11151A"/>
							<stop  offset="0.7137" style="stop-color:#0E1114"/>
							<stop  offset="0.8" style="stop-color:#11151A"/>
							<stop  offset="0.8863" style="stop-color:#13161D"/>
							<stop  offset="1" style="stop-color:#000000"/>
						</linearGradient>
						<path fill-rule="evenodd" clip-rule="evenodd" fill="url(#SVGID_44_)" d="M177.5,12.9c3.5,0.7,7.1,0.7,10.9,0l0.1,0.2
							l-1.4,3.3c-2.7,0.5-5.4,0.5-8,0L177.5,12.9z"/>
					</g>
				</g>
			</g>
		</g>
		<g>
			<g>
				<path fill-rule="evenodd" clip-rule="evenodd" fill-opacity="0.8039" d="M187.2,35.8c0,1.2-0.4,2.2-1.3,3
					c-0.9,0.9-1.9,1.4-3.1,1.4s-2.2-0.4-3.1-1.4c-0.8-0.8-1.3-1.8-1.3-3c0-1.2,0.4-2.3,1.3-3.1c0.9-0.8,1.9-1.3,3.1-1.3
					s2.2,0.4,3.1,1.3C186.8,33.5,187.2,34.5,187.2,35.8z"/>
			</g>
			<g>
				
					<linearGradient id="SVGID_45_" gradientUnits="userSpaceOnUse" x1="161.7471" y1="58.127" x2="170.2227" y2="58.127" gradientTransform="matrix(0.9939 -0.1104 0.1104 0.9939 10.3941 -4.3043)">
					<stop  offset="0" style="stop-color:#000000"/>
					<stop  offset="0.549" style="stop-color:#607386"/>
					<stop  offset="1" style="stop-color:#323A41"/>
				</linearGradient>
				<path fill-rule="evenodd" clip-rule="evenodd" fill="url(#SVGID_45_)" d="M187.2,35c0,1.2-0.4,2.2-1.3,3
					c-0.9,0.9-1.9,1.4-3.1,1.4s-2.2-0.4-3.1-1.4c-0.8-0.8-1.3-1.8-1.3-3c0-1.2,0.4-2.3,1.3-3.1c0.9-0.8,1.9-1.3,3.1-1.3
					s2.2,0.4,3.1,1.3C186.8,32.7,187.2,33.8,187.2,35z"/>
			</g>
			<g>
				
					<linearGradient id="SVGID_46_" gradientUnits="userSpaceOnUse" x1="-90.3174" y1="153.0972" x2="-73.5978" y2="153.0972" gradientTransform="matrix(0.3557 -0.9346 0.9346 0.3557 68.0303 -93.3181)">
					<stop  offset="0" style="stop-color:#000000"/>
					<stop  offset="1" style="stop-color:#3F4E5A"/>
				</linearGradient>
				<path fill-rule="evenodd" clip-rule="evenodd" fill="url(#SVGID_46_)" d="M187.2,35.5c0,1.2-0.4,2.2-1.3,3.1
					c-0.9,0.8-1.9,1.3-3.1,1.3s-2.2-0.4-3.1-1.3c-0.8-0.9-1.3-1.9-1.3-3.1c0-1.2,0.4-2.2,1.3-3.1c0.9-0.9,1.9-1.3,3.1-1.3
					s2.2,0.4,3.1,1.3C186.8,33.2,187.2,34.3,187.2,35.5z"/>
			</g>
			<g>
				<linearGradient id="SVGID_47_" gradientUnits="userSpaceOnUse" x1="180.0332" y1="31.5996" x2="185.7332" y2="31.5996">
					<stop  offset="0" style="stop-color:#FFFFFF;stop-opacity:0"/>
					<stop  offset="0.5255" style="stop-color:#FFFFFF;stop-opacity:0.4"/>
					<stop  offset="1" style="stop-color:#F9F9F9;stop-opacity:0"/>
				</linearGradient>
				<path fill-rule="evenodd" clip-rule="evenodd" fill="url(#SVGID_47_)" d="M185.7,32.1L185.7,32.1c-2.1-1.3-4-1.3-5.6,0h0l-0.1,0
					L180,32c1.7-1.3,3.6-1.3,5.7,0h0.1L185.7,32.1z"/>
			</g>
			<g>
				<radialGradient id="SVGID_48_" cx="186.6328" cy="35.5" r="2.375" gradientUnits="userSpaceOnUse">
					<stop  offset="0" style="stop-color:#FFFFFF;stop-opacity:0.5373"/>
					<stop  offset="1" style="stop-color:#FBFBFB;stop-opacity:0"/>
				</radialGradient>
				<path fill-rule="evenodd" clip-rule="evenodd" fill="url(#SVGID_48_)" d="M186.7,33L186.7,33c0.8,1.7,0.8,3.2,0,4.8h-0.1v-0.1
					c0.8-1.5,0.8-3.1,0-4.6v0L186.7,33z"/>
			</g>
		</g>
		<g>
			<g>
				<linearGradient id="SVGID_49_" gradientUnits="userSpaceOnUse" x1="195.6953" y1="57.6504" x2="203.5703" y2="57.6504">
					<stop  offset="0" style="stop-color:#3C4855"/>
					<stop  offset="1" style="stop-color:#0F141C"/>
				</linearGradient>
				<polygon fill-rule="evenodd" clip-rule="evenodd" fill="url(#SVGID_49_)" points="200.9,56.5 198.8,59.1 198.9,58.5 200.7,56.2 
									"/>
				
					<linearGradient id="SVGID_50_" gradientUnits="userSpaceOnUse" x1="158.3965" y1="-303.8477" x2="178.6896" y2="-303.8477" gradientTransform="matrix(0.1956 0.9807 -0.9807 0.1956 -121.226 -44.2034)">
					<stop  offset="0" style="stop-color:#3C4855"/>
					<stop  offset="1" style="stop-color:#0F141C"/>
				</linearGradient>
				<path fill-rule="evenodd" clip-rule="evenodd" fill="url(#SVGID_50_)" d="M210.1,56.5h9.5l2.1,2.5v0c0,0,0,0.1,0.1,0.1h-0.1
					v10.4h-22.8V59.1l2-2.6H210.1z"/>
				<linearGradient id="SVGID_51_" gradientUnits="userSpaceOnUse" x1="198.2329" y1="56.3501" x2="257.4329" y2="56.3501">
					<stop  offset="0" style="stop-color:#3C4855"/>
					<stop  offset="1" style="stop-color:#0F141C"/>
				</linearGradient>
				<polygon fill-rule="evenodd" clip-rule="evenodd" fill="url(#SVGID_51_)" points="210.1,56.2 210.1,56.5 200.9,56.5 200.7,56.2 
									"/>
				
					<linearGradient id="SVGID_52_" gradientUnits="userSpaceOnUse" x1="-289.5669" y1="-248.3501" x2="-230.3669" y2="-248.3501" gradientTransform="matrix(-1 0 0 -1 -67.334 -192)">
					<stop  offset="0" style="stop-color:#3C4855"/>
					<stop  offset="1" style="stop-color:#0F141C"/>
				</linearGradient>
				<polygon fill-rule="evenodd" clip-rule="evenodd" fill="url(#SVGID_52_)" points="219.5,56.5 210.1,56.5 210.1,56.2 219.7,56.2 
					219.6,56.5 				"/>
				<rect x="198.8" y="69.5" fill-rule="evenodd" clip-rule="evenodd" width="22.8" height="0.3"/>
				
					<linearGradient id="SVGID_53_" gradientUnits="userSpaceOnUse" x1="-292.1045" y1="-249.6001" x2="-284.2295" y2="-249.6001" gradientTransform="matrix(-1 0 0 -1 -67.334 -192)">
					<stop  offset="0" style="stop-color:#3C4855"/>
					<stop  offset="1" style="stop-color:#0F141C"/>
				</linearGradient>
				<polygon fill-rule="evenodd" clip-rule="evenodd" fill="url(#SVGID_53_)" points="219.5,56.5 219.6,56.5 219.7,56.2 221.6,58.5 
					221.6,59 				"/>
			</g>
		</g>
		<g>
			<g>
				<radialGradient id="SVGID_54_" cx="218.833" cy="58.6001" r="1.25" gradientUnits="userSpaceOnUse">
					<stop  offset="0" style="stop-color:#000000;stop-opacity:0.1176"/>
					<stop  offset="0.698" style="stop-color:#000000;stop-opacity:0.6314"/>
					<stop  offset="0.9098" style="stop-color:#000000;stop-opacity:0.7294"/>
					<stop  offset="1" style="stop-color:#000000"/>
				</radialGradient>
				<path fill-rule="evenodd" clip-rule="evenodd" fill="url(#SVGID_54_)" d="M217.7,58.6L217.7,58.6c0-0.4,0.1-0.6,0.4-0.9
					c0.2-0.3,0.5-0.4,0.8-0.4c0.3,0,0.6,0.1,0.9,0.4c0.2,0.2,0.4,0.5,0.4,0.8v0c0,0.3-0.1,0.5-0.4,0.8s-0.5,0.4-0.9,0.4
					c-0.3,0-0.6-0.1-0.8-0.4C217.8,59.2,217.7,58.9,217.7,58.6z M218.4,58.4v0.1c0,0.3,0.1,0.3,0.4,0.3v0c0,0.1,0,0.1,0,0.2
					c0,0.2,0.1,0.2,0.3,0c0,0,0.1-0.1,0.1-0.1c0-0.1,0-0.2,0-0.2v-0.1c0.1,0,0.1,0,0.3-0.1v-0.1c0-0.1,0-0.1,0-0.2v0
					c-0.3,0.1-0.4,0-0.4-0.2c-0.1,0-0.2,0-0.4,0v0.1c0,0.1,0,0.1,0,0.1v0C218.6,58.3,218.5,58.4,218.4,58.4z"/>
			</g>
			<g>
				<linearGradient id="SVGID_55_" gradientUnits="userSpaceOnUse" x1="215.8892" y1="55.0181" x2="220.3969" y2="60.2114">
					<stop  offset="0" style="stop-color:#131922"/>
					<stop  offset="1" style="stop-color:#232D3A"/>
				</linearGradient>
				<path fill-rule="evenodd" clip-rule="evenodd" fill="url(#SVGID_55_)" d="M218,58.5c0,0.3,0.1,0.5,0.3,0.6
					c0.2,0.2,0.4,0.3,0.6,0.3c0.2,0,0.4-0.1,0.6-0.3c0.2-0.2,0.3-0.4,0.3-0.6c0-0.2-0.1-0.4-0.3-0.6c-0.2-0.2-0.4-0.3-0.6-0.3
					c-0.3,0-0.5,0.1-0.6,0.3C218.1,58.1,218,58.3,218,58.5z M217.9,59.5c-0.3-0.3-0.4-0.6-0.4-1c0-0.4,0.1-0.8,0.4-1
					c0.3-0.2,0.6-0.4,1-0.4s0.7,0.1,1,0.4c0.3,0.3,0.4,0.6,0.4,1c0,0.4-0.1,0.7-0.4,1c-0.3,0.3-0.6,0.4-1,0.4S218.2,59.8,217.9,59.5
					z"/>
			</g>
		</g>
		<g>
			<g>
				<radialGradient id="SVGID_56_" cx="201.7832" cy="58.5" r="1.25" gradientUnits="userSpaceOnUse">
					<stop  offset="0" style="stop-color:#000000;stop-opacity:0.1176"/>
					<stop  offset="0.698" style="stop-color:#000000;stop-opacity:0.6314"/>
					<stop  offset="0.9098" style="stop-color:#000000;stop-opacity:0.7294"/>
					<stop  offset="1" style="stop-color:#000000"/>
				</radialGradient>
				<path fill-rule="evenodd" clip-rule="evenodd" fill="url(#SVGID_56_)" d="M201.8,57.4c0.3,0,0.6,0.1,0.8,0.4
					c0.2,0.2,0.3,0.5,0.3,0.8v0c0,0.3-0.1,0.6-0.3,0.8c-0.2,0.3-0.5,0.4-0.8,0.4c-0.3,0-0.6-0.1-0.8-0.4c-0.2-0.2-0.4-0.4-0.4-0.8v0
					c0-0.3,0.1-0.6,0.4-0.8C201.2,57.5,201.4,57.4,201.8,57.4z M201.7,58c0,0.1,0,0.1-0.1,0.1v0.1c-0.1,0-0.2,0-0.3,0v0.1
					c0,0.3,0.1,0.4,0.4,0.3v0c0,0.1,0,0.1,0,0.2c0,0.2,0.1,0.2,0.3,0c0,0,0-0.1,0-0.1c0-0.1,0-0.2,0-0.2v-0.1c0.1,0,0.2,0,0.3-0.1
					v-0.1c0-0.1,0-0.1,0-0.1c-0.3,0-0.4-0.1-0.3-0.3C201.9,58,201.8,58,201.7,58L201.7,58z"/>
			</g>
			<g>
				<linearGradient id="SVGID_57_" gradientUnits="userSpaceOnUse" x1="198.8516" y1="54.958" x2="203.3593" y2="60.1513">
					<stop  offset="0" style="stop-color:#131922"/>
					<stop  offset="1" style="stop-color:#232D3A"/>
				</linearGradient>
				<path fill-rule="evenodd" clip-rule="evenodd" fill="url(#SVGID_57_)" d="M201.2,57.8c-0.2,0.2-0.3,0.4-0.3,0.7
					c0,0.3,0.1,0.5,0.3,0.6c0.2,0.2,0.4,0.3,0.6,0.3c0.2,0,0.5-0.1,0.7-0.3c0.2-0.2,0.3-0.4,0.3-0.6c0-0.2-0.1-0.5-0.3-0.7
					c-0.2-0.2-0.4-0.3-0.7-0.3C201.6,57.5,201.4,57.6,201.2,57.8z M201.9,57c0.4,0,0.7,0.1,1,0.4c0.3,0.3,0.5,0.6,0.5,1.1
					c0,0.4-0.2,0.7-0.5,1c-0.3,0.3-0.6,0.4-1,0.4c-0.4,0-0.7-0.1-1-0.4c-0.3-0.3-0.4-0.6-0.4-1c0-0.4,0.1-0.8,0.4-1.1
					C201.1,57.2,201.5,57,201.9,57z"/>
			</g>
		</g>
		<g>
			<g>
				<path fill-rule="evenodd" clip-rule="evenodd" fill-opacity="0.8039" d="M208,76c0.7-0.7,1.6-1.1,2.6-1.1c1,0,1.9,0.4,2.7,1.1
					c0.7,0.7,1.1,1.5,1.1,2.6c0,1-0.4,1.9-1.1,2.6c-0.7,0.8-1.6,1.1-2.7,1.1c-1,0-1.9-0.4-2.6-1.1c-0.7-0.7-1.1-1.6-1.1-2.6
					C206.9,77.6,207.2,76.7,208,76z"/>
			</g>
			<g>
				
					<linearGradient id="SVGID_58_" gradientUnits="userSpaceOnUse" x1="185.627" y1="103.6553" x2="192.8437" y2="103.6553" gradientTransform="matrix(0.994 -0.1093 0.1093 0.994 10.2897 -4.254)">
					<stop  offset="0" style="stop-color:#000000"/>
					<stop  offset="0.549" style="stop-color:#607386"/>
					<stop  offset="1" style="stop-color:#323A41"/>
				</linearGradient>
				<path fill-rule="evenodd" clip-rule="evenodd" fill="url(#SVGID_58_)" d="M208,75.4c0.7-0.7,1.6-1.1,2.6-1.1
					c1,0,1.9,0.4,2.7,1.1c0.7,0.7,1.1,1.6,1.1,2.6c0,1-0.4,1.9-1.1,2.6c-0.7,0.7-1.6,1.1-2.7,1.1c-1,0-1.9-0.4-2.6-1.1
					s-1.1-1.6-1.1-2.6C206.9,77,207.2,76.1,208,75.4z"/>
			</g>
			<g>
				
					<linearGradient id="SVGID_59_" gradientUnits="userSpaceOnUse" x1="-119.2202" y1="194.2744" x2="-104.9937" y2="194.2744" gradientTransform="matrix(0.3547 -0.935 0.935 0.3547 68.0324 -93.425)">
					<stop  offset="0" style="stop-color:#000000"/>
					<stop  offset="1" style="stop-color:#3F4E5A"/>
				</linearGradient>
				<path fill-rule="evenodd" clip-rule="evenodd" fill="url(#SVGID_59_)" d="M208,75.8c0.7-0.7,1.6-1.1,2.6-1.1
					c1,0,1.9,0.4,2.7,1.1c0.7,0.7,1.1,1.6,1.1,2.6s-0.4,1.9-1.1,2.6c-0.7,0.7-1.6,1.1-2.7,1.1c-1,0-1.9-0.4-2.6-1.1
					c-0.7-0.7-1.1-1.6-1.1-2.6S207.2,76.5,208,75.8z"/>
			</g>
			<g>
				<linearGradient id="SVGID_60_" gradientUnits="userSpaceOnUse" x1="208.1953" y1="75.0996" x2="213.0703" y2="75.0996">
					<stop  offset="0" style="stop-color:#FFFFFF;stop-opacity:0"/>
					<stop  offset="0.5255" style="stop-color:#FFFFFF;stop-opacity:0.4"/>
					<stop  offset="1" style="stop-color:#F9F9F9;stop-opacity:0"/>
				</linearGradient>
				<path fill-rule="evenodd" clip-rule="evenodd" fill="url(#SVGID_60_)" d="M208.2,75.5c1.4-1.1,3.1-1.1,4.9,0h0l0,0.1h0
					C211.3,74.4,209.7,74.4,208.2,75.5L208.2,75.5L208.2,75.5z"/>
			</g>
			<g>
				<radialGradient id="SVGID_61_" cx="213.833" cy="78.4502" r="2.025" gradientUnits="userSpaceOnUse">
					<stop  offset="0" style="stop-color:#FFFFFF;stop-opacity:0.5373"/>
					<stop  offset="1" style="stop-color:#FBFBFB;stop-opacity:0"/>
				</radialGradient>
				<path fill-rule="evenodd" clip-rule="evenodd" fill="url(#SVGID_61_)" d="M213.9,76.3L213.9,76.3c0.7,1.5,0.7,2.8,0,4.1v0.1
					l0-0.1v0c0.7-1.3,0.7-2.6,0-4L213.9,76.3L213.9,76.3z"/>
			</g>
		</g>
		<g>
			<g>
				<linearGradient id="SVGID_62_" gradientUnits="userSpaceOnUse" x1="205.5957" y1="63.1504" x2="214.4707" y2="63.1504">
					<stop  offset="0" style="stop-color:#717C87"/>
					<stop  offset="0.4863" style="stop-color:#D6D9DC"/>
					<stop  offset="1" style="stop-color:#464953"/>
				</linearGradient>
				<path fill-rule="evenodd" clip-rule="evenodd" fill="url(#SVGID_62_)" d="M214.5,63.1c0,1.2-0.5,2.3-1.4,3.1
					c-0.8,0.9-1.9,1.4-3.1,1.4c-1.2,0-2.2-0.5-3.1-1.4c-0.9-0.8-1.3-1.9-1.3-3.1s0.4-2.3,1.3-3.1s1.9-1.3,3.1-1.3
					c1.3,0,2.3,0.4,3.1,1.3C214.1,60.9,214.5,61.9,214.5,63.1z"/>
			</g>
			<g>
				<linearGradient id="SVGID_63_" gradientUnits="userSpaceOnUse" x1="213.0977" y1="59.0654" x2="206.4235" y2="69.041">
					<stop  offset="0" style="stop-color:#758793"/>
					<stop  offset="8.627451e-002" style="stop-color:#A8C1D5"/>
					<stop  offset="0.1961" style="stop-color:#FFFFFF"/>
					<stop  offset="0.3843" style="stop-color:#9FB1BD"/>
					<stop  offset="0.8471" style="stop-color:#363741"/>
					<stop  offset="1" style="stop-color:#8A7D89"/>
				</linearGradient>
				<path fill-rule="evenodd" clip-rule="evenodd" fill="url(#SVGID_63_)" d="M213.2,60.5c0.9,0.9,1.4,1.9,1.4,3.1
					c0,1.2-0.5,2.3-1.4,3.1c-0.8,0.9-1.9,1.3-3.1,1.3c-1.2,0-2.2-0.4-3.1-1.3c-0.9-0.9-1.3-2-1.3-3.1c0-1.2,0.4-2.3,1.3-3.1
					c0.9-0.9,1.9-1.4,3.1-1.4C211.3,59.1,212.3,59.5,213.2,60.5z"/>
			</g>
			<g>
				<path fill-rule="evenodd" clip-rule="evenodd" fill="#3A3D45" d="M212.5,63.7c0,0.7-0.2,1.2-0.7,1.7c-0.5,0.5-1.1,0.7-1.8,0.7
					c-0.7,0-1.2-0.2-1.7-0.7c-0.5-0.5-0.8-1-0.8-1.7c0-0.7,0.3-1.3,0.8-1.8c0.5-0.5,1-0.7,1.7-0.7c0.7,0,1.3,0.2,1.8,0.7
					C212.2,62.4,212.5,63,212.5,63.7z"/>
			</g>
			<g>
				<linearGradient id="SVGID_64_" gradientUnits="userSpaceOnUse" x1="212.1885" y1="60.3291" x2="207.5065" y2="67.3245">
					<stop  offset="0" style="stop-color:#758793"/>
					<stop  offset="8.627451e-002" style="stop-color:#A8C1D5"/>
					<stop  offset="0.1961" style="stop-color:#FFFFFF"/>
					<stop  offset="0.3843" style="stop-color:#9FB1BD"/>
					<stop  offset="0.8471" style="stop-color:#363741"/>
					<stop  offset="1" style="stop-color:#8A7D89"/>
				</linearGradient>
				<path fill-rule="evenodd" clip-rule="evenodd" fill="url(#SVGID_64_)" d="M212.5,63.5c0,0.7-0.2,1.2-0.7,1.7
					c-0.5,0.5-1.1,0.8-1.8,0.8c-0.7,0-1.2-0.3-1.7-0.8c-0.5-0.5-0.8-1-0.8-1.7c0-0.7,0.3-1.2,0.8-1.7c0.5-0.5,1-0.8,1.7-0.8
					c0.7,0,1.3,0.3,1.8,0.8C212.2,62.3,212.5,62.9,212.5,63.5z"/>
			</g>
		</g>
	</g>
</g>
</svg>
