<?xml version="1.0" encoding="utf-8"?>
<!-- Generator: Adobe Illustrator 16.0.0, SVG Export Plug-In . SVG Version: 6.00 Build 0)  -->
<!DOCTYPE svg PUBLIC "-//W3C//DTD SVG 1.1//EN" "http://www.w3.org/Graphics/SVG/1.1/DTD/svg11.dtd">
<svg version="1.1" id="Layer_1" xmlns="http://www.w3.org/2000/svg" xmlns:xlink="http://www.w3.org/1999/xlink" x="0px" y="0px"
	 width="94.8px" height="31px" viewBox="28.2 46.1 94.8 31" enable-background="new 28.2 46.1 94.8 31" xml:space="preserve">
<g>
	<g>
		
			<linearGradient id="SVGID_1_" gradientUnits="userSpaceOnUse" x1="-693.1284" y1="1319.0635" x2="-693.1284" y2="1367.4635" gradientTransform="matrix(0.6476 0 0 -0.6476 524.4562 931.5244)">
			<stop  offset="0" style="stop-color:#857985"/>
			<stop  offset="7.843138e-002" style="stop-color:#595B6A"/>
			<stop  offset="0.3922" style="stop-color:#B0BEC8"/>
			<stop  offset="0.7216" style="stop-color:#FFFFFF"/>
			<stop  offset="1" style="stop-color:#7F919E"/>
		</linearGradient>
		<polygon fill="url(#SVGID_1_)" points="123,46.1 123,77.1 28.2,77.1 28.2,61.2 28.2,46.1 		"/>
	</g>
</g>
<g>
	
		<line fill="none" stroke="#333333" stroke-width="0.25" stroke-linecap="round" stroke-linejoin="round" stroke-miterlimit="3" x1="33.4" y1="58.1" x2="33.4" y2="62.5"/>
	
		<line fill="none" stroke="#333333" stroke-width="0.25" stroke-linecap="round" stroke-linejoin="round" stroke-miterlimit="3" x1="35.7" y1="58.1" x2="35.7" y2="60.8"/>
	
		<line fill="none" stroke="#333333" stroke-width="0.25" stroke-linecap="round" stroke-linejoin="round" stroke-miterlimit="3" x1="121.2" y1="58.1" x2="31.5" y2="58.1"/>
	
		<line fill="none" stroke="#333333" stroke-width="0.25" stroke-linecap="round" stroke-linejoin="round" stroke-miterlimit="3" x1="38.1" y1="58.1" x2="38.1" y2="62.5"/>
	
		<line fill="none" stroke="#333333" stroke-width="0.25" stroke-linecap="round" stroke-linejoin="round" stroke-miterlimit="3" x1="40.5" y1="58.1" x2="40.5" y2="60.8"/>
	
		<line fill="none" stroke="#333333" stroke-width="0.25" stroke-linecap="round" stroke-linejoin="round" stroke-miterlimit="3" x1="42.8" y1="58.1" x2="42.8" y2="62.5"/>
	
		<line fill="none" stroke="#333333" stroke-width="0.25" stroke-linecap="round" stroke-linejoin="round" stroke-miterlimit="3" x1="45.2" y1="58.1" x2="45.2" y2="60.8"/>
	
		<line fill="none" stroke="#333333" stroke-width="0.25" stroke-linecap="round" stroke-linejoin="round" stroke-miterlimit="3" x1="47.6" y1="58.1" x2="47.6" y2="62.5"/>
	
		<line fill="none" stroke="#333333" stroke-width="0.25" stroke-linecap="round" stroke-linejoin="round" stroke-miterlimit="3" x1="49.9" y1="58.1" x2="49.9" y2="60.8"/>
	
		<line fill="none" stroke="#333333" stroke-width="0.25" stroke-linecap="round" stroke-linejoin="round" stroke-miterlimit="3" x1="52.3" y1="58.1" x2="52.3" y2="62.5"/>
	
		<line fill="none" stroke="#333333" stroke-width="0.25" stroke-linecap="round" stroke-linejoin="round" stroke-miterlimit="3" x1="54.6" y1="58.1" x2="54.6" y2="60.8"/>
	
		<line fill="none" stroke="#333333" stroke-width="0.25" stroke-linecap="round" stroke-linejoin="round" stroke-miterlimit="3" x1="57" y1="58.1" x2="57" y2="62.5"/>
	
		<line fill="none" stroke="#333333" stroke-width="0.25" stroke-linecap="round" stroke-linejoin="round" stroke-miterlimit="3" x1="59.4" y1="58.1" x2="59.4" y2="60.8"/>
	
		<line fill="none" stroke="#333333" stroke-width="0.25" stroke-linecap="round" stroke-linejoin="round" stroke-miterlimit="3" x1="61.7" y1="58.1" x2="61.7" y2="62.5"/>
	
		<line fill="none" stroke="#333333" stroke-width="0.25" stroke-linecap="round" stroke-linejoin="round" stroke-miterlimit="3" x1="64.1" y1="58.1" x2="64.1" y2="60.8"/>
	
		<line fill="none" stroke="#333333" stroke-width="0.25" stroke-linecap="round" stroke-linejoin="round" stroke-miterlimit="3" x1="66.5" y1="58.1" x2="66.5" y2="62.5"/>
	
		<line fill="none" stroke="#333333" stroke-width="0.25" stroke-linecap="round" stroke-linejoin="round" stroke-miterlimit="3" x1="68.8" y1="58.1" x2="68.8" y2="60.8"/>
	
		<line fill="none" stroke="#333333" stroke-width="0.25" stroke-linecap="round" stroke-linejoin="round" stroke-miterlimit="3" x1="71.2" y1="58.1" x2="71.2" y2="62.5"/>
	
		<line fill="none" stroke="#333333" stroke-width="0.25" stroke-linecap="round" stroke-linejoin="round" stroke-miterlimit="3" x1="73.6" y1="58.1" x2="73.6" y2="60.8"/>
	
		<line fill="none" stroke="#333333" stroke-width="0.25" stroke-linecap="round" stroke-linejoin="round" stroke-miterlimit="3" x1="75.9" y1="58.1" x2="75.9" y2="62.5"/>
	
		<line fill="none" stroke="#333333" stroke-width="0.25" stroke-linecap="round" stroke-linejoin="round" stroke-miterlimit="3" x1="78.3" y1="58.1" x2="78.3" y2="60.8"/>
	
		<line fill="none" stroke="#333333" stroke-width="0.25" stroke-linecap="round" stroke-linejoin="round" stroke-miterlimit="3" x1="80.6" y1="58.1" x2="80.6" y2="62.5"/>
	
		<line fill="none" stroke="#333333" stroke-width="0.25" stroke-linecap="round" stroke-linejoin="round" stroke-miterlimit="3" x1="83" y1="58.1" x2="83" y2="60.8"/>
	
		<line fill="none" stroke="#333333" stroke-width="0.25" stroke-linecap="round" stroke-linejoin="round" stroke-miterlimit="3" x1="85.4" y1="58.1" x2="85.4" y2="62.5"/>
	
		<line fill="none" stroke="#333333" stroke-width="0.25" stroke-linecap="round" stroke-linejoin="round" stroke-miterlimit="3" x1="87.7" y1="58.1" x2="87.7" y2="60.8"/>
	
		<line fill="none" stroke="#333333" stroke-width="0.25" stroke-linecap="round" stroke-linejoin="round" stroke-miterlimit="3" x1="90.1" y1="58.1" x2="90.1" y2="62.5"/>
	
		<line fill="none" stroke="#333333" stroke-width="0.25" stroke-linecap="round" stroke-linejoin="round" stroke-miterlimit="3" x1="92.5" y1="58.1" x2="92.5" y2="60.8"/>
	
		<line fill="none" stroke="#333333" stroke-width="0.25" stroke-linecap="round" stroke-linejoin="round" stroke-miterlimit="3" x1="94.8" y1="58.1" x2="94.8" y2="62.5"/>
	
		<line fill="none" stroke="#333333" stroke-width="0.25" stroke-linecap="round" stroke-linejoin="round" stroke-miterlimit="3" x1="97.2" y1="58.1" x2="97.2" y2="60.8"/>
	
		<line fill="none" stroke="#333333" stroke-width="0.25" stroke-linecap="round" stroke-linejoin="round" stroke-miterlimit="3" x1="99.6" y1="58.1" x2="99.6" y2="62.5"/>
	
		<line fill="none" stroke="#333333" stroke-width="0.25" stroke-linecap="round" stroke-linejoin="round" stroke-miterlimit="3" x1="101.9" y1="58.1" x2="101.9" y2="60.8"/>
	
		<line fill="none" stroke="#333333" stroke-width="0.25" stroke-linecap="round" stroke-linejoin="round" stroke-miterlimit="3" x1="104.3" y1="58.1" x2="104.3" y2="62.5"/>
	
		<line fill="none" stroke="#333333" stroke-width="0.25" stroke-linecap="round" stroke-linejoin="round" stroke-miterlimit="3" x1="106.6" y1="58.1" x2="106.6" y2="60.8"/>
	
		<line fill="none" stroke="#333333" stroke-width="0.25" stroke-linecap="round" stroke-linejoin="round" stroke-miterlimit="3" x1="109" y1="58.1" x2="109" y2="62.5"/>
	
		<line fill="none" stroke="#333333" stroke-width="0.25" stroke-linecap="round" stroke-linejoin="round" stroke-miterlimit="3" x1="111.4" y1="58.1" x2="111.4" y2="60.8"/>
	
		<line fill="none" stroke="#333333" stroke-width="0.25" stroke-linecap="round" stroke-linejoin="round" stroke-miterlimit="3" x1="113.7" y1="58.1" x2="113.7" y2="62.5"/>
	
		<line fill="none" stroke="#333333" stroke-width="0.25" stroke-linecap="round" stroke-linejoin="round" stroke-miterlimit="3" x1="116.1" y1="58.1" x2="116.1" y2="60.8"/>
	
		<line fill="none" stroke="#333333" stroke-width="0.25" stroke-linecap="round" stroke-linejoin="round" stroke-miterlimit="3" x1="118.5" y1="58.1" x2="118.5" y2="62.5"/>
</g>
<g>
	<text transform="matrix(1 0 0 1 32.1494 66.5)" fill="#282828" font-family="'Verdana'" font-size="3.6563">0</text>
	<text transform="matrix(1 0 0 1 36.7998 66.5)" fill="#282828" font-family="'Verdana'" font-size="3.6563">1</text>
	<text transform="matrix(1 0 0 1 41.6494 66.5)" fill="#282828" font-family="'Verdana'" font-size="3.6563">2</text>
	<text transform="matrix(1 0 0 1 46.3496 66.5)" fill="#282828" font-family="'Verdana'" font-size="3.6563">3</text>
	<text transform="matrix(1 0 0 1 50.75 66.5)" fill="#282828" font-family="'Verdana'" font-size="3.6563">4</text>
	<text transform="matrix(1 0 0 1 55.6992 66.5)" fill="#282828" font-family="'Verdana'" font-size="3.6563">5</text>
	<text transform="matrix(1 0 0 1 59.75 66.5)" fill="#282828" font-family="'Verdana'" font-size="3.6563">6</text>
	<text transform="matrix(1 0 0 1 65.0996 66.5)" fill="#282828" font-family="'Verdana'" font-size="3.6563">7</text>
	<text transform="matrix(1 0 0 1 70 66.5)" fill="#282828" font-family="'Verdana'" font-size="3.6563">8</text>
	<text transform="matrix(1 0 0 1 74.8496 66.5)" fill="#282828" font-family="'Verdana'" font-size="3.6563">9</text>
	<text transform="matrix(1 0 0 1 78.5498 66.5)" fill="#282828" font-family="'Verdana'" font-size="3.6563">10</text>
	<text transform="matrix(1 0 0 1 83.4492 66.5)" fill="#282828" font-family="'Verdana'" font-size="3.6563">11</text>
	<text transform="matrix(1 0 0 1 87.8486 66.5)" fill="#282828" font-family="'Verdana'" font-size="3.6563">12</text>
	<text transform="matrix(1 0 0 1 92.5996 66.5)" fill="#282828" font-family="'Verdana'" font-size="3.6563">13</text>
	<text transform="matrix(1 0 0 1 97.499 66.5)" fill="#282828" font-family="'Verdana'" font-size="3.6563">14</text>
	<text transform="matrix(1 0 0 1 101.8994 66.5)" fill="#282828" font-family="'Verdana'" font-size="3.6563">15</text>
	<text transform="matrix(1 0 0 1 106.7998 66.5)" fill="#282828" font-family="'Verdana'" font-size="3.6563">16</text>
	<text transform="matrix(1 0 0 1 111.6494 66.5)" fill="#282828" font-family="'Verdana'" font-size="3.6563">17</text>
	<text transform="matrix(1 0 0 1 116.3994 66.5)" fill="#282828" font-family="'Verdana'" font-size="3.6563">18</text>
</g>
</svg>
